<?xml version="1.0" encoding="UTF-8" standalone="no"?>
<!DOCTYPE svg PUBLIC "-//W3C//DTD SVG 1.1//EN"
 "http://www.w3.org/Graphics/SVG/1.1/DTD/svg11.dtd">
<!-- Generated by graphviz version 2.40.1 (20161225.0304)
 -->
<!-- Title: dependencies Pages: 1 -->
<svg width="1540pt" height="284pt"
 viewBox="0.00 0.00 1540.00 284.00" xmlns="http://www.w3.org/2000/svg" xmlns:xlink="http://www.w3.org/1999/xlink">
<g id="graph0" class="graph" transform="scale(1 1) rotate(0) translate(4 280)">
<title>dependencies</title>
<polygon fill="#ffffff" stroke="transparent" points="-4,4 -4,-280 1536,-280 1536,4 -4,4"/>
<text text-anchor="start" x="745.0091" y="-42.4" font-family="sans-serif" font-weight="bold" font-size="14.00" fill="#000000">Legend</text>
<polygon fill="#ffffb3" stroke="transparent" points="532,-10 532,-30 552,-30 552,-10 532,-10"/>
<text text-anchor="start" x="555.629" y="-15.4" font-family="sans-serif" font-size="14.00" fill="#000000"> &#160;Declarations</text>
<polygon fill="#8dd3c7" stroke="transparent" points="645,-10 645,-30 665,-30 665,-10 645,-10"/>
<text text-anchor="start" x="668.7251" y="-15.4" font-family="sans-serif" font-size="14.00" fill="#000000"> &#160;Module</text>
<polygon fill="#80b1d3" stroke="transparent" points="731,-10 731,-30 751,-30 751,-10 731,-10"/>
<text text-anchor="start" x="754.7812" y="-15.4" font-family="sans-serif" font-size="14.00" fill="#000000"> &#160;Bootstrap</text>
<polygon fill="#fdb462" stroke="transparent" points="828,-10 828,-30 848,-30 848,-10 828,-10"/>
<text text-anchor="start" x="851.6732" y="-15.4" font-family="sans-serif" font-size="14.00" fill="#000000"> &#160;Providers</text>
<polygon fill="#fb8072" stroke="transparent" points="924,-10 924,-30 944,-30 944,-10 924,-10"/>
<text text-anchor="start" x="947.7258" y="-15.4" font-family="sans-serif" font-size="14.00" fill="#000000"> &#160;Exports</text>
<g id="clust1" class="cluster">
<title>cluster_TranslationsModule</title>
<polygon fill="none" stroke="#000000" stroke-dasharray="1,5" points="8,-70 8,-268 1524,-268 1524,-70 8,-70"/>
</g>
<g id="clust2" class="cluster">
<title>cluster_TranslationsModule_declarations</title>
<polygon fill="none" stroke="#000000" points="734,-78 734,-130 1516,-130 1516,-78 734,-78"/>
</g>
<g id="clust7" class="cluster">
<title>cluster_TranslationsModule_imports</title>
<polygon fill="none" stroke="#000000" points="216,-78 216,-130 726,-130 726,-78 216,-78"/>
</g>
<g id="clust8" class="cluster">
<title>cluster_TranslationsModule_exports</title>
<polygon fill="none" stroke="#000000" points="562,-208 562,-260 732,-260 732,-208 562,-208"/>
</g>
<g id="clust10" class="cluster">
<title>cluster_TranslationsModule_providers</title>
<polygon fill="none" stroke="#000000" points="16,-78 16,-130 208,-130 208,-78 16,-78"/>
</g>
<!-- TranslationsComponent -->
<g id="node1" class="node">
<title>TranslationsComponent</title>
<polygon fill="#ffffb3" stroke="#000000" points="1508.0365,-122 1357.9635,-122 1357.9635,-86 1508.0365,-86 1508.0365,-122"/>
<text text-anchor="middle" x="1433" y="-99.8" font-family="Times,serif" font-size="14.00" fill="#000000">TranslationsComponent</text>
</g>
<!-- TranslationsModule -->
<g id="node5" class="node">
<title>TranslationsModule</title>
<polygon fill="#8dd3c7" stroke="#000000" points="711.2534,-187 708.2534,-191 687.2534,-191 684.2534,-187 582.7466,-187 582.7466,-151 711.2534,-151 711.2534,-187"/>
<text text-anchor="middle" x="647" y="-164.8" font-family="Times,serif" font-size="14.00" fill="#000000">TranslationsModule</text>
</g>
<!-- TranslationsComponent&#45;&gt;TranslationsModule -->
<g id="edge1" class="edge">
<title>TranslationsComponent&#45;&gt;TranslationsModule</title>
<path fill="none" stroke="#000000" d="M1433,-122.0109C1433,-144.4852 1433,-180 1433,-180 1433,-180 721.3217,-180 721.3217,-180"/>
<polygon fill="#000000" stroke="#000000" points="721.3217,-176.5001 711.3217,-180 721.3216,-183.5001 721.3217,-176.5001"/>
</g>
<!-- TranslationsItemComponent -->
<g id="node2" class="node">
<title>TranslationsItemComponent</title>
<polygon fill="#ffffb3" stroke="#000000" points="1340.1923,-122 1163.8077,-122 1163.8077,-86 1340.1923,-86 1340.1923,-122"/>
<text text-anchor="middle" x="1252" y="-99.8" font-family="Times,serif" font-size="14.00" fill="#000000">TranslationsItemComponent</text>
</g>
<!-- TranslationsItemComponent&#45;&gt;TranslationsModule -->
<g id="edge2" class="edge">
<title>TranslationsItemComponent&#45;&gt;TranslationsModule</title>
<path fill="none" stroke="#000000" d="M1252,-122.1289C1252,-142.5724 1252,-173 1252,-173 1252,-173 721.459,-173 721.459,-173"/>
<polygon fill="#000000" stroke="#000000" points="721.459,-169.5001 711.459,-173 721.4589,-176.5001 721.459,-169.5001"/>
</g>
<!-- TranslationsOverviewComponent -->
<g id="node3" class="node">
<title>TranslationsOverviewComponent</title>
<polygon fill="#ffffb3" stroke="#000000" points="1145.7296,-122 940.2704,-122 940.2704,-86 1145.7296,-86 1145.7296,-122"/>
<text text-anchor="middle" x="1043" y="-99.8" font-family="Times,serif" font-size="14.00" fill="#000000">TranslationsOverviewComponent</text>
</g>
<!-- TranslationsOverviewComponent&#45;&gt;TranslationsModule -->
<g id="edge3" class="edge">
<title>TranslationsOverviewComponent&#45;&gt;TranslationsModule</title>
<path fill="none" stroke="#000000" d="M1043,-122.2667C1043,-140.5552 1043,-166 1043,-166 1043,-166 721.5056,-166 721.5056,-166"/>
<polygon fill="#000000" stroke="#000000" points="721.5056,-162.5001 711.5056,-166 721.5056,-169.5001 721.5056,-162.5001"/>
</g>
<!-- TranslationsViewComponent -->
<g id="node4" class="node">
<title>TranslationsViewComponent</title>
<polygon fill="#ffffb3" stroke="#000000" points="922.3543,-122 741.6457,-122 741.6457,-86 922.3543,-86 922.3543,-122"/>
<text text-anchor="middle" x="832" y="-99.8" font-family="Times,serif" font-size="14.00" fill="#000000">TranslationsViewComponent</text>
</g>
<!-- TranslationsViewComponent&#45;&gt;TranslationsModule -->
<g id="edge4" class="edge">
<title>TranslationsViewComponent&#45;&gt;TranslationsModule</title>
<path fill="none" stroke="#000000" d="M832,-122.0091C832,-138.0494 832,-159 832,-159 832,-159 721.4443,-159 721.4443,-159"/>
<polygon fill="#000000" stroke="#000000" points="721.4444,-155.5001 711.4443,-159 721.4443,-162.5001 721.4444,-155.5001"/>
</g>
<!-- TranslationsComponent  -->
<g id="node10" class="node">
<title>TranslationsComponent </title>
<polygon fill="#fb8072" stroke="#000000" points="724.0358,-252 569.9642,-252 569.9642,-216 724.0358,-216 724.0358,-252"/>
<text text-anchor="middle" x="647" y="-229.8" font-family="Times,serif" font-size="14.00" fill="#000000">TranslationsComponent </text>
</g>
<!-- TranslationsModule&#45;&gt;TranslationsComponent  -->
<g id="edge9" class="edge">
<title>TranslationsModule&#45;&gt;TranslationsComponent </title>
<path fill="none" stroke="#000000" stroke-dasharray="5,2" d="M647,-187.1061C647,-187.1061 647,-205.991 647,-205.991"/>
<polygon fill="#000000" stroke="#000000" points="643.5001,-205.9909 647,-215.991 650.5001,-205.991 643.5001,-205.9909"/>
</g>
<!-- FormElementsModule -->
<g id="node6" class="node">
<title>FormElementsModule</title>
<polygon fill="#8dd3c7" stroke="#000000" points="717.9818,-122 714.9818,-126 693.9818,-126 690.9818,-122 576.0182,-122 576.0182,-86 717.9818,-86 717.9818,-122"/>
<text text-anchor="middle" x="647" y="-99.8" font-family="Times,serif" font-size="14.00" fill="#000000">FormElementsModule</text>
</g>
<!-- FormElementsModule&#45;&gt;TranslationsModule -->
<g id="edge5" class="edge">
<title>FormElementsModule&#45;&gt;TranslationsModule</title>
<path fill="none" stroke="#000000" d="M647,-122.1061C647,-122.1061 647,-140.991 647,-140.991"/>
<polygon fill="#000000" stroke="#000000" points="643.5001,-140.9909 647,-150.991 650.5001,-140.991 643.5001,-140.9909"/>
</g>
<!-- HeadlinesModule -->
<g id="node7" class="node">
<title>HeadlinesModule</title>
<polygon fill="#8dd3c7" stroke="#000000" points="557.527,-122 554.527,-126 533.527,-126 530.527,-122 442.473,-122 442.473,-86 557.527,-86 557.527,-122"/>
<text text-anchor="middle" x="500" y="-99.8" font-family="Times,serif" font-size="14.00" fill="#000000">HeadlinesModule</text>
</g>
<!-- HeadlinesModule&#45;&gt;TranslationsModule -->
<g id="edge6" class="edge">
<title>HeadlinesModule&#45;&gt;TranslationsModule</title>
<path fill="none" stroke="#000000" d="M500,-122.0091C500,-138.0494 500,-159 500,-159 500,-159 572.5237,-159 572.5237,-159"/>
<polygon fill="#000000" stroke="#000000" points="572.5237,-162.5001 582.5237,-159 572.5236,-155.5001 572.5237,-162.5001"/>
</g>
<!-- IconModule -->
<g id="node8" class="node">
<title>IconModule</title>
<polygon fill="#8dd3c7" stroke="#000000" points="424.4261,-122 421.4261,-126 400.4261,-126 397.4261,-122 339.5739,-122 339.5739,-86 424.4261,-86 424.4261,-122"/>
<text text-anchor="middle" x="382" y="-99.8" font-family="Times,serif" font-size="14.00" fill="#000000">IconModule</text>
</g>
<!-- IconModule&#45;&gt;TranslationsModule -->
<g id="edge7" class="edge">
<title>IconModule&#45;&gt;TranslationsModule</title>
<path fill="none" stroke="#000000" d="M382,-122.2667C382,-140.5552 382,-166 382,-166 382,-166 572.5126,-166 572.5126,-166"/>
<polygon fill="#000000" stroke="#000000" points="572.5126,-169.5001 582.5126,-166 572.5125,-162.5001 572.5126,-169.5001"/>
</g>
<!-- SharedModule -->
<g id="node9" class="node">
<title>SharedModule</title>
<polygon fill="#8dd3c7" stroke="#000000" points="322.4231,-122 319.4231,-126 298.4231,-126 295.4231,-122 223.5769,-122 223.5769,-86 322.4231,-86 322.4231,-122"/>
<text text-anchor="middle" x="273" y="-99.8" font-family="Times,serif" font-size="14.00" fill="#000000">SharedModule</text>
</g>
<!-- SharedModule&#45;&gt;TranslationsModule -->
<g id="edge8" class="edge">
<title>SharedModule&#45;&gt;TranslationsModule</title>
<path fill="none" stroke="#000000" d="M273,-122.1289C273,-142.5724 273,-173 273,-173 273,-173 572.7071,-173 572.7071,-173"/>
<polygon fill="#000000" stroke="#000000" points="572.7071,-176.5001 582.7071,-173 572.7071,-169.5001 572.7071,-176.5001"/>
</g>
<!-- TranslationsService -->
<g id="node11" class="node">
<title>TranslationsService</title>
<ellipse fill="#fdb462" stroke="#000000" cx="112" cy="-104" rx="87.9549" ry="18"/>
<text text-anchor="middle" x="112" y="-99.8" font-family="Times,serif" font-size="14.00" fill="#000000">TranslationsService</text>
</g>
<!-- TranslationsService&#45;&gt;TranslationsModule -->
<g id="edge10" class="edge">
<title>TranslationsService&#45;&gt;TranslationsModule</title>
<path fill="none" stroke="#000000" d="M112,-122.0109C112,-144.4852 112,-180 112,-180 112,-180 572.7324,-180 572.7324,-180"/>
<polygon fill="#000000" stroke="#000000" points="572.7325,-183.5001 582.7324,-180 572.7324,-176.5001 572.7325,-183.5001"/>
</g>
</g>
</svg>
