<?xml version="1.0" encoding="UTF-8" standalone="no"?>
<!DOCTYPE svg PUBLIC "-//W3C//DTD SVG 1.1//EN"
 "http://www.w3.org/Graphics/SVG/1.1/DTD/svg11.dtd">
<!-- Generated by graphviz version 2.40.1 (20161225.0304)
 -->
<!-- Title: dependencies Pages: 1 -->
<svg width="504pt" height="284pt"
 viewBox="0.00 0.00 504.00 284.00" xmlns="http://www.w3.org/2000/svg" xmlns:xlink="http://www.w3.org/1999/xlink">
<g id="graph0" class="graph" transform="scale(1 1) rotate(0) translate(4 280)">
<title>dependencies</title>
<polygon fill="#ffffff" stroke="transparent" points="-4,4 -4,-280 500,-280 500,4 -4,4"/>
<text text-anchor="start" x="227.0091" y="-42.4" font-family="sans-serif" font-weight="bold" font-size="14.00" fill="#000000">Legend</text>
<polygon fill="#ffffb3" stroke="transparent" points="14,-10 14,-30 34,-30 34,-10 14,-10"/>
<text text-anchor="start" x="37.629" y="-15.4" font-family="sans-serif" font-size="14.00" fill="#000000"> &#160;Declarations</text>
<polygon fill="#8dd3c7" stroke="transparent" points="127,-10 127,-30 147,-30 147,-10 127,-10"/>
<text text-anchor="start" x="150.7251" y="-15.4" font-family="sans-serif" font-size="14.00" fill="#000000"> &#160;Module</text>
<polygon fill="#80b1d3" stroke="transparent" points="213,-10 213,-30 233,-30 233,-10 213,-10"/>
<text text-anchor="start" x="236.7812" y="-15.4" font-family="sans-serif" font-size="14.00" fill="#000000"> &#160;Bootstrap</text>
<polygon fill="#fdb462" stroke="transparent" points="310,-10 310,-30 330,-30 330,-10 310,-10"/>
<text text-anchor="start" x="333.6732" y="-15.4" font-family="sans-serif" font-size="14.00" fill="#000000"> &#160;Providers</text>
<polygon fill="#fb8072" stroke="transparent" points="406,-10 406,-30 426,-30 426,-10 406,-10"/>
<text text-anchor="start" x="429.7258" y="-15.4" font-family="sans-serif" font-size="14.00" fill="#000000"> &#160;Exports</text>
<g id="clust1" class="cluster">
<title>cluster_FooterModule</title>
<polygon fill="none" stroke="#000000" stroke-dasharray="1,5" points="26,-70 26,-268 470,-268 470,-70 26,-70"/>
</g>
<g id="clust2" class="cluster">
<title>cluster_FooterModule_declarations</title>
<polygon fill="none" stroke="#000000" points="328,-78 328,-130 462,-130 462,-78 328,-78"/>
</g>
<g id="clust4" class="cluster">
<title>cluster_FooterModule_imports</title>
<polygon fill="none" stroke="#000000" points="34,-78 34,-130 320,-130 320,-78 34,-78"/>
</g>
<g id="clust5" class="cluster">
<title>cluster_FooterModule_exports</title>
<polygon fill="none" stroke="#000000" points="166,-208 166,-260 304,-260 304,-208 166,-208"/>
</g>
<!-- FooterComponent -->
<g id="node1" class="node">
<title>FooterComponent</title>
<polygon fill="#ffffb3" stroke="#000000" points="453.8809,-122 336.1191,-122 336.1191,-86 453.8809,-86 453.8809,-122"/>
<text text-anchor="middle" x="395" y="-99.8" font-family="Times,serif" font-size="14.00" fill="#000000">FooterComponent</text>
</g>
<!-- FooterModule -->
<g id="node2" class="node">
<title>FooterModule</title>
<polygon fill="#8dd3c7" stroke="#000000" points="283.0983,-187 280.0983,-191 259.0983,-191 256.0983,-187 186.9017,-187 186.9017,-151 283.0983,-151 283.0983,-187"/>
<text text-anchor="middle" x="235" y="-164.8" font-family="Times,serif" font-size="14.00" fill="#000000">FooterModule</text>
</g>
<!-- FooterComponent&#45;&gt;FooterModule -->
<g id="edge1" class="edge">
<title>FooterComponent&#45;&gt;FooterModule</title>
<path fill="none" stroke="#000000" d="M395,-122.1061C395,-141.3391 395,-169 395,-169 395,-169 293.4395,-169 293.4395,-169"/>
<polygon fill="#000000" stroke="#000000" points="293.4395,-165.5001 283.4395,-169 293.4394,-172.5001 293.4395,-165.5001"/>
</g>
<!-- FooterComponent  -->
<g id="node5" class="node">
<title>FooterComponent </title>
<polygon fill="#fb8072" stroke="#000000" points="295.8814,-252 174.1186,-252 174.1186,-216 295.8814,-216 295.8814,-252"/>
<text text-anchor="middle" x="235" y="-229.8" font-family="Times,serif" font-size="14.00" fill="#000000">FooterComponent </text>
</g>
<!-- FooterModule&#45;&gt;FooterComponent  -->
<g id="edge4" class="edge">
<title>FooterModule&#45;&gt;FooterComponent </title>
<path fill="none" stroke="#000000" stroke-dasharray="5,2" d="M235,-187.1061C235,-187.1061 235,-205.991 235,-205.991"/>
<polygon fill="#000000" stroke="#000000" points="231.5001,-205.9909 235,-215.991 238.5001,-205.991 231.5001,-205.9909"/>
</g>
<!-- LanguageSwitchModule -->
<g id="node3" class="node">
<title>LanguageSwitchModule</title>
<polygon fill="#8dd3c7" stroke="#000000" points="311.6316,-122 308.6316,-126 287.6316,-126 284.6316,-122 158.3684,-122 158.3684,-86 311.6316,-86 311.6316,-122"/>
<text text-anchor="middle" x="235" y="-99.8" font-family="Times,serif" font-size="14.00" fill="#000000">LanguageSwitchModule</text>
</g>
<!-- LanguageSwitchModule&#45;&gt;FooterModule -->
<g id="edge2" class="edge">
<title>LanguageSwitchModule&#45;&gt;FooterModule</title>
<path fill="none" stroke="#000000" d="M235,-122.1061C235,-122.1061 235,-140.991 235,-140.991"/>
<polygon fill="#000000" stroke="#000000" points="231.5001,-140.9909 235,-150.991 238.5001,-140.991 231.5001,-140.9909"/>
</g>
<!-- SharedModule -->
<g id="node4" class="node">
<title>SharedModule</title>
<polygon fill="#8dd3c7" stroke="#000000" points="140.4231,-122 137.4231,-126 116.4231,-126 113.4231,-122 41.5769,-122 41.5769,-86 140.4231,-86 140.4231,-122"/>
<text text-anchor="middle" x="91" y="-99.8" font-family="Times,serif" font-size="14.00" fill="#000000">SharedModule</text>
</g>
<!-- SharedModule&#45;&gt;FooterModule -->
<g id="edge3" class="edge">
<title>SharedModule&#45;&gt;FooterModule</title>
<path fill="none" stroke="#000000" d="M91,-122.1061C91,-141.3391 91,-169 91,-169 91,-169 176.6495,-169 176.6495,-169"/>
<polygon fill="#000000" stroke="#000000" points="176.6495,-172.5001 186.6495,-169 176.6495,-165.5001 176.6495,-172.5001"/>
</g>
</g>
</svg>
