<?xml version="1.0" encoding="UTF-8" standalone="no"?>
<!DOCTYPE svg PUBLIC "-//W3C//DTD SVG 1.1//EN"
 "http://www.w3.org/Graphics/SVG/1.1/DTD/svg11.dtd">
<!-- Generated by graphviz version 2.40.1 (20161225.0304)
 -->
<!-- Title: dependencies Pages: 1 -->
<svg width="1438pt" height="284pt"
 viewBox="0.00 0.00 1438.00 284.00" xmlns="http://www.w3.org/2000/svg" xmlns:xlink="http://www.w3.org/1999/xlink">
<g id="graph0" class="graph" transform="scale(1 1) rotate(0) translate(4 280)">
<title>dependencies</title>
<polygon fill="#ffffff" stroke="transparent" points="-4,4 -4,-280 1434,-280 1434,4 -4,4"/>
<text text-anchor="start" x="694.0091" y="-42.4" font-family="sans-serif" font-weight="bold" font-size="14.00" fill="#000000">Legend</text>
<polygon fill="#ffffb3" stroke="transparent" points="481,-10 481,-30 501,-30 501,-10 481,-10"/>
<text text-anchor="start" x="504.629" y="-15.4" font-family="sans-serif" font-size="14.00" fill="#000000"> &#160;Declarations</text>
<polygon fill="#8dd3c7" stroke="transparent" points="594,-10 594,-30 614,-30 614,-10 594,-10"/>
<text text-anchor="start" x="617.7251" y="-15.4" font-family="sans-serif" font-size="14.00" fill="#000000"> &#160;Module</text>
<polygon fill="#80b1d3" stroke="transparent" points="680,-10 680,-30 700,-30 700,-10 680,-10"/>
<text text-anchor="start" x="703.7812" y="-15.4" font-family="sans-serif" font-size="14.00" fill="#000000"> &#160;Bootstrap</text>
<polygon fill="#fdb462" stroke="transparent" points="777,-10 777,-30 797,-30 797,-10 777,-10"/>
<text text-anchor="start" x="800.6732" y="-15.4" font-family="sans-serif" font-size="14.00" fill="#000000"> &#160;Providers</text>
<polygon fill="#fb8072" stroke="transparent" points="873,-10 873,-30 893,-30 893,-10 873,-10"/>
<text text-anchor="start" x="896.7258" y="-15.4" font-family="sans-serif" font-size="14.00" fill="#000000"> &#160;Exports</text>
<g id="clust1" class="cluster">
<title>cluster_CountriesModule</title>
<polygon fill="none" stroke="#000000" stroke-dasharray="1,5" points="8,-70 8,-268 1422,-268 1422,-70 8,-70"/>
</g>
<g id="clust2" class="cluster">
<title>cluster_CountriesModule_declarations</title>
<polygon fill="none" stroke="#000000" points="714,-78 714,-130 1414,-130 1414,-78 714,-78"/>
</g>
<g id="clust7" class="cluster">
<title>cluster_CountriesModule_imports</title>
<polygon fill="none" stroke="#000000" points="196,-78 196,-130 706,-130 706,-78 196,-78"/>
</g>
<g id="clust8" class="cluster">
<title>cluster_CountriesModule_exports</title>
<polygon fill="none" stroke="#000000" points="549,-208 549,-260 705,-260 705,-208 549,-208"/>
</g>
<g id="clust10" class="cluster">
<title>cluster_CountriesModule_providers</title>
<polygon fill="none" stroke="#000000" points="16,-78 16,-130 188,-130 188,-78 16,-78"/>
</g>
<!-- CountriesComponent -->
<g id="node1" class="node">
<title>CountriesComponent</title>
<polygon fill="#ffffb3" stroke="#000000" points="1405.7702,-122 1270.2298,-122 1270.2298,-86 1405.7702,-86 1405.7702,-122"/>
<text text-anchor="middle" x="1338" y="-99.8" font-family="Times,serif" font-size="14.00" fill="#000000">CountriesComponent</text>
</g>
<!-- CountriesModule -->
<g id="node5" class="node">
<title>CountriesModule</title>
<polygon fill="#8dd3c7" stroke="#000000" points="683.9874,-187 680.9874,-191 659.9874,-191 656.9874,-187 570.0126,-187 570.0126,-151 683.9874,-151 683.9874,-187"/>
<text text-anchor="middle" x="627" y="-164.8" font-family="Times,serif" font-size="14.00" fill="#000000">CountriesModule</text>
</g>
<!-- CountriesComponent&#45;&gt;CountriesModule -->
<g id="edge1" class="edge">
<title>CountriesComponent&#45;&gt;CountriesModule</title>
<path fill="none" stroke="#000000" d="M1338,-122.0109C1338,-144.4852 1338,-180 1338,-180 1338,-180 694.2817,-180 694.2817,-180"/>
<polygon fill="#000000" stroke="#000000" points="694.2817,-176.5001 684.2817,-180 694.2817,-183.5001 694.2817,-176.5001"/>
</g>
<!-- CountriesDetailsComponent -->
<g id="node2" class="node">
<title>CountriesDetailsComponent</title>
<polygon fill="#ffffb3" stroke="#000000" points="1251.9227,-122 1076.0773,-122 1076.0773,-86 1251.9227,-86 1251.9227,-122"/>
<text text-anchor="middle" x="1164" y="-99.8" font-family="Times,serif" font-size="14.00" fill="#000000">CountriesDetailsComponent</text>
</g>
<!-- CountriesDetailsComponent&#45;&gt;CountriesModule -->
<g id="edge2" class="edge">
<title>CountriesDetailsComponent&#45;&gt;CountriesModule</title>
<path fill="none" stroke="#000000" d="M1164,-122.1289C1164,-142.5724 1164,-173 1164,-173 1164,-173 694.214,-173 694.214,-173"/>
<polygon fill="#000000" stroke="#000000" points="694.214,-169.5001 684.214,-173 694.2139,-176.5001 694.214,-169.5001"/>
</g>
<!-- CountriesItemComponent -->
<g id="node3" class="node">
<title>CountriesItemComponent</title>
<polygon fill="#ffffb3" stroke="#000000" points="1058.927,-122 897.073,-122 897.073,-86 1058.927,-86 1058.927,-122"/>
<text text-anchor="middle" x="978" y="-99.8" font-family="Times,serif" font-size="14.00" fill="#000000">CountriesItemComponent</text>
</g>
<!-- CountriesItemComponent&#45;&gt;CountriesModule -->
<g id="edge3" class="edge">
<title>CountriesItemComponent&#45;&gt;CountriesModule</title>
<path fill="none" stroke="#000000" d="M978,-122.2667C978,-140.5552 978,-166 978,-166 978,-166 694.1754,-166 694.1754,-166"/>
<polygon fill="#000000" stroke="#000000" points="694.1754,-162.5001 684.1754,-166 694.1754,-169.5001 694.1754,-162.5001"/>
</g>
<!-- CountriesListComponent -->
<g id="node4" class="node">
<title>CountriesListComponent</title>
<polygon fill="#ffffb3" stroke="#000000" points="879.549,-122 722.451,-122 722.451,-86 879.549,-86 879.549,-122"/>
<text text-anchor="middle" x="801" y="-99.8" font-family="Times,serif" font-size="14.00" fill="#000000">CountriesListComponent</text>
</g>
<!-- CountriesListComponent&#45;&gt;CountriesModule -->
<g id="edge4" class="edge">
<title>CountriesListComponent&#45;&gt;CountriesModule</title>
<path fill="none" stroke="#000000" d="M801,-122.0091C801,-138.0494 801,-159 801,-159 801,-159 694.4563,-159 694.4563,-159"/>
<polygon fill="#000000" stroke="#000000" points="694.4564,-155.5001 684.4563,-159 694.4563,-162.5001 694.4564,-155.5001"/>
</g>
<!-- CountriesComponent  -->
<g id="node10" class="node">
<title>CountriesComponent </title>
<polygon fill="#fb8072" stroke="#000000" points="696.7703,-252 557.2297,-252 557.2297,-216 696.7703,-216 696.7703,-252"/>
<text text-anchor="middle" x="627" y="-229.8" font-family="Times,serif" font-size="14.00" fill="#000000">CountriesComponent </text>
</g>
<!-- CountriesModule&#45;&gt;CountriesComponent  -->
<g id="edge9" class="edge">
<title>CountriesModule&#45;&gt;CountriesComponent </title>
<path fill="none" stroke="#000000" stroke-dasharray="5,2" d="M627,-187.1061C627,-187.1061 627,-205.991 627,-205.991"/>
<polygon fill="#000000" stroke="#000000" points="623.5001,-205.9909 627,-215.991 630.5001,-205.991 623.5001,-205.9909"/>
</g>
<!-- FormElementsModule -->
<g id="node6" class="node">
<title>FormElementsModule</title>
<polygon fill="#8dd3c7" stroke="#000000" points="697.9818,-122 694.9818,-126 673.9818,-126 670.9818,-122 556.0182,-122 556.0182,-86 697.9818,-86 697.9818,-122"/>
<text text-anchor="middle" x="627" y="-99.8" font-family="Times,serif" font-size="14.00" fill="#000000">FormElementsModule</text>
</g>
<!-- FormElementsModule&#45;&gt;CountriesModule -->
<g id="edge5" class="edge">
<title>FormElementsModule&#45;&gt;CountriesModule</title>
<path fill="none" stroke="#000000" d="M627,-122.1061C627,-122.1061 627,-140.991 627,-140.991"/>
<polygon fill="#000000" stroke="#000000" points="623.5001,-140.9909 627,-150.991 630.5001,-140.991 623.5001,-140.9909"/>
</g>
<!-- HeadlinesModule -->
<g id="node7" class="node">
<title>HeadlinesModule</title>
<polygon fill="#8dd3c7" stroke="#000000" points="537.527,-122 534.527,-126 513.527,-126 510.527,-122 422.473,-122 422.473,-86 537.527,-86 537.527,-122"/>
<text text-anchor="middle" x="480" y="-99.8" font-family="Times,serif" font-size="14.00" fill="#000000">HeadlinesModule</text>
</g>
<!-- HeadlinesModule&#45;&gt;CountriesModule -->
<g id="edge6" class="edge">
<title>HeadlinesModule&#45;&gt;CountriesModule</title>
<path fill="none" stroke="#000000" d="M480,-122.0091C480,-138.0494 480,-159 480,-159 480,-159 559.745,-159 559.745,-159"/>
<polygon fill="#000000" stroke="#000000" points="559.7451,-162.5001 569.745,-159 559.745,-155.5001 559.7451,-162.5001"/>
</g>
<!-- IconModule -->
<g id="node8" class="node">
<title>IconModule</title>
<polygon fill="#8dd3c7" stroke="#000000" points="404.4261,-122 401.4261,-126 380.4261,-126 377.4261,-122 319.5739,-122 319.5739,-86 404.4261,-86 404.4261,-122"/>
<text text-anchor="middle" x="362" y="-99.8" font-family="Times,serif" font-size="14.00" fill="#000000">IconModule</text>
</g>
<!-- IconModule&#45;&gt;CountriesModule -->
<g id="edge7" class="edge">
<title>IconModule&#45;&gt;CountriesModule</title>
<path fill="none" stroke="#000000" d="M362,-122.2667C362,-140.5552 362,-166 362,-166 362,-166 559.8252,-166 559.8252,-166"/>
<polygon fill="#000000" stroke="#000000" points="559.8252,-169.5001 569.8252,-166 559.8252,-162.5001 559.8252,-169.5001"/>
</g>
<!-- SharedModule -->
<g id="node9" class="node">
<title>SharedModule</title>
<polygon fill="#8dd3c7" stroke="#000000" points="302.4231,-122 299.4231,-126 278.4231,-126 275.4231,-122 203.5769,-122 203.5769,-86 302.4231,-86 302.4231,-122"/>
<text text-anchor="middle" x="253" y="-99.8" font-family="Times,serif" font-size="14.00" fill="#000000">SharedModule</text>
</g>
<!-- SharedModule&#45;&gt;CountriesModule -->
<g id="edge8" class="edge">
<title>SharedModule&#45;&gt;CountriesModule</title>
<path fill="none" stroke="#000000" d="M253,-122.1289C253,-142.5724 253,-173 253,-173 253,-173 559.7903,-173 559.7903,-173"/>
<polygon fill="#000000" stroke="#000000" points="559.7904,-176.5001 569.7903,-173 559.7903,-169.5001 559.7904,-176.5001"/>
</g>
<!-- CountriesService -->
<g id="node11" class="node">
<title>CountriesService</title>
<ellipse fill="#fdb462" stroke="#000000" cx="102" cy="-104" rx="77.5839" ry="18"/>
<text text-anchor="middle" x="102" y="-99.8" font-family="Times,serif" font-size="14.00" fill="#000000">CountriesService</text>
</g>
<!-- CountriesService&#45;&gt;CountriesModule -->
<g id="edge10" class="edge">
<title>CountriesService&#45;&gt;CountriesModule</title>
<path fill="none" stroke="#000000" d="M102,-122.0109C102,-144.4852 102,-180 102,-180 102,-180 559.8164,-180 559.8164,-180"/>
<polygon fill="#000000" stroke="#000000" points="559.8164,-183.5001 569.8164,-180 559.8164,-176.5001 559.8164,-183.5001"/>
</g>
</g>
</svg>
