<?xml version="1.0" encoding="UTF-8" standalone="no"?>
<!DOCTYPE svg PUBLIC "-//W3C//DTD SVG 1.1//EN"
 "http://www.w3.org/Graphics/SVG/1.1/DTD/svg11.dtd">
<!-- Generated by graphviz version 2.40.1 (20161225.0304)
 -->
<!-- Title: dependencies Pages: 1 -->
<svg width="504pt" height="284pt"
 viewBox="0.00 0.00 504.00 284.00" xmlns="http://www.w3.org/2000/svg" xmlns:xlink="http://www.w3.org/1999/xlink">
<g id="graph0" class="graph" transform="scale(1 1) rotate(0) translate(4 280)">
<title>dependencies</title>
<polygon fill="#ffffff" stroke="transparent" points="-4,4 -4,-280 500,-280 500,4 -4,4"/>
<text text-anchor="start" x="227.0091" y="-42.4" font-family="sans-serif" font-weight="bold" font-size="14.00" fill="#000000">Legend</text>
<polygon fill="#ffffb3" stroke="transparent" points="14,-10 14,-30 34,-30 34,-10 14,-10"/>
<text text-anchor="start" x="37.629" y="-15.4" font-family="sans-serif" font-size="14.00" fill="#000000"> &#160;Declarations</text>
<polygon fill="#8dd3c7" stroke="transparent" points="127,-10 127,-30 147,-30 147,-10 127,-10"/>
<text text-anchor="start" x="150.7251" y="-15.4" font-family="sans-serif" font-size="14.00" fill="#000000"> &#160;Module</text>
<polygon fill="#80b1d3" stroke="transparent" points="213,-10 213,-30 233,-30 233,-10 213,-10"/>
<text text-anchor="start" x="236.7812" y="-15.4" font-family="sans-serif" font-size="14.00" fill="#000000"> &#160;Bootstrap</text>
<polygon fill="#fdb462" stroke="transparent" points="310,-10 310,-30 330,-30 330,-10 310,-10"/>
<text text-anchor="start" x="333.6732" y="-15.4" font-family="sans-serif" font-size="14.00" fill="#000000"> &#160;Providers</text>
<polygon fill="#fb8072" stroke="transparent" points="406,-10 406,-30 426,-30 426,-10 406,-10"/>
<text text-anchor="start" x="429.7258" y="-15.4" font-family="sans-serif" font-size="14.00" fill="#000000"> &#160;Exports</text>
<g id="clust1" class="cluster">
<title>cluster_LinkModule</title>
<polygon fill="none" stroke="#000000" stroke-dasharray="1,5" points="66,-70 66,-268 430,-268 430,-70 66,-70"/>
</g>
<g id="clust2" class="cluster">
<title>cluster_LinkModule_declarations</title>
<polygon fill="none" stroke="#000000" points="298,-78 298,-130 422,-130 422,-78 298,-78"/>
</g>
<g id="clust4" class="cluster">
<title>cluster_LinkModule_imports</title>
<polygon fill="none" stroke="#000000" points="74,-78 74,-130 290,-130 290,-78 74,-78"/>
</g>
<g id="clust5" class="cluster">
<title>cluster_LinkModule_exports</title>
<polygon fill="none" stroke="#000000" points="176,-208 176,-260 304,-260 304,-208 176,-208"/>
</g>
<!-- LinkComponent -->
<g id="node1" class="node">
<title>LinkComponent</title>
<polygon fill="#ffffb3" stroke="#000000" points="413.7758,-122 306.2242,-122 306.2242,-86 413.7758,-86 413.7758,-122"/>
<text text-anchor="middle" x="360" y="-99.8" font-family="Times,serif" font-size="14.00" fill="#000000">LinkComponent</text>
</g>
<!-- LinkModule -->
<g id="node2" class="node">
<title>LinkModule</title>
<polygon fill="#8dd3c7" stroke="#000000" points="282.993,-187 279.993,-191 258.993,-191 255.993,-187 197.007,-187 197.007,-151 282.993,-151 282.993,-187"/>
<text text-anchor="middle" x="240" y="-164.8" font-family="Times,serif" font-size="14.00" fill="#000000">LinkModule</text>
</g>
<!-- LinkComponent&#45;&gt;LinkModule -->
<g id="edge1" class="edge">
<title>LinkComponent&#45;&gt;LinkModule</title>
<path fill="none" stroke="#000000" d="M360,-122.1061C360,-141.3391 360,-169 360,-169 360,-169 293.3228,-169 293.3228,-169"/>
<polygon fill="#000000" stroke="#000000" points="293.3228,-165.5001 283.3228,-169 293.3227,-172.5001 293.3228,-165.5001"/>
</g>
<!-- LinkComponent  -->
<g id="node5" class="node">
<title>LinkComponent </title>
<polygon fill="#fb8072" stroke="#000000" points="295.7759,-252 184.2241,-252 184.2241,-216 295.7759,-216 295.7759,-252"/>
<text text-anchor="middle" x="240" y="-229.8" font-family="Times,serif" font-size="14.00" fill="#000000">LinkComponent </text>
</g>
<!-- LinkModule&#45;&gt;LinkComponent  -->
<g id="edge4" class="edge">
<title>LinkModule&#45;&gt;LinkComponent </title>
<path fill="none" stroke="#000000" stroke-dasharray="5,2" d="M240,-187.1061C240,-187.1061 240,-205.991 240,-205.991"/>
<polygon fill="#000000" stroke="#000000" points="236.5001,-205.9909 240,-215.991 243.5001,-205.991 236.5001,-205.9909"/>
</g>
<!-- IconModule -->
<g id="node3" class="node">
<title>IconModule</title>
<polygon fill="#8dd3c7" stroke="#000000" points="282.4261,-122 279.4261,-126 258.4261,-126 255.4261,-122 197.5739,-122 197.5739,-86 282.4261,-86 282.4261,-122"/>
<text text-anchor="middle" x="240" y="-99.8" font-family="Times,serif" font-size="14.00" fill="#000000">IconModule</text>
</g>
<!-- IconModule&#45;&gt;LinkModule -->
<g id="edge2" class="edge">
<title>IconModule&#45;&gt;LinkModule</title>
<path fill="none" stroke="#000000" d="M240,-122.1061C240,-122.1061 240,-140.991 240,-140.991"/>
<polygon fill="#000000" stroke="#000000" points="236.5001,-140.9909 240,-150.991 243.5001,-140.991 236.5001,-140.9909"/>
</g>
<!-- SharedModule -->
<g id="node4" class="node">
<title>SharedModule</title>
<polygon fill="#8dd3c7" stroke="#000000" points="180.4231,-122 177.4231,-126 156.4231,-126 153.4231,-122 81.5769,-122 81.5769,-86 180.4231,-86 180.4231,-122"/>
<text text-anchor="middle" x="131" y="-99.8" font-family="Times,serif" font-size="14.00" fill="#000000">SharedModule</text>
</g>
<!-- SharedModule&#45;&gt;LinkModule -->
<g id="edge3" class="edge">
<title>SharedModule&#45;&gt;LinkModule</title>
<path fill="none" stroke="#000000" d="M131,-122.1061C131,-141.3391 131,-169 131,-169 131,-169 186.9203,-169 186.9203,-169"/>
<polygon fill="#000000" stroke="#000000" points="186.9203,-172.5001 196.9203,-169 186.9203,-165.5001 186.9203,-172.5001"/>
</g>
</g>
</svg>
