<?xml version="1.0" encoding="UTF-8" standalone="no"?>
<!DOCTYPE svg PUBLIC "-//W3C//DTD SVG 1.1//EN"
 "http://www.w3.org/Graphics/SVG/1.1/DTD/svg11.dtd">
<!-- Generated by graphviz version 2.40.1 (20161225.0304)
 -->
<!-- Title: dependencies Pages: 1 -->
<svg width="1263pt" height="284pt"
 viewBox="0.00 0.00 1263.00 284.00" xmlns="http://www.w3.org/2000/svg" xmlns:xlink="http://www.w3.org/1999/xlink">
<g id="graph0" class="graph" transform="scale(1 1) rotate(0) translate(4 280)">
<title>dependencies</title>
<polygon fill="#ffffff" stroke="transparent" points="-4,4 -4,-280 1259,-280 1259,4 -4,4"/>
<text text-anchor="start" x="606.5091" y="-42.4" font-family="sans-serif" font-weight="bold" font-size="14.00" fill="#000000">Legend</text>
<polygon fill="#ffffb3" stroke="transparent" points="393.5,-10 393.5,-30 413.5,-30 413.5,-10 393.5,-10"/>
<text text-anchor="start" x="417.129" y="-15.4" font-family="sans-serif" font-size="14.00" fill="#000000"> &#160;Declarations</text>
<polygon fill="#8dd3c7" stroke="transparent" points="506.5,-10 506.5,-30 526.5,-30 526.5,-10 506.5,-10"/>
<text text-anchor="start" x="530.2251" y="-15.4" font-family="sans-serif" font-size="14.00" fill="#000000"> &#160;Module</text>
<polygon fill="#80b1d3" stroke="transparent" points="592.5,-10 592.5,-30 612.5,-30 612.5,-10 592.5,-10"/>
<text text-anchor="start" x="616.2812" y="-15.4" font-family="sans-serif" font-size="14.00" fill="#000000"> &#160;Bootstrap</text>
<polygon fill="#fdb462" stroke="transparent" points="689.5,-10 689.5,-30 709.5,-30 709.5,-10 689.5,-10"/>
<text text-anchor="start" x="713.1732" y="-15.4" font-family="sans-serif" font-size="14.00" fill="#000000"> &#160;Providers</text>
<polygon fill="#fb8072" stroke="transparent" points="785.5,-10 785.5,-30 805.5,-30 805.5,-10 785.5,-10"/>
<text text-anchor="start" x="809.2258" y="-15.4" font-family="sans-serif" font-size="14.00" fill="#000000"> &#160;Exports</text>
<g id="clust1" class="cluster">
<title>cluster_HeadlinesModule</title>
<polygon fill="none" stroke="#000000" stroke-dasharray="1,5" points="8,-70 8,-268 1247,-268 1247,-70 8,-70"/>
</g>
<g id="clust2" class="cluster">
<title>cluster_HeadlinesModule_declarations</title>
<polygon fill="none" stroke="#000000" points="240,-78 240,-130 1239,-130 1239,-78 240,-78"/>
</g>
<g id="clust9" class="cluster">
<title>cluster_HeadlinesModule_imports</title>
<polygon fill="none" stroke="#000000" points="16,-78 16,-130 232,-130 232,-78 16,-78"/>
</g>
<g id="clust10" class="cluster">
<title>cluster_HeadlinesModule_exports</title>
<polygon fill="none" stroke="#000000" points="80,-208 80,-260 1098,-260 1098,-208 80,-208"/>
</g>
<!-- HeadlineH1Component -->
<g id="node1" class="node">
<title>HeadlineH1Component</title>
<polygon fill="#ffffb3" stroke="#000000" points="1231.4706,-122 1082.5294,-122 1082.5294,-86 1231.4706,-86 1231.4706,-122"/>
<text text-anchor="middle" x="1157" y="-99.8" font-family="Times,serif" font-size="14.00" fill="#000000">HeadlineH1Component</text>
</g>
<!-- HeadlinesModule -->
<g id="node7" class="node">
<title>HeadlinesModule</title>
<polygon fill="#8dd3c7" stroke="#000000" points="624.527,-187 621.527,-191 600.527,-191 597.527,-187 509.473,-187 509.473,-151 624.527,-151 624.527,-187"/>
<text text-anchor="middle" x="567" y="-164.8" font-family="Times,serif" font-size="14.00" fill="#000000">HeadlinesModule</text>
</g>
<!-- HeadlineH1Component&#45;&gt;HeadlinesModule -->
<g id="edge1" class="edge">
<title>HeadlineH1Component&#45;&gt;HeadlinesModule</title>
<path fill="none" stroke="#000000" d="M1086.375,-122.1061C1086.375,-141.3391 1086.375,-169 1086.375,-169 1086.375,-169 634.5666,-169 634.5666,-169"/>
<polygon fill="#000000" stroke="#000000" points="634.5667,-165.5001 624.5666,-169 634.5666,-172.5001 634.5667,-165.5001"/>
</g>
<!-- HeadlineH2Component -->
<g id="node2" class="node">
<title>HeadlineH2Component</title>
<polygon fill="#ffffb3" stroke="#000000" points="1064.4706,-122 915.5294,-122 915.5294,-86 1064.4706,-86 1064.4706,-122"/>
<text text-anchor="middle" x="990" y="-99.8" font-family="Times,serif" font-size="14.00" fill="#000000">HeadlineH2Component</text>
</g>
<!-- HeadlineH2Component&#45;&gt;HeadlinesModule -->
<g id="edge2" class="edge">
<title>HeadlineH2Component&#45;&gt;HeadlinesModule</title>
<path fill="none" stroke="#000000" d="M929,-122.0225C929,-139.3734 929,-163 929,-163 929,-163 634.7603,-163 634.7603,-163"/>
<polygon fill="#000000" stroke="#000000" points="634.7603,-159.5001 624.7603,-163 634.7602,-166.5001 634.7603,-159.5001"/>
</g>
<!-- HeadlineH3Component -->
<g id="node3" class="node">
<title>HeadlineH3Component</title>
<polygon fill="#ffffb3" stroke="#000000" points="897.4706,-122 748.5294,-122 748.5294,-86 897.4706,-86 897.4706,-122"/>
<text text-anchor="middle" x="823" y="-99.8" font-family="Times,serif" font-size="14.00" fill="#000000">HeadlineH3Component</text>
</g>
<!-- HeadlineH3Component&#45;&gt;HeadlinesModule -->
<g id="edge3" class="edge">
<title>HeadlineH3Component&#45;&gt;HeadlinesModule</title>
<path fill="none" stroke="#000000" d="M759,-122.2396C759,-137.5706 759,-157 759,-157 759,-157 634.6063,-157 634.6063,-157"/>
<polygon fill="#000000" stroke="#000000" points="634.6064,-153.5001 624.6063,-157 634.6063,-160.5001 634.6064,-153.5001"/>
</g>
<!-- HeadlineH4Component -->
<g id="node4" class="node">
<title>HeadlineH4Component</title>
<polygon fill="#ffffb3" stroke="#000000" points="730.4706,-122 581.5294,-122 581.5294,-86 730.4706,-86 730.4706,-122"/>
<text text-anchor="middle" x="656" y="-99.8" font-family="Times,serif" font-size="14.00" fill="#000000">HeadlineH4Component</text>
</g>
<!-- HeadlineH4Component&#45;&gt;HeadlinesModule -->
<g id="edge4" class="edge">
<title>HeadlineH4Component&#45;&gt;HeadlinesModule</title>
<path fill="none" stroke="#000000" d="M603.1389,-122.1061C603.1389,-122.1061 603.1389,-140.991 603.1389,-140.991"/>
<polygon fill="#000000" stroke="#000000" points="599.6389,-140.9909 603.1389,-150.991 606.6389,-140.991 599.6389,-140.9909"/>
</g>
<!-- HeadlineH5Component -->
<g id="node5" class="node">
<title>HeadlineH5Component</title>
<polygon fill="#ffffb3" stroke="#000000" points="563.4706,-122 414.5294,-122 414.5294,-86 563.4706,-86 563.4706,-122"/>
<text text-anchor="middle" x="489" y="-99.8" font-family="Times,serif" font-size="14.00" fill="#000000">HeadlineH5Component</text>
</g>
<!-- HeadlineH5Component&#45;&gt;HeadlinesModule -->
<g id="edge5" class="edge">
<title>HeadlineH5Component&#45;&gt;HeadlinesModule</title>
<path fill="none" stroke="#000000" d="M536.3611,-122.1061C536.3611,-122.1061 536.3611,-140.991 536.3611,-140.991"/>
<polygon fill="#000000" stroke="#000000" points="532.8612,-140.9909 536.3611,-150.991 539.8612,-140.991 532.8612,-140.9909"/>
</g>
<!-- HeadlineH6Component -->
<g id="node6" class="node">
<title>HeadlineH6Component</title>
<polygon fill="#ffffb3" stroke="#000000" points="396.4706,-122 247.5294,-122 247.5294,-86 396.4706,-86 396.4706,-122"/>
<text text-anchor="middle" x="322" y="-99.8" font-family="Times,serif" font-size="14.00" fill="#000000">HeadlineH6Component</text>
</g>
<!-- HeadlineH6Component&#45;&gt;HeadlinesModule -->
<g id="edge6" class="edge">
<title>HeadlineH6Component&#45;&gt;HeadlinesModule</title>
<path fill="none" stroke="#000000" d="M327.125,-122.2396C327.125,-137.5706 327.125,-157 327.125,-157 327.125,-157 499.2387,-157 499.2387,-157"/>
<polygon fill="#000000" stroke="#000000" points="499.2387,-160.5001 509.2387,-157 499.2387,-153.5001 499.2387,-160.5001"/>
</g>
<!-- HeadlineH1Component  -->
<g id="node10" class="node">
<title>HeadlineH1Component </title>
<polygon fill="#fb8072" stroke="#000000" points="1090.4713,-252 937.5287,-252 937.5287,-216 1090.4713,-216 1090.4713,-252"/>
<text text-anchor="middle" x="1014" y="-229.8" font-family="Times,serif" font-size="14.00" fill="#000000">HeadlineH1Component </text>
</g>
<!-- HeadlinesModule&#45;&gt;HeadlineH1Component  -->
<g id="edge9" class="edge">
<title>HeadlinesModule&#45;&gt;HeadlineH1Component </title>
<path fill="none" stroke="#000000" stroke-dasharray="5,2" d="M624.6484,-175C742.7389,-175 1001.125,-175 1001.125,-175 1001.125,-175 1001.125,-205.9775 1001.125,-205.9775"/>
<polygon fill="#000000" stroke="#000000" points="997.6251,-205.9774 1001.125,-215.9775 1004.6251,-205.9775 997.6251,-205.9774"/>
</g>
<!-- HeadlineH2Component  -->
<g id="node11" class="node">
<title>HeadlineH2Component </title>
<polygon fill="#fb8072" stroke="#000000" points="920.4713,-252 767.5287,-252 767.5287,-216 920.4713,-216 920.4713,-252"/>
<text text-anchor="middle" x="844" y="-229.8" font-family="Times,serif" font-size="14.00" fill="#000000">HeadlineH2Component </text>
</g>
<!-- HeadlinesModule&#45;&gt;HeadlineH2Component  -->
<g id="edge10" class="edge">
<title>HeadlinesModule&#45;&gt;HeadlineH2Component </title>
<path fill="none" stroke="#000000" stroke-dasharray="5,2" d="M624.6367,-181C702.7591,-181 832.625,-181 832.625,-181 832.625,-181 832.625,-205.7604 832.625,-205.7604"/>
<polygon fill="#000000" stroke="#000000" points="829.1251,-205.7604 832.625,-215.7604 836.1251,-205.7604 829.1251,-205.7604"/>
</g>
<!-- HeadlineH3Component  -->
<g id="node12" class="node">
<title>HeadlineH3Component </title>
<polygon fill="#fb8072" stroke="#000000" points="750.4713,-252 597.5287,-252 597.5287,-216 750.4713,-216 750.4713,-252"/>
<text text-anchor="middle" x="674" y="-229.8" font-family="Times,serif" font-size="14.00" fill="#000000">HeadlineH3Component </text>
</g>
<!-- HeadlinesModule&#45;&gt;HeadlineH3Component  -->
<g id="edge11" class="edge">
<title>HeadlinesModule&#45;&gt;HeadlineH3Component </title>
<path fill="none" stroke="#000000" stroke-dasharray="5,2" d="M611.2639,-187.1061C611.2639,-187.1061 611.2639,-205.991 611.2639,-205.991"/>
<polygon fill="#000000" stroke="#000000" points="607.7639,-205.9909 611.2639,-215.991 614.7639,-205.991 607.7639,-205.9909"/>
</g>
<!-- HeadlineH4Component  -->
<g id="node13" class="node">
<title>HeadlineH4Component </title>
<polygon fill="#fb8072" stroke="#000000" points="580.4713,-252 427.5287,-252 427.5287,-216 580.4713,-216 580.4713,-252"/>
<text text-anchor="middle" x="504" y="-229.8" font-family="Times,serif" font-size="14.00" fill="#000000">HeadlineH4Component </text>
</g>
<!-- HeadlinesModule&#45;&gt;HeadlineH4Component  -->
<g id="edge12" class="edge">
<title>HeadlinesModule&#45;&gt;HeadlineH4Component </title>
<path fill="none" stroke="#000000" stroke-dasharray="5,2" d="M544.7361,-187.1061C544.7361,-187.1061 544.7361,-205.991 544.7361,-205.991"/>
<polygon fill="#000000" stroke="#000000" points="541.2362,-205.9909 544.7361,-215.991 548.2362,-205.991 541.2362,-205.9909"/>
</g>
<!-- HeadlineH5Component  -->
<g id="node14" class="node">
<title>HeadlineH5Component </title>
<polygon fill="#fb8072" stroke="#000000" points="410.4713,-252 257.5287,-252 257.5287,-216 410.4713,-216 410.4713,-252"/>
<text text-anchor="middle" x="334" y="-229.8" font-family="Times,serif" font-size="14.00" fill="#000000">HeadlineH5Component </text>
</g>
<!-- HeadlinesModule&#45;&gt;HeadlineH5Component  -->
<g id="edge13" class="edge">
<title>HeadlinesModule&#45;&gt;HeadlineH5Component </title>
<path fill="none" stroke="#000000" stroke-dasharray="5,2" d="M509.3068,-181C462.1939,-181 403.3603,-181 403.3603,-181 403.3603,-181 403.3603,-205.7604 403.3603,-205.7604"/>
<polygon fill="#000000" stroke="#000000" points="399.8604,-205.7604 403.3603,-215.7604 406.8604,-205.7604 399.8604,-205.7604"/>
</g>
<!-- HeadlineH6Component  -->
<g id="node15" class="node">
<title>HeadlineH6Component </title>
<polygon fill="#fb8072" stroke="#000000" points="240.4713,-252 87.5287,-252 87.5287,-216 240.4713,-216 240.4713,-252"/>
<text text-anchor="middle" x="164" y="-229.8" font-family="Times,serif" font-size="14.00" fill="#000000">HeadlineH6Component </text>
</g>
<!-- HeadlinesModule&#45;&gt;HeadlineH6Component  -->
<g id="edge14" class="edge">
<title>HeadlinesModule&#45;&gt;HeadlineH6Component </title>
<path fill="none" stroke="#000000" stroke-dasharray="5,2" d="M509.4499,-175C413.7325,-175 232.2239,-175 232.2239,-175 232.2239,-175 232.2239,-205.9775 232.2239,-205.9775"/>
<polygon fill="#000000" stroke="#000000" points="228.724,-205.9774 232.2239,-215.9775 235.724,-205.9775 228.724,-205.9774"/>
</g>
<!-- IconModule -->
<g id="node8" class="node">
<title>IconModule</title>
<polygon fill="#8dd3c7" stroke="#000000" points="224.4261,-122 221.4261,-126 200.4261,-126 197.4261,-122 139.5739,-122 139.5739,-86 224.4261,-86 224.4261,-122"/>
<text text-anchor="middle" x="182" y="-99.8" font-family="Times,serif" font-size="14.00" fill="#000000">IconModule</text>
</g>
<!-- IconModule&#45;&gt;HeadlinesModule -->
<g id="edge7" class="edge">
<title>IconModule&#45;&gt;HeadlinesModule</title>
<path fill="none" stroke="#000000" d="M182,-122.0225C182,-139.3734 182,-163 182,-163 182,-163 499.3616,-163 499.3616,-163"/>
<polygon fill="#000000" stroke="#000000" points="499.3616,-166.5001 509.3616,-163 499.3616,-159.5001 499.3616,-166.5001"/>
</g>
<!-- SharedModule -->
<g id="node9" class="node">
<title>SharedModule</title>
<polygon fill="#8dd3c7" stroke="#000000" points="122.4231,-122 119.4231,-126 98.4231,-126 95.4231,-122 23.5769,-122 23.5769,-86 122.4231,-86 122.4231,-122"/>
<text text-anchor="middle" x="73" y="-99.8" font-family="Times,serif" font-size="14.00" fill="#000000">SharedModule</text>
</g>
<!-- SharedModule&#45;&gt;HeadlinesModule -->
<g id="edge8" class="edge">
<title>SharedModule&#45;&gt;HeadlinesModule</title>
<path fill="none" stroke="#000000" d="M104.9879,-122.1061C104.9879,-141.3391 104.9879,-169 104.9879,-169 104.9879,-169 499.42,-169 499.42,-169"/>
<polygon fill="#000000" stroke="#000000" points="499.42,-172.5001 509.42,-169 499.42,-165.5001 499.42,-172.5001"/>
</g>
</g>
</svg>
