<?xml version="1.0" encoding="UTF-8" standalone="no"?>
<!DOCTYPE svg PUBLIC "-//W3C//DTD SVG 1.1//EN"
 "http://www.w3.org/Graphics/SVG/1.1/DTD/svg11.dtd">
<!-- Generated by graphviz version 2.40.1 (20161225.0304)
 -->
<!-- Title: dependencies Pages: 1 -->
<svg width="504pt" height="284pt"
 viewBox="0.00 0.00 504.00 284.00" xmlns="http://www.w3.org/2000/svg" xmlns:xlink="http://www.w3.org/1999/xlink">
<g id="graph0" class="graph" transform="scale(1 1) rotate(0) translate(4 280)">
<title>dependencies</title>
<polygon fill="#ffffff" stroke="transparent" points="-4,4 -4,-280 500,-280 500,4 -4,4"/>
<text text-anchor="start" x="227.0091" y="-42.4" font-family="sans-serif" font-weight="bold" font-size="14.00" fill="#000000">Legend</text>
<polygon fill="#ffffb3" stroke="transparent" points="14,-10 14,-30 34,-30 34,-10 14,-10"/>
<text text-anchor="start" x="37.629" y="-15.4" font-family="sans-serif" font-size="14.00" fill="#000000"> &#160;Declarations</text>
<polygon fill="#8dd3c7" stroke="transparent" points="127,-10 127,-30 147,-30 147,-10 127,-10"/>
<text text-anchor="start" x="150.7251" y="-15.4" font-family="sans-serif" font-size="14.00" fill="#000000"> &#160;Module</text>
<polygon fill="#80b1d3" stroke="transparent" points="213,-10 213,-30 233,-30 233,-10 213,-10"/>
<text text-anchor="start" x="236.7812" y="-15.4" font-family="sans-serif" font-size="14.00" fill="#000000"> &#160;Bootstrap</text>
<polygon fill="#fdb462" stroke="transparent" points="310,-10 310,-30 330,-30 330,-10 310,-10"/>
<text text-anchor="start" x="333.6732" y="-15.4" font-family="sans-serif" font-size="14.00" fill="#000000"> &#160;Providers</text>
<polygon fill="#fb8072" stroke="transparent" points="406,-10 406,-30 426,-30 426,-10 406,-10"/>
<text text-anchor="start" x="429.7258" y="-15.4" font-family="sans-serif" font-size="14.00" fill="#000000"> &#160;Exports</text>
<g id="clust1" class="cluster">
<title>cluster_CommentsModule</title>
<polygon fill="none" stroke="#000000" stroke-dasharray="1,5" points="17,-70 17,-268 479,-268 479,-70 17,-70"/>
</g>
<g id="clust2" class="cluster">
<title>cluster_CommentsModule_declarations</title>
<polygon fill="none" stroke="#000000" points="133,-78 133,-130 471,-130 471,-78 133,-78"/>
</g>
<g id="clust5" class="cluster">
<title>cluster_CommentsModule_imports</title>
<polygon fill="none" stroke="#000000" points="25,-78 25,-130 125,-130 125,-78 25,-78"/>
</g>
<g id="clust6" class="cluster">
<title>cluster_CommentsModule_exports</title>
<polygon fill="none" stroke="#000000" points="131,-208 131,-260 293,-260 293,-208 131,-208"/>
</g>
<!-- CommentItemComponent -->
<g id="node1" class="node">
<title>CommentItemComponent</title>
<polygon fill="#ffffb3" stroke="#000000" points="463.2119,-122 300.7881,-122 300.7881,-86 463.2119,-86 463.2119,-122"/>
<text text-anchor="middle" x="382" y="-99.8" font-family="Times,serif" font-size="14.00" fill="#000000">CommentItemComponent</text>
</g>
<!-- CommentsModule -->
<g id="node3" class="node">
<title>CommentsModule</title>
<polygon fill="#8dd3c7" stroke="#000000" points="272.2176,-187 269.2176,-191 248.2176,-191 245.2176,-187 151.7824,-187 151.7824,-151 272.2176,-151 272.2176,-187"/>
<text text-anchor="middle" x="212" y="-164.8" font-family="Times,serif" font-size="14.00" fill="#000000">CommentsModule</text>
</g>
<!-- CommentItemComponent&#45;&gt;CommentsModule -->
<g id="edge1" class="edge">
<title>CommentItemComponent&#45;&gt;CommentsModule</title>
<path fill="none" stroke="#000000" d="M382,-122.1061C382,-141.3391 382,-169 382,-169 382,-169 282.4143,-169 282.4143,-169"/>
<polygon fill="#000000" stroke="#000000" points="282.4143,-165.5001 272.4143,-169 282.4143,-172.5001 282.4143,-165.5001"/>
</g>
<!-- CommentsComponent -->
<g id="node2" class="node">
<title>CommentsComponent</title>
<polygon fill="#ffffb3" stroke="#000000" points="283,-122 141,-122 141,-86 283,-86 283,-122"/>
<text text-anchor="middle" x="212" y="-99.8" font-family="Times,serif" font-size="14.00" fill="#000000">CommentsComponent</text>
</g>
<!-- CommentsComponent&#45;&gt;CommentsModule -->
<g id="edge2" class="edge">
<title>CommentsComponent&#45;&gt;CommentsModule</title>
<path fill="none" stroke="#000000" d="M212,-122.1061C212,-122.1061 212,-140.991 212,-140.991"/>
<polygon fill="#000000" stroke="#000000" points="208.5001,-140.9909 212,-150.991 215.5001,-140.991 208.5001,-140.9909"/>
</g>
<!-- CommentsComponent  -->
<g id="node5" class="node">
<title>CommentsComponent </title>
<polygon fill="#fb8072" stroke="#000000" points="285.0009,-252 138.9991,-252 138.9991,-216 285.0009,-216 285.0009,-252"/>
<text text-anchor="middle" x="212" y="-229.8" font-family="Times,serif" font-size="14.00" fill="#000000">CommentsComponent </text>
</g>
<!-- CommentsModule&#45;&gt;CommentsComponent  -->
<g id="edge4" class="edge">
<title>CommentsModule&#45;&gt;CommentsComponent </title>
<path fill="none" stroke="#000000" stroke-dasharray="5,2" d="M212,-187.1061C212,-187.1061 212,-205.991 212,-205.991"/>
<polygon fill="#000000" stroke="#000000" points="208.5001,-205.9909 212,-215.991 215.5001,-205.991 208.5001,-205.9909"/>
</g>
<!-- IconModule -->
<g id="node4" class="node">
<title>IconModule</title>
<polygon fill="#8dd3c7" stroke="#000000" points="117.4261,-122 114.4261,-126 93.4261,-126 90.4261,-122 32.5739,-122 32.5739,-86 117.4261,-86 117.4261,-122"/>
<text text-anchor="middle" x="75" y="-99.8" font-family="Times,serif" font-size="14.00" fill="#000000">IconModule</text>
</g>
<!-- IconModule&#45;&gt;CommentsModule -->
<g id="edge3" class="edge">
<title>IconModule&#45;&gt;CommentsModule</title>
<path fill="none" stroke="#000000" d="M75,-122.1061C75,-141.3391 75,-169 75,-169 75,-169 141.511,-169 141.511,-169"/>
<polygon fill="#000000" stroke="#000000" points="141.511,-172.5001 151.511,-169 141.511,-165.5001 141.511,-172.5001"/>
</g>
</g>
</svg>
