<?xml version="1.0" encoding="UTF-8" standalone="no"?>
<!DOCTYPE svg PUBLIC "-//W3C//DTD SVG 1.1//EN"
 "http://www.w3.org/Graphics/SVG/1.1/DTD/svg11.dtd">
<!-- Generated by graphviz version 2.40.1 (20161225.0304)
 -->
<!-- Title: dependencies Pages: 1 -->
<svg width="1131pt" height="284pt"
 viewBox="0.00 0.00 1131.00 284.00" xmlns="http://www.w3.org/2000/svg" xmlns:xlink="http://www.w3.org/1999/xlink">
<g id="graph0" class="graph" transform="scale(1 1) rotate(0) translate(4 280)">
<title>dependencies</title>
<polygon fill="#ffffff" stroke="transparent" points="-4,4 -4,-280 1127,-280 1127,4 -4,4"/>
<text text-anchor="start" x="540.5091" y="-42.4" font-family="sans-serif" font-weight="bold" font-size="14.00" fill="#000000">Legend</text>
<polygon fill="#ffffb3" stroke="transparent" points="327.5,-10 327.5,-30 347.5,-30 347.5,-10 327.5,-10"/>
<text text-anchor="start" x="351.129" y="-15.4" font-family="sans-serif" font-size="14.00" fill="#000000"> &#160;Declarations</text>
<polygon fill="#8dd3c7" stroke="transparent" points="440.5,-10 440.5,-30 460.5,-30 460.5,-10 440.5,-10"/>
<text text-anchor="start" x="464.2251" y="-15.4" font-family="sans-serif" font-size="14.00" fill="#000000"> &#160;Module</text>
<polygon fill="#80b1d3" stroke="transparent" points="526.5,-10 526.5,-30 546.5,-30 546.5,-10 526.5,-10"/>
<text text-anchor="start" x="550.2812" y="-15.4" font-family="sans-serif" font-size="14.00" fill="#000000"> &#160;Bootstrap</text>
<polygon fill="#fdb462" stroke="transparent" points="623.5,-10 623.5,-30 643.5,-30 643.5,-10 623.5,-10"/>
<text text-anchor="start" x="647.1732" y="-15.4" font-family="sans-serif" font-size="14.00" fill="#000000"> &#160;Providers</text>
<polygon fill="#fb8072" stroke="transparent" points="719.5,-10 719.5,-30 739.5,-30 739.5,-10 719.5,-10"/>
<text text-anchor="start" x="743.2258" y="-15.4" font-family="sans-serif" font-size="14.00" fill="#000000"> &#160;Exports</text>
<g id="clust1" class="cluster">
<title>cluster_CommentsModule</title>
<polygon fill="none" stroke="#000000" stroke-dasharray="1,5" points="8,-70 8,-268 1115,-268 1115,-70 8,-70"/>
</g>
<g id="clust2" class="cluster">
<title>cluster_CommentsModule_declarations</title>
<polygon fill="none" stroke="#000000" points="588,-78 588,-130 1107,-130 1107,-78 588,-78"/>
</g>
<g id="clust6" class="cluster">
<title>cluster_CommentsModule_imports</title>
<polygon fill="none" stroke="#000000" points="204,-78 204,-130 580,-130 580,-78 204,-78"/>
</g>
<g id="clust7" class="cluster">
<title>cluster_CommentsModule_exports</title>
<polygon fill="none" stroke="#000000" points="420,-208 420,-260 582,-260 582,-208 420,-208"/>
</g>
<g id="clust9" class="cluster">
<title>cluster_CommentsModule_providers</title>
<polygon fill="none" stroke="#000000" points="16,-78 16,-130 196,-130 196,-78 16,-78"/>
</g>
<!-- CommentItemComponent -->
<g id="node1" class="node">
<title>CommentItemComponent</title>
<polygon fill="#ffffb3" stroke="#000000" points="1099.2119,-122 936.7881,-122 936.7881,-86 1099.2119,-86 1099.2119,-122"/>
<text text-anchor="middle" x="1018" y="-99.8" font-family="Times,serif" font-size="14.00" fill="#000000">CommentItemComponent</text>
</g>
<!-- CommentsModule -->
<g id="node4" class="node">
<title>CommentsModule</title>
<polygon fill="#8dd3c7" stroke="#000000" points="561.2176,-187 558.2176,-191 537.2176,-191 534.2176,-187 440.7824,-187 440.7824,-151 561.2176,-151 561.2176,-187"/>
<text text-anchor="middle" x="501" y="-164.8" font-family="Times,serif" font-size="14.00" fill="#000000">CommentsModule</text>
</g>
<!-- CommentItemComponent&#45;&gt;CommentsModule -->
<g id="edge1" class="edge">
<title>CommentItemComponent&#45;&gt;CommentsModule</title>
<path fill="none" stroke="#000000" d="M1018,-122.2921C1018,-144.2057 1018,-178 1018,-178 1018,-178 571.3183,-178 571.3183,-178"/>
<polygon fill="#000000" stroke="#000000" points="571.3183,-174.5001 561.3183,-178 571.3183,-181.5001 571.3183,-174.5001"/>
</g>
<!-- CommentNewComponent -->
<g id="node2" class="node">
<title>CommentNewComponent</title>
<polygon fill="#ffffb3" stroke="#000000" points="918.4832,-122 755.5168,-122 755.5168,-86 918.4832,-86 918.4832,-122"/>
<text text-anchor="middle" x="837" y="-99.8" font-family="Times,serif" font-size="14.00" fill="#000000">CommentNewComponent</text>
</g>
<!-- CommentNewComponent&#45;&gt;CommentsModule -->
<g id="edge2" class="edge">
<title>CommentNewComponent&#45;&gt;CommentsModule</title>
<path fill="none" stroke="#000000" d="M837,-122.1061C837,-141.3391 837,-169 837,-169 837,-169 571.4581,-169 571.4581,-169"/>
<polygon fill="#000000" stroke="#000000" points="571.4582,-165.5001 561.4581,-169 571.4581,-172.5001 571.4582,-165.5001"/>
</g>
<!-- CommentsComponent -->
<g id="node3" class="node">
<title>CommentsComponent</title>
<polygon fill="#ffffb3" stroke="#000000" points="738,-122 596,-122 596,-86 738,-86 738,-122"/>
<text text-anchor="middle" x="667" y="-99.8" font-family="Times,serif" font-size="14.00" fill="#000000">CommentsComponent</text>
</g>
<!-- CommentsComponent&#45;&gt;CommentsModule -->
<g id="edge3" class="edge">
<title>CommentsComponent&#45;&gt;CommentsModule</title>
<path fill="none" stroke="#000000" d="M667,-122.027C667,-138.3976 667,-160 667,-160 667,-160 571.3994,-160 571.3994,-160"/>
<polygon fill="#000000" stroke="#000000" points="571.3994,-156.5001 561.3994,-160 571.3994,-163.5001 571.3994,-156.5001"/>
</g>
<!-- CommentsComponent  -->
<g id="node8" class="node">
<title>CommentsComponent </title>
<polygon fill="#fb8072" stroke="#000000" points="574.0009,-252 427.9991,-252 427.9991,-216 574.0009,-216 574.0009,-252"/>
<text text-anchor="middle" x="501" y="-229.8" font-family="Times,serif" font-size="14.00" fill="#000000">CommentsComponent </text>
</g>
<!-- CommentsModule&#45;&gt;CommentsComponent  -->
<g id="edge7" class="edge">
<title>CommentsModule&#45;&gt;CommentsComponent </title>
<path fill="none" stroke="#000000" stroke-dasharray="5,2" d="M501,-187.1061C501,-187.1061 501,-205.991 501,-205.991"/>
<polygon fill="#000000" stroke="#000000" points="497.5001,-205.9909 501,-215.991 504.5001,-205.991 497.5001,-205.9909"/>
</g>
<!-- FormElementsModule -->
<g id="node5" class="node">
<title>FormElementsModule</title>
<polygon fill="#8dd3c7" stroke="#000000" points="571.9818,-122 568.9818,-126 547.9818,-126 544.9818,-122 430.0182,-122 430.0182,-86 571.9818,-86 571.9818,-122"/>
<text text-anchor="middle" x="501" y="-99.8" font-family="Times,serif" font-size="14.00" fill="#000000">FormElementsModule</text>
</g>
<!-- FormElementsModule&#45;&gt;CommentsModule -->
<g id="edge4" class="edge">
<title>FormElementsModule&#45;&gt;CommentsModule</title>
<path fill="none" stroke="#000000" d="M501,-122.1061C501,-122.1061 501,-140.991 501,-140.991"/>
<polygon fill="#000000" stroke="#000000" points="497.5001,-140.9909 501,-150.991 504.5001,-140.991 497.5001,-140.9909"/>
</g>
<!-- IconModule -->
<g id="node6" class="node">
<title>IconModule</title>
<polygon fill="#8dd3c7" stroke="#000000" points="412.4261,-122 409.4261,-126 388.4261,-126 385.4261,-122 327.5739,-122 327.5739,-86 412.4261,-86 412.4261,-122"/>
<text text-anchor="middle" x="370" y="-99.8" font-family="Times,serif" font-size="14.00" fill="#000000">IconModule</text>
</g>
<!-- IconModule&#45;&gt;CommentsModule -->
<g id="edge5" class="edge">
<title>IconModule&#45;&gt;CommentsModule</title>
<path fill="none" stroke="#000000" d="M370,-122.027C370,-138.3976 370,-160 370,-160 370,-160 430.8677,-160 430.8677,-160"/>
<polygon fill="#000000" stroke="#000000" points="430.8677,-163.5001 440.8677,-160 430.8677,-156.5001 430.8677,-163.5001"/>
</g>
<!-- SharedModule -->
<g id="node7" class="node">
<title>SharedModule</title>
<polygon fill="#8dd3c7" stroke="#000000" points="310.4231,-122 307.4231,-126 286.4231,-126 283.4231,-122 211.5769,-122 211.5769,-86 310.4231,-86 310.4231,-122"/>
<text text-anchor="middle" x="261" y="-99.8" font-family="Times,serif" font-size="14.00" fill="#000000">SharedModule</text>
</g>
<!-- SharedModule&#45;&gt;CommentsModule -->
<g id="edge6" class="edge">
<title>SharedModule&#45;&gt;CommentsModule</title>
<path fill="none" stroke="#000000" d="M261,-122.1061C261,-141.3391 261,-169 261,-169 261,-169 430.7477,-169 430.7477,-169"/>
<polygon fill="#000000" stroke="#000000" points="430.7477,-172.5001 440.7477,-169 430.7476,-165.5001 430.7477,-172.5001"/>
</g>
<!-- CommentsService -->
<g id="node9" class="node">
<title>CommentsService</title>
<ellipse fill="#fdb462" stroke="#000000" cx="106" cy="-104" rx="81.6789" ry="18"/>
<text text-anchor="middle" x="106" y="-99.8" font-family="Times,serif" font-size="14.00" fill="#000000">CommentsService</text>
</g>
<!-- CommentsService&#45;&gt;CommentsModule -->
<g id="edge8" class="edge">
<title>CommentsService&#45;&gt;CommentsModule</title>
<path fill="none" stroke="#000000" d="M106,-122.2921C106,-144.2057 106,-178 106,-178 106,-178 430.578,-178 430.578,-178"/>
<polygon fill="#000000" stroke="#000000" points="430.5781,-181.5001 440.578,-178 430.578,-174.5001 430.5781,-181.5001"/>
</g>
</g>
</svg>
