<?xml version="1.0" encoding="UTF-8" standalone="no"?>
<!DOCTYPE svg PUBLIC "-//W3C//DTD SVG 1.1//EN"
 "http://www.w3.org/Graphics/SVG/1.1/DTD/svg11.dtd">
<!-- Generated by graphviz version 2.40.1 (20161225.0304)
 -->
<!-- Title: dependencies Pages: 1 -->
<svg width="504pt" height="284pt"
 viewBox="0.00 0.00 504.00 284.00" xmlns="http://www.w3.org/2000/svg" xmlns:xlink="http://www.w3.org/1999/xlink">
<g id="graph0" class="graph" transform="scale(1 1) rotate(0) translate(4 280)">
<title>dependencies</title>
<polygon fill="#ffffff" stroke="transparent" points="-4,4 -4,-280 500,-280 500,4 -4,4"/>
<text text-anchor="start" x="227.0091" y="-42.4" font-family="sans-serif" font-weight="bold" font-size="14.00" fill="#000000">Legend</text>
<polygon fill="#ffffb3" stroke="transparent" points="14,-10 14,-30 34,-30 34,-10 14,-10"/>
<text text-anchor="start" x="37.629" y="-15.4" font-family="sans-serif" font-size="14.00" fill="#000000"> &#160;Declarations</text>
<polygon fill="#8dd3c7" stroke="transparent" points="127,-10 127,-30 147,-30 147,-10 127,-10"/>
<text text-anchor="start" x="150.7251" y="-15.4" font-family="sans-serif" font-size="14.00" fill="#000000"> &#160;Module</text>
<polygon fill="#80b1d3" stroke="transparent" points="213,-10 213,-30 233,-30 233,-10 213,-10"/>
<text text-anchor="start" x="236.7812" y="-15.4" font-family="sans-serif" font-size="14.00" fill="#000000"> &#160;Bootstrap</text>
<polygon fill="#fdb462" stroke="transparent" points="310,-10 310,-30 330,-30 330,-10 310,-10"/>
<text text-anchor="start" x="333.6732" y="-15.4" font-family="sans-serif" font-size="14.00" fill="#000000"> &#160;Providers</text>
<polygon fill="#fb8072" stroke="transparent" points="406,-10 406,-30 426,-30 426,-10 406,-10"/>
<text text-anchor="start" x="429.7258" y="-15.4" font-family="sans-serif" font-size="14.00" fill="#000000"> &#160;Exports</text>
<g id="clust1" class="cluster">
<title>cluster_NotificationModule</title>
<polygon fill="none" stroke="#000000" stroke-dasharray="1,5" points="104,-70 104,-268 392,-268 392,-70 104,-70"/>
</g>
<g id="clust2" class="cluster">
<title>cluster_NotificationModule_declarations</title>
<polygon fill="none" stroke="#000000" points="220,-78 220,-130 384,-130 384,-78 220,-78"/>
</g>
<g id="clust4" class="cluster">
<title>cluster_NotificationModule_imports</title>
<polygon fill="none" stroke="#000000" points="112,-78 112,-130 212,-130 212,-78 112,-78"/>
</g>
<g id="clust5" class="cluster">
<title>cluster_NotificationModule_exports</title>
<polygon fill="none" stroke="#000000" points="164,-208 164,-260 332,-260 332,-208 164,-208"/>
</g>
<!-- NotificationComponent -->
<g id="node1" class="node">
<title>NotificationComponent</title>
<polygon fill="#ffffb3" stroke="#000000" points="376.4818,-122 227.5182,-122 227.5182,-86 376.4818,-86 376.4818,-122"/>
<text text-anchor="middle" x="302" y="-99.8" font-family="Times,serif" font-size="14.00" fill="#000000">NotificationComponent</text>
</g>
<!-- NotificationModule -->
<g id="node2" class="node">
<title>NotificationModule</title>
<polygon fill="#8dd3c7" stroke="#000000" points="311.6994,-187 308.6994,-191 287.6994,-191 284.6994,-187 184.3006,-187 184.3006,-151 311.6994,-151 311.6994,-187"/>
<text text-anchor="middle" x="248" y="-164.8" font-family="Times,serif" font-size="14.00" fill="#000000">NotificationModule</text>
</g>
<!-- NotificationComponent&#45;&gt;NotificationModule -->
<g id="edge1" class="edge">
<title>NotificationComponent&#45;&gt;NotificationModule</title>
<path fill="none" stroke="#000000" d="M269.5544,-122.1061C269.5544,-122.1061 269.5544,-140.991 269.5544,-140.991"/>
<polygon fill="#000000" stroke="#000000" points="266.0544,-140.9909 269.5544,-150.991 273.0544,-140.991 266.0544,-140.9909"/>
</g>
<!-- NotificationComponent  -->
<g id="node4" class="node">
<title>NotificationComponent </title>
<polygon fill="#fb8072" stroke="#000000" points="324.4826,-252 171.5174,-252 171.5174,-216 324.4826,-216 324.4826,-252"/>
<text text-anchor="middle" x="248" y="-229.8" font-family="Times,serif" font-size="14.00" fill="#000000">NotificationComponent </text>
</g>
<!-- NotificationModule&#45;&gt;NotificationComponent  -->
<g id="edge3" class="edge">
<title>NotificationModule&#45;&gt;NotificationComponent </title>
<path fill="none" stroke="#000000" stroke-dasharray="5,2" d="M248,-187.1061C248,-187.1061 248,-205.991 248,-205.991"/>
<polygon fill="#000000" stroke="#000000" points="244.5001,-205.9909 248,-215.991 251.5001,-205.991 244.5001,-205.9909"/>
</g>
<!-- IconModule -->
<g id="node3" class="node">
<title>IconModule</title>
<polygon fill="#8dd3c7" stroke="#000000" points="204.4261,-122 201.4261,-126 180.4261,-126 177.4261,-122 119.5739,-122 119.5739,-86 204.4261,-86 204.4261,-122"/>
<text text-anchor="middle" x="162" y="-99.8" font-family="Times,serif" font-size="14.00" fill="#000000">IconModule</text>
</g>
<!-- IconModule&#45;&gt;NotificationModule -->
<g id="edge2" class="edge">
<title>IconModule&#45;&gt;NotificationModule</title>
<path fill="none" stroke="#000000" d="M194.3064,-122.1061C194.3064,-122.1061 194.3064,-140.991 194.3064,-140.991"/>
<polygon fill="#000000" stroke="#000000" points="190.8065,-140.9909 194.3064,-150.991 197.8065,-140.991 190.8065,-140.9909"/>
</g>
</g>
</svg>
