<?xml version="1.0" encoding="UTF-8" standalone="no"?>
<!DOCTYPE svg PUBLIC "-//W3C//DTD SVG 1.1//EN"
 "http://www.w3.org/Graphics/SVG/1.1/DTD/svg11.dtd">
<!-- Generated by graphviz version 2.40.1 (20161225.0304)
 -->
<!-- Title: dependencies Pages: 1 -->
<svg width="1439pt" height="211pt"
 viewBox="0.00 0.00 1439.00 211.00" xmlns="http://www.w3.org/2000/svg" xmlns:xlink="http://www.w3.org/1999/xlink">
<g id="graph0" class="graph" transform="scale(1 1) rotate(0) translate(4 207)">
<title>dependencies</title>
<polygon fill="#ffffff" stroke="transparent" points="-4,4 -4,-207 1435,-207 1435,4 -4,4"/>
<text text-anchor="start" x="694.5091" y="-42.4" font-family="sans-serif" font-weight="bold" font-size="14.00" fill="#000000">Legend</text>
<polygon fill="#ffffb3" stroke="transparent" points="481.5,-10 481.5,-30 501.5,-30 501.5,-10 481.5,-10"/>
<text text-anchor="start" x="505.129" y="-15.4" font-family="sans-serif" font-size="14.00" fill="#000000"> &#160;Declarations</text>
<polygon fill="#8dd3c7" stroke="transparent" points="594.5,-10 594.5,-30 614.5,-30 614.5,-10 594.5,-10"/>
<text text-anchor="start" x="618.2251" y="-15.4" font-family="sans-serif" font-size="14.00" fill="#000000"> &#160;Module</text>
<polygon fill="#80b1d3" stroke="transparent" points="680.5,-10 680.5,-30 700.5,-30 700.5,-10 680.5,-10"/>
<text text-anchor="start" x="704.2812" y="-15.4" font-family="sans-serif" font-size="14.00" fill="#000000"> &#160;Bootstrap</text>
<polygon fill="#fdb462" stroke="transparent" points="777.5,-10 777.5,-30 797.5,-30 797.5,-10 777.5,-10"/>
<text text-anchor="start" x="801.1732" y="-15.4" font-family="sans-serif" font-size="14.00" fill="#000000"> &#160;Providers</text>
<polygon fill="#fb8072" stroke="transparent" points="873.5,-10 873.5,-30 893.5,-30 893.5,-10 873.5,-10"/>
<text text-anchor="start" x="897.2258" y="-15.4" font-family="sans-serif" font-size="14.00" fill="#000000"> &#160;Exports</text>
<g id="clust1" class="cluster">
<title>cluster_BackendModule</title>
<polygon fill="none" stroke="#000000" stroke-dasharray="1,5" points="8,-70 8,-195 1423,-195 1423,-70 8,-70"/>
</g>
<g id="clust2" class="cluster">
<title>cluster_BackendModule_declarations</title>
<polygon fill="none" stroke="#000000" points="1269,-78 1269,-130 1415,-130 1415,-78 1269,-78"/>
</g>
<g id="clust4" class="cluster">
<title>cluster_BackendModule_imports</title>
<polygon fill="none" stroke="#000000" points="448,-78 448,-130 1261,-130 1261,-78 448,-78"/>
</g>
<g id="clust7" class="cluster">
<title>cluster_BackendModule_providers</title>
<polygon fill="none" stroke="#000000" points="16,-78 16,-130 440,-130 440,-78 16,-78"/>
</g>
<!-- BackendComponent -->
<g id="node1" class="node">
<title>BackendComponent</title>
<polygon fill="#ffffb3" stroke="#000000" points="1407.3132,-122 1276.6868,-122 1276.6868,-86 1407.3132,-86 1407.3132,-122"/>
<text text-anchor="middle" x="1342" y="-99.8" font-family="Times,serif" font-size="14.00" fill="#000000">BackendComponent</text>
</g>
<!-- BackendModule -->
<g id="node2" class="node">
<title>BackendModule</title>
<polygon fill="#8dd3c7" stroke="#000000" points="750.0312,-187 747.0312,-191 726.0312,-191 723.0312,-187 641.9688,-187 641.9688,-151 750.0312,-151 750.0312,-187"/>
<text text-anchor="middle" x="696" y="-164.8" font-family="Times,serif" font-size="14.00" fill="#000000">BackendModule</text>
</g>
<!-- BackendComponent&#45;&gt;BackendModule -->
<g id="edge1" class="edge">
<title>BackendComponent&#45;&gt;BackendModule</title>
<path fill="none" stroke="#000000" d="M1342,-122.0109C1342,-144.4852 1342,-180 1342,-180 1342,-180 760.2434,-180 760.2434,-180"/>
<polygon fill="#000000" stroke="#000000" points="760.2434,-176.5001 750.2434,-180 760.2433,-183.5001 760.2434,-176.5001"/>
</g>
<!-- ArticlesModule -->
<g id="node3" class="node">
<title>ArticlesModule</title>
<polygon fill="#8dd3c7" stroke="#000000" points="1252.8627,-122 1249.8627,-126 1228.8627,-126 1225.8627,-122 1149.1373,-122 1149.1373,-86 1252.8627,-86 1252.8627,-122"/>
<text text-anchor="middle" x="1201" y="-99.8" font-family="Times,serif" font-size="14.00" fill="#000000">ArticlesModule</text>
</g>
<!-- ArticlesModule&#45;&gt;BackendModule -->
<g id="edge2" class="edge">
<title>ArticlesModule&#45;&gt;BackendModule</title>
<path fill="none" stroke="#000000" d="M1201,-122.1289C1201,-142.5724 1201,-173 1201,-173 1201,-173 760.0438,-173 760.0438,-173"/>
<polygon fill="#000000" stroke="#000000" points="760.0439,-169.5001 750.0438,-173 760.0438,-176.5001 760.0439,-169.5001"/>
</g>
<!-- BackendNavigationModule -->
<g id="node4" class="node">
<title>BackendNavigationModule</title>
<polygon fill="#8dd3c7" stroke="#000000" points="1131.238,-122 1128.238,-126 1107.238,-126 1104.238,-122 960.762,-122 960.762,-86 1131.238,-86 1131.238,-122"/>
<text text-anchor="middle" x="1046" y="-99.8" font-family="Times,serif" font-size="14.00" fill="#000000">BackendNavigationModule</text>
</g>
<!-- BackendNavigationModule&#45;&gt;BackendModule -->
<g id="edge3" class="edge">
<title>BackendNavigationModule&#45;&gt;BackendModule</title>
<path fill="none" stroke="#000000" d="M1046,-122.2667C1046,-140.5552 1046,-166 1046,-166 1046,-166 760.3035,-166 760.3035,-166"/>
<polygon fill="#000000" stroke="#000000" points="760.3035,-162.5001 750.3035,-166 760.3034,-169.5001 760.3035,-162.5001"/>
</g>
<!-- CountriesModule -->
<g id="node5" class="node">
<title>CountriesModule</title>
<polygon fill="#8dd3c7" stroke="#000000" points="942.9874,-122 939.9874,-126 918.9874,-126 915.9874,-122 829.0126,-122 829.0126,-86 942.9874,-86 942.9874,-122"/>
<text text-anchor="middle" x="886" y="-99.8" font-family="Times,serif" font-size="14.00" fill="#000000">CountriesModule</text>
</g>
<!-- CountriesModule&#45;&gt;BackendModule -->
<g id="edge4" class="edge">
<title>CountriesModule&#45;&gt;BackendModule</title>
<path fill="none" stroke="#000000" d="M886,-122.0091C886,-138.0494 886,-159 886,-159 886,-159 760.1921,-159 760.1921,-159"/>
<polygon fill="#000000" stroke="#000000" points="760.1921,-155.5001 750.1921,-159 760.1921,-162.5001 760.1921,-155.5001"/>
</g>
<!-- SharedModule -->
<g id="node6" class="node">
<title>SharedModule</title>
<polygon fill="#8dd3c7" stroke="#000000" points="811.4231,-122 808.4231,-126 787.4231,-126 784.4231,-122 712.5769,-122 712.5769,-86 811.4231,-86 811.4231,-122"/>
<text text-anchor="middle" x="762" y="-99.8" font-family="Times,serif" font-size="14.00" fill="#000000">SharedModule</text>
</g>
<!-- SharedModule&#45;&gt;BackendModule -->
<g id="edge5" class="edge">
<title>SharedModule&#45;&gt;BackendModule</title>
<path fill="none" stroke="#000000" d="M731.527,-122.1061C731.527,-122.1061 731.527,-140.991 731.527,-140.991"/>
<polygon fill="#000000" stroke="#000000" points="728.0271,-140.9909 731.527,-150.991 735.0271,-140.991 728.0271,-140.9909"/>
</g>
<!-- TranslationsModule -->
<g id="node7" class="node">
<title>TranslationsModule</title>
<polygon fill="#8dd3c7" stroke="#000000" points="694.2534,-122 691.2534,-126 670.2534,-126 667.2534,-122 565.7466,-122 565.7466,-86 694.2534,-86 694.2534,-122"/>
<text text-anchor="middle" x="630" y="-99.8" font-family="Times,serif" font-size="14.00" fill="#000000">TranslationsModule</text>
</g>
<!-- TranslationsModule&#45;&gt;BackendModule -->
<g id="edge6" class="edge">
<title>TranslationsModule&#45;&gt;BackendModule</title>
<path fill="none" stroke="#000000" d="M668.0558,-122.1061C668.0558,-122.1061 668.0558,-140.991 668.0558,-140.991"/>
<polygon fill="#000000" stroke="#000000" points="664.5558,-140.9909 668.0558,-150.991 671.5558,-140.991 664.5558,-140.9909"/>
</g>
<!-- UsersModule -->
<g id="node8" class="node">
<title>UsersModule</title>
<polygon fill="#8dd3c7" stroke="#000000" points="547.9218,-122 544.9218,-126 523.9218,-126 520.9218,-122 456.0782,-122 456.0782,-86 547.9218,-86 547.9218,-122"/>
<text text-anchor="middle" x="502" y="-99.8" font-family="Times,serif" font-size="14.00" fill="#000000">UsersModule</text>
</g>
<!-- UsersModule&#45;&gt;BackendModule -->
<g id="edge7" class="edge">
<title>UsersModule&#45;&gt;BackendModule</title>
<path fill="none" stroke="#000000" d="M502,-122.0091C502,-138.0494 502,-159 502,-159 502,-159 631.9602,-159 631.9602,-159"/>
<polygon fill="#000000" stroke="#000000" points="631.9602,-162.5001 641.9602,-159 631.9601,-155.5001 631.9602,-162.5001"/>
</g>
<!-- AuthGuard -->
<g id="node9" class="node">
<title>AuthGuard</title>
<ellipse fill="#fdb462" stroke="#000000" cx="378" cy="-104" rx="54.4566" ry="18"/>
<text text-anchor="middle" x="378" y="-99.8" font-family="Times,serif" font-size="14.00" fill="#000000">AuthGuard</text>
</g>
<!-- AuthGuard&#45;&gt;BackendModule -->
<g id="edge8" class="edge">
<title>AuthGuard&#45;&gt;BackendModule</title>
<path fill="none" stroke="#000000" d="M378,-122.2667C378,-140.5552 378,-166 378,-166 378,-166 631.6952,-166 631.6952,-166"/>
<polygon fill="#000000" stroke="#000000" points="631.6952,-169.5001 641.6952,-166 631.6951,-162.5001 631.6952,-169.5001"/>
</g>
<!-- AuthInterceptor -->
<g id="node10" class="node">
<title>AuthInterceptor</title>
<ellipse fill="#fdb462" stroke="#000000" cx="233" cy="-104" rx="72.9121" ry="18"/>
<text text-anchor="middle" x="233" y="-99.8" font-family="Times,serif" font-size="14.00" fill="#000000">AuthInterceptor</text>
</g>
<!-- AuthInterceptor&#45;&gt;BackendModule -->
<g id="edge9" class="edge">
<title>AuthInterceptor&#45;&gt;BackendModule</title>
<path fill="none" stroke="#000000" d="M233,-122.1289C233,-142.5724 233,-173 233,-173 233,-173 631.5265,-173 631.5265,-173"/>
<polygon fill="#000000" stroke="#000000" points="631.5266,-176.5001 641.5265,-173 631.5265,-169.5001 631.5266,-176.5001"/>
</g>
<!-- AuthService -->
<g id="node11" class="node">
<title>AuthService</title>
<ellipse fill="#fdb462" stroke="#000000" cx="83" cy="-104" rx="59.1083" ry="18"/>
<text text-anchor="middle" x="83" y="-99.8" font-family="Times,serif" font-size="14.00" fill="#000000">AuthService</text>
</g>
<!-- AuthService&#45;&gt;BackendModule -->
<g id="edge10" class="edge">
<title>AuthService&#45;&gt;BackendModule</title>
<path fill="none" stroke="#000000" d="M83,-122.0109C83,-144.4852 83,-180 83,-180 83,-180 631.8692,-180 631.8692,-180"/>
<polygon fill="#000000" stroke="#000000" points="631.8693,-183.5001 641.8692,-180 631.8692,-176.5001 631.8693,-183.5001"/>
</g>
</g>
</svg>
