<?xml version="1.0" encoding="UTF-8" standalone="no"?>
<!DOCTYPE svg PUBLIC "-//W3C//DTD SVG 1.1//EN"
 "http://www.w3.org/Graphics/SVG/1.1/DTD/svg11.dtd">
<!-- Generated by graphviz version 2.40.1 (20161225.0304)
 -->
<!-- Title: dependencies Pages: 1 -->
<svg width="1337pt" height="211pt"
 viewBox="0.00 0.00 1337.00 211.00" xmlns="http://www.w3.org/2000/svg" xmlns:xlink="http://www.w3.org/1999/xlink">
<g id="graph0" class="graph" transform="scale(1 1) rotate(0) translate(4 207)">
<title>dependencies</title>
<polygon fill="#ffffff" stroke="transparent" points="-4,4 -4,-207 1333,-207 1333,4 -4,4"/>
<text text-anchor="start" x="643.5091" y="-42.4" font-family="sans-serif" font-weight="bold" font-size="14.00" fill="#000000">Legend</text>
<polygon fill="#ffffb3" stroke="transparent" points="430.5,-10 430.5,-30 450.5,-30 450.5,-10 430.5,-10"/>
<text text-anchor="start" x="454.129" y="-15.4" font-family="sans-serif" font-size="14.00" fill="#000000"> &#160;Declarations</text>
<polygon fill="#8dd3c7" stroke="transparent" points="543.5,-10 543.5,-30 563.5,-30 563.5,-10 543.5,-10"/>
<text text-anchor="start" x="567.2251" y="-15.4" font-family="sans-serif" font-size="14.00" fill="#000000"> &#160;Module</text>
<polygon fill="#80b1d3" stroke="transparent" points="629.5,-10 629.5,-30 649.5,-30 649.5,-10 629.5,-10"/>
<text text-anchor="start" x="653.2812" y="-15.4" font-family="sans-serif" font-size="14.00" fill="#000000"> &#160;Bootstrap</text>
<polygon fill="#fdb462" stroke="transparent" points="726.5,-10 726.5,-30 746.5,-30 746.5,-10 726.5,-10"/>
<text text-anchor="start" x="750.1732" y="-15.4" font-family="sans-serif" font-size="14.00" fill="#000000"> &#160;Providers</text>
<polygon fill="#fb8072" stroke="transparent" points="822.5,-10 822.5,-30 842.5,-30 842.5,-10 822.5,-10"/>
<text text-anchor="start" x="846.2258" y="-15.4" font-family="sans-serif" font-size="14.00" fill="#000000"> &#160;Exports</text>
<g id="clust1" class="cluster">
<title>cluster_BackendModule</title>
<polygon fill="none" stroke="#000000" stroke-dasharray="1,5" points="8,-70 8,-195 1321,-195 1321,-70 8,-70"/>
</g>
<g id="clust2" class="cluster">
<title>cluster_BackendModule_declarations</title>
<polygon fill="none" stroke="#000000" points="1167,-78 1167,-130 1313,-130 1313,-78 1167,-78"/>
</g>
<g id="clust4" class="cluster">
<title>cluster_BackendModule_imports</title>
<polygon fill="none" stroke="#000000" points="448,-78 448,-130 1159,-130 1159,-78 448,-78"/>
</g>
<g id="clust7" class="cluster">
<title>cluster_BackendModule_providers</title>
<polygon fill="none" stroke="#000000" points="16,-78 16,-130 440,-130 440,-78 16,-78"/>
</g>
<!-- BackendComponent -->
<g id="node1" class="node">
<title>BackendComponent</title>
<polygon fill="#ffffb3" stroke="#000000" points="1305.3132,-122 1174.6868,-122 1174.6868,-86 1305.3132,-86 1305.3132,-122"/>
<text text-anchor="middle" x="1240" y="-99.8" font-family="Times,serif" font-size="14.00" fill="#000000">BackendComponent</text>
</g>
<!-- BackendModule -->
<g id="node2" class="node">
<title>BackendModule</title>
<polygon fill="#8dd3c7" stroke="#000000" points="684.0312,-187 681.0312,-191 660.0312,-191 657.0312,-187 575.9688,-187 575.9688,-151 684.0312,-151 684.0312,-187"/>
<text text-anchor="middle" x="630" y="-164.8" font-family="Times,serif" font-size="14.00" fill="#000000">BackendModule</text>
</g>
<!-- BackendComponent&#45;&gt;BackendModule -->
<g id="edge1" class="edge">
<title>BackendComponent&#45;&gt;BackendModule</title>
<path fill="none" stroke="#000000" d="M1240,-122.0109C1240,-144.4852 1240,-180 1240,-180 1240,-180 694.1334,-180 694.1334,-180"/>
<polygon fill="#000000" stroke="#000000" points="694.1335,-176.5001 684.1334,-180 694.1334,-183.5001 694.1335,-176.5001"/>
</g>
<!-- AppRoutingModule -->
<g id="node3" class="node">
<title>AppRoutingModule</title>
<polygon fill="#8dd3c7" stroke="#000000" points="1151.2744,-122 1148.2744,-126 1127.2744,-126 1124.2744,-122 1022.7256,-122 1022.7256,-86 1151.2744,-86 1151.2744,-122"/>
<text text-anchor="middle" x="1087" y="-99.8" font-family="Times,serif" font-size="14.00" fill="#000000">AppRoutingModule</text>
</g>
<!-- AppRoutingModule&#45;&gt;BackendModule -->
<g id="edge2" class="edge">
<title>AppRoutingModule&#45;&gt;BackendModule</title>
<path fill="none" stroke="#000000" d="M1087,-122.1289C1087,-142.5724 1087,-173 1087,-173 1087,-173 694.2185,-173 694.2185,-173"/>
<polygon fill="#000000" stroke="#000000" points="694.2185,-169.5001 684.2185,-173 694.2185,-176.5001 694.2185,-169.5001"/>
</g>
<!-- ArticlesModule -->
<g id="node4" class="node">
<title>ArticlesModule</title>
<polygon fill="#8dd3c7" stroke="#000000" points="1004.8627,-122 1001.8627,-126 980.8627,-126 977.8627,-122 901.1373,-122 901.1373,-86 1004.8627,-86 1004.8627,-122"/>
<text text-anchor="middle" x="953" y="-99.8" font-family="Times,serif" font-size="14.00" fill="#000000">ArticlesModule</text>
</g>
<!-- ArticlesModule&#45;&gt;BackendModule -->
<g id="edge3" class="edge">
<title>ArticlesModule&#45;&gt;BackendModule</title>
<path fill="none" stroke="#000000" d="M953,-122.2667C953,-140.5552 953,-166 953,-166 953,-166 694.0629,-166 694.0629,-166"/>
<polygon fill="#000000" stroke="#000000" points="694.063,-162.5001 684.0629,-166 694.0629,-169.5001 694.063,-162.5001"/>
</g>
<!-- BackendNavigationModule -->
<g id="node5" class="node">
<title>BackendNavigationModule</title>
<polygon fill="#8dd3c7" stroke="#000000" points="883.238,-122 880.238,-126 859.238,-126 856.238,-122 712.762,-122 712.762,-86 883.238,-86 883.238,-122"/>
<text text-anchor="middle" x="798" y="-99.8" font-family="Times,serif" font-size="14.00" fill="#000000">BackendNavigationModule</text>
</g>
<!-- BackendNavigationModule&#45;&gt;BackendModule -->
<g id="edge4" class="edge">
<title>BackendNavigationModule&#45;&gt;BackendModule</title>
<path fill="none" stroke="#000000" d="M798,-122.0091C798,-138.0494 798,-159 798,-159 798,-159 694.081,-159 694.081,-159"/>
<polygon fill="#000000" stroke="#000000" points="694.081,-155.5001 684.081,-159 694.081,-162.5001 694.081,-155.5001"/>
</g>
<!-- TranslationsModule -->
<g id="node6" class="node">
<title>TranslationsModule</title>
<polygon fill="#8dd3c7" stroke="#000000" points="694.2534,-122 691.2534,-126 670.2534,-126 667.2534,-122 565.7466,-122 565.7466,-86 694.2534,-86 694.2534,-122"/>
<text text-anchor="middle" x="630" y="-99.8" font-family="Times,serif" font-size="14.00" fill="#000000">TranslationsModule</text>
</g>
<!-- TranslationsModule&#45;&gt;BackendModule -->
<g id="edge5" class="edge">
<title>TranslationsModule&#45;&gt;BackendModule</title>
<path fill="none" stroke="#000000" d="M630,-122.1061C630,-122.1061 630,-140.991 630,-140.991"/>
<polygon fill="#000000" stroke="#000000" points="626.5001,-140.9909 630,-150.991 633.5001,-140.991 626.5001,-140.9909"/>
</g>
<!-- UsersModule -->
<g id="node7" class="node">
<title>UsersModule</title>
<polygon fill="#8dd3c7" stroke="#000000" points="547.9218,-122 544.9218,-126 523.9218,-126 520.9218,-122 456.0782,-122 456.0782,-86 547.9218,-86 547.9218,-122"/>
<text text-anchor="middle" x="502" y="-99.8" font-family="Times,serif" font-size="14.00" fill="#000000">UsersModule</text>
</g>
<!-- UsersModule&#45;&gt;BackendModule -->
<g id="edge6" class="edge">
<title>UsersModule&#45;&gt;BackendModule</title>
<path fill="none" stroke="#000000" d="M502,-122.0091C502,-138.0494 502,-159 502,-159 502,-159 565.7165,-159 565.7165,-159"/>
<polygon fill="#000000" stroke="#000000" points="565.7165,-162.5001 575.7165,-159 565.7164,-155.5001 565.7165,-162.5001"/>
</g>
<!-- AuthGuard -->
<g id="node8" class="node">
<title>AuthGuard</title>
<ellipse fill="#fdb462" stroke="#000000" cx="378" cy="-104" rx="54.4566" ry="18"/>
<text text-anchor="middle" x="378" y="-99.8" font-family="Times,serif" font-size="14.00" fill="#000000">AuthGuard</text>
</g>
<!-- AuthGuard&#45;&gt;BackendModule -->
<g id="edge7" class="edge">
<title>AuthGuard&#45;&gt;BackendModule</title>
<path fill="none" stroke="#000000" d="M378,-122.2667C378,-140.5552 378,-166 378,-166 378,-166 565.9397,-166 565.9397,-166"/>
<polygon fill="#000000" stroke="#000000" points="565.9397,-169.5001 575.9397,-166 565.9396,-162.5001 565.9397,-169.5001"/>
</g>
<!-- AuthInterceptor -->
<g id="node9" class="node">
<title>AuthInterceptor</title>
<ellipse fill="#fdb462" stroke="#000000" cx="233" cy="-104" rx="72.9121" ry="18"/>
<text text-anchor="middle" x="233" y="-99.8" font-family="Times,serif" font-size="14.00" fill="#000000">AuthInterceptor</text>
</g>
<!-- AuthInterceptor&#45;&gt;BackendModule -->
<g id="edge8" class="edge">
<title>AuthInterceptor&#45;&gt;BackendModule</title>
<path fill="none" stroke="#000000" d="M233,-122.1289C233,-142.5724 233,-173 233,-173 233,-173 565.6313,-173 565.6313,-173"/>
<polygon fill="#000000" stroke="#000000" points="565.6313,-176.5001 575.6313,-173 565.6312,-169.5001 565.6313,-176.5001"/>
</g>
<!-- AuthService -->
<g id="node10" class="node">
<title>AuthService</title>
<ellipse fill="#fdb462" stroke="#000000" cx="83" cy="-104" rx="59.1083" ry="18"/>
<text text-anchor="middle" x="83" y="-99.8" font-family="Times,serif" font-size="14.00" fill="#000000">AuthService</text>
</g>
<!-- AuthService&#45;&gt;BackendModule -->
<g id="edge9" class="edge">
<title>AuthService&#45;&gt;BackendModule</title>
<path fill="none" stroke="#000000" d="M83,-122.0109C83,-144.4852 83,-180 83,-180 83,-180 565.8034,-180 565.8034,-180"/>
<polygon fill="#000000" stroke="#000000" points="565.8034,-183.5001 575.8034,-180 565.8033,-176.5001 565.8034,-183.5001"/>
</g>
</g>
</svg>
