<?xml version="1.0" encoding="UTF-8" standalone="no"?>
<!DOCTYPE svg PUBLIC "-//W3C//DTD SVG 1.1//EN"
 "http://www.w3.org/Graphics/SVG/1.1/DTD/svg11.dtd">
<!-- Generated by graphviz version 2.40.1 (20161225.0304)
 -->
<!-- Title: dependencies Pages: 1 -->
<svg width="1529pt" height="211pt"
 viewBox="0.00 0.00 1529.00 211.00" xmlns="http://www.w3.org/2000/svg" xmlns:xlink="http://www.w3.org/1999/xlink">
<g id="graph0" class="graph" transform="scale(1 1) rotate(0) translate(4 207)">
<title>dependencies</title>
<polygon fill="#ffffff" stroke="transparent" points="-4,4 -4,-207 1525,-207 1525,4 -4,4"/>
<text text-anchor="start" x="739.5091" y="-42.4" font-family="sans-serif" font-weight="bold" font-size="14.00" fill="#000000">Legend</text>
<polygon fill="#ffffb3" stroke="transparent" points="526.5,-10 526.5,-30 546.5,-30 546.5,-10 526.5,-10"/>
<text text-anchor="start" x="550.129" y="-15.4" font-family="sans-serif" font-size="14.00" fill="#000000"> &#160;Declarations</text>
<polygon fill="#8dd3c7" stroke="transparent" points="639.5,-10 639.5,-30 659.5,-30 659.5,-10 639.5,-10"/>
<text text-anchor="start" x="663.2251" y="-15.4" font-family="sans-serif" font-size="14.00" fill="#000000"> &#160;Module</text>
<polygon fill="#80b1d3" stroke="transparent" points="725.5,-10 725.5,-30 745.5,-30 745.5,-10 725.5,-10"/>
<text text-anchor="start" x="749.2812" y="-15.4" font-family="sans-serif" font-size="14.00" fill="#000000"> &#160;Bootstrap</text>
<polygon fill="#fdb462" stroke="transparent" points="822.5,-10 822.5,-30 842.5,-30 842.5,-10 822.5,-10"/>
<text text-anchor="start" x="846.1732" y="-15.4" font-family="sans-serif" font-size="14.00" fill="#000000"> &#160;Providers</text>
<polygon fill="#fb8072" stroke="transparent" points="918.5,-10 918.5,-30 938.5,-30 938.5,-10 918.5,-10"/>
<text text-anchor="start" x="942.2258" y="-15.4" font-family="sans-serif" font-size="14.00" fill="#000000"> &#160;Exports</text>
<g id="clust1" class="cluster">
<title>cluster_ArticlesModule</title>
<polygon fill="none" stroke="#000000" stroke-dasharray="1,5" points="8,-70 8,-195 1513,-195 1513,-70 8,-70"/>
</g>
<g id="clust2" class="cluster">
<title>cluster_ArticlesModule_declarations</title>
<polygon fill="none" stroke="#000000" points="846,-78 846,-130 1505,-130 1505,-78 846,-78"/>
</g>
<g id="clust7" class="cluster">
<title>cluster_ArticlesModule_imports</title>
<polygon fill="none" stroke="#000000" points="182,-78 182,-130 838,-130 838,-78 182,-78"/>
</g>
<g id="clust10" class="cluster">
<title>cluster_ArticlesModule_providers</title>
<polygon fill="none" stroke="#000000" points="16,-78 16,-130 174,-130 174,-78 16,-78"/>
</g>
<!-- ArticlesComponent -->
<g id="node1" class="node">
<title>ArticlesComponent</title>
<polygon fill="#ffffb3" stroke="#000000" points="1496.6457,-122 1371.3543,-122 1371.3543,-86 1496.6457,-86 1496.6457,-122"/>
<text text-anchor="middle" x="1434" y="-99.8" font-family="Times,serif" font-size="14.00" fill="#000000">ArticlesComponent</text>
</g>
<!-- ArticlesModule -->
<g id="node5" class="node">
<title>ArticlesModule</title>
<polygon fill="#8dd3c7" stroke="#000000" points="740.8627,-187 737.8627,-191 716.8627,-191 713.8627,-187 637.1373,-187 637.1373,-151 740.8627,-151 740.8627,-187"/>
<text text-anchor="middle" x="689" y="-164.8" font-family="Times,serif" font-size="14.00" fill="#000000">ArticlesModule</text>
</g>
<!-- ArticlesComponent&#45;&gt;ArticlesModule -->
<g id="edge1" class="edge">
<title>ArticlesComponent&#45;&gt;ArticlesModule</title>
<path fill="none" stroke="#000000" d="M1434,-122.0109C1434,-144.4852 1434,-180 1434,-180 1434,-180 751.0908,-180 751.0908,-180"/>
<polygon fill="#000000" stroke="#000000" points="751.0909,-176.5001 741.0908,-180 751.0908,-183.5001 751.0909,-176.5001"/>
</g>
<!-- ArticlesDetailsComponent -->
<g id="node2" class="node">
<title>ArticlesDetailsComponent</title>
<polygon fill="#ffffb3" stroke="#000000" points="1353.7977,-122 1188.2023,-122 1188.2023,-86 1353.7977,-86 1353.7977,-122"/>
<text text-anchor="middle" x="1271" y="-99.8" font-family="Times,serif" font-size="14.00" fill="#000000">ArticlesDetailsComponent</text>
</g>
<!-- ArticlesDetailsComponent&#45;&gt;ArticlesModule -->
<g id="edge2" class="edge">
<title>ArticlesDetailsComponent&#45;&gt;ArticlesModule</title>
<path fill="none" stroke="#000000" d="M1271,-122.1289C1271,-142.5724 1271,-173 1271,-173 1271,-173 750.9044,-173 750.9044,-173"/>
<polygon fill="#000000" stroke="#000000" points="750.9045,-169.5001 740.9044,-173 750.9044,-176.5001 750.9045,-169.5001"/>
</g>
<!-- ArticlesItemComponent -->
<g id="node3" class="node">
<title>ArticlesItemComponent</title>
<polygon fill="#ffffb3" stroke="#000000" points="1170.8019,-122 1019.1981,-122 1019.1981,-86 1170.8019,-86 1170.8019,-122"/>
<text text-anchor="middle" x="1095" y="-99.8" font-family="Times,serif" font-size="14.00" fill="#000000">ArticlesItemComponent</text>
</g>
<!-- ArticlesItemComponent&#45;&gt;ArticlesModule -->
<g id="edge3" class="edge">
<title>ArticlesItemComponent&#45;&gt;ArticlesModule</title>
<path fill="none" stroke="#000000" d="M1095,-122.2667C1095,-140.5552 1095,-166 1095,-166 1095,-166 751.2462,-166 751.2462,-166"/>
<polygon fill="#000000" stroke="#000000" points="751.2463,-162.5001 741.2462,-166 751.2462,-169.5001 751.2463,-162.5001"/>
</g>
<!-- ArticlesListComponent -->
<g id="node4" class="node">
<title>ArticlesListComponent</title>
<polygon fill="#ffffb3" stroke="#000000" points="1001.9242,-122 854.0758,-122 854.0758,-86 1001.9242,-86 1001.9242,-122"/>
<text text-anchor="middle" x="928" y="-99.8" font-family="Times,serif" font-size="14.00" fill="#000000">ArticlesListComponent</text>
</g>
<!-- ArticlesListComponent&#45;&gt;ArticlesModule -->
<g id="edge4" class="edge">
<title>ArticlesListComponent&#45;&gt;ArticlesModule</title>
<path fill="none" stroke="#000000" d="M928,-122.0091C928,-138.0494 928,-159 928,-159 928,-159 751.1542,-159 751.1542,-159"/>
<polygon fill="#000000" stroke="#000000" points="751.1543,-155.5001 741.1542,-159 751.1542,-162.5001 751.1543,-155.5001"/>
</g>
<!-- AppRoutingModule -->
<g id="node6" class="node">
<title>AppRoutingModule</title>
<polygon fill="#8dd3c7" stroke="#000000" points="830.2744,-122 827.2744,-126 806.2744,-126 803.2744,-122 701.7256,-122 701.7256,-86 830.2744,-86 830.2744,-122"/>
<text text-anchor="middle" x="766" y="-99.8" font-family="Times,serif" font-size="14.00" fill="#000000">AppRoutingModule</text>
</g>
<!-- AppRoutingModule&#45;&gt;ArticlesModule -->
<g id="edge5" class="edge">
<title>AppRoutingModule&#45;&gt;ArticlesModule</title>
<path fill="none" stroke="#000000" d="M721.2721,-122.1061C721.2721,-122.1061 721.2721,-140.991 721.2721,-140.991"/>
<polygon fill="#000000" stroke="#000000" points="717.7722,-140.9909 721.2721,-150.991 724.7722,-140.991 717.7722,-140.9909"/>
</g>
<!-- FormElementsModule -->
<g id="node7" class="node">
<title>FormElementsModule</title>
<polygon fill="#8dd3c7" stroke="#000000" points="683.9818,-122 680.9818,-126 659.9818,-126 656.9818,-122 542.0182,-122 542.0182,-86 683.9818,-86 683.9818,-122"/>
<text text-anchor="middle" x="613" y="-99.8" font-family="Times,serif" font-size="14.00" fill="#000000">FormElementsModule</text>
</g>
<!-- FormElementsModule&#45;&gt;ArticlesModule -->
<g id="edge6" class="edge">
<title>FormElementsModule&#45;&gt;ArticlesModule</title>
<path fill="none" stroke="#000000" d="M660.5298,-122.1061C660.5298,-122.1061 660.5298,-140.991 660.5298,-140.991"/>
<polygon fill="#000000" stroke="#000000" points="657.0299,-140.9909 660.5298,-150.991 664.0299,-140.991 657.0299,-140.9909"/>
</g>
<!-- HeadlinesModule -->
<g id="node8" class="node">
<title>HeadlinesModule</title>
<polygon fill="#8dd3c7" stroke="#000000" points="523.527,-122 520.527,-126 499.527,-126 496.527,-122 408.473,-122 408.473,-86 523.527,-86 523.527,-122"/>
<text text-anchor="middle" x="466" y="-99.8" font-family="Times,serif" font-size="14.00" fill="#000000">HeadlinesModule</text>
</g>
<!-- HeadlinesModule&#45;&gt;ArticlesModule -->
<g id="edge7" class="edge">
<title>HeadlinesModule&#45;&gt;ArticlesModule</title>
<path fill="none" stroke="#000000" d="M466,-122.0091C466,-138.0494 466,-159 466,-159 466,-159 626.9978,-159 626.9978,-159"/>
<polygon fill="#000000" stroke="#000000" points="626.9979,-162.5001 636.9978,-159 626.9978,-155.5001 626.9979,-162.5001"/>
</g>
<!-- IconModule -->
<g id="node9" class="node">
<title>IconModule</title>
<polygon fill="#8dd3c7" stroke="#000000" points="390.4261,-122 387.4261,-126 366.4261,-126 363.4261,-122 305.5739,-122 305.5739,-86 390.4261,-86 390.4261,-122"/>
<text text-anchor="middle" x="348" y="-99.8" font-family="Times,serif" font-size="14.00" fill="#000000">IconModule</text>
</g>
<!-- IconModule&#45;&gt;ArticlesModule -->
<g id="edge8" class="edge">
<title>IconModule&#45;&gt;ArticlesModule</title>
<path fill="none" stroke="#000000" d="M348,-122.2667C348,-140.5552 348,-166 348,-166 348,-166 626.8382,-166 626.8382,-166"/>
<polygon fill="#000000" stroke="#000000" points="626.8383,-169.5001 636.8382,-166 626.8382,-162.5001 626.8383,-169.5001"/>
</g>
<!-- SharedModule -->
<g id="node10" class="node">
<title>SharedModule</title>
<polygon fill="#8dd3c7" stroke="#000000" points="288.4231,-122 285.4231,-126 264.4231,-126 261.4231,-122 189.5769,-122 189.5769,-86 288.4231,-86 288.4231,-122"/>
<text text-anchor="middle" x="239" y="-99.8" font-family="Times,serif" font-size="14.00" fill="#000000">SharedModule</text>
</g>
<!-- SharedModule&#45;&gt;ArticlesModule -->
<g id="edge9" class="edge">
<title>SharedModule&#45;&gt;ArticlesModule</title>
<path fill="none" stroke="#000000" d="M239,-122.1289C239,-142.5724 239,-173 239,-173 239,-173 626.9397,-173 626.9397,-173"/>
<polygon fill="#000000" stroke="#000000" points="626.9397,-176.5001 636.9397,-173 626.9396,-169.5001 626.9397,-176.5001"/>
</g>
<!-- ArticlesService -->
<g id="node11" class="node">
<title>ArticlesService</title>
<ellipse fill="#fdb462" stroke="#000000" cx="95" cy="-104" rx="70.6162" ry="18"/>
<text text-anchor="middle" x="95" y="-99.8" font-family="Times,serif" font-size="14.00" fill="#000000">ArticlesService</text>
</g>
<!-- ArticlesService&#45;&gt;ArticlesModule -->
<g id="edge10" class="edge">
<title>ArticlesService&#45;&gt;ArticlesModule</title>
<path fill="none" stroke="#000000" d="M95,-122.0109C95,-144.4852 95,-180 95,-180 95,-180 627.0666,-180 627.0666,-180"/>
<polygon fill="#000000" stroke="#000000" points="627.0666,-183.5001 637.0666,-180 627.0665,-176.5001 627.0666,-183.5001"/>
</g>
</g>
</svg>
