<?xml version="1.0" encoding="UTF-8" standalone="no"?>
<!DOCTYPE svg PUBLIC "-//W3C//DTD SVG 1.1//EN"
 "http://www.w3.org/Graphics/SVG/1.1/DTD/svg11.dtd">
<!-- Generated by graphviz version 2.40.1 (20161225.0304)
 -->
<!-- Title: dependencies Pages: 1 -->
<svg width="1383pt" height="211pt"
 viewBox="0.00 0.00 1383.00 211.00" xmlns="http://www.w3.org/2000/svg" xmlns:xlink="http://www.w3.org/1999/xlink">
<g id="graph0" class="graph" transform="scale(1 1) rotate(0) translate(4 207)">
<title>dependencies</title>
<polygon fill="#ffffff" stroke="transparent" points="-4,4 -4,-207 1379,-207 1379,4 -4,4"/>
<text text-anchor="start" x="666.5091" y="-42.4" font-family="sans-serif" font-weight="bold" font-size="14.00" fill="#000000">Legend</text>
<polygon fill="#ffffb3" stroke="transparent" points="453.5,-10 453.5,-30 473.5,-30 473.5,-10 453.5,-10"/>
<text text-anchor="start" x="477.129" y="-15.4" font-family="sans-serif" font-size="14.00" fill="#000000"> &#160;Declarations</text>
<polygon fill="#8dd3c7" stroke="transparent" points="566.5,-10 566.5,-30 586.5,-30 586.5,-10 566.5,-10"/>
<text text-anchor="start" x="590.2251" y="-15.4" font-family="sans-serif" font-size="14.00" fill="#000000"> &#160;Module</text>
<polygon fill="#80b1d3" stroke="transparent" points="652.5,-10 652.5,-30 672.5,-30 672.5,-10 652.5,-10"/>
<text text-anchor="start" x="676.2812" y="-15.4" font-family="sans-serif" font-size="14.00" fill="#000000"> &#160;Bootstrap</text>
<polygon fill="#fdb462" stroke="transparent" points="749.5,-10 749.5,-30 769.5,-30 769.5,-10 749.5,-10"/>
<text text-anchor="start" x="773.1732" y="-15.4" font-family="sans-serif" font-size="14.00" fill="#000000"> &#160;Providers</text>
<polygon fill="#fb8072" stroke="transparent" points="845.5,-10 845.5,-30 865.5,-30 865.5,-10 845.5,-10"/>
<text text-anchor="start" x="869.2258" y="-15.4" font-family="sans-serif" font-size="14.00" fill="#000000"> &#160;Exports</text>
<g id="clust1" class="cluster">
<title>cluster_ArticlesModule</title>
<polygon fill="none" stroke="#000000" stroke-dasharray="1,5" points="8,-70 8,-195 1367,-195 1367,-70 8,-70"/>
</g>
<g id="clust2" class="cluster">
<title>cluster_ArticlesModule_declarations</title>
<polygon fill="none" stroke="#000000" points="700,-78 700,-130 1359,-130 1359,-78 700,-78"/>
</g>
<g id="clust7" class="cluster">
<title>cluster_ArticlesModule_imports</title>
<polygon fill="none" stroke="#000000" points="182,-78 182,-130 692,-130 692,-78 182,-78"/>
</g>
<g id="clust10" class="cluster">
<title>cluster_ArticlesModule_providers</title>
<polygon fill="none" stroke="#000000" points="16,-78 16,-130 174,-130 174,-78 16,-78"/>
</g>
<!-- ArticlesComponent -->
<g id="node1" class="node">
<title>ArticlesComponent</title>
<polygon fill="#ffffb3" stroke="#000000" points="1350.6457,-122 1225.3543,-122 1225.3543,-86 1350.6457,-86 1350.6457,-122"/>
<text text-anchor="middle" x="1288" y="-99.8" font-family="Times,serif" font-size="14.00" fill="#000000">ArticlesComponent</text>
</g>
<!-- ArticlesModule -->
<g id="node5" class="node">
<title>ArticlesModule</title>
<polygon fill="#8dd3c7" stroke="#000000" points="664.8627,-187 661.8627,-191 640.8627,-191 637.8627,-187 561.1373,-187 561.1373,-151 664.8627,-151 664.8627,-187"/>
<text text-anchor="middle" x="613" y="-164.8" font-family="Times,serif" font-size="14.00" fill="#000000">ArticlesModule</text>
</g>
<!-- ArticlesComponent&#45;&gt;ArticlesModule -->
<g id="edge1" class="edge">
<title>ArticlesComponent&#45;&gt;ArticlesModule</title>
<path fill="none" stroke="#000000" d="M1288,-122.0109C1288,-144.4852 1288,-180 1288,-180 1288,-180 675.1246,-180 675.1246,-180"/>
<polygon fill="#000000" stroke="#000000" points="675.1246,-176.5001 665.1246,-180 675.1245,-183.5001 675.1246,-176.5001"/>
</g>
<!-- ArticlesDetailsComponent -->
<g id="node2" class="node">
<title>ArticlesDetailsComponent</title>
<polygon fill="#ffffb3" stroke="#000000" points="1207.7977,-122 1042.2023,-122 1042.2023,-86 1207.7977,-86 1207.7977,-122"/>
<text text-anchor="middle" x="1125" y="-99.8" font-family="Times,serif" font-size="14.00" fill="#000000">ArticlesDetailsComponent</text>
</g>
<!-- ArticlesDetailsComponent&#45;&gt;ArticlesModule -->
<g id="edge2" class="edge">
<title>ArticlesDetailsComponent&#45;&gt;ArticlesModule</title>
<path fill="none" stroke="#000000" d="M1125,-122.1289C1125,-142.5724 1125,-173 1125,-173 1125,-173 674.9109,-173 674.9109,-173"/>
<polygon fill="#000000" stroke="#000000" points="674.9109,-169.5001 664.9109,-173 674.9109,-176.5001 674.9109,-169.5001"/>
</g>
<!-- ArticlesItemComponent -->
<g id="node3" class="node">
<title>ArticlesItemComponent</title>
<polygon fill="#ffffb3" stroke="#000000" points="1024.8019,-122 873.1981,-122 873.1981,-86 1024.8019,-86 1024.8019,-122"/>
<text text-anchor="middle" x="949" y="-99.8" font-family="Times,serif" font-size="14.00" fill="#000000">ArticlesItemComponent</text>
</g>
<!-- ArticlesItemComponent&#45;&gt;ArticlesModule -->
<g id="edge3" class="edge">
<title>ArticlesItemComponent&#45;&gt;ArticlesModule</title>
<path fill="none" stroke="#000000" d="M949,-122.2667C949,-140.5552 949,-166 949,-166 949,-166 675.1313,-166 675.1313,-166"/>
<polygon fill="#000000" stroke="#000000" points="675.1314,-162.5001 665.1313,-166 675.1313,-169.5001 675.1314,-162.5001"/>
</g>
<!-- ArticlesListComponent -->
<g id="node4" class="node">
<title>ArticlesListComponent</title>
<polygon fill="#ffffb3" stroke="#000000" points="855.9242,-122 708.0758,-122 708.0758,-86 855.9242,-86 855.9242,-122"/>
<text text-anchor="middle" x="782" y="-99.8" font-family="Times,serif" font-size="14.00" fill="#000000">ArticlesListComponent</text>
</g>
<!-- ArticlesListComponent&#45;&gt;ArticlesModule -->
<g id="edge4" class="edge">
<title>ArticlesListComponent&#45;&gt;ArticlesModule</title>
<path fill="none" stroke="#000000" d="M782,-122.0091C782,-138.0494 782,-159 782,-159 782,-159 675.0846,-159 675.0846,-159"/>
<polygon fill="#000000" stroke="#000000" points="675.0846,-155.5001 665.0846,-159 675.0845,-162.5001 675.0846,-155.5001"/>
</g>
<!-- FormElementsModule -->
<g id="node6" class="node">
<title>FormElementsModule</title>
<polygon fill="#8dd3c7" stroke="#000000" points="683.9818,-122 680.9818,-126 659.9818,-126 656.9818,-122 542.0182,-122 542.0182,-86 683.9818,-86 683.9818,-122"/>
<text text-anchor="middle" x="613" y="-99.8" font-family="Times,serif" font-size="14.00" fill="#000000">FormElementsModule</text>
</g>
<!-- FormElementsModule&#45;&gt;ArticlesModule -->
<g id="edge5" class="edge">
<title>FormElementsModule&#45;&gt;ArticlesModule</title>
<path fill="none" stroke="#000000" d="M613,-122.1061C613,-122.1061 613,-140.991 613,-140.991"/>
<polygon fill="#000000" stroke="#000000" points="609.5001,-140.9909 613,-150.991 616.5001,-140.991 609.5001,-140.9909"/>
</g>
<!-- HeadlinesModule -->
<g id="node7" class="node">
<title>HeadlinesModule</title>
<polygon fill="#8dd3c7" stroke="#000000" points="523.527,-122 520.527,-126 499.527,-126 496.527,-122 408.473,-122 408.473,-86 523.527,-86 523.527,-122"/>
<text text-anchor="middle" x="466" y="-99.8" font-family="Times,serif" font-size="14.00" fill="#000000">HeadlinesModule</text>
</g>
<!-- HeadlinesModule&#45;&gt;ArticlesModule -->
<g id="edge6" class="edge">
<title>HeadlinesModule&#45;&gt;ArticlesModule</title>
<path fill="none" stroke="#000000" d="M466,-122.0091C466,-138.0494 466,-159 466,-159 466,-159 550.7594,-159 550.7594,-159"/>
<polygon fill="#000000" stroke="#000000" points="550.7594,-162.5001 560.7594,-159 550.7594,-155.5001 550.7594,-162.5001"/>
</g>
<!-- IconModule -->
<g id="node8" class="node">
<title>IconModule</title>
<polygon fill="#8dd3c7" stroke="#000000" points="390.4261,-122 387.4261,-126 366.4261,-126 363.4261,-122 305.5739,-122 305.5739,-86 390.4261,-86 390.4261,-122"/>
<text text-anchor="middle" x="348" y="-99.8" font-family="Times,serif" font-size="14.00" fill="#000000">IconModule</text>
</g>
<!-- IconModule&#45;&gt;ArticlesModule -->
<g id="edge7" class="edge">
<title>IconModule&#45;&gt;ArticlesModule</title>
<path fill="none" stroke="#000000" d="M348,-122.2667C348,-140.5552 348,-166 348,-166 348,-166 550.9607,-166 550.9607,-166"/>
<polygon fill="#000000" stroke="#000000" points="550.9607,-169.5001 560.9607,-166 550.9607,-162.5001 550.9607,-169.5001"/>
</g>
<!-- SharedModule -->
<g id="node9" class="node">
<title>SharedModule</title>
<polygon fill="#8dd3c7" stroke="#000000" points="288.4231,-122 285.4231,-126 264.4231,-126 261.4231,-122 189.5769,-122 189.5769,-86 288.4231,-86 288.4231,-122"/>
<text text-anchor="middle" x="239" y="-99.8" font-family="Times,serif" font-size="14.00" fill="#000000">SharedModule</text>
</g>
<!-- SharedModule&#45;&gt;ArticlesModule -->
<g id="edge8" class="edge">
<title>SharedModule&#45;&gt;ArticlesModule</title>
<path fill="none" stroke="#000000" d="M239,-122.1289C239,-142.5724 239,-173 239,-173 239,-173 550.9969,-173 550.9969,-173"/>
<polygon fill="#000000" stroke="#000000" points="550.9969,-176.5001 560.9969,-173 550.9969,-169.5001 550.9969,-176.5001"/>
</g>
<!-- ArticlesService -->
<g id="node10" class="node">
<title>ArticlesService</title>
<ellipse fill="#fdb462" stroke="#000000" cx="95" cy="-104" rx="70.6162" ry="18"/>
<text text-anchor="middle" x="95" y="-99.8" font-family="Times,serif" font-size="14.00" fill="#000000">ArticlesService</text>
</g>
<!-- ArticlesService&#45;&gt;ArticlesModule -->
<g id="edge9" class="edge">
<title>ArticlesService&#45;&gt;ArticlesModule</title>
<path fill="none" stroke="#000000" d="M95,-122.0109C95,-144.4852 95,-180 95,-180 95,-180 550.9605,-180 550.9605,-180"/>
<polygon fill="#000000" stroke="#000000" points="550.9605,-183.5001 560.9605,-180 550.9604,-176.5001 550.9605,-183.5001"/>
</g>
</g>
</svg>
