<?xml version="1.0" encoding="UTF-8" standalone="no"?>
<!DOCTYPE svg PUBLIC "-//W3C//DTD SVG 1.1//EN"
 "http://www.w3.org/Graphics/SVG/1.1/DTD/svg11.dtd">
<!-- Generated by graphviz version 2.40.1 (20161225.0304)
 -->
<!-- Title: dependencies Pages: 1 -->
<svg width="877pt" height="284pt"
 viewBox="0.00 0.00 877.00 284.00" xmlns="http://www.w3.org/2000/svg" xmlns:xlink="http://www.w3.org/1999/xlink">
<g id="graph0" class="graph" transform="scale(1 1) rotate(0) translate(4 280)">
<title>dependencies</title>
<polygon fill="#ffffff" stroke="transparent" points="-4,4 -4,-280 873,-280 873,4 -4,4"/>
<text text-anchor="start" x="413.5091" y="-42.4" font-family="sans-serif" font-weight="bold" font-size="14.00" fill="#000000">Legend</text>
<polygon fill="#ffffb3" stroke="transparent" points="200.5,-10 200.5,-30 220.5,-30 220.5,-10 200.5,-10"/>
<text text-anchor="start" x="224.129" y="-15.4" font-family="sans-serif" font-size="14.00" fill="#000000"> &#160;Declarations</text>
<polygon fill="#8dd3c7" stroke="transparent" points="313.5,-10 313.5,-30 333.5,-30 333.5,-10 313.5,-10"/>
<text text-anchor="start" x="337.2251" y="-15.4" font-family="sans-serif" font-size="14.00" fill="#000000"> &#160;Module</text>
<polygon fill="#80b1d3" stroke="transparent" points="399.5,-10 399.5,-30 419.5,-30 419.5,-10 399.5,-10"/>
<text text-anchor="start" x="423.2812" y="-15.4" font-family="sans-serif" font-size="14.00" fill="#000000"> &#160;Bootstrap</text>
<polygon fill="#fdb462" stroke="transparent" points="496.5,-10 496.5,-30 516.5,-30 516.5,-10 496.5,-10"/>
<text text-anchor="start" x="520.1732" y="-15.4" font-family="sans-serif" font-size="14.00" fill="#000000"> &#160;Providers</text>
<polygon fill="#fb8072" stroke="transparent" points="592.5,-10 592.5,-30 612.5,-30 612.5,-10 592.5,-10"/>
<text text-anchor="start" x="616.2258" y="-15.4" font-family="sans-serif" font-size="14.00" fill="#000000"> &#160;Exports</text>
<g id="clust1" class="cluster">
<title>cluster_SharedModule</title>
<polygon fill="none" stroke="#000000" stroke-dasharray="1,5" points="8,-70 8,-268 861,-268 861,-70 8,-70"/>
</g>
<g id="clust2" class="cluster">
<title>cluster_SharedModule_declarations</title>
<polygon fill="none" stroke="#000000" points="180,-78 180,-130 853,-130 853,-78 180,-78"/>
</g>
<g id="clust7" class="cluster">
<title>cluster_SharedModule_imports</title>
<polygon fill="none" stroke="#000000" points="28,-78 28,-130 172,-130 172,-78 28,-78"/>
</g>
<g id="clust8" class="cluster">
<title>cluster_SharedModule_exports</title>
<polygon fill="none" stroke="#000000" points="16,-208 16,-260 853,-260 853,-208 16,-208"/>
</g>
<!-- DynamicComponentsComponent -->
<g id="node1" class="node">
<title>DynamicComponentsComponent</title>
<polygon fill="#ffffb3" stroke="#000000" points="844.9268,-122 641.0732,-122 641.0732,-86 844.9268,-86 844.9268,-122"/>
<text text-anchor="middle" x="743" y="-99.8" font-family="Times,serif" font-size="14.00" fill="#000000">DynamicComponentsComponent</text>
</g>
<!-- SharedModule -->
<g id="node5" class="node">
<title>SharedModule</title>
<polygon fill="#8dd3c7" stroke="#000000" points="414.4231,-187 411.4231,-191 390.4231,-191 387.4231,-187 315.5769,-187 315.5769,-151 414.4231,-151 414.4231,-187"/>
<text text-anchor="middle" x="365" y="-164.8" font-family="Times,serif" font-size="14.00" fill="#000000">SharedModule</text>
</g>
<!-- DynamicComponentsComponent&#45;&gt;SharedModule -->
<g id="edge1" class="edge">
<title>DynamicComponentsComponent&#45;&gt;SharedModule</title>
<path fill="none" stroke="#000000" d="M667.875,-122.2667C667.875,-140.5552 667.875,-166 667.875,-166 667.875,-166 424.3362,-166 424.3362,-166"/>
<polygon fill="#000000" stroke="#000000" points="424.3362,-162.5001 414.3362,-166 424.3361,-169.5001 424.3362,-162.5001"/>
</g>
<!-- DynamicComponentsDirective -->
<g id="node2" class="node">
<title>DynamicComponentsDirective</title>
<polygon fill="#ffffb3" stroke="#000000" points="623.1769,-122 432.8231,-122 432.8231,-86 623.1769,-86 623.1769,-122"/>
<text text-anchor="middle" x="528" y="-99.8" font-family="Times,serif" font-size="14.00" fill="#000000">DynamicComponentsDirective</text>
</g>
<!-- DynamicComponentsDirective&#45;&gt;SharedModule -->
<g id="edge2" class="edge">
<title>DynamicComponentsDirective&#45;&gt;SharedModule</title>
<path fill="none" stroke="#000000" d="M451.375,-122.0091C451.375,-138.0494 451.375,-159 451.375,-159 451.375,-159 424.2429,-159 424.2429,-159"/>
<polygon fill="#000000" stroke="#000000" points="424.243,-155.5001 414.2429,-159 424.2429,-162.5001 424.243,-155.5001"/>
</g>
<!-- EditableDirective -->
<g id="node3" class="node">
<title>EditableDirective</title>
<polygon fill="#ffffb3" stroke="#000000" points="415.2367,-122 300.7633,-122 300.7633,-86 415.2367,-86 415.2367,-122"/>
<text text-anchor="middle" x="358" y="-99.8" font-family="Times,serif" font-size="14.00" fill="#000000">EditableDirective</text>
</g>
<!-- EditableDirective&#45;&gt;SharedModule -->
<g id="edge3" class="edge">
<title>EditableDirective&#45;&gt;SharedModule</title>
<path fill="none" stroke="#000000" d="M365,-122.1061C365,-122.1061 365,-140.991 365,-140.991"/>
<polygon fill="#000000" stroke="#000000" points="361.5001,-140.9909 365,-150.991 368.5001,-140.991 361.5001,-140.9909"/>
</g>
<!-- ToLocalePipe -->
<g id="node4" class="node">
<title>ToLocalePipe</title>
<polygon fill="#ffffb3" stroke="#000000" points="282.0286,-122 187.9714,-122 187.9714,-86 282.0286,-86 282.0286,-122"/>
<text text-anchor="middle" x="235" y="-99.8" font-family="Times,serif" font-size="14.00" fill="#000000">ToLocalePipe</text>
</g>
<!-- ToLocalePipe&#45;&gt;SharedModule -->
<g id="edge4" class="edge">
<title>ToLocalePipe&#45;&gt;SharedModule</title>
<path fill="none" stroke="#000000" d="M267.1399,-122.0091C267.1399,-138.0494 267.1399,-159 267.1399,-159 267.1399,-159 305.7833,-159 305.7833,-159"/>
<polygon fill="#000000" stroke="#000000" points="305.7833,-162.5001 315.7833,-159 305.7832,-155.5001 305.7833,-162.5001"/>
</g>
<!-- AppRoutingModule  -->
<g id="node7" class="node">
<title>AppRoutingModule </title>
<polygon fill="#fb8072" stroke="#000000" points="845.2745,-252 712.7255,-252 712.7255,-216 845.2745,-216 845.2745,-252"/>
<text text-anchor="middle" x="779" y="-229.8" font-family="Times,serif" font-size="14.00" fill="#000000">AppRoutingModule </text>
</g>
<!-- SharedModule&#45;&gt;AppRoutingModule  -->
<g id="edge6" class="edge">
<title>SharedModule&#45;&gt;AppRoutingModule </title>
<path fill="none" stroke="#000000" stroke-dasharray="5,2" d="M414.5015,-173C524.3341,-173 778.7881,-173 778.7881,-173 778.7881,-173 778.7881,-205.698 778.7881,-205.698"/>
<polygon fill="#000000" stroke="#000000" points="775.2881,-205.698 778.7881,-215.698 782.2881,-205.698 775.2881,-205.698"/>
</g>
<!-- DynamicComponentsComponent  -->
<g id="node8" class="node">
<title>DynamicComponentsComponent </title>
<polygon fill="#fb8072" stroke="#000000" points="694.4264,-252 487.5736,-252 487.5736,-216 694.4264,-216 694.4264,-252"/>
<text text-anchor="middle" x="591" y="-229.8" font-family="Times,serif" font-size="14.00" fill="#000000">DynamicComponentsComponent </text>
</g>
<!-- SharedModule&#45;&gt;DynamicComponentsComponent  -->
<g id="edge7" class="edge">
<title>SharedModule&#45;&gt;DynamicComponentsComponent </title>
<path fill="none" stroke="#000000" stroke-dasharray="5,2" d="M414.5056,-180C470.8943,-180 555.3126,-180 555.3126,-180 555.3126,-180 555.3126,-205.7181 555.3126,-205.7181"/>
<polygon fill="#000000" stroke="#000000" points="551.8127,-205.718 555.3126,-215.7181 558.8127,-205.7181 551.8127,-205.718"/>
</g>
<!-- DynamicComponentsDirective  -->
<g id="node9" class="node">
<title>DynamicComponentsDirective </title>
<polygon fill="#fb8072" stroke="#000000" points="469.6771,-252 276.3229,-252 276.3229,-216 469.6771,-216 469.6771,-252"/>
<text text-anchor="middle" x="373" y="-229.8" font-family="Times,serif" font-size="14.00" fill="#000000">DynamicComponentsDirective </text>
</g>
<!-- SharedModule&#45;&gt;DynamicComponentsDirective  -->
<g id="edge8" class="edge">
<title>SharedModule&#45;&gt;DynamicComponentsDirective </title>
<path fill="none" stroke="#000000" stroke-dasharray="5,2" d="M365,-187.1061C365,-187.1061 365,-205.991 365,-205.991"/>
<polygon fill="#000000" stroke="#000000" points="361.5001,-205.9909 365,-215.991 368.5001,-205.991 361.5001,-205.9909"/>
</g>
<!-- EditableDirective  -->
<g id="node10" class="node">
<title>EditableDirective </title>
<polygon fill="#fb8072" stroke="#000000" points="258.2366,-252 139.7634,-252 139.7634,-216 258.2366,-216 258.2366,-252"/>
<text text-anchor="middle" x="199" y="-229.8" font-family="Times,serif" font-size="14.00" fill="#000000">EditableDirective </text>
</g>
<!-- SharedModule&#45;&gt;EditableDirective  -->
<g id="edge9" class="edge">
<title>SharedModule&#45;&gt;EditableDirective </title>
<path fill="none" stroke="#000000" stroke-dasharray="5,2" d="M315.7086,-180C274.6746,-180 222.9273,-180 222.9273,-180 222.9273,-180 222.9273,-205.7181 222.9273,-205.7181"/>
<polygon fill="#000000" stroke="#000000" points="219.4273,-205.718 222.9273,-215.7181 226.4273,-205.7181 219.4273,-205.718"/>
</g>
<!-- ToLocalePipe  -->
<g id="node11" class="node">
<title>ToLocalePipe </title>
<polygon fill="#fb8072" stroke="#000000" points="122.0274,-252 23.9726,-252 23.9726,-216 122.0274,-216 122.0274,-252"/>
<text text-anchor="middle" x="73" y="-229.8" font-family="Times,serif" font-size="14.00" fill="#000000">ToLocalePipe </text>
</g>
<!-- SharedModule&#45;&gt;ToLocalePipe  -->
<g id="edge10" class="edge">
<title>SharedModule&#45;&gt;ToLocalePipe </title>
<path fill="none" stroke="#000000" stroke-dasharray="5,2" d="M315.4768,-173C233.5664,-173 78.8133,-173 78.8133,-173 78.8133,-173 78.8133,-205.698 78.8133,-205.698"/>
<polygon fill="#000000" stroke="#000000" points="75.3134,-205.698 78.8133,-215.698 82.3134,-205.698 75.3134,-205.698"/>
</g>
<!-- AppRoutingModule -->
<g id="node6" class="node">
<title>AppRoutingModule</title>
<polygon fill="#8dd3c7" stroke="#000000" points="164.2744,-122 161.2744,-126 140.2744,-126 137.2744,-122 35.7256,-122 35.7256,-86 164.2744,-86 164.2744,-122"/>
<text text-anchor="middle" x="100" y="-99.8" font-family="Times,serif" font-size="14.00" fill="#000000">AppRoutingModule</text>
</g>
<!-- AppRoutingModule&#45;&gt;SharedModule -->
<g id="edge5" class="edge">
<title>AppRoutingModule&#45;&gt;SharedModule</title>
<path fill="none" stroke="#000000" d="M152.1344,-122.2667C152.1344,-140.5552 152.1344,-166 152.1344,-166 152.1344,-166 305.6293,-166 305.6293,-166"/>
<polygon fill="#000000" stroke="#000000" points="305.6294,-169.5001 315.6293,-166 305.6293,-162.5001 305.6294,-169.5001"/>
</g>
</g>
</svg>
