<?xml version="1.0" encoding="UTF-8" standalone="no"?>
<!DOCTYPE svg PUBLIC "-//W3C//DTD SVG 1.1//EN"
 "http://www.w3.org/Graphics/SVG/1.1/DTD/svg11.dtd">
<!-- Generated by graphviz version 2.40.1 (20161225.0304)
 -->
<!-- Title: dependencies Pages: 1 -->
<svg width="610pt" height="284pt"
 viewBox="0.00 0.00 610.00 284.00" xmlns="http://www.w3.org/2000/svg" xmlns:xlink="http://www.w3.org/1999/xlink">
<g id="graph0" class="graph" transform="scale(1 1) rotate(0) translate(4 280)">
<title>dependencies</title>
<polygon fill="#ffffff" stroke="transparent" points="-4,4 -4,-280 606,-280 606,4 -4,4"/>
<text text-anchor="start" x="280.0091" y="-42.4" font-family="sans-serif" font-weight="bold" font-size="14.00" fill="#000000">Legend</text>
<polygon fill="#ffffb3" stroke="transparent" points="67,-10 67,-30 87,-30 87,-10 67,-10"/>
<text text-anchor="start" x="90.629" y="-15.4" font-family="sans-serif" font-size="14.00" fill="#000000"> &#160;Declarations</text>
<polygon fill="#8dd3c7" stroke="transparent" points="180,-10 180,-30 200,-30 200,-10 180,-10"/>
<text text-anchor="start" x="203.7251" y="-15.4" font-family="sans-serif" font-size="14.00" fill="#000000"> &#160;Module</text>
<polygon fill="#80b1d3" stroke="transparent" points="266,-10 266,-30 286,-30 286,-10 266,-10"/>
<text text-anchor="start" x="289.7812" y="-15.4" font-family="sans-serif" font-size="14.00" fill="#000000"> &#160;Bootstrap</text>
<polygon fill="#fdb462" stroke="transparent" points="363,-10 363,-30 383,-30 383,-10 363,-10"/>
<text text-anchor="start" x="386.6732" y="-15.4" font-family="sans-serif" font-size="14.00" fill="#000000"> &#160;Providers</text>
<polygon fill="#fb8072" stroke="transparent" points="459,-10 459,-30 479,-30 479,-10 459,-10"/>
<text text-anchor="start" x="482.7258" y="-15.4" font-family="sans-serif" font-size="14.00" fill="#000000"> &#160;Exports</text>
<g id="clust1" class="cluster">
<title>cluster_SharedModule</title>
<polygon fill="none" stroke="#000000" stroke-dasharray="1,5" points="8,-70 8,-268 594,-268 594,-70 8,-70"/>
</g>
<g id="clust2" class="cluster">
<title>cluster_SharedModule_declarations</title>
<polygon fill="none" stroke="#000000" points="22,-78 22,-130 582,-130 582,-78 22,-78"/>
</g>
<g id="clust7" class="cluster">
<title>cluster_SharedModule_exports</title>
<polygon fill="none" stroke="#000000" points="16,-208 16,-260 586,-260 586,-208 16,-208"/>
</g>
<!-- DynamicComponentsComponent -->
<g id="node1" class="node">
<title>DynamicComponentsComponent</title>
<polygon fill="#ffffb3" stroke="#000000" points="573.9268,-122 370.0732,-122 370.0732,-86 573.9268,-86 573.9268,-122"/>
<text text-anchor="middle" x="472" y="-99.8" font-family="Times,serif" font-size="14.00" fill="#000000">DynamicComponentsComponent</text>
</g>
<!-- SharedModule -->
<g id="node4" class="node">
<title>SharedModule</title>
<polygon fill="#8dd3c7" stroke="#000000" points="306.4231,-187 303.4231,-191 282.4231,-191 279.4231,-187 207.5769,-187 207.5769,-151 306.4231,-151 306.4231,-187"/>
<text text-anchor="middle" x="257" y="-164.8" font-family="Times,serif" font-size="14.00" fill="#000000">SharedModule</text>
</g>
<!-- DynamicComponentsComponent&#45;&gt;SharedModule -->
<g id="edge1" class="edge">
<title>DynamicComponentsComponent&#45;&gt;SharedModule</title>
<path fill="none" stroke="#000000" d="M506.3211,-122.0225C506.3211,-139.3734 506.3211,-163 506.3211,-163 506.3211,-163 316.2578,-163 316.2578,-163"/>
<polygon fill="#000000" stroke="#000000" points="316.2579,-159.5001 306.2578,-163 316.2578,-166.5001 316.2579,-159.5001"/>
</g>
<!-- DynamicComponentsDirective -->
<g id="node2" class="node">
<title>DynamicComponentsDirective</title>
<polygon fill="#ffffb3" stroke="#000000" points="352.1769,-122 161.8231,-122 161.8231,-86 352.1769,-86 352.1769,-122"/>
<text text-anchor="middle" x="257" y="-99.8" font-family="Times,serif" font-size="14.00" fill="#000000">DynamicComponentsDirective</text>
</g>
<!-- DynamicComponentsDirective&#45;&gt;SharedModule -->
<g id="edge2" class="edge">
<title>DynamicComponentsDirective&#45;&gt;SharedModule</title>
<path fill="none" stroke="#000000" d="M257,-122.1061C257,-122.1061 257,-140.991 257,-140.991"/>
<polygon fill="#000000" stroke="#000000" points="253.5001,-140.9909 257,-150.991 260.5001,-140.991 253.5001,-140.9909"/>
</g>
<!-- EditableDirective -->
<g id="node3" class="node">
<title>EditableDirective</title>
<polygon fill="#ffffb3" stroke="#000000" points="144.2367,-122 29.7633,-122 29.7633,-86 144.2367,-86 144.2367,-122"/>
<text text-anchor="middle" x="87" y="-99.8" font-family="Times,serif" font-size="14.00" fill="#000000">EditableDirective</text>
</g>
<!-- EditableDirective&#45;&gt;SharedModule -->
<g id="edge3" class="edge">
<title>EditableDirective&#45;&gt;SharedModule</title>
<path fill="none" stroke="#000000" d="M104.6227,-122.0225C104.6227,-139.3734 104.6227,-163 104.6227,-163 104.6227,-163 197.5275,-163 197.5275,-163"/>
<polygon fill="#000000" stroke="#000000" points="197.5275,-166.5001 207.5275,-163 197.5274,-159.5001 197.5275,-166.5001"/>
</g>
<!-- DynamicComponentsComponent  -->
<g id="node5" class="node">
<title>DynamicComponentsComponent </title>
<polygon fill="#fb8072" stroke="#000000" points="578.4264,-252 371.5736,-252 371.5736,-216 578.4264,-216 578.4264,-252"/>
<text text-anchor="middle" x="475" y="-229.8" font-family="Times,serif" font-size="14.00" fill="#000000">DynamicComponentsComponent </text>
</g>
<!-- SharedModule&#45;&gt;DynamicComponentsComponent  -->
<g id="edge4" class="edge">
<title>SharedModule&#45;&gt;DynamicComponentsComponent </title>
<path fill="none" stroke="#000000" stroke-dasharray="5,2" d="M306.2326,-175C360.1116,-175 438.9289,-175 438.9289,-175 438.9289,-175 438.9289,-205.9775 438.9289,-205.9775"/>
<polygon fill="#000000" stroke="#000000" points="435.429,-205.9774 438.9289,-215.9775 442.429,-205.9775 435.429,-205.9774"/>
</g>
<!-- DynamicComponentsDirective  -->
<g id="node6" class="node">
<title>DynamicComponentsDirective </title>
<polygon fill="#fb8072" stroke="#000000" points="353.6771,-252 160.3229,-252 160.3229,-216 353.6771,-216 353.6771,-252"/>
<text text-anchor="middle" x="257" y="-229.8" font-family="Times,serif" font-size="14.00" fill="#000000">DynamicComponentsDirective </text>
</g>
<!-- SharedModule&#45;&gt;DynamicComponentsDirective  -->
<g id="edge5" class="edge">
<title>SharedModule&#45;&gt;DynamicComponentsDirective </title>
<path fill="none" stroke="#000000" stroke-dasharray="5,2" d="M257,-187.1061C257,-187.1061 257,-205.991 257,-205.991"/>
<polygon fill="#000000" stroke="#000000" points="253.5001,-205.9909 257,-215.991 260.5001,-205.991 253.5001,-205.9909"/>
</g>
<!-- EditableDirective  -->
<g id="node7" class="node">
<title>EditableDirective </title>
<polygon fill="#fb8072" stroke="#000000" points="142.2366,-252 23.7634,-252 23.7634,-216 142.2366,-216 142.2366,-252"/>
<text text-anchor="middle" x="83" y="-229.8" font-family="Times,serif" font-size="14.00" fill="#000000">EditableDirective </text>
</g>
<!-- SharedModule&#45;&gt;EditableDirective  -->
<g id="edge6" class="edge">
<title>SharedModule&#45;&gt;EditableDirective </title>
<path fill="none" stroke="#000000" stroke-dasharray="5,2" d="M207.6088,-175C151.3504,-175 67.1273,-175 67.1273,-175 67.1273,-175 67.1273,-205.9775 67.1273,-205.9775"/>
<polygon fill="#000000" stroke="#000000" points="63.6274,-205.9774 67.1273,-215.9775 70.6274,-205.9775 63.6274,-205.9774"/>
</g>
</g>
</svg>
