<?xml version="1.0" encoding="UTF-8" standalone="no"?>
<!DOCTYPE svg PUBLIC "-//W3C//DTD SVG 1.1//EN"
 "http://www.w3.org/Graphics/SVG/1.1/DTD/svg11.dtd">
<!-- Generated by graphviz version 2.40.1 (20161225.0304)
 -->
<!-- Title: dependencies Pages: 1 -->
<svg width="514pt" height="284pt"
 viewBox="0.00 0.00 514.00 284.00" xmlns="http://www.w3.org/2000/svg" xmlns:xlink="http://www.w3.org/1999/xlink">
<g id="graph0" class="graph" transform="scale(1 1) rotate(0) translate(4 280)">
<title>dependencies</title>
<polygon fill="#ffffff" stroke="transparent" points="-4,4 -4,-280 510,-280 510,4 -4,4"/>
<text text-anchor="start" x="232.0091" y="-42.4" font-family="sans-serif" font-weight="bold" font-size="14.00" fill="#000000">Legend</text>
<polygon fill="#ffffb3" stroke="transparent" points="19,-10 19,-30 39,-30 39,-10 19,-10"/>
<text text-anchor="start" x="42.629" y="-15.4" font-family="sans-serif" font-size="14.00" fill="#000000"> &#160;Declarations</text>
<polygon fill="#8dd3c7" stroke="transparent" points="132,-10 132,-30 152,-30 152,-10 132,-10"/>
<text text-anchor="start" x="155.7251" y="-15.4" font-family="sans-serif" font-size="14.00" fill="#000000"> &#160;Module</text>
<polygon fill="#80b1d3" stroke="transparent" points="218,-10 218,-30 238,-30 238,-10 218,-10"/>
<text text-anchor="start" x="241.7812" y="-15.4" font-family="sans-serif" font-size="14.00" fill="#000000"> &#160;Bootstrap</text>
<polygon fill="#fdb462" stroke="transparent" points="315,-10 315,-30 335,-30 335,-10 315,-10"/>
<text text-anchor="start" x="338.6732" y="-15.4" font-family="sans-serif" font-size="14.00" fill="#000000"> &#160;Providers</text>
<polygon fill="#fb8072" stroke="transparent" points="411,-10 411,-30 431,-30 431,-10 411,-10"/>
<text text-anchor="start" x="434.7258" y="-15.4" font-family="sans-serif" font-size="14.00" fill="#000000"> &#160;Exports</text>
<g id="clust1" class="cluster">
<title>cluster_LanguageSwitchModule</title>
<polygon fill="none" stroke="#000000" stroke-dasharray="1,5" points="8,-70 8,-268 498,-268 498,-70 8,-70"/>
</g>
<g id="clust2" class="cluster">
<title>cluster_LanguageSwitchModule_declarations</title>
<polygon fill="none" stroke="#000000" points="298,-78 298,-130 490,-130 490,-78 298,-78"/>
</g>
<g id="clust4" class="cluster">
<title>cluster_LanguageSwitchModule_imports</title>
<polygon fill="none" stroke="#000000" points="16,-78 16,-130 290,-130 290,-78 16,-78"/>
</g>
<g id="clust5" class="cluster">
<title>cluster_LanguageSwitchModule_exports</title>
<polygon fill="none" stroke="#000000" points="114,-208 114,-260 308,-260 308,-208 114,-208"/>
</g>
<!-- LanguageSwitchComponent -->
<g id="node1" class="node">
<title>LanguageSwitchComponent</title>
<polygon fill="#ffffb3" stroke="#000000" points="481.9143,-122 306.0857,-122 306.0857,-86 481.9143,-86 481.9143,-122"/>
<text text-anchor="middle" x="394" y="-99.8" font-family="Times,serif" font-size="14.00" fill="#000000">LanguageSwitchComponent</text>
</g>
<!-- LanguageSwitchModule -->
<g id="node2" class="node">
<title>LanguageSwitchModule</title>
<polygon fill="#8dd3c7" stroke="#000000" points="287.6316,-187 284.6316,-191 263.6316,-191 260.6316,-187 134.3684,-187 134.3684,-151 287.6316,-151 287.6316,-187"/>
<text text-anchor="middle" x="211" y="-164.8" font-family="Times,serif" font-size="14.00" fill="#000000">LanguageSwitchModule</text>
</g>
<!-- LanguageSwitchComponent&#45;&gt;LanguageSwitchModule -->
<g id="edge1" class="edge">
<title>LanguageSwitchComponent&#45;&gt;LanguageSwitchModule</title>
<path fill="none" stroke="#000000" d="M394,-122.1061C394,-141.3391 394,-169 394,-169 394,-169 297.8131,-169 297.8131,-169"/>
<polygon fill="#000000" stroke="#000000" points="297.8131,-165.5001 287.8131,-169 297.813,-172.5001 297.8131,-165.5001"/>
</g>
<!-- LanguageSwitchComponent  -->
<g id="node5" class="node">
<title>LanguageSwitchComponent </title>
<polygon fill="#fb8072" stroke="#000000" points="300.4138,-252 121.5862,-252 121.5862,-216 300.4138,-216 300.4138,-252"/>
<text text-anchor="middle" x="211" y="-229.8" font-family="Times,serif" font-size="14.00" fill="#000000">LanguageSwitchComponent </text>
</g>
<!-- LanguageSwitchModule&#45;&gt;LanguageSwitchComponent  -->
<g id="edge4" class="edge">
<title>LanguageSwitchModule&#45;&gt;LanguageSwitchComponent </title>
<path fill="none" stroke="#000000" stroke-dasharray="5,2" d="M211,-187.1061C211,-187.1061 211,-205.991 211,-205.991"/>
<polygon fill="#000000" stroke="#000000" points="207.5001,-205.9909 211,-215.991 214.5001,-205.991 207.5001,-205.9909"/>
</g>
<!-- FormElementsModule -->
<g id="node3" class="node">
<title>FormElementsModule</title>
<polygon fill="#8dd3c7" stroke="#000000" points="281.9818,-122 278.9818,-126 257.9818,-126 254.9818,-122 140.0182,-122 140.0182,-86 281.9818,-86 281.9818,-122"/>
<text text-anchor="middle" x="211" y="-99.8" font-family="Times,serif" font-size="14.00" fill="#000000">FormElementsModule</text>
</g>
<!-- FormElementsModule&#45;&gt;LanguageSwitchModule -->
<g id="edge2" class="edge">
<title>FormElementsModule&#45;&gt;LanguageSwitchModule</title>
<path fill="none" stroke="#000000" d="M211,-122.1061C211,-122.1061 211,-140.991 211,-140.991"/>
<polygon fill="#000000" stroke="#000000" points="207.5001,-140.9909 211,-150.991 214.5001,-140.991 207.5001,-140.9909"/>
</g>
<!-- SharedModule -->
<g id="node4" class="node">
<title>SharedModule</title>
<polygon fill="#8dd3c7" stroke="#000000" points="122.4231,-122 119.4231,-126 98.4231,-126 95.4231,-122 23.5769,-122 23.5769,-86 122.4231,-86 122.4231,-122"/>
<text text-anchor="middle" x="73" y="-99.8" font-family="Times,serif" font-size="14.00" fill="#000000">SharedModule</text>
</g>
<!-- SharedModule&#45;&gt;LanguageSwitchModule -->
<g id="edge3" class="edge">
<title>SharedModule&#45;&gt;LanguageSwitchModule</title>
<path fill="none" stroke="#000000" d="M72.666,-122.1061C72.666,-141.3391 72.666,-169 72.666,-169 72.666,-169 124.1469,-169 124.1469,-169"/>
<polygon fill="#000000" stroke="#000000" points="124.1469,-172.5001 134.1469,-169 124.1469,-165.5001 124.1469,-172.5001"/>
</g>
</g>
</svg>
