<?xml version="1.0" encoding="UTF-8" standalone="no"?>
<!DOCTYPE svg PUBLIC "-//W3C//DTD SVG 1.1//EN"
 "http://www.w3.org/Graphics/SVG/1.1/DTD/svg11.dtd">
<!-- Generated by graphviz version 2.40.1 (20161225.0304)
 -->
<!-- Title: dependencies Pages: 1 -->
<svg width="796pt" height="284pt"
 viewBox="0.00 0.00 796.00 284.00" xmlns="http://www.w3.org/2000/svg" xmlns:xlink="http://www.w3.org/1999/xlink">
<g id="graph0" class="graph" transform="scale(1 1) rotate(0) translate(4 280)">
<title>dependencies</title>
<polygon fill="#ffffff" stroke="transparent" points="-4,4 -4,-280 792,-280 792,4 -4,4"/>
<text text-anchor="start" x="373.0091" y="-42.4" font-family="sans-serif" font-weight="bold" font-size="14.00" fill="#000000">Legend</text>
<polygon fill="#ffffb3" stroke="transparent" points="160,-10 160,-30 180,-30 180,-10 160,-10"/>
<text text-anchor="start" x="183.629" y="-15.4" font-family="sans-serif" font-size="14.00" fill="#000000"> &#160;Declarations</text>
<polygon fill="#8dd3c7" stroke="transparent" points="273,-10 273,-30 293,-30 293,-10 273,-10"/>
<text text-anchor="start" x="296.7251" y="-15.4" font-family="sans-serif" font-size="14.00" fill="#000000"> &#160;Module</text>
<polygon fill="#80b1d3" stroke="transparent" points="359,-10 359,-30 379,-30 379,-10 359,-10"/>
<text text-anchor="start" x="382.7812" y="-15.4" font-family="sans-serif" font-size="14.00" fill="#000000"> &#160;Bootstrap</text>
<polygon fill="#fdb462" stroke="transparent" points="456,-10 456,-30 476,-30 476,-10 456,-10"/>
<text text-anchor="start" x="479.6732" y="-15.4" font-family="sans-serif" font-size="14.00" fill="#000000"> &#160;Providers</text>
<polygon fill="#fb8072" stroke="transparent" points="552,-10 552,-30 572,-30 572,-10 552,-10"/>
<text text-anchor="start" x="575.7258" y="-15.4" font-family="sans-serif" font-size="14.00" fill="#000000"> &#160;Exports</text>
<g id="clust1" class="cluster">
<title>cluster_TravelPreviewModule</title>
<polygon fill="none" stroke="#000000" stroke-dasharray="1,5" points="8,-70 8,-268 780,-268 780,-70 8,-70"/>
</g>
<g id="clust2" class="cluster">
<title>cluster_TravelPreviewModule_declarations</title>
<polygon fill="none" stroke="#000000" points="592,-78 592,-130 772,-130 772,-78 592,-78"/>
</g>
<g id="clust4" class="cluster">
<title>cluster_TravelPreviewModule_imports</title>
<polygon fill="none" stroke="#000000" points="234,-78 234,-130 584,-130 584,-78 234,-78"/>
</g>
<g id="clust5" class="cluster">
<title>cluster_TravelPreviewModule_exports</title>
<polygon fill="none" stroke="#000000" points="308,-208 308,-260 492,-260 492,-208 308,-208"/>
</g>
<g id="clust7" class="cluster">
<title>cluster_TravelPreviewModule_providers</title>
<polygon fill="none" stroke="#000000" points="16,-78 16,-130 226,-130 226,-78 16,-78"/>
</g>
<!-- TravelPreviewComponent -->
<g id="node1" class="node">
<title>TravelPreviewComponent</title>
<polygon fill="#ffffb3" stroke="#000000" points="763.7352,-122 600.2648,-122 600.2648,-86 763.7352,-86 763.7352,-122"/>
<text text-anchor="middle" x="682" y="-99.8" font-family="Times,serif" font-size="14.00" fill="#000000">TravelPreviewComponent</text>
</g>
<!-- TravelPreviewModule -->
<g id="node2" class="node">
<title>TravelPreviewModule</title>
<polygon fill="#8dd3c7" stroke="#000000" points="470.9524,-187 467.9524,-191 446.9524,-191 443.9524,-187 329.0476,-187 329.0476,-151 470.9524,-151 470.9524,-187"/>
<text text-anchor="middle" x="400" y="-164.8" font-family="Times,serif" font-size="14.00" fill="#000000">TravelPreviewModule</text>
</g>
<!-- TravelPreviewComponent&#45;&gt;TravelPreviewModule -->
<g id="edge1" class="edge">
<title>TravelPreviewComponent&#45;&gt;TravelPreviewModule</title>
<path fill="none" stroke="#000000" d="M682,-122.1061C682,-141.3391 682,-169 682,-169 682,-169 481.1605,-169 481.1605,-169"/>
<polygon fill="#000000" stroke="#000000" points="481.1605,-165.5001 471.1605,-169 481.1605,-172.5001 481.1605,-165.5001"/>
</g>
<!-- TravelPreviewComponent  -->
<g id="node6" class="node">
<title>TravelPreviewComponent </title>
<polygon fill="#fb8072" stroke="#000000" points="483.7352,-252 316.2648,-252 316.2648,-216 483.7352,-216 483.7352,-252"/>
<text text-anchor="middle" x="400" y="-229.8" font-family="Times,serif" font-size="14.00" fill="#000000">TravelPreviewComponent </text>
</g>
<!-- TravelPreviewModule&#45;&gt;TravelPreviewComponent  -->
<g id="edge5" class="edge">
<title>TravelPreviewModule&#45;&gt;TravelPreviewComponent </title>
<path fill="none" stroke="#000000" stroke-dasharray="5,2" d="M400,-187.1061C400,-187.1061 400,-205.991 400,-205.991"/>
<polygon fill="#000000" stroke="#000000" points="396.5001,-205.9909 400,-215.991 403.5001,-205.991 396.5001,-205.9909"/>
</g>
<!-- HeadlinesModule -->
<g id="node3" class="node">
<title>HeadlinesModule</title>
<polygon fill="#8dd3c7" stroke="#000000" points="575.527,-122 572.527,-126 551.527,-126 548.527,-122 460.473,-122 460.473,-86 575.527,-86 575.527,-122"/>
<text text-anchor="middle" x="518" y="-99.8" font-family="Times,serif" font-size="14.00" fill="#000000">HeadlinesModule</text>
</g>
<!-- HeadlinesModule&#45;&gt;TravelPreviewModule -->
<g id="edge2" class="edge">
<title>HeadlinesModule&#45;&gt;TravelPreviewModule</title>
<path fill="none" stroke="#000000" d="M465.6066,-122.1061C465.6066,-122.1061 465.6066,-140.991 465.6066,-140.991"/>
<polygon fill="#000000" stroke="#000000" points="462.1067,-140.9909 465.6066,-150.991 469.1067,-140.991 462.1067,-140.9909"/>
</g>
<!-- IconModule -->
<g id="node4" class="node">
<title>IconModule</title>
<polygon fill="#8dd3c7" stroke="#000000" points="442.4261,-122 439.4261,-126 418.4261,-126 415.4261,-122 357.5739,-122 357.5739,-86 442.4261,-86 442.4261,-122"/>
<text text-anchor="middle" x="400" y="-99.8" font-family="Times,serif" font-size="14.00" fill="#000000">IconModule</text>
</g>
<!-- IconModule&#45;&gt;TravelPreviewModule -->
<g id="edge3" class="edge">
<title>IconModule&#45;&gt;TravelPreviewModule</title>
<path fill="none" stroke="#000000" d="M400,-122.1061C400,-122.1061 400,-140.991 400,-140.991"/>
<polygon fill="#000000" stroke="#000000" points="396.5001,-140.9909 400,-150.991 403.5001,-140.991 396.5001,-140.9909"/>
</g>
<!-- SharedModule -->
<g id="node5" class="node">
<title>SharedModule</title>
<polygon fill="#8dd3c7" stroke="#000000" points="340.4231,-122 337.4231,-126 316.4231,-126 313.4231,-122 241.5769,-122 241.5769,-86 340.4231,-86 340.4231,-122"/>
<text text-anchor="middle" x="291" y="-99.8" font-family="Times,serif" font-size="14.00" fill="#000000">SharedModule</text>
</g>
<!-- SharedModule&#45;&gt;TravelPreviewModule -->
<g id="edge4" class="edge">
<title>SharedModule&#45;&gt;TravelPreviewModule</title>
<path fill="none" stroke="#000000" d="M334.6174,-122.1061C334.6174,-122.1061 334.6174,-140.991 334.6174,-140.991"/>
<polygon fill="#000000" stroke="#000000" points="331.1175,-140.9909 334.6174,-150.991 338.1175,-140.991 331.1175,-140.9909"/>
</g>
<!-- TravelPreviewService -->
<g id="node7" class="node">
<title>TravelPreviewService</title>
<ellipse fill="#fdb462" stroke="#000000" cx="121" cy="-104" rx="96.6637" ry="18"/>
<text text-anchor="middle" x="121" y="-99.8" font-family="Times,serif" font-size="14.00" fill="#000000">TravelPreviewService</text>
</g>
<!-- TravelPreviewService&#45;&gt;TravelPreviewModule -->
<g id="edge6" class="edge">
<title>TravelPreviewService&#45;&gt;TravelPreviewModule</title>
<path fill="none" stroke="#000000" d="M121,-122.1061C121,-141.3391 121,-169 121,-169 121,-169 318.8746,-169 318.8746,-169"/>
<polygon fill="#000000" stroke="#000000" points="318.8747,-172.5001 328.8746,-169 318.8746,-165.5001 318.8747,-172.5001"/>
</g>
</g>
</svg>
