<?xml version="1.0" encoding="UTF-8" standalone="no"?>
<!DOCTYPE svg PUBLIC "-//W3C//DTD SVG 1.1//EN"
 "http://www.w3.org/Graphics/SVG/1.1/DTD/svg11.dtd">
<!-- Generated by graphviz version 2.40.1 (20161225.0304)
 -->
<!-- Title: dependencies Pages: 1 -->
<svg width="504pt" height="284pt"
 viewBox="0.00 0.00 504.00 284.00" xmlns="http://www.w3.org/2000/svg" xmlns:xlink="http://www.w3.org/1999/xlink">
<g id="graph0" class="graph" transform="scale(1 1) rotate(0) translate(4 280)">
<title>dependencies</title>
<polygon fill="#ffffff" stroke="transparent" points="-4,4 -4,-280 500,-280 500,4 -4,4"/>
<text text-anchor="start" x="227.0091" y="-42.4" font-family="sans-serif" font-weight="bold" font-size="14.00" fill="#000000">Legend</text>
<polygon fill="#ffffb3" stroke="transparent" points="14,-10 14,-30 34,-30 34,-10 14,-10"/>
<text text-anchor="start" x="37.629" y="-15.4" font-family="sans-serif" font-size="14.00" fill="#000000"> &#160;Declarations</text>
<polygon fill="#8dd3c7" stroke="transparent" points="127,-10 127,-30 147,-30 147,-10 127,-10"/>
<text text-anchor="start" x="150.7251" y="-15.4" font-family="sans-serif" font-size="14.00" fill="#000000"> &#160;Module</text>
<polygon fill="#80b1d3" stroke="transparent" points="213,-10 213,-30 233,-30 233,-10 213,-10"/>
<text text-anchor="start" x="236.7812" y="-15.4" font-family="sans-serif" font-size="14.00" fill="#000000"> &#160;Bootstrap</text>
<polygon fill="#fdb462" stroke="transparent" points="310,-10 310,-30 330,-30 330,-10 310,-10"/>
<text text-anchor="start" x="333.6732" y="-15.4" font-family="sans-serif" font-size="14.00" fill="#000000"> &#160;Providers</text>
<polygon fill="#fb8072" stroke="transparent" points="406,-10 406,-30 426,-30 426,-10 406,-10"/>
<text text-anchor="start" x="429.7258" y="-15.4" font-family="sans-serif" font-size="14.00" fill="#000000"> &#160;Exports</text>
<g id="clust1" class="cluster">
<title>cluster_TravelPreviewModule</title>
<polygon fill="none" stroke="#000000" stroke-dasharray="1,5" points="22.5,-70 22.5,-268 473.5,-268 473.5,-70 22.5,-70"/>
</g>
<g id="clust2" class="cluster">
<title>cluster_TravelPreviewModule_declarations</title>
<polygon fill="none" stroke="#000000" points="285.5,-78 285.5,-130 465.5,-130 465.5,-78 285.5,-78"/>
</g>
<g id="clust4" class="cluster">
<title>cluster_TravelPreviewModule_imports</title>
<polygon fill="none" stroke="#000000" points="30.5,-78 30.5,-130 277.5,-130 277.5,-78 30.5,-78"/>
</g>
<g id="clust5" class="cluster">
<title>cluster_TravelPreviewModule_exports</title>
<polygon fill="none" stroke="#000000" points="113.5,-208 113.5,-260 297.5,-260 297.5,-208 113.5,-208"/>
</g>
<!-- TravelPreviewComponent -->
<g id="node1" class="node">
<title>TravelPreviewComponent</title>
<polygon fill="#ffffb3" stroke="#000000" points="457.2352,-122 293.7648,-122 293.7648,-86 457.2352,-86 457.2352,-122"/>
<text text-anchor="middle" x="375.5" y="-99.8" font-family="Times,serif" font-size="14.00" fill="#000000">TravelPreviewComponent</text>
</g>
<!-- TravelPreviewModule -->
<g id="node2" class="node">
<title>TravelPreviewModule</title>
<polygon fill="#8dd3c7" stroke="#000000" points="276.4524,-187 273.4524,-191 252.4524,-191 249.4524,-187 134.5476,-187 134.5476,-151 276.4524,-151 276.4524,-187"/>
<text text-anchor="middle" x="205.5" y="-164.8" font-family="Times,serif" font-size="14.00" fill="#000000">TravelPreviewModule</text>
</g>
<!-- TravelPreviewComponent&#45;&gt;TravelPreviewModule -->
<g id="edge1" class="edge">
<title>TravelPreviewComponent&#45;&gt;TravelPreviewModule</title>
<path fill="none" stroke="#000000" d="M375.5,-122.1061C375.5,-141.3391 375.5,-169 375.5,-169 375.5,-169 286.6103,-169 286.6103,-169"/>
<polygon fill="#000000" stroke="#000000" points="286.6103,-165.5001 276.6103,-169 286.6103,-172.5001 286.6103,-165.5001"/>
</g>
<!-- TravelPreviewComponent  -->
<g id="node5" class="node">
<title>TravelPreviewComponent </title>
<polygon fill="#fb8072" stroke="#000000" points="289.2352,-252 121.7648,-252 121.7648,-216 289.2352,-216 289.2352,-252"/>
<text text-anchor="middle" x="205.5" y="-229.8" font-family="Times,serif" font-size="14.00" fill="#000000">TravelPreviewComponent </text>
</g>
<!-- TravelPreviewModule&#45;&gt;TravelPreviewComponent  -->
<g id="edge4" class="edge">
<title>TravelPreviewModule&#45;&gt;TravelPreviewComponent </title>
<path fill="none" stroke="#000000" stroke-dasharray="5,2" d="M205.5,-187.1061C205.5,-187.1061 205.5,-205.991 205.5,-205.991"/>
<polygon fill="#000000" stroke="#000000" points="202.0001,-205.9909 205.5,-215.991 209.0001,-205.991 202.0001,-205.9909"/>
</g>
<!-- AppRoutingModule -->
<g id="node3" class="node">
<title>AppRoutingModule</title>
<polygon fill="#8dd3c7" stroke="#000000" points="269.7744,-122 266.7744,-126 245.7744,-126 242.7744,-122 141.2256,-122 141.2256,-86 269.7744,-86 269.7744,-122"/>
<text text-anchor="middle" x="205.5" y="-99.8" font-family="Times,serif" font-size="14.00" fill="#000000">AppRoutingModule</text>
</g>
<!-- AppRoutingModule&#45;&gt;TravelPreviewModule -->
<g id="edge2" class="edge">
<title>AppRoutingModule&#45;&gt;TravelPreviewModule</title>
<path fill="none" stroke="#000000" d="M205.5,-122.1061C205.5,-122.1061 205.5,-140.991 205.5,-140.991"/>
<polygon fill="#000000" stroke="#000000" points="202.0001,-140.9909 205.5,-150.991 209.0001,-140.991 202.0001,-140.9909"/>
</g>
<!-- IconModule -->
<g id="node4" class="node">
<title>IconModule</title>
<polygon fill="#8dd3c7" stroke="#000000" points="122.9261,-122 119.9261,-126 98.9261,-126 95.9261,-122 38.0739,-122 38.0739,-86 122.9261,-86 122.9261,-122"/>
<text text-anchor="middle" x="80.5" y="-99.8" font-family="Times,serif" font-size="14.00" fill="#000000">IconModule</text>
</g>
<!-- IconModule&#45;&gt;TravelPreviewModule -->
<g id="edge3" class="edge">
<title>IconModule&#45;&gt;TravelPreviewModule</title>
<path fill="none" stroke="#000000" d="M80.085,-122.1061C80.085,-141.3391 80.085,-169 80.085,-169 80.085,-169 124.3644,-169 124.3644,-169"/>
<polygon fill="#000000" stroke="#000000" points="124.3645,-172.5001 134.3644,-169 124.3644,-165.5001 124.3645,-172.5001"/>
</g>
</g>
</svg>
