<?xml version="1.0" encoding="UTF-8" standalone="no"?>
<!DOCTYPE svg PUBLIC "-//W3C//DTD SVG 1.1//EN"
 "http://www.w3.org/Graphics/SVG/1.1/DTD/svg11.dtd">
<!-- Generated by graphviz version 2.40.1 (20161225.0304)
 -->
<!-- Title: dependencies Pages: 1 -->
<svg width="840pt" height="284pt"
 viewBox="0.00 0.00 840.00 284.00" xmlns="http://www.w3.org/2000/svg" xmlns:xlink="http://www.w3.org/1999/xlink">
<g id="graph0" class="graph" transform="scale(1 1) rotate(0) translate(4 280)">
<title>dependencies</title>
<polygon fill="#ffffff" stroke="transparent" points="-4,4 -4,-280 836,-280 836,4 -4,4"/>
<text text-anchor="start" x="395.0091" y="-42.4" font-family="sans-serif" font-weight="bold" font-size="14.00" fill="#000000">Legend</text>
<polygon fill="#ffffb3" stroke="transparent" points="182,-10 182,-30 202,-30 202,-10 182,-10"/>
<text text-anchor="start" x="205.629" y="-15.4" font-family="sans-serif" font-size="14.00" fill="#000000"> &#160;Declarations</text>
<polygon fill="#8dd3c7" stroke="transparent" points="295,-10 295,-30 315,-30 315,-10 295,-10"/>
<text text-anchor="start" x="318.7251" y="-15.4" font-family="sans-serif" font-size="14.00" fill="#000000"> &#160;Module</text>
<polygon fill="#80b1d3" stroke="transparent" points="381,-10 381,-30 401,-30 401,-10 381,-10"/>
<text text-anchor="start" x="404.7812" y="-15.4" font-family="sans-serif" font-size="14.00" fill="#000000"> &#160;Bootstrap</text>
<polygon fill="#fdb462" stroke="transparent" points="478,-10 478,-30 498,-30 498,-10 478,-10"/>
<text text-anchor="start" x="501.6732" y="-15.4" font-family="sans-serif" font-size="14.00" fill="#000000"> &#160;Providers</text>
<polygon fill="#fb8072" stroke="transparent" points="574,-10 574,-30 594,-30 594,-10 574,-10"/>
<text text-anchor="start" x="597.7258" y="-15.4" font-family="sans-serif" font-size="14.00" fill="#000000"> &#160;Exports</text>
<g id="clust1" class="cluster">
<title>cluster_CountryModule</title>
<polygon fill="none" stroke="#000000" stroke-dasharray="1,5" points="8,-70 8,-268 824,-268 824,-70 8,-70"/>
</g>
<g id="clust2" class="cluster">
<title>cluster_CountryModule_declarations</title>
<polygon fill="none" stroke="#000000" points="672,-78 672,-130 816,-130 816,-78 672,-78"/>
</g>
<g id="clust4" class="cluster">
<title>cluster_CountryModule_imports</title>
<polygon fill="none" stroke="#000000" points="16,-78 16,-130 664,-130 664,-78 16,-78"/>
</g>
<g id="clust5" class="cluster">
<title>cluster_CountryModule_exports</title>
<polygon fill="none" stroke="#000000" points="337,-208 337,-260 483,-260 483,-208 337,-208"/>
</g>
<!-- CountryComponent -->
<g id="node1" class="node">
<title>CountryComponent</title>
<polygon fill="#ffffb3" stroke="#000000" points="807.7204,-122 680.2796,-122 680.2796,-86 807.7204,-86 807.7204,-122"/>
<text text-anchor="middle" x="744" y="-99.8" font-family="Times,serif" font-size="14.00" fill="#000000">CountryComponent</text>
</g>
<!-- CountryModule -->
<g id="node2" class="node">
<title>CountryModule</title>
<polygon fill="#8dd3c7" stroke="#000000" points="462.9385,-187 459.9385,-191 438.9385,-191 435.9385,-187 357.0615,-187 357.0615,-151 462.9385,-151 462.9385,-187"/>
<text text-anchor="middle" x="410" y="-164.8" font-family="Times,serif" font-size="14.00" fill="#000000">CountryModule</text>
</g>
<!-- CountryComponent&#45;&gt;CountryModule -->
<g id="edge1" class="edge">
<title>CountryComponent&#45;&gt;CountryModule</title>
<path fill="none" stroke="#000000" d="M744,-122.2843C744,-143.3211 744,-175 744,-175 744,-175 472.9233,-175 472.9233,-175"/>
<polygon fill="#000000" stroke="#000000" points="472.9233,-171.5001 462.9233,-175 472.9233,-178.5001 472.9233,-171.5001"/>
</g>
<!-- CountryComponent  -->
<g id="node8" class="node">
<title>CountryComponent </title>
<polygon fill="#fb8072" stroke="#000000" points="475.2205,-252 344.7795,-252 344.7795,-216 475.2205,-216 475.2205,-252"/>
<text text-anchor="middle" x="410" y="-229.8" font-family="Times,serif" font-size="14.00" fill="#000000">CountryComponent </text>
</g>
<!-- CountryModule&#45;&gt;CountryComponent  -->
<g id="edge7" class="edge">
<title>CountryModule&#45;&gt;CountryComponent </title>
<path fill="none" stroke="#000000" stroke-dasharray="5,2" d="M410,-187.1061C410,-187.1061 410,-205.991 410,-205.991"/>
<polygon fill="#000000" stroke="#000000" points="406.5001,-205.9909 410,-215.991 413.5001,-205.991 406.5001,-205.9909"/>
</g>
<!-- ContainerModule -->
<g id="node3" class="node">
<title>ContainerModule</title>
<polygon fill="#8dd3c7" stroke="#000000" points="656.2577,-122 653.2577,-126 632.2577,-126 629.2577,-122 541.7423,-122 541.7423,-86 656.2577,-86 656.2577,-122"/>
<text text-anchor="middle" x="599" y="-99.8" font-family="Times,serif" font-size="14.00" fill="#000000">ContainerModule</text>
</g>
<!-- ContainerModule&#45;&gt;CountryModule -->
<g id="edge2" class="edge">
<title>ContainerModule&#45;&gt;CountryModule</title>
<path fill="none" stroke="#000000" d="M599,-122.0225C599,-139.3734 599,-163 599,-163 599,-163 472.8984,-163 472.8984,-163"/>
<polygon fill="#000000" stroke="#000000" points="472.8984,-159.5001 462.8984,-163 472.8983,-166.5001 472.8984,-159.5001"/>
</g>
<!-- FooterModule -->
<g id="node4" class="node">
<title>FooterModule</title>
<polygon fill="#8dd3c7" stroke="#000000" points="524.0983,-122 521.0983,-126 500.0983,-126 497.0983,-122 427.9017,-122 427.9017,-86 524.0983,-86 524.0983,-122"/>
<text text-anchor="middle" x="476" y="-99.8" font-family="Times,serif" font-size="14.00" fill="#000000">FooterModule</text>
</g>
<!-- FooterModule&#45;&gt;CountryModule -->
<g id="edge3" class="edge">
<title>FooterModule&#45;&gt;CountryModule</title>
<path fill="none" stroke="#000000" d="M445.3349,-122.1061C445.3349,-122.1061 445.3349,-140.991 445.3349,-140.991"/>
<polygon fill="#000000" stroke="#000000" points="441.8349,-140.9909 445.3349,-150.991 448.8349,-140.991 441.8349,-140.9909"/>
</g>
<!-- HomebuttonModule -->
<g id="node5" class="node">
<title>HomebuttonModule</title>
<polygon fill="#8dd3c7" stroke="#000000" points="409.5436,-122 406.5436,-126 385.5436,-126 382.5436,-122 280.4564,-122 280.4564,-86 409.5436,-86 409.5436,-122"/>
<text text-anchor="middle" x="345" y="-99.8" font-family="Times,serif" font-size="14.00" fill="#000000">HomebuttonModule</text>
</g>
<!-- HomebuttonModule&#45;&gt;CountryModule -->
<g id="edge4" class="edge">
<title>HomebuttonModule&#45;&gt;CountryModule</title>
<path fill="none" stroke="#000000" d="M383.5263,-122.1061C383.5263,-122.1061 383.5263,-140.991 383.5263,-140.991"/>
<polygon fill="#000000" stroke="#000000" points="380.0264,-140.9909 383.5263,-150.991 387.0264,-140.991 380.0264,-140.9909"/>
</g>
<!-- NavigationModule -->
<g id="node6" class="node">
<title>NavigationModule</title>
<polygon fill="#8dd3c7" stroke="#000000" points="261.7576,-122 258.7576,-126 237.7576,-126 234.7576,-122 140.2424,-122 140.2424,-86 261.7576,-86 261.7576,-122"/>
<text text-anchor="middle" x="201" y="-99.8" font-family="Times,serif" font-size="14.00" fill="#000000">NavigationModule</text>
</g>
<!-- NavigationModule&#45;&gt;CountryModule -->
<g id="edge5" class="edge">
<title>NavigationModule&#45;&gt;CountryModule</title>
<path fill="none" stroke="#000000" d="M201,-122.0225C201,-139.3734 201,-163 201,-163 201,-163 347.2605,-163 347.2605,-163"/>
<polygon fill="#000000" stroke="#000000" points="347.2605,-166.5001 357.2605,-163 347.2604,-159.5001 347.2605,-166.5001"/>
</g>
<!-- SharedModule -->
<g id="node7" class="node">
<title>SharedModule</title>
<polygon fill="#8dd3c7" stroke="#000000" points="122.4231,-122 119.4231,-126 98.4231,-126 95.4231,-122 23.5769,-122 23.5769,-86 122.4231,-86 122.4231,-122"/>
<text text-anchor="middle" x="73" y="-99.8" font-family="Times,serif" font-size="14.00" fill="#000000">SharedModule</text>
</g>
<!-- SharedModule&#45;&gt;CountryModule -->
<g id="edge6" class="edge">
<title>SharedModule&#45;&gt;CountryModule</title>
<path fill="none" stroke="#000000" d="M73,-122.2843C73,-143.3211 73,-175 73,-175 73,-175 346.973,-175 346.973,-175"/>
<polygon fill="#000000" stroke="#000000" points="346.9731,-178.5001 356.973,-175 346.973,-171.5001 346.9731,-178.5001"/>
</g>
</g>
</svg>
