<?xml version="1.0" encoding="UTF-8" standalone="no"?>
<!DOCTYPE svg PUBLIC "-//W3C//DTD SVG 1.1//EN"
 "http://www.w3.org/Graphics/SVG/1.1/DTD/svg11.dtd">
<!-- Generated by graphviz version 2.40.1 (20161225.0304)
 -->
<!-- Title: dependencies Pages: 1 -->
<svg width="1161pt" height="211pt"
 viewBox="0.00 0.00 1161.00 211.00" xmlns="http://www.w3.org/2000/svg" xmlns:xlink="http://www.w3.org/1999/xlink">
<g id="graph0" class="graph" transform="scale(1 1) rotate(0) translate(4 207)">
<title>dependencies</title>
<polygon fill="#ffffff" stroke="transparent" points="-4,4 -4,-207 1157,-207 1157,4 -4,4"/>
<text text-anchor="start" x="555.5091" y="-42.4" font-family="sans-serif" font-weight="bold" font-size="14.00" fill="#000000">Legend</text>
<polygon fill="#ffffb3" stroke="transparent" points="342.5,-10 342.5,-30 362.5,-30 362.5,-10 342.5,-10"/>
<text text-anchor="start" x="366.129" y="-15.4" font-family="sans-serif" font-size="14.00" fill="#000000"> &#160;Declarations</text>
<polygon fill="#8dd3c7" stroke="transparent" points="455.5,-10 455.5,-30 475.5,-30 475.5,-10 455.5,-10"/>
<text text-anchor="start" x="479.2251" y="-15.4" font-family="sans-serif" font-size="14.00" fill="#000000"> &#160;Module</text>
<polygon fill="#80b1d3" stroke="transparent" points="541.5,-10 541.5,-30 561.5,-30 561.5,-10 541.5,-10"/>
<text text-anchor="start" x="565.2812" y="-15.4" font-family="sans-serif" font-size="14.00" fill="#000000"> &#160;Bootstrap</text>
<polygon fill="#fdb462" stroke="transparent" points="638.5,-10 638.5,-30 658.5,-30 658.5,-10 638.5,-10"/>
<text text-anchor="start" x="662.1732" y="-15.4" font-family="sans-serif" font-size="14.00" fill="#000000"> &#160;Providers</text>
<polygon fill="#fb8072" stroke="transparent" points="734.5,-10 734.5,-30 754.5,-30 754.5,-10 734.5,-10"/>
<text text-anchor="start" x="758.2258" y="-15.4" font-family="sans-serif" font-size="14.00" fill="#000000"> &#160;Exports</text>
<g id="clust1" class="cluster">
<title>cluster_AuthModule</title>
<polygon fill="none" stroke="#000000" stroke-dasharray="1,5" points="8,-70 8,-195 1145,-195 1145,-70 8,-70"/>
</g>
<g id="clust2" class="cluster">
<title>cluster_AuthModule_declarations</title>
<polygon fill="none" stroke="#000000" points="1011,-78 1011,-130 1137,-130 1137,-78 1011,-78"/>
</g>
<g id="clust4" class="cluster">
<title>cluster_AuthModule_imports</title>
<polygon fill="none" stroke="#000000" points="448,-78 448,-130 1003,-130 1003,-78 448,-78"/>
</g>
<g id="clust7" class="cluster">
<title>cluster_AuthModule_providers</title>
<polygon fill="none" stroke="#000000" points="16,-78 16,-130 440,-130 440,-78 16,-78"/>
</g>
<!-- AuthComponent -->
<g id="node1" class="node">
<title>AuthComponent</title>
<polygon fill="#ffffb3" stroke="#000000" points="1128.8301,-122 1019.1699,-122 1019.1699,-86 1128.8301,-86 1128.8301,-122"/>
<text text-anchor="middle" x="1074" y="-99.8" font-family="Times,serif" font-size="14.00" fill="#000000">AuthComponent</text>
</g>
<!-- AuthModule -->
<g id="node2" class="node">
<title>AuthModule</title>
<polygon fill="#8dd3c7" stroke="#000000" points="632.5482,-187 629.5482,-191 608.5482,-191 605.5482,-187 545.4518,-187 545.4518,-151 632.5482,-151 632.5482,-187"/>
<text text-anchor="middle" x="589" y="-164.8" font-family="Times,serif" font-size="14.00" fill="#000000">AuthModule</text>
</g>
<!-- AuthComponent&#45;&gt;AuthModule -->
<g id="edge1" class="edge">
<title>AuthComponent&#45;&gt;AuthModule</title>
<path fill="none" stroke="#000000" d="M1074,-122.2921C1074,-144.2057 1074,-178 1074,-178 1074,-178 642.8959,-178 642.8959,-178"/>
<polygon fill="#000000" stroke="#000000" points="642.896,-174.5001 632.8959,-178 642.8959,-181.5001 642.896,-174.5001"/>
</g>
<!-- RegistrationPageModule -->
<g id="node3" class="node">
<title>RegistrationPageModule</title>
<polygon fill="#8dd3c7" stroke="#000000" points="994.6951,-122 991.6951,-126 970.6951,-126 967.6951,-122 839.3049,-122 839.3049,-86 994.6951,-86 994.6951,-122"/>
<text text-anchor="middle" x="917" y="-99.8" font-family="Times,serif" font-size="14.00" fill="#000000">RegistrationPageModule</text>
</g>
<!-- RegistrationPageModule&#45;&gt;AuthModule -->
<g id="edge2" class="edge">
<title>RegistrationPageModule&#45;&gt;AuthModule</title>
<path fill="none" stroke="#000000" d="M917,-122.1061C917,-141.3391 917,-169 917,-169 917,-169 642.5559,-169 642.5559,-169"/>
<polygon fill="#000000" stroke="#000000" points="642.5559,-165.5001 632.5559,-169 642.5558,-172.5001 642.5559,-165.5001"/>
</g>
<!-- SharedModule -->
<g id="node4" class="node">
<title>SharedModule</title>
<polygon fill="#8dd3c7" stroke="#000000" points="821.4231,-122 818.4231,-126 797.4231,-126 794.4231,-122 722.5769,-122 722.5769,-86 821.4231,-86 821.4231,-122"/>
<text text-anchor="middle" x="772" y="-99.8" font-family="Times,serif" font-size="14.00" fill="#000000">SharedModule</text>
</g>
<!-- SharedModule&#45;&gt;AuthModule -->
<g id="edge3" class="edge">
<title>SharedModule&#45;&gt;AuthModule</title>
<path fill="none" stroke="#000000" d="M772,-122.027C772,-138.3976 772,-160 772,-160 772,-160 642.8331,-160 642.8331,-160"/>
<polygon fill="#000000" stroke="#000000" points="642.8331,-156.5001 632.8331,-160 642.833,-163.5001 642.8331,-156.5001"/>
</g>
<!-- SignInModule -->
<g id="node5" class="node">
<title>SignInModule</title>
<polygon fill="#8dd3c7" stroke="#000000" points="704.3837,-122 701.3837,-126 680.3837,-126 677.3837,-122 607.6163,-122 607.6163,-86 704.3837,-86 704.3837,-122"/>
<text text-anchor="middle" x="656" y="-99.8" font-family="Times,serif" font-size="14.00" fill="#000000">SignInModule</text>
</g>
<!-- SignInModule&#45;&gt;AuthModule -->
<g id="edge4" class="edge">
<title>SignInModule&#45;&gt;AuthModule</title>
<path fill="none" stroke="#000000" d="M620.1659,-122.1061C620.1659,-122.1061 620.1659,-140.991 620.1659,-140.991"/>
<polygon fill="#000000" stroke="#000000" points="616.6659,-140.9909 620.1659,-150.991 623.6659,-140.991 616.6659,-140.9909"/>
</g>
<!-- SignOutPageModule -->
<g id="node6" class="node">
<title>SignOutPageModule</title>
<polygon fill="#8dd3c7" stroke="#000000" points="589.9327,-122 586.9327,-126 565.9327,-126 562.9327,-122 456.0673,-122 456.0673,-86 589.9327,-86 589.9327,-122"/>
<text text-anchor="middle" x="523" y="-99.8" font-family="Times,serif" font-size="14.00" fill="#000000">SignOutPageModule</text>
</g>
<!-- SignOutPageModule&#45;&gt;AuthModule -->
<g id="edge5" class="edge">
<title>SignOutPageModule&#45;&gt;AuthModule</title>
<path fill="none" stroke="#000000" d="M567.4713,-122.1061C567.4713,-122.1061 567.4713,-140.991 567.4713,-140.991"/>
<polygon fill="#000000" stroke="#000000" points="563.9713,-140.9909 567.4713,-150.991 570.9713,-140.991 563.9713,-140.9909"/>
</g>
<!-- AuthGuard -->
<g id="node7" class="node">
<title>AuthGuard</title>
<ellipse fill="#fdb462" stroke="#000000" cx="378" cy="-104" rx="54.4566" ry="18"/>
<text text-anchor="middle" x="378" y="-99.8" font-family="Times,serif" font-size="14.00" fill="#000000">AuthGuard</text>
</g>
<!-- AuthGuard&#45;&gt;AuthModule -->
<g id="edge6" class="edge">
<title>AuthGuard&#45;&gt;AuthModule</title>
<path fill="none" stroke="#000000" d="M378,-122.027C378,-138.3976 378,-160 378,-160 378,-160 535.2807,-160 535.2807,-160"/>
<polygon fill="#000000" stroke="#000000" points="535.2807,-163.5001 545.2807,-160 535.2806,-156.5001 535.2807,-163.5001"/>
</g>
<!-- AuthInterceptor -->
<g id="node8" class="node">
<title>AuthInterceptor</title>
<ellipse fill="#fdb462" stroke="#000000" cx="233" cy="-104" rx="72.9121" ry="18"/>
<text text-anchor="middle" x="233" y="-99.8" font-family="Times,serif" font-size="14.00" fill="#000000">AuthInterceptor</text>
</g>
<!-- AuthInterceptor&#45;&gt;AuthModule -->
<g id="edge7" class="edge">
<title>AuthInterceptor&#45;&gt;AuthModule</title>
<path fill="none" stroke="#000000" d="M233,-122.1061C233,-141.3391 233,-169 233,-169 233,-169 535.3474,-169 535.3474,-169"/>
<polygon fill="#000000" stroke="#000000" points="535.3474,-172.5001 545.3474,-169 535.3474,-165.5001 535.3474,-172.5001"/>
</g>
<!-- AuthService -->
<g id="node9" class="node">
<title>AuthService</title>
<ellipse fill="#fdb462" stroke="#000000" cx="83" cy="-104" rx="59.1083" ry="18"/>
<text text-anchor="middle" x="83" y="-99.8" font-family="Times,serif" font-size="14.00" fill="#000000">AuthService</text>
</g>
<!-- AuthService&#45;&gt;AuthModule -->
<g id="edge8" class="edge">
<title>AuthService&#45;&gt;AuthModule</title>
<path fill="none" stroke="#000000" d="M83,-122.2921C83,-144.2057 83,-178 83,-178 83,-178 535.4208,-178 535.4208,-178"/>
<polygon fill="#000000" stroke="#000000" points="535.4208,-181.5001 545.4208,-178 535.4207,-174.5001 535.4208,-181.5001"/>
</g>
</g>
</svg>
