<?xml version="1.0" encoding="UTF-8" standalone="no"?>
<!DOCTYPE svg PUBLIC "-//W3C//DTD SVG 1.1//EN"
 "http://www.w3.org/Graphics/SVG/1.1/DTD/svg11.dtd">
<!-- Generated by graphviz version 2.40.1 (20161225.0304)
 -->
<!-- Title: dependencies Pages: 1 -->
<svg width="1307pt" height="211pt"
 viewBox="0.00 0.00 1307.00 211.00" xmlns="http://www.w3.org/2000/svg" xmlns:xlink="http://www.w3.org/1999/xlink">
<g id="graph0" class="graph" transform="scale(1 1) rotate(0) translate(4 207)">
<title>dependencies</title>
<polygon fill="#ffffff" stroke="transparent" points="-4,4 -4,-207 1303,-207 1303,4 -4,4"/>
<text text-anchor="start" x="628.5091" y="-42.4" font-family="sans-serif" font-weight="bold" font-size="14.00" fill="#000000">Legend</text>
<polygon fill="#ffffb3" stroke="transparent" points="415.5,-10 415.5,-30 435.5,-30 435.5,-10 415.5,-10"/>
<text text-anchor="start" x="439.129" y="-15.4" font-family="sans-serif" font-size="14.00" fill="#000000"> &#160;Declarations</text>
<polygon fill="#8dd3c7" stroke="transparent" points="528.5,-10 528.5,-30 548.5,-30 548.5,-10 528.5,-10"/>
<text text-anchor="start" x="552.2251" y="-15.4" font-family="sans-serif" font-size="14.00" fill="#000000"> &#160;Module</text>
<polygon fill="#80b1d3" stroke="transparent" points="614.5,-10 614.5,-30 634.5,-30 634.5,-10 614.5,-10"/>
<text text-anchor="start" x="638.2812" y="-15.4" font-family="sans-serif" font-size="14.00" fill="#000000"> &#160;Bootstrap</text>
<polygon fill="#fdb462" stroke="transparent" points="711.5,-10 711.5,-30 731.5,-30 731.5,-10 711.5,-10"/>
<text text-anchor="start" x="735.1732" y="-15.4" font-family="sans-serif" font-size="14.00" fill="#000000"> &#160;Providers</text>
<polygon fill="#fb8072" stroke="transparent" points="807.5,-10 807.5,-30 827.5,-30 827.5,-10 807.5,-10"/>
<text text-anchor="start" x="831.2258" y="-15.4" font-family="sans-serif" font-size="14.00" fill="#000000"> &#160;Exports</text>
<g id="clust1" class="cluster">
<title>cluster_AuthModule</title>
<polygon fill="none" stroke="#000000" stroke-dasharray="1,5" points="8,-70 8,-195 1291,-195 1291,-70 8,-70"/>
</g>
<g id="clust2" class="cluster">
<title>cluster_AuthModule_declarations</title>
<polygon fill="none" stroke="#000000" points="1157,-78 1157,-130 1283,-130 1283,-78 1157,-78"/>
</g>
<g id="clust4" class="cluster">
<title>cluster_AuthModule_imports</title>
<polygon fill="none" stroke="#000000" points="448,-78 448,-130 1149,-130 1149,-78 448,-78"/>
</g>
<g id="clust7" class="cluster">
<title>cluster_AuthModule_providers</title>
<polygon fill="none" stroke="#000000" points="16,-78 16,-130 440,-130 440,-78 16,-78"/>
</g>
<!-- AuthComponent -->
<g id="node1" class="node">
<title>AuthComponent</title>
<polygon fill="#ffffb3" stroke="#000000" points="1274.8301,-122 1165.1699,-122 1165.1699,-86 1274.8301,-86 1274.8301,-122"/>
<text text-anchor="middle" x="1220" y="-99.8" font-family="Times,serif" font-size="14.00" fill="#000000">AuthComponent</text>
</g>
<!-- AuthModule -->
<g id="node2" class="node">
<title>AuthModule</title>
<polygon fill="#8dd3c7" stroke="#000000" points="699.5482,-187 696.5482,-191 675.5482,-191 672.5482,-187 612.4518,-187 612.4518,-151 699.5482,-151 699.5482,-187"/>
<text text-anchor="middle" x="656" y="-164.8" font-family="Times,serif" font-size="14.00" fill="#000000">AuthModule</text>
</g>
<!-- AuthComponent&#45;&gt;AuthModule -->
<g id="edge1" class="edge">
<title>AuthComponent&#45;&gt;AuthModule</title>
<path fill="none" stroke="#000000" d="M1220,-122.0109C1220,-144.4852 1220,-180 1220,-180 1220,-180 709.7868,-180 709.7868,-180"/>
<polygon fill="#000000" stroke="#000000" points="709.7869,-176.5001 699.7868,-180 709.7868,-183.5001 709.7869,-176.5001"/>
</g>
<!-- AppRoutingModule -->
<g id="node3" class="node">
<title>AppRoutingModule</title>
<polygon fill="#8dd3c7" stroke="#000000" points="1141.2744,-122 1138.2744,-126 1117.2744,-126 1114.2744,-122 1012.7256,-122 1012.7256,-86 1141.2744,-86 1141.2744,-122"/>
<text text-anchor="middle" x="1077" y="-99.8" font-family="Times,serif" font-size="14.00" fill="#000000">AppRoutingModule</text>
</g>
<!-- AppRoutingModule&#45;&gt;AuthModule -->
<g id="edge2" class="edge">
<title>AppRoutingModule&#45;&gt;AuthModule</title>
<path fill="none" stroke="#000000" d="M1077,-122.1289C1077,-142.5724 1077,-173 1077,-173 1077,-173 709.863,-173 709.863,-173"/>
<polygon fill="#000000" stroke="#000000" points="709.863,-169.5001 699.863,-173 709.8629,-176.5001 709.863,-169.5001"/>
</g>
<!-- RegistrationPageModule -->
<g id="node4" class="node">
<title>RegistrationPageModule</title>
<polygon fill="#8dd3c7" stroke="#000000" points="994.6951,-122 991.6951,-126 970.6951,-126 967.6951,-122 839.3049,-122 839.3049,-86 994.6951,-86 994.6951,-122"/>
<text text-anchor="middle" x="917" y="-99.8" font-family="Times,serif" font-size="14.00" fill="#000000">RegistrationPageModule</text>
</g>
<!-- RegistrationPageModule&#45;&gt;AuthModule -->
<g id="edge3" class="edge">
<title>RegistrationPageModule&#45;&gt;AuthModule</title>
<path fill="none" stroke="#000000" d="M917,-122.2667C917,-140.5552 917,-166 917,-166 917,-166 709.6855,-166 709.6855,-166"/>
<polygon fill="#000000" stroke="#000000" points="709.6856,-162.5001 699.6855,-166 709.6855,-169.5001 709.6856,-162.5001"/>
</g>
<!-- SharedModule -->
<g id="node5" class="node">
<title>SharedModule</title>
<polygon fill="#8dd3c7" stroke="#000000" points="821.4231,-122 818.4231,-126 797.4231,-126 794.4231,-122 722.5769,-122 722.5769,-86 821.4231,-86 821.4231,-122"/>
<text text-anchor="middle" x="772" y="-99.8" font-family="Times,serif" font-size="14.00" fill="#000000">SharedModule</text>
</g>
<!-- SharedModule&#45;&gt;AuthModule -->
<g id="edge4" class="edge">
<title>SharedModule&#45;&gt;AuthModule</title>
<path fill="none" stroke="#000000" d="M772,-122.0091C772,-138.0494 772,-159 772,-159 772,-159 709.8546,-159 709.8546,-159"/>
<polygon fill="#000000" stroke="#000000" points="709.8547,-155.5001 699.8546,-159 709.8546,-162.5001 709.8547,-155.5001"/>
</g>
<!-- SignInModule -->
<g id="node6" class="node">
<title>SignInModule</title>
<polygon fill="#8dd3c7" stroke="#000000" points="704.3837,-122 701.3837,-126 680.3837,-126 677.3837,-122 607.6163,-122 607.6163,-86 704.3837,-86 704.3837,-122"/>
<text text-anchor="middle" x="656" y="-99.8" font-family="Times,serif" font-size="14.00" fill="#000000">SignInModule</text>
</g>
<!-- SignInModule&#45;&gt;AuthModule -->
<g id="edge5" class="edge">
<title>SignInModule&#45;&gt;AuthModule</title>
<path fill="none" stroke="#000000" d="M656,-122.1061C656,-122.1061 656,-140.991 656,-140.991"/>
<polygon fill="#000000" stroke="#000000" points="652.5001,-140.9909 656,-150.991 659.5001,-140.991 652.5001,-140.9909"/>
</g>
<!-- SignOutPageModule -->
<g id="node7" class="node">
<title>SignOutPageModule</title>
<polygon fill="#8dd3c7" stroke="#000000" points="589.9327,-122 586.9327,-126 565.9327,-126 562.9327,-122 456.0673,-122 456.0673,-86 589.9327,-86 589.9327,-122"/>
<text text-anchor="middle" x="523" y="-99.8" font-family="Times,serif" font-size="14.00" fill="#000000">SignOutPageModule</text>
</g>
<!-- SignOutPageModule&#45;&gt;AuthModule -->
<g id="edge6" class="edge">
<title>SignOutPageModule&#45;&gt;AuthModule</title>
<path fill="none" stroke="#000000" d="M523,-122.0091C523,-138.0494 523,-159 523,-159 523,-159 602.4508,-159 602.4508,-159"/>
<polygon fill="#000000" stroke="#000000" points="602.4509,-162.5001 612.4508,-159 602.4508,-155.5001 602.4509,-162.5001"/>
</g>
<!-- AuthGuard -->
<g id="node8" class="node">
<title>AuthGuard</title>
<ellipse fill="#fdb462" stroke="#000000" cx="378" cy="-104" rx="54.4566" ry="18"/>
<text text-anchor="middle" x="378" y="-99.8" font-family="Times,serif" font-size="14.00" fill="#000000">AuthGuard</text>
</g>
<!-- AuthGuard&#45;&gt;AuthModule -->
<g id="edge7" class="edge">
<title>AuthGuard&#45;&gt;AuthModule</title>
<path fill="none" stroke="#000000" d="M378,-122.2667C378,-140.5552 378,-166 378,-166 378,-166 602.2567,-166 602.2567,-166"/>
<polygon fill="#000000" stroke="#000000" points="602.2567,-169.5001 612.2567,-166 602.2566,-162.5001 602.2567,-169.5001"/>
</g>
<!-- AuthInterceptor -->
<g id="node9" class="node">
<title>AuthInterceptor</title>
<ellipse fill="#fdb462" stroke="#000000" cx="233" cy="-104" rx="72.9121" ry="18"/>
<text text-anchor="middle" x="233" y="-99.8" font-family="Times,serif" font-size="14.00" fill="#000000">AuthInterceptor</text>
</g>
<!-- AuthInterceptor&#45;&gt;AuthModule -->
<g id="edge8" class="edge">
<title>AuthInterceptor&#45;&gt;AuthModule</title>
<path fill="none" stroke="#000000" d="M233,-122.1289C233,-142.5724 233,-173 233,-173 233,-173 602.3248,-173 602.3248,-173"/>
<polygon fill="#000000" stroke="#000000" points="602.3248,-176.5001 612.3248,-173 602.3247,-169.5001 602.3248,-176.5001"/>
</g>
<!-- AuthService -->
<g id="node10" class="node">
<title>AuthService</title>
<ellipse fill="#fdb462" stroke="#000000" cx="83" cy="-104" rx="59.1083" ry="18"/>
<text text-anchor="middle" x="83" y="-99.8" font-family="Times,serif" font-size="14.00" fill="#000000">AuthService</text>
</g>
<!-- AuthService&#45;&gt;AuthModule -->
<g id="edge9" class="edge">
<title>AuthService&#45;&gt;AuthModule</title>
<path fill="none" stroke="#000000" d="M83,-122.0109C83,-144.4852 83,-180 83,-180 83,-180 601.9891,-180 601.9891,-180"/>
<polygon fill="#000000" stroke="#000000" points="601.9891,-183.5001 611.9891,-180 601.9891,-176.5001 601.9891,-183.5001"/>
</g>
</g>
</svg>
