<?xml version="1.0" encoding="UTF-8" standalone="no"?>
<!DOCTYPE svg PUBLIC "-//W3C//DTD SVG 1.1//EN"
 "http://www.w3.org/Graphics/SVG/1.1/DTD/svg11.dtd">
<!-- Generated by graphviz version 2.40.1 (20161225.0304)
 -->
<!-- Title: dependencies Pages: 1 -->
<svg width="504pt" height="211pt"
 viewBox="0.00 0.00 504.00 211.00" xmlns="http://www.w3.org/2000/svg" xmlns:xlink="http://www.w3.org/1999/xlink">
<g id="graph0" class="graph" transform="scale(1 1) rotate(0) translate(4 207)">
<title>dependencies</title>
<polygon fill="#ffffff" stroke="transparent" points="-4,4 -4,-207 500,-207 500,4 -4,4"/>
<text text-anchor="start" x="227.0091" y="-42.4" font-family="sans-serif" font-weight="bold" font-size="14.00" fill="#000000">Legend</text>
<polygon fill="#ffffb3" stroke="transparent" points="14,-10 14,-30 34,-30 34,-10 14,-10"/>
<text text-anchor="start" x="37.629" y="-15.4" font-family="sans-serif" font-size="14.00" fill="#000000"> &#160;Declarations</text>
<polygon fill="#8dd3c7" stroke="transparent" points="127,-10 127,-30 147,-30 147,-10 127,-10"/>
<text text-anchor="start" x="150.7251" y="-15.4" font-family="sans-serif" font-size="14.00" fill="#000000"> &#160;Module</text>
<polygon fill="#80b1d3" stroke="transparent" points="213,-10 213,-30 233,-30 233,-10 213,-10"/>
<text text-anchor="start" x="236.7812" y="-15.4" font-family="sans-serif" font-size="14.00" fill="#000000"> &#160;Bootstrap</text>
<polygon fill="#fdb462" stroke="transparent" points="310,-10 310,-30 330,-30 330,-10 310,-10"/>
<text text-anchor="start" x="333.6732" y="-15.4" font-family="sans-serif" font-size="14.00" fill="#000000"> &#160;Providers</text>
<polygon fill="#fb8072" stroke="transparent" points="406,-10 406,-30 426,-30 426,-10 406,-10"/>
<text text-anchor="start" x="429.7258" y="-15.4" font-family="sans-serif" font-size="14.00" fill="#000000"> &#160;Exports</text>
<g id="clust1" class="cluster">
<title>cluster_TravelogueModule</title>
<polygon fill="none" stroke="#000000" stroke-dasharray="1,5" points="90,-70 90,-195 406,-195 406,-70 90,-70"/>
</g>
<g id="clust2" class="cluster">
<title>cluster_TravelogueModule_declarations</title>
<polygon fill="none" stroke="#000000" points="236,-78 236,-130 398,-130 398,-78 236,-78"/>
</g>
<g id="clust4" class="cluster">
<title>cluster_TravelogueModule_imports</title>
<polygon fill="none" stroke="#000000" points="98,-78 98,-130 228,-130 228,-78 98,-78"/>
</g>
<!-- TravelogueComponent -->
<g id="node1" class="node">
<title>TravelogueComponent</title>
<polygon fill="#ffffb3" stroke="#000000" points="389.58,-122 244.42,-122 244.42,-86 389.58,-86 389.58,-122"/>
<text text-anchor="middle" x="317" y="-99.8" font-family="Times,serif" font-size="14.00" fill="#000000">TravelogueComponent</text>
</g>
<!-- TravelogueModule -->
<g id="node2" class="node">
<title>TravelogueModule</title>
<polygon fill="#8dd3c7" stroke="#000000" points="301.7978,-187 298.7978,-191 277.7978,-191 274.7978,-187 178.2022,-187 178.2022,-151 301.7978,-151 301.7978,-187"/>
<text text-anchor="middle" x="240" y="-164.8" font-family="Times,serif" font-size="14.00" fill="#000000">TravelogueModule</text>
</g>
<!-- TravelogueComponent&#45;&gt;TravelogueModule -->
<g id="edge1" class="edge">
<title>TravelogueComponent&#45;&gt;TravelogueModule</title>
<path fill="none" stroke="#000000" d="M273.0544,-122.1061C273.0544,-122.1061 273.0544,-140.991 273.0544,-140.991"/>
<polygon fill="#000000" stroke="#000000" points="269.5544,-140.9909 273.0544,-150.991 276.5544,-140.991 269.5544,-140.9909"/>
</g>
<!-- ContainerModule -->
<g id="node3" class="node">
<title>ContainerModule</title>
<polygon fill="#8dd3c7" stroke="#000000" points="220.2577,-122 217.2577,-126 196.2577,-126 193.2577,-122 105.7423,-122 105.7423,-86 220.2577,-86 220.2577,-122"/>
<text text-anchor="middle" x="163" y="-99.8" font-family="Times,serif" font-size="14.00" fill="#000000">ContainerModule</text>
</g>
<!-- ContainerModule&#45;&gt;TravelogueModule -->
<g id="edge2" class="edge">
<title>ContainerModule&#45;&gt;TravelogueModule</title>
<path fill="none" stroke="#000000" d="M199.365,-122.1061C199.365,-122.1061 199.365,-140.991 199.365,-140.991"/>
<polygon fill="#000000" stroke="#000000" points="195.8651,-140.9909 199.365,-150.991 202.8651,-140.991 195.8651,-140.9909"/>
</g>
</g>
</svg>
