<?xml version="1.0" encoding="UTF-8" standalone="no"?>
<!DOCTYPE svg PUBLIC "-//W3C//DTD SVG 1.1//EN"
 "http://www.w3.org/Graphics/SVG/1.1/DTD/svg11.dtd">
<!-- Generated by graphviz version 2.40.1 (20161225.0304)
 -->
<!-- Title: dependencies Pages: 1 -->
<svg width="1196pt" height="211pt"
 viewBox="0.00 0.00 1196.00 211.00" xmlns="http://www.w3.org/2000/svg" xmlns:xlink="http://www.w3.org/1999/xlink">
<g id="graph0" class="graph" transform="scale(1 1) rotate(0) translate(4 207)">
<title>dependencies</title>
<polygon fill="#ffffff" stroke="transparent" points="-4,4 -4,-207 1192,-207 1192,4 -4,4"/>
<text text-anchor="start" x="573.0091" y="-42.4" font-family="sans-serif" font-weight="bold" font-size="14.00" fill="#000000">Legend</text>
<polygon fill="#ffffb3" stroke="transparent" points="360,-10 360,-30 380,-30 380,-10 360,-10"/>
<text text-anchor="start" x="383.629" y="-15.4" font-family="sans-serif" font-size="14.00" fill="#000000"> &#160;Declarations</text>
<polygon fill="#8dd3c7" stroke="transparent" points="473,-10 473,-30 493,-30 493,-10 473,-10"/>
<text text-anchor="start" x="496.7251" y="-15.4" font-family="sans-serif" font-size="14.00" fill="#000000"> &#160;Module</text>
<polygon fill="#80b1d3" stroke="transparent" points="559,-10 559,-30 579,-30 579,-10 559,-10"/>
<text text-anchor="start" x="582.7812" y="-15.4" font-family="sans-serif" font-size="14.00" fill="#000000"> &#160;Bootstrap</text>
<polygon fill="#fdb462" stroke="transparent" points="656,-10 656,-30 676,-30 676,-10 656,-10"/>
<text text-anchor="start" x="679.6732" y="-15.4" font-family="sans-serif" font-size="14.00" fill="#000000"> &#160;Providers</text>
<polygon fill="#fb8072" stroke="transparent" points="752,-10 752,-30 772,-30 772,-10 752,-10"/>
<text text-anchor="start" x="775.7258" y="-15.4" font-family="sans-serif" font-size="14.00" fill="#000000"> &#160;Exports</text>
<g id="clust1" class="cluster">
<title>cluster_TravelogueModule</title>
<polygon fill="none" stroke="#000000" stroke-dasharray="1,5" points="8,-70 8,-195 1180,-195 1180,-70 8,-70"/>
</g>
<g id="clust2" class="cluster">
<title>cluster_TravelogueModule_declarations</title>
<polygon fill="none" stroke="#000000" points="1010,-78 1010,-130 1172,-130 1172,-78 1010,-78"/>
</g>
<g id="clust4" class="cluster">
<title>cluster_TravelogueModule_imports</title>
<polygon fill="none" stroke="#000000" points="208,-78 208,-130 1002,-130 1002,-78 208,-78"/>
</g>
<g id="clust7" class="cluster">
<title>cluster_TravelogueModule_providers</title>
<polygon fill="none" stroke="#000000" points="16,-78 16,-130 200,-130 200,-78 16,-78"/>
</g>
<!-- TravelogueComponent -->
<g id="node1" class="node">
<title>TravelogueComponent</title>
<polygon fill="#ffffb3" stroke="#000000" points="1163.58,-122 1018.42,-122 1018.42,-86 1163.58,-86 1163.58,-122"/>
<text text-anchor="middle" x="1091" y="-99.8" font-family="Times,serif" font-size="14.00" fill="#000000">TravelogueComponent</text>
</g>
<!-- TravelogueModule -->
<g id="node2" class="node">
<title>TravelogueModule</title>
<polygon fill="#8dd3c7" stroke="#000000" points="637.7978,-187 634.7978,-191 613.7978,-191 610.7978,-187 514.2022,-187 514.2022,-151 637.7978,-151 637.7978,-187"/>
<text text-anchor="middle" x="576" y="-164.8" font-family="Times,serif" font-size="14.00" fill="#000000">TravelogueModule</text>
</g>
<!-- TravelogueComponent&#45;&gt;TravelogueModule -->
<g id="edge1" class="edge">
<title>TravelogueComponent&#45;&gt;TravelogueModule</title>
<path fill="none" stroke="#000000" d="M1091,-122.2921C1091,-144.2057 1091,-178 1091,-178 1091,-178 647.8651,-178 647.8651,-178"/>
<polygon fill="#000000" stroke="#000000" points="647.8651,-174.5001 637.8651,-178 647.865,-181.5001 647.8651,-174.5001"/>
</g>
<!-- CommentsModule -->
<g id="node3" class="node">
<title>CommentsModule</title>
<polygon fill="#8dd3c7" stroke="#000000" points="994.2176,-122 991.2176,-126 970.2176,-126 967.2176,-122 873.7824,-122 873.7824,-86 994.2176,-86 994.2176,-122"/>
<text text-anchor="middle" x="934" y="-99.8" font-family="Times,serif" font-size="14.00" fill="#000000">CommentsModule</text>
</g>
<!-- CommentsModule&#45;&gt;TravelogueModule -->
<g id="edge2" class="edge">
<title>CommentsModule&#45;&gt;TravelogueModule</title>
<path fill="none" stroke="#000000" d="M934,-122.1061C934,-141.3391 934,-169 934,-169 934,-169 647.9501,-169 647.9501,-169"/>
<polygon fill="#000000" stroke="#000000" points="647.9502,-165.5001 637.9501,-169 647.9501,-172.5001 647.9502,-165.5001"/>
</g>
<!-- ContainerModule -->
<g id="node4" class="node">
<title>ContainerModule</title>
<polygon fill="#8dd3c7" stroke="#000000" points="856.2577,-122 853.2577,-126 832.2577,-126 829.2577,-122 741.7423,-122 741.7423,-86 856.2577,-86 856.2577,-122"/>
<text text-anchor="middle" x="799" y="-99.8" font-family="Times,serif" font-size="14.00" fill="#000000">ContainerModule</text>
</g>
<!-- ContainerModule&#45;&gt;TravelogueModule -->
<g id="edge3" class="edge">
<title>ContainerModule&#45;&gt;TravelogueModule</title>
<path fill="none" stroke="#000000" d="M799,-122.027C799,-138.3976 799,-160 799,-160 799,-160 647.8218,-160 647.8218,-160"/>
<polygon fill="#000000" stroke="#000000" points="647.8218,-156.5001 637.8218,-160 647.8218,-163.5001 647.8218,-156.5001"/>
</g>
<!-- FormElementsModule -->
<g id="node5" class="node">
<title>FormElementsModule</title>
<polygon fill="#8dd3c7" stroke="#000000" points="723.9818,-122 720.9818,-126 699.9818,-126 696.9818,-122 582.0182,-122 582.0182,-86 723.9818,-86 723.9818,-122"/>
<text text-anchor="middle" x="653" y="-99.8" font-family="Times,serif" font-size="14.00" fill="#000000">FormElementsModule</text>
</g>
<!-- FormElementsModule&#45;&gt;TravelogueModule -->
<g id="edge4" class="edge">
<title>FormElementsModule&#45;&gt;TravelogueModule</title>
<path fill="none" stroke="#000000" d="M609.8289,-122.1061C609.8289,-122.1061 609.8289,-140.991 609.8289,-140.991"/>
<polygon fill="#000000" stroke="#000000" points="606.329,-140.9909 609.8289,-150.991 613.329,-140.991 606.329,-140.9909"/>
</g>
<!-- HomebuttonModule -->
<g id="node6" class="node">
<title>HomebuttonModule</title>
<polygon fill="#8dd3c7" stroke="#000000" points="563.5436,-122 560.5436,-126 539.5436,-126 536.5436,-122 434.4564,-122 434.4564,-86 563.5436,-86 563.5436,-122"/>
<text text-anchor="middle" x="499" y="-99.8" font-family="Times,serif" font-size="14.00" fill="#000000">HomebuttonModule</text>
</g>
<!-- HomebuttonModule&#45;&gt;TravelogueModule -->
<g id="edge5" class="edge">
<title>HomebuttonModule&#45;&gt;TravelogueModule</title>
<path fill="none" stroke="#000000" d="M539.0613,-122.1061C539.0613,-122.1061 539.0613,-140.991 539.0613,-140.991"/>
<polygon fill="#000000" stroke="#000000" points="535.5614,-140.9909 539.0613,-150.991 542.5614,-140.991 535.5614,-140.9909"/>
</g>
<!-- IconModule -->
<g id="node7" class="node">
<title>IconModule</title>
<polygon fill="#8dd3c7" stroke="#000000" points="416.4261,-122 413.4261,-126 392.4261,-126 389.4261,-122 331.5739,-122 331.5739,-86 416.4261,-86 416.4261,-122"/>
<text text-anchor="middle" x="374" y="-99.8" font-family="Times,serif" font-size="14.00" fill="#000000">IconModule</text>
</g>
<!-- IconModule&#45;&gt;TravelogueModule -->
<g id="edge6" class="edge">
<title>IconModule&#45;&gt;TravelogueModule</title>
<path fill="none" stroke="#000000" d="M374,-122.027C374,-138.3976 374,-160 374,-160 374,-160 504.2957,-160 504.2957,-160"/>
<polygon fill="#000000" stroke="#000000" points="504.2958,-163.5001 514.2957,-160 504.2957,-156.5001 504.2958,-163.5001"/>
</g>
<!-- SharedModule -->
<g id="node8" class="node">
<title>SharedModule</title>
<polygon fill="#8dd3c7" stroke="#000000" points="314.4231,-122 311.4231,-126 290.4231,-126 287.4231,-122 215.5769,-122 215.5769,-86 314.4231,-86 314.4231,-122"/>
<text text-anchor="middle" x="265" y="-99.8" font-family="Times,serif" font-size="14.00" fill="#000000">SharedModule</text>
</g>
<!-- SharedModule&#45;&gt;TravelogueModule -->
<g id="edge7" class="edge">
<title>SharedModule&#45;&gt;TravelogueModule</title>
<path fill="none" stroke="#000000" d="M265,-122.1061C265,-141.3391 265,-169 265,-169 265,-169 504.1846,-169 504.1846,-169"/>
<polygon fill="#000000" stroke="#000000" points="504.1846,-172.5001 514.1846,-169 504.1845,-165.5001 504.1846,-172.5001"/>
</g>
<!-- TravelogueService -->
<g id="node9" class="node">
<title>TravelogueService</title>
<ellipse fill="#fdb462" stroke="#000000" cx="108" cy="-104" rx="83.9277" ry="18"/>
<text text-anchor="middle" x="108" y="-99.8" font-family="Times,serif" font-size="14.00" fill="#000000">TravelogueService</text>
</g>
<!-- TravelogueService&#45;&gt;TravelogueModule -->
<g id="edge8" class="edge">
<title>TravelogueService&#45;&gt;TravelogueModule</title>
<path fill="none" stroke="#000000" d="M108,-122.2921C108,-144.2057 108,-178 108,-178 108,-178 504.3359,-178 504.3359,-178"/>
<polygon fill="#000000" stroke="#000000" points="504.336,-181.5001 514.3359,-178 504.3359,-174.5001 504.336,-181.5001"/>
</g>
</g>
</svg>
