<?xml version="1.0" encoding="UTF-8" standalone="no"?>
<!DOCTYPE svg PUBLIC "-//W3C//DTD SVG 1.1//EN"
 "http://www.w3.org/Graphics/SVG/1.1/DTD/svg11.dtd">
<!-- Generated by graphviz version 2.40.1 (20161225.0304)
 -->
<!-- Title: dependencies Pages: 1 -->
<svg width="888pt" height="211pt"
 viewBox="0.00 0.00 888.00 211.00" xmlns="http://www.w3.org/2000/svg" xmlns:xlink="http://www.w3.org/1999/xlink">
<g id="graph0" class="graph" transform="scale(1 1) rotate(0) translate(4 207)">
<title>dependencies</title>
<polygon fill="#ffffff" stroke="transparent" points="-4,4 -4,-207 884,-207 884,4 -4,4"/>
<text text-anchor="start" x="419.0091" y="-42.4" font-family="sans-serif" font-weight="bold" font-size="14.00" fill="#000000">Legend</text>
<polygon fill="#ffffb3" stroke="transparent" points="206,-10 206,-30 226,-30 226,-10 206,-10"/>
<text text-anchor="start" x="229.629" y="-15.4" font-family="sans-serif" font-size="14.00" fill="#000000"> &#160;Declarations</text>
<polygon fill="#8dd3c7" stroke="transparent" points="319,-10 319,-30 339,-30 339,-10 319,-10"/>
<text text-anchor="start" x="342.7251" y="-15.4" font-family="sans-serif" font-size="14.00" fill="#000000"> &#160;Module</text>
<polygon fill="#80b1d3" stroke="transparent" points="405,-10 405,-30 425,-30 425,-10 405,-10"/>
<text text-anchor="start" x="428.7812" y="-15.4" font-family="sans-serif" font-size="14.00" fill="#000000"> &#160;Bootstrap</text>
<polygon fill="#fdb462" stroke="transparent" points="502,-10 502,-30 522,-30 522,-10 502,-10"/>
<text text-anchor="start" x="525.6732" y="-15.4" font-family="sans-serif" font-size="14.00" fill="#000000"> &#160;Providers</text>
<polygon fill="#fb8072" stroke="transparent" points="598,-10 598,-30 618,-30 618,-10 598,-10"/>
<text text-anchor="start" x="621.7258" y="-15.4" font-family="sans-serif" font-size="14.00" fill="#000000"> &#160;Exports</text>
<g id="clust1" class="cluster">
<title>cluster_TravelogueModule</title>
<polygon fill="none" stroke="#000000" stroke-dasharray="1,5" points="8,-70 8,-195 872,-195 872,-70 8,-70"/>
</g>
<g id="clust2" class="cluster">
<title>cluster_TravelogueModule_declarations</title>
<polygon fill="none" stroke="#000000" points="702,-78 702,-130 864,-130 864,-78 702,-78"/>
</g>
<g id="clust4" class="cluster">
<title>cluster_TravelogueModule_imports</title>
<polygon fill="none" stroke="#000000" points="16,-78 16,-130 694,-130 694,-78 16,-78"/>
</g>
<!-- TravelogueComponent -->
<g id="node1" class="node">
<title>TravelogueComponent</title>
<polygon fill="#ffffb3" stroke="#000000" points="855.58,-122 710.42,-122 710.42,-86 855.58,-86 855.58,-122"/>
<text text-anchor="middle" x="783" y="-99.8" font-family="Times,serif" font-size="14.00" fill="#000000">TravelogueComponent</text>
</g>
<!-- TravelogueModule -->
<g id="node2" class="node">
<title>TravelogueModule</title>
<polygon fill="#8dd3c7" stroke="#000000" points="479.7978,-187 476.7978,-191 455.7978,-191 452.7978,-187 356.2022,-187 356.2022,-151 479.7978,-151 479.7978,-187"/>
<text text-anchor="middle" x="418" y="-164.8" font-family="Times,serif" font-size="14.00" fill="#000000">TravelogueModule</text>
</g>
<!-- TravelogueComponent&#45;&gt;TravelogueModule -->
<g id="edge1" class="edge">
<title>TravelogueComponent&#45;&gt;TravelogueModule</title>
<path fill="none" stroke="#000000" d="M783,-122.2843C783,-143.3211 783,-175 783,-175 783,-175 489.9173,-175 489.9173,-175"/>
<polygon fill="#000000" stroke="#000000" points="489.9173,-171.5001 479.9173,-175 489.9172,-178.5001 489.9173,-171.5001"/>
</g>
<!-- CommentsModule -->
<g id="node3" class="node">
<title>CommentsModule</title>
<polygon fill="#8dd3c7" stroke="#000000" points="686.2176,-122 683.2176,-126 662.2176,-126 659.2176,-122 565.7824,-122 565.7824,-86 686.2176,-86 686.2176,-122"/>
<text text-anchor="middle" x="626" y="-99.8" font-family="Times,serif" font-size="14.00" fill="#000000">CommentsModule</text>
</g>
<!-- CommentsModule&#45;&gt;TravelogueModule -->
<g id="edge2" class="edge">
<title>CommentsModule&#45;&gt;TravelogueModule</title>
<path fill="none" stroke="#000000" d="M626,-122.0225C626,-139.3734 626,-163 626,-163 626,-163 489.8437,-163 489.8437,-163"/>
<polygon fill="#000000" stroke="#000000" points="489.8437,-159.5001 479.8437,-163 489.8437,-166.5001 489.8437,-159.5001"/>
</g>
<!-- ContainerModule -->
<g id="node4" class="node">
<title>ContainerModule</title>
<polygon fill="#8dd3c7" stroke="#000000" points="548.2577,-122 545.2577,-126 524.2577,-126 521.2577,-122 433.7423,-122 433.7423,-86 548.2577,-86 548.2577,-122"/>
<text text-anchor="middle" x="491" y="-99.8" font-family="Times,serif" font-size="14.00" fill="#000000">ContainerModule</text>
</g>
<!-- ContainerModule&#45;&gt;TravelogueModule -->
<g id="edge3" class="edge">
<title>ContainerModule&#45;&gt;TravelogueModule</title>
<path fill="none" stroke="#000000" d="M456.635,-122.1061C456.635,-122.1061 456.635,-140.991 456.635,-140.991"/>
<polygon fill="#000000" stroke="#000000" points="453.1351,-140.9909 456.635,-150.991 460.1351,-140.991 453.1351,-140.9909"/>
</g>
<!-- FormElementsModule -->
<g id="node5" class="node">
<title>FormElementsModule</title>
<polygon fill="#8dd3c7" stroke="#000000" points="415.9818,-122 412.9818,-126 391.9818,-126 388.9818,-122 274.0182,-122 274.0182,-86 415.9818,-86 415.9818,-122"/>
<text text-anchor="middle" x="345" y="-99.8" font-family="Times,serif" font-size="14.00" fill="#000000">FormElementsModule</text>
</g>
<!-- FormElementsModule&#45;&gt;TravelogueModule -->
<g id="edge4" class="edge">
<title>FormElementsModule&#45;&gt;TravelogueModule</title>
<path fill="none" stroke="#000000" d="M386.1711,-122.1061C386.1711,-122.1061 386.1711,-140.991 386.1711,-140.991"/>
<polygon fill="#000000" stroke="#000000" points="382.6712,-140.9909 386.1711,-150.991 389.6712,-140.991 382.6712,-140.9909"/>
</g>
<!-- HomebuttonModule -->
<g id="node6" class="node">
<title>HomebuttonModule</title>
<polygon fill="#8dd3c7" stroke="#000000" points="255.5436,-122 252.5436,-126 231.5436,-126 228.5436,-122 126.4564,-122 126.4564,-86 255.5436,-86 255.5436,-122"/>
<text text-anchor="middle" x="191" y="-99.8" font-family="Times,serif" font-size="14.00" fill="#000000">HomebuttonModule</text>
</g>
<!-- HomebuttonModule&#45;&gt;TravelogueModule -->
<g id="edge5" class="edge">
<title>HomebuttonModule&#45;&gt;TravelogueModule</title>
<path fill="none" stroke="#000000" d="M191,-122.0225C191,-139.3734 191,-163 191,-163 191,-163 346.2711,-163 346.2711,-163"/>
<polygon fill="#000000" stroke="#000000" points="346.2711,-166.5001 356.2711,-163 346.2711,-159.5001 346.2711,-166.5001"/>
</g>
<!-- IconModule -->
<g id="node7" class="node">
<title>IconModule</title>
<polygon fill="#8dd3c7" stroke="#000000" points="108.4261,-122 105.4261,-126 84.4261,-126 81.4261,-122 23.5739,-122 23.5739,-86 108.4261,-86 108.4261,-122"/>
<text text-anchor="middle" x="66" y="-99.8" font-family="Times,serif" font-size="14.00" fill="#000000">IconModule</text>
</g>
<!-- IconModule&#45;&gt;TravelogueModule -->
<g id="edge6" class="edge">
<title>IconModule&#45;&gt;TravelogueModule</title>
<path fill="none" stroke="#000000" d="M66,-122.2843C66,-143.3211 66,-175 66,-175 66,-175 346.2835,-175 346.2835,-175"/>
<polygon fill="#000000" stroke="#000000" points="346.2835,-178.5001 356.2835,-175 346.2834,-171.5001 346.2835,-178.5001"/>
</g>
</g>
</svg>
