<?xml version="1.0" encoding="UTF-8" standalone="no"?>
<!DOCTYPE svg PUBLIC "-//W3C//DTD SVG 1.1//EN"
 "http://www.w3.org/Graphics/SVG/1.1/DTD/svg11.dtd">
<!-- Generated by graphviz version 2.40.1 (20161225.0304)
 -->
<!-- Title: dependencies Pages: 1 -->
<svg width="740pt" height="284pt"
 viewBox="0.00 0.00 740.00 284.00" xmlns="http://www.w3.org/2000/svg" xmlns:xlink="http://www.w3.org/1999/xlink">
<g id="graph0" class="graph" transform="scale(1 1) rotate(0) translate(4 280)">
<title>dependencies</title>
<polygon fill="#ffffff" stroke="transparent" points="-4,4 -4,-280 736,-280 736,4 -4,4"/>
<text text-anchor="start" x="345.0091" y="-42.4" font-family="sans-serif" font-weight="bold" font-size="14.00" fill="#000000">Legend</text>
<polygon fill="#ffffb3" stroke="transparent" points="132,-10 132,-30 152,-30 152,-10 132,-10"/>
<text text-anchor="start" x="155.629" y="-15.4" font-family="sans-serif" font-size="14.00" fill="#000000"> &#160;Declarations</text>
<polygon fill="#8dd3c7" stroke="transparent" points="245,-10 245,-30 265,-30 265,-10 245,-10"/>
<text text-anchor="start" x="268.7251" y="-15.4" font-family="sans-serif" font-size="14.00" fill="#000000"> &#160;Module</text>
<polygon fill="#80b1d3" stroke="transparent" points="331,-10 331,-30 351,-30 351,-10 331,-10"/>
<text text-anchor="start" x="354.7812" y="-15.4" font-family="sans-serif" font-size="14.00" fill="#000000"> &#160;Bootstrap</text>
<polygon fill="#fdb462" stroke="transparent" points="428,-10 428,-30 448,-30 448,-10 428,-10"/>
<text text-anchor="start" x="451.6732" y="-15.4" font-family="sans-serif" font-size="14.00" fill="#000000"> &#160;Providers</text>
<polygon fill="#fb8072" stroke="transparent" points="524,-10 524,-30 544,-30 544,-10 524,-10"/>
<text text-anchor="start" x="547.7258" y="-15.4" font-family="sans-serif" font-size="14.00" fill="#000000"> &#160;Exports</text>
<g id="clust1" class="cluster">
<title>cluster_ImpressumModule</title>
<polygon fill="none" stroke="#000000" stroke-dasharray="1,5" points="8,-70 8,-268 724,-268 724,-70 8,-70"/>
</g>
<g id="clust2" class="cluster">
<title>cluster_ImpressumModule_declarations</title>
<polygon fill="none" stroke="#000000" points="556,-78 556,-130 716,-130 716,-78 556,-78"/>
</g>
<g id="clust4" class="cluster">
<title>cluster_ImpressumModule_imports</title>
<polygon fill="none" stroke="#000000" points="16,-78 16,-130 548,-130 548,-78 16,-78"/>
</g>
<g id="clust5" class="cluster">
<title>cluster_ImpressumModule_exports</title>
<polygon fill="none" stroke="#000000" points="278,-208 278,-260 442,-260 442,-208 278,-208"/>
</g>
<!-- ImpressumComponent -->
<g id="node1" class="node">
<title>ImpressumComponent</title>
<polygon fill="#ffffb3" stroke="#000000" points="707.5393,-122 564.4607,-122 564.4607,-86 707.5393,-86 707.5393,-122"/>
<text text-anchor="middle" x="636" y="-99.8" font-family="Times,serif" font-size="14.00" fill="#000000">ImpressumComponent</text>
</g>
<!-- ImpressumModule -->
<g id="node2" class="node">
<title>ImpressumModule</title>
<polygon fill="#8dd3c7" stroke="#000000" points="420.7562,-187 417.7562,-191 396.7562,-191 393.7562,-187 299.2438,-187 299.2438,-151 420.7562,-151 420.7562,-187"/>
<text text-anchor="middle" x="360" y="-164.8" font-family="Times,serif" font-size="14.00" fill="#000000">ImpressumModule</text>
</g>
<!-- ImpressumComponent&#45;&gt;ImpressumModule -->
<g id="edge1" class="edge">
<title>ImpressumComponent&#45;&gt;ImpressumModule</title>
<path fill="none" stroke="#000000" d="M636,-122.2843C636,-143.3211 636,-175 636,-175 636,-175 430.911,-175 430.911,-175"/>
<polygon fill="#000000" stroke="#000000" points="430.9111,-171.5001 420.911,-175 430.911,-178.5001 430.9111,-171.5001"/>
</g>
<!-- ImpressumComponent  -->
<g id="node7" class="node">
<title>ImpressumComponent </title>
<polygon fill="#fb8072" stroke="#000000" points="433.5386,-252 286.4614,-252 286.4614,-216 433.5386,-216 433.5386,-252"/>
<text text-anchor="middle" x="360" y="-229.8" font-family="Times,serif" font-size="14.00" fill="#000000">ImpressumComponent </text>
</g>
<!-- ImpressumModule&#45;&gt;ImpressumComponent  -->
<g id="edge6" class="edge">
<title>ImpressumModule&#45;&gt;ImpressumComponent </title>
<path fill="none" stroke="#000000" stroke-dasharray="5,2" d="M360,-187.1061C360,-187.1061 360,-205.991 360,-205.991"/>
<polygon fill="#000000" stroke="#000000" points="356.5001,-205.9909 360,-215.991 363.5001,-205.991 356.5001,-205.9909"/>
</g>
<!-- ContainerModule -->
<g id="node3" class="node">
<title>ContainerModule</title>
<polygon fill="#8dd3c7" stroke="#000000" points="540.2577,-122 537.2577,-126 516.2577,-126 513.2577,-122 425.7423,-122 425.7423,-86 540.2577,-86 540.2577,-122"/>
<text text-anchor="middle" x="483" y="-99.8" font-family="Times,serif" font-size="14.00" fill="#000000">ContainerModule</text>
</g>
<!-- ContainerModule&#45;&gt;ImpressumModule -->
<g id="edge2" class="edge">
<title>ContainerModule&#45;&gt;ImpressumModule</title>
<path fill="none" stroke="#000000" d="M429.5703,-122.0225C429.5703,-139.3734 429.5703,-163 429.5703,-163 429.5703,-163 428.6892,-163 428.6892,-163"/>
<polygon fill="#000000" stroke="#000000" points="430.7592,-159.5001 420.7592,-163 430.7591,-166.5001 430.7592,-159.5001"/>
</g>
<!-- FooterModule -->
<g id="node4" class="node">
<title>FooterModule</title>
<polygon fill="#8dd3c7" stroke="#000000" points="408.0983,-122 405.0983,-126 384.0983,-126 381.0983,-122 311.9017,-122 311.9017,-86 408.0983,-86 408.0983,-122"/>
<text text-anchor="middle" x="360" y="-99.8" font-family="Times,serif" font-size="14.00" fill="#000000">FooterModule</text>
</g>
<!-- FooterModule&#45;&gt;ImpressumModule -->
<g id="edge3" class="edge">
<title>FooterModule&#45;&gt;ImpressumModule</title>
<path fill="none" stroke="#000000" d="M360,-122.1061C360,-122.1061 360,-140.991 360,-140.991"/>
<polygon fill="#000000" stroke="#000000" points="356.5001,-140.9909 360,-150.991 363.5001,-140.991 356.5001,-140.9909"/>
</g>
<!-- HomebuttonModule -->
<g id="node5" class="node">
<title>HomebuttonModule</title>
<polygon fill="#8dd3c7" stroke="#000000" points="293.5436,-122 290.5436,-126 269.5436,-126 266.5436,-122 164.4564,-122 164.4564,-86 293.5436,-86 293.5436,-122"/>
<text text-anchor="middle" x="229" y="-99.8" font-family="Times,serif" font-size="14.00" fill="#000000">HomebuttonModule</text>
</g>
<!-- HomebuttonModule&#45;&gt;ImpressumModule -->
<g id="edge4" class="edge">
<title>HomebuttonModule&#45;&gt;ImpressumModule</title>
<path fill="none" stroke="#000000" d="M290.1261,-122.0225C290.1261,-139.3734 290.1261,-163 290.1261,-163 290.1261,-163 291.011,-163 291.011,-163"/>
<polygon fill="#000000" stroke="#000000" points="288.9757,-166.5001 298.9756,-163 288.9756,-159.5001 288.9757,-166.5001"/>
</g>
<!-- NavigationModule -->
<g id="node6" class="node">
<title>NavigationModule</title>
<polygon fill="#8dd3c7" stroke="#000000" points="145.7576,-122 142.7576,-126 121.7576,-126 118.7576,-122 24.2424,-122 24.2424,-86 145.7576,-86 145.7576,-122"/>
<text text-anchor="middle" x="85" y="-99.8" font-family="Times,serif" font-size="14.00" fill="#000000">NavigationModule</text>
</g>
<!-- NavigationModule&#45;&gt;ImpressumModule -->
<g id="edge5" class="edge">
<title>NavigationModule&#45;&gt;ImpressumModule</title>
<path fill="none" stroke="#000000" d="M85,-122.2843C85,-143.3211 85,-175 85,-175 85,-175 288.9686,-175 288.9686,-175"/>
<polygon fill="#000000" stroke="#000000" points="288.9686,-178.5001 298.9686,-175 288.9686,-171.5001 288.9686,-178.5001"/>
</g>
</g>
</svg>
