<?xml version="1.0" encoding="UTF-8" standalone="no"?>
<!DOCTYPE svg PUBLIC "-//W3C//DTD SVG 1.1//EN"
 "http://www.w3.org/Graphics/SVG/1.1/DTD/svg11.dtd">
<!-- Generated by graphviz version 2.40.1 (20161225.0304)
 -->
<!-- Title: dependencies Pages: 1 -->
<svg width="1462pt" height="211pt"
 viewBox="0.00 0.00 1462.00 211.00" xmlns="http://www.w3.org/2000/svg" xmlns:xlink="http://www.w3.org/1999/xlink">
<g id="graph0" class="graph" transform="scale(1 1) rotate(0) translate(4 207)">
<title>dependencies</title>
<polygon fill="#ffffff" stroke="transparent" points="-4,4 -4,-207 1458,-207 1458,4 -4,4"/>
<text text-anchor="start" x="706.0091" y="-42.4" font-family="sans-serif" font-weight="bold" font-size="14.00" fill="#000000">Legend</text>
<polygon fill="#ffffb3" stroke="transparent" points="493,-10 493,-30 513,-30 513,-10 493,-10"/>
<text text-anchor="start" x="516.629" y="-15.4" font-family="sans-serif" font-size="14.00" fill="#000000"> &#160;Declarations</text>
<polygon fill="#8dd3c7" stroke="transparent" points="606,-10 606,-30 626,-30 626,-10 606,-10"/>
<text text-anchor="start" x="629.7251" y="-15.4" font-family="sans-serif" font-size="14.00" fill="#000000"> &#160;Module</text>
<polygon fill="#80b1d3" stroke="transparent" points="692,-10 692,-30 712,-30 712,-10 692,-10"/>
<text text-anchor="start" x="715.7812" y="-15.4" font-family="sans-serif" font-size="14.00" fill="#000000"> &#160;Bootstrap</text>
<polygon fill="#fdb462" stroke="transparent" points="789,-10 789,-30 809,-30 809,-10 789,-10"/>
<text text-anchor="start" x="812.6732" y="-15.4" font-family="sans-serif" font-size="14.00" fill="#000000"> &#160;Providers</text>
<polygon fill="#fb8072" stroke="transparent" points="885,-10 885,-30 905,-30 905,-10 885,-10"/>
<text text-anchor="start" x="908.7258" y="-15.4" font-family="sans-serif" font-size="14.00" fill="#000000"> &#160;Exports</text>
<g id="clust1" class="cluster">
<title>cluster_UsersModule</title>
<polygon fill="none" stroke="#000000" stroke-dasharray="1,5" points="8,-70 8,-195 1446,-195 1446,-70 8,-70"/>
</g>
<g id="clust2" class="cluster">
<title>cluster_UsersModule_declarations</title>
<polygon fill="none" stroke="#000000" points="828,-78 828,-130 1438,-130 1438,-78 828,-78"/>
</g>
<g id="clust7" class="cluster">
<title>cluster_UsersModule_imports</title>
<polygon fill="none" stroke="#000000" points="164,-78 164,-130 820,-130 820,-78 164,-78"/>
</g>
<g id="clust10" class="cluster">
<title>cluster_UsersModule_providers</title>
<polygon fill="none" stroke="#000000" points="16,-78 16,-130 156,-130 156,-78 16,-78"/>
</g>
<!-- UsersComponent -->
<g id="node1" class="node">
<title>UsersComponent</title>
<polygon fill="#ffffb3" stroke="#000000" points="1429.7036,-122 1316.2964,-122 1316.2964,-86 1429.7036,-86 1429.7036,-122"/>
<text text-anchor="middle" x="1373" y="-99.8" font-family="Times,serif" font-size="14.00" fill="#000000">UsersComponent</text>
</g>
<!-- UsersModule -->
<g id="node5" class="node">
<title>UsersModule</title>
<polygon fill="#8dd3c7" stroke="#000000" points="716.9218,-187 713.9218,-191 692.9218,-191 689.9218,-187 625.0782,-187 625.0782,-151 716.9218,-151 716.9218,-187"/>
<text text-anchor="middle" x="671" y="-164.8" font-family="Times,serif" font-size="14.00" fill="#000000">UsersModule</text>
</g>
<!-- UsersComponent&#45;&gt;UsersModule -->
<g id="edge1" class="edge">
<title>UsersComponent&#45;&gt;UsersModule</title>
<path fill="none" stroke="#000000" d="M1373,-122.0109C1373,-144.4852 1373,-180 1373,-180 1373,-180 726.7894,-180 726.7894,-180"/>
<polygon fill="#000000" stroke="#000000" points="726.7894,-176.5001 716.7894,-180 726.7894,-183.5001 726.7894,-176.5001"/>
</g>
<!-- UsersDetailsComponent -->
<g id="node2" class="node">
<title>UsersDetailsComponent</title>
<polygon fill="#ffffb3" stroke="#000000" points="1298.3557,-122 1145.6443,-122 1145.6443,-86 1298.3557,-86 1298.3557,-122"/>
<text text-anchor="middle" x="1222" y="-99.8" font-family="Times,serif" font-size="14.00" fill="#000000">UsersDetailsComponent</text>
</g>
<!-- UsersDetailsComponent&#45;&gt;UsersModule -->
<g id="edge2" class="edge">
<title>UsersDetailsComponent&#45;&gt;UsersModule</title>
<path fill="none" stroke="#000000" d="M1222,-122.1289C1222,-142.5724 1222,-173 1222,-173 1222,-173 727.0302,-173 727.0302,-173"/>
<polygon fill="#000000" stroke="#000000" points="727.0303,-169.5001 717.0302,-173 727.0302,-176.5001 727.0303,-169.5001"/>
</g>
<!-- UsersItemComponent -->
<g id="node3" class="node">
<title>UsersItemComponent</title>
<polygon fill="#ffffb3" stroke="#000000" points="1127.3599,-122 988.6401,-122 988.6401,-86 1127.3599,-86 1127.3599,-122"/>
<text text-anchor="middle" x="1058" y="-99.8" font-family="Times,serif" font-size="14.00" fill="#000000">UsersItemComponent</text>
</g>
<!-- UsersItemComponent&#45;&gt;UsersModule -->
<g id="edge3" class="edge">
<title>UsersItemComponent&#45;&gt;UsersModule</title>
<path fill="none" stroke="#000000" d="M1058,-122.2667C1058,-140.5552 1058,-166 1058,-166 1058,-166 726.9137,-166 726.9137,-166"/>
<polygon fill="#000000" stroke="#000000" points="726.9137,-162.5001 716.9137,-166 726.9137,-169.5001 726.9137,-162.5001"/>
</g>
<!-- UsersListComponent -->
<g id="node4" class="node">
<title>UsersListComponent</title>
<polygon fill="#ffffb3" stroke="#000000" points="970.4818,-122 835.5182,-122 835.5182,-86 970.4818,-86 970.4818,-122"/>
<text text-anchor="middle" x="903" y="-99.8" font-family="Times,serif" font-size="14.00" fill="#000000">UsersListComponent</text>
</g>
<!-- UsersListComponent&#45;&gt;UsersModule -->
<g id="edge4" class="edge">
<title>UsersListComponent&#45;&gt;UsersModule</title>
<path fill="none" stroke="#000000" d="M903,-122.0091C903,-138.0494 903,-159 903,-159 903,-159 726.8357,-159 726.8357,-159"/>
<polygon fill="#000000" stroke="#000000" points="726.8358,-155.5001 716.8357,-159 726.8357,-162.5001 726.8358,-155.5001"/>
</g>
<!-- AppRoutingModule -->
<g id="node6" class="node">
<title>AppRoutingModule</title>
<polygon fill="#8dd3c7" stroke="#000000" points="812.2744,-122 809.2744,-126 788.2744,-126 785.2744,-122 683.7256,-122 683.7256,-86 812.2744,-86 812.2744,-122"/>
<text text-anchor="middle" x="748" y="-99.8" font-family="Times,serif" font-size="14.00" fill="#000000">AppRoutingModule</text>
</g>
<!-- AppRoutingModule&#45;&gt;UsersModule -->
<g id="edge5" class="edge">
<title>AppRoutingModule&#45;&gt;UsersModule</title>
<path fill="none" stroke="#000000" d="M700.1617,-122.1061C700.1617,-122.1061 700.1617,-140.991 700.1617,-140.991"/>
<polygon fill="#000000" stroke="#000000" points="696.6617,-140.9909 700.1617,-150.991 703.6617,-140.991 696.6617,-140.9909"/>
</g>
<!-- FormElementsModule -->
<g id="node7" class="node">
<title>FormElementsModule</title>
<polygon fill="#8dd3c7" stroke="#000000" points="665.9818,-122 662.9818,-126 641.9818,-126 638.9818,-122 524.0182,-122 524.0182,-86 665.9818,-86 665.9818,-122"/>
<text text-anchor="middle" x="595" y="-99.8" font-family="Times,serif" font-size="14.00" fill="#000000">FormElementsModule</text>
</g>
<!-- FormElementsModule&#45;&gt;UsersModule -->
<g id="edge6" class="edge">
<title>FormElementsModule&#45;&gt;UsersModule</title>
<path fill="none" stroke="#000000" d="M645.6403,-122.1061C645.6403,-122.1061 645.6403,-140.991 645.6403,-140.991"/>
<polygon fill="#000000" stroke="#000000" points="642.1403,-140.9909 645.6403,-150.991 649.1403,-140.991 642.1403,-140.9909"/>
</g>
<!-- HeadlinesModule -->
<g id="node8" class="node">
<title>HeadlinesModule</title>
<polygon fill="#8dd3c7" stroke="#000000" points="505.527,-122 502.527,-126 481.527,-126 478.527,-122 390.473,-122 390.473,-86 505.527,-86 505.527,-122"/>
<text text-anchor="middle" x="448" y="-99.8" font-family="Times,serif" font-size="14.00" fill="#000000">HeadlinesModule</text>
</g>
<!-- HeadlinesModule&#45;&gt;UsersModule -->
<g id="edge7" class="edge">
<title>HeadlinesModule&#45;&gt;UsersModule</title>
<path fill="none" stroke="#000000" d="M448,-122.0091C448,-138.0494 448,-159 448,-159 448,-159 615.0646,-159 615.0646,-159"/>
<polygon fill="#000000" stroke="#000000" points="615.0647,-162.5001 625.0646,-159 615.0646,-155.5001 615.0647,-162.5001"/>
</g>
<!-- IconModule -->
<g id="node9" class="node">
<title>IconModule</title>
<polygon fill="#8dd3c7" stroke="#000000" points="372.4261,-122 369.4261,-126 348.4261,-126 345.4261,-122 287.5739,-122 287.5739,-86 372.4261,-86 372.4261,-122"/>
<text text-anchor="middle" x="330" y="-99.8" font-family="Times,serif" font-size="14.00" fill="#000000">IconModule</text>
</g>
<!-- IconModule&#45;&gt;UsersModule -->
<g id="edge8" class="edge">
<title>IconModule&#45;&gt;UsersModule</title>
<path fill="none" stroke="#000000" d="M330,-122.2667C330,-140.5552 330,-166 330,-166 330,-166 615.0112,-166 615.0112,-166"/>
<polygon fill="#000000" stroke="#000000" points="615.0113,-169.5001 625.0112,-166 615.0112,-162.5001 615.0113,-169.5001"/>
</g>
<!-- SharedModule -->
<g id="node10" class="node">
<title>SharedModule</title>
<polygon fill="#8dd3c7" stroke="#000000" points="270.4231,-122 267.4231,-126 246.4231,-126 243.4231,-122 171.5769,-122 171.5769,-86 270.4231,-86 270.4231,-122"/>
<text text-anchor="middle" x="221" y="-99.8" font-family="Times,serif" font-size="14.00" fill="#000000">SharedModule</text>
</g>
<!-- SharedModule&#45;&gt;UsersModule -->
<g id="edge9" class="edge">
<title>SharedModule&#45;&gt;UsersModule</title>
<path fill="none" stroke="#000000" d="M221,-122.1289C221,-142.5724 221,-173 221,-173 221,-173 614.9569,-173 614.9569,-173"/>
<polygon fill="#000000" stroke="#000000" points="614.9569,-176.5001 624.9569,-173 614.9568,-169.5001 614.9569,-176.5001"/>
</g>
<!-- UsersService -->
<g id="node11" class="node">
<title>UsersService</title>
<ellipse fill="#fdb462" stroke="#000000" cx="86" cy="-104" rx="61.9519" ry="18"/>
<text text-anchor="middle" x="86" y="-99.8" font-family="Times,serif" font-size="14.00" fill="#000000">UsersService</text>
</g>
<!-- UsersService&#45;&gt;UsersModule -->
<g id="edge10" class="edge">
<title>UsersService&#45;&gt;UsersModule</title>
<path fill="none" stroke="#000000" d="M86,-122.0109C86,-144.4852 86,-180 86,-180 86,-180 615.096,-180 615.096,-180"/>
<polygon fill="#000000" stroke="#000000" points="615.0961,-183.5001 625.096,-180 615.096,-176.5001 615.0961,-183.5001"/>
</g>
</g>
</svg>
