<?xml version="1.0" encoding="UTF-8" standalone="no"?>
<!DOCTYPE svg PUBLIC "-//W3C//DTD SVG 1.1//EN"
 "http://www.w3.org/Graphics/SVG/1.1/DTD/svg11.dtd">
<!-- Generated by graphviz version 2.40.1 (20161225.0304)
 -->
<!-- Title: dependencies Pages: 1 -->
<svg width="1316pt" height="211pt"
 viewBox="0.00 0.00 1316.00 211.00" xmlns="http://www.w3.org/2000/svg" xmlns:xlink="http://www.w3.org/1999/xlink">
<g id="graph0" class="graph" transform="scale(1 1) rotate(0) translate(4 207)">
<title>dependencies</title>
<polygon fill="#ffffff" stroke="transparent" points="-4,4 -4,-207 1312,-207 1312,4 -4,4"/>
<text text-anchor="start" x="633.0091" y="-42.4" font-family="sans-serif" font-weight="bold" font-size="14.00" fill="#000000">Legend</text>
<polygon fill="#ffffb3" stroke="transparent" points="420,-10 420,-30 440,-30 440,-10 420,-10"/>
<text text-anchor="start" x="443.629" y="-15.4" font-family="sans-serif" font-size="14.00" fill="#000000"> &#160;Declarations</text>
<polygon fill="#8dd3c7" stroke="transparent" points="533,-10 533,-30 553,-30 553,-10 533,-10"/>
<text text-anchor="start" x="556.7251" y="-15.4" font-family="sans-serif" font-size="14.00" fill="#000000"> &#160;Module</text>
<polygon fill="#80b1d3" stroke="transparent" points="619,-10 619,-30 639,-30 639,-10 619,-10"/>
<text text-anchor="start" x="642.7812" y="-15.4" font-family="sans-serif" font-size="14.00" fill="#000000"> &#160;Bootstrap</text>
<polygon fill="#fdb462" stroke="transparent" points="716,-10 716,-30 736,-30 736,-10 716,-10"/>
<text text-anchor="start" x="739.6732" y="-15.4" font-family="sans-serif" font-size="14.00" fill="#000000"> &#160;Providers</text>
<polygon fill="#fb8072" stroke="transparent" points="812,-10 812,-30 832,-30 832,-10 812,-10"/>
<text text-anchor="start" x="835.7258" y="-15.4" font-family="sans-serif" font-size="14.00" fill="#000000"> &#160;Exports</text>
<g id="clust1" class="cluster">
<title>cluster_UsersModule</title>
<polygon fill="none" stroke="#000000" stroke-dasharray="1,5" points="8,-70 8,-195 1300,-195 1300,-70 8,-70"/>
</g>
<g id="clust2" class="cluster">
<title>cluster_UsersModule_declarations</title>
<polygon fill="none" stroke="#000000" points="682,-78 682,-130 1292,-130 1292,-78 682,-78"/>
</g>
<g id="clust7" class="cluster">
<title>cluster_UsersModule_imports</title>
<polygon fill="none" stroke="#000000" points="164,-78 164,-130 674,-130 674,-78 164,-78"/>
</g>
<g id="clust10" class="cluster">
<title>cluster_UsersModule_providers</title>
<polygon fill="none" stroke="#000000" points="16,-78 16,-130 156,-130 156,-78 16,-78"/>
</g>
<!-- UsersComponent -->
<g id="node1" class="node">
<title>UsersComponent</title>
<polygon fill="#ffffb3" stroke="#000000" points="1283.7036,-122 1170.2964,-122 1170.2964,-86 1283.7036,-86 1283.7036,-122"/>
<text text-anchor="middle" x="1227" y="-99.8" font-family="Times,serif" font-size="14.00" fill="#000000">UsersComponent</text>
</g>
<!-- UsersModule -->
<g id="node5" class="node">
<title>UsersModule</title>
<polygon fill="#8dd3c7" stroke="#000000" points="640.9218,-187 637.9218,-191 616.9218,-191 613.9218,-187 549.0782,-187 549.0782,-151 640.9218,-151 640.9218,-187"/>
<text text-anchor="middle" x="595" y="-164.8" font-family="Times,serif" font-size="14.00" fill="#000000">UsersModule</text>
</g>
<!-- UsersComponent&#45;&gt;UsersModule -->
<g id="edge1" class="edge">
<title>UsersComponent&#45;&gt;UsersModule</title>
<path fill="none" stroke="#000000" d="M1227,-122.0109C1227,-144.4852 1227,-180 1227,-180 1227,-180 650.961,-180 650.961,-180"/>
<polygon fill="#000000" stroke="#000000" points="650.961,-176.5001 640.961,-180 650.9609,-183.5001 650.961,-176.5001"/>
</g>
<!-- UsersDetailsComponent -->
<g id="node2" class="node">
<title>UsersDetailsComponent</title>
<polygon fill="#ffffb3" stroke="#000000" points="1152.3557,-122 999.6443,-122 999.6443,-86 1152.3557,-86 1152.3557,-122"/>
<text text-anchor="middle" x="1076" y="-99.8" font-family="Times,serif" font-size="14.00" fill="#000000">UsersDetailsComponent</text>
</g>
<!-- UsersDetailsComponent&#45;&gt;UsersModule -->
<g id="edge2" class="edge">
<title>UsersDetailsComponent&#45;&gt;UsersModule</title>
<path fill="none" stroke="#000000" d="M1076,-122.1289C1076,-142.5724 1076,-173 1076,-173 1076,-173 651.1203,-173 651.1203,-173"/>
<polygon fill="#000000" stroke="#000000" points="651.1203,-169.5001 641.1203,-173 651.1203,-176.5001 651.1203,-169.5001"/>
</g>
<!-- UsersItemComponent -->
<g id="node3" class="node">
<title>UsersItemComponent</title>
<polygon fill="#ffffb3" stroke="#000000" points="981.3599,-122 842.6401,-122 842.6401,-86 981.3599,-86 981.3599,-122"/>
<text text-anchor="middle" x="912" y="-99.8" font-family="Times,serif" font-size="14.00" fill="#000000">UsersItemComponent</text>
</g>
<!-- UsersItemComponent&#45;&gt;UsersModule -->
<g id="edge3" class="edge">
<title>UsersItemComponent&#45;&gt;UsersModule</title>
<path fill="none" stroke="#000000" d="M912,-122.2667C912,-140.5552 912,-166 912,-166 912,-166 650.756,-166 650.756,-166"/>
<polygon fill="#000000" stroke="#000000" points="650.756,-162.5001 640.756,-166 650.7559,-169.5001 650.756,-162.5001"/>
</g>
<!-- UsersListComponent -->
<g id="node4" class="node">
<title>UsersListComponent</title>
<polygon fill="#ffffb3" stroke="#000000" points="824.4818,-122 689.5182,-122 689.5182,-86 824.4818,-86 824.4818,-122"/>
<text text-anchor="middle" x="757" y="-99.8" font-family="Times,serif" font-size="14.00" fill="#000000">UsersListComponent</text>
</g>
<!-- UsersListComponent&#45;&gt;UsersModule -->
<g id="edge4" class="edge">
<title>UsersListComponent&#45;&gt;UsersModule</title>
<path fill="none" stroke="#000000" d="M757,-122.0091C757,-138.0494 757,-159 757,-159 757,-159 650.9894,-159 650.9894,-159"/>
<polygon fill="#000000" stroke="#000000" points="650.9894,-155.5001 640.9894,-159 650.9893,-162.5001 650.9894,-155.5001"/>
</g>
<!-- FormElementsModule -->
<g id="node6" class="node">
<title>FormElementsModule</title>
<polygon fill="#8dd3c7" stroke="#000000" points="665.9818,-122 662.9818,-126 641.9818,-126 638.9818,-122 524.0182,-122 524.0182,-86 665.9818,-86 665.9818,-122"/>
<text text-anchor="middle" x="595" y="-99.8" font-family="Times,serif" font-size="14.00" fill="#000000">FormElementsModule</text>
</g>
<!-- FormElementsModule&#45;&gt;UsersModule -->
<g id="edge5" class="edge">
<title>FormElementsModule&#45;&gt;UsersModule</title>
<path fill="none" stroke="#000000" d="M595,-122.1061C595,-122.1061 595,-140.991 595,-140.991"/>
<polygon fill="#000000" stroke="#000000" points="591.5001,-140.9909 595,-150.991 598.5001,-140.991 591.5001,-140.9909"/>
</g>
<!-- HeadlinesModule -->
<g id="node7" class="node">
<title>HeadlinesModule</title>
<polygon fill="#8dd3c7" stroke="#000000" points="505.527,-122 502.527,-126 481.527,-126 478.527,-122 390.473,-122 390.473,-86 505.527,-86 505.527,-122"/>
<text text-anchor="middle" x="448" y="-99.8" font-family="Times,serif" font-size="14.00" fill="#000000">HeadlinesModule</text>
</g>
<!-- HeadlinesModule&#45;&gt;UsersModule -->
<g id="edge6" class="edge">
<title>HeadlinesModule&#45;&gt;UsersModule</title>
<path fill="none" stroke="#000000" d="M448,-122.0091C448,-138.0494 448,-159 448,-159 448,-159 538.8916,-159 538.8916,-159"/>
<polygon fill="#000000" stroke="#000000" points="538.8916,-162.5001 548.8916,-159 538.8916,-155.5001 538.8916,-162.5001"/>
</g>
<!-- IconModule -->
<g id="node8" class="node">
<title>IconModule</title>
<polygon fill="#8dd3c7" stroke="#000000" points="372.4261,-122 369.4261,-126 348.4261,-126 345.4261,-122 287.5739,-122 287.5739,-86 372.4261,-86 372.4261,-122"/>
<text text-anchor="middle" x="330" y="-99.8" font-family="Times,serif" font-size="14.00" fill="#000000">IconModule</text>
</g>
<!-- IconModule&#45;&gt;UsersModule -->
<g id="edge7" class="edge">
<title>IconModule&#45;&gt;UsersModule</title>
<path fill="none" stroke="#000000" d="M330,-122.2667C330,-140.5552 330,-166 330,-166 330,-166 539.1431,-166 539.1431,-166"/>
<polygon fill="#000000" stroke="#000000" points="539.1431,-169.5001 549.1431,-166 539.143,-162.5001 539.1431,-169.5001"/>
</g>
<!-- SharedModule -->
<g id="node9" class="node">
<title>SharedModule</title>
<polygon fill="#8dd3c7" stroke="#000000" points="270.4231,-122 267.4231,-126 246.4231,-126 243.4231,-122 171.5769,-122 171.5769,-86 270.4231,-86 270.4231,-122"/>
<text text-anchor="middle" x="221" y="-99.8" font-family="Times,serif" font-size="14.00" fill="#000000">SharedModule</text>
</g>
<!-- SharedModule&#45;&gt;UsersModule -->
<g id="edge8" class="edge">
<title>SharedModule&#45;&gt;UsersModule</title>
<path fill="none" stroke="#000000" d="M221,-122.1289C221,-142.5724 221,-173 221,-173 221,-173 539.1403,-173 539.1403,-173"/>
<polygon fill="#000000" stroke="#000000" points="539.1403,-176.5001 549.1403,-173 539.1402,-169.5001 539.1403,-176.5001"/>
</g>
<!-- UsersService -->
<g id="node10" class="node">
<title>UsersService</title>
<ellipse fill="#fdb462" stroke="#000000" cx="86" cy="-104" rx="61.9519" ry="18"/>
<text text-anchor="middle" x="86" y="-99.8" font-family="Times,serif" font-size="14.00" fill="#000000">UsersService</text>
</g>
<!-- UsersService&#45;&gt;UsersModule -->
<g id="edge9" class="edge">
<title>UsersService&#45;&gt;UsersModule</title>
<path fill="none" stroke="#000000" d="M86,-122.0109C86,-144.4852 86,-180 86,-180 86,-180 538.9319,-180 538.9319,-180"/>
<polygon fill="#000000" stroke="#000000" points="538.9319,-183.5001 548.9319,-180 538.9319,-176.5001 538.9319,-183.5001"/>
</g>
</g>
</svg>
