<?xml version="1.0" encoding="UTF-8" standalone="no"?>
<!DOCTYPE svg PUBLIC "-//W3C//DTD SVG 1.1//EN"
 "http://www.w3.org/Graphics/SVG/1.1/DTD/svg11.dtd">
<!-- Generated by graphviz version 2.40.1 (20161225.0304)
 -->
<!-- Title: dependencies Pages: 1 -->
<svg width="622pt" height="211pt"
 viewBox="0.00 0.00 622.00 211.00" xmlns="http://www.w3.org/2000/svg" xmlns:xlink="http://www.w3.org/1999/xlink">
<g id="graph0" class="graph" transform="scale(1 1) rotate(0) translate(4 207)">
<title>dependencies</title>
<polygon fill="#ffffff" stroke="transparent" points="-4,4 -4,-207 618,-207 618,4 -4,4"/>
<text text-anchor="start" x="286.0091" y="-42.4" font-family="sans-serif" font-weight="bold" font-size="14.00" fill="#000000">Legend</text>
<polygon fill="#ffffb3" stroke="transparent" points="73,-10 73,-30 93,-30 93,-10 73,-10"/>
<text text-anchor="start" x="96.629" y="-15.4" font-family="sans-serif" font-size="14.00" fill="#000000"> &#160;Declarations</text>
<polygon fill="#8dd3c7" stroke="transparent" points="186,-10 186,-30 206,-30 206,-10 186,-10"/>
<text text-anchor="start" x="209.7251" y="-15.4" font-family="sans-serif" font-size="14.00" fill="#000000"> &#160;Module</text>
<polygon fill="#80b1d3" stroke="transparent" points="272,-10 272,-30 292,-30 292,-10 272,-10"/>
<text text-anchor="start" x="295.7812" y="-15.4" font-family="sans-serif" font-size="14.00" fill="#000000"> &#160;Bootstrap</text>
<polygon fill="#fdb462" stroke="transparent" points="369,-10 369,-30 389,-30 389,-10 369,-10"/>
<text text-anchor="start" x="392.6732" y="-15.4" font-family="sans-serif" font-size="14.00" fill="#000000"> &#160;Providers</text>
<polygon fill="#fb8072" stroke="transparent" points="465,-10 465,-30 485,-30 485,-10 465,-10"/>
<text text-anchor="start" x="488.7258" y="-15.4" font-family="sans-serif" font-size="14.00" fill="#000000"> &#160;Exports</text>
<g id="clust1" class="cluster">
<title>cluster_RegistrationPageModule</title>
<polygon fill="none" stroke="#000000" stroke-dasharray="1,5" points="8,-70 8,-195 606,-195 606,-70 8,-70"/>
</g>
<g id="clust2" class="cluster">
<title>cluster_RegistrationPageModule_declarations</title>
<polygon fill="none" stroke="#000000" points="432,-78 432,-130 598,-130 598,-78 432,-78"/>
</g>
<g id="clust4" class="cluster">
<title>cluster_RegistrationPageModule_imports</title>
<polygon fill="none" stroke="#000000" points="16,-78 16,-130 424,-130 424,-78 16,-78"/>
</g>
<!-- RegistrationComponent -->
<g id="node1" class="node">
<title>RegistrationComponent</title>
<polygon fill="#ffffb3" stroke="#000000" points="589.766,-122 440.234,-122 440.234,-86 589.766,-86 589.766,-122"/>
<text text-anchor="middle" x="515" y="-99.8" font-family="Times,serif" font-size="14.00" fill="#000000">RegistrationComponent</text>
</g>
<!-- RegistrationPageModule -->
<g id="node2" class="node">
<title>RegistrationPageModule</title>
<polygon fill="#8dd3c7" stroke="#000000" points="348.6951,-187 345.6951,-191 324.6951,-191 321.6951,-187 193.3049,-187 193.3049,-151 348.6951,-151 348.6951,-187"/>
<text text-anchor="middle" x="271" y="-164.8" font-family="Times,serif" font-size="14.00" fill="#000000">RegistrationPageModule</text>
</g>
<!-- RegistrationComponent&#45;&gt;RegistrationPageModule -->
<g id="edge1" class="edge">
<title>RegistrationComponent&#45;&gt;RegistrationPageModule</title>
<path fill="none" stroke="#000000" d="M515,-122.1061C515,-141.3391 515,-169 515,-169 515,-169 358.874,-169 358.874,-169"/>
<polygon fill="#000000" stroke="#000000" points="358.874,-165.5001 348.874,-169 358.874,-172.5001 358.874,-165.5001"/>
</g>
<!-- FormElementsModule -->
<g id="node3" class="node">
<title>FormElementsModule</title>
<polygon fill="#8dd3c7" stroke="#000000" points="415.9818,-122 412.9818,-126 391.9818,-126 388.9818,-122 274.0182,-122 274.0182,-86 415.9818,-86 415.9818,-122"/>
<text text-anchor="middle" x="345" y="-99.8" font-family="Times,serif" font-size="14.00" fill="#000000">FormElementsModule</text>
</g>
<!-- FormElementsModule&#45;&gt;RegistrationPageModule -->
<g id="edge2" class="edge">
<title>FormElementsModule&#45;&gt;RegistrationPageModule</title>
<path fill="none" stroke="#000000" d="M311.3033,-122.1061C311.3033,-122.1061 311.3033,-140.991 311.3033,-140.991"/>
<polygon fill="#000000" stroke="#000000" points="307.8034,-140.9909 311.3033,-150.991 314.8034,-140.991 307.8034,-140.9909"/>
</g>
<!-- HeadlinesModule -->
<g id="node4" class="node">
<title>HeadlinesModule</title>
<polygon fill="#8dd3c7" stroke="#000000" points="255.527,-122 252.527,-126 231.527,-126 228.527,-122 140.473,-122 140.473,-86 255.527,-86 255.527,-122"/>
<text text-anchor="middle" x="198" y="-99.8" font-family="Times,serif" font-size="14.00" fill="#000000">HeadlinesModule</text>
</g>
<!-- HeadlinesModule&#45;&gt;RegistrationPageModule -->
<g id="edge3" class="edge">
<title>HeadlinesModule&#45;&gt;RegistrationPageModule</title>
<path fill="none" stroke="#000000" d="M224.5827,-122.1061C224.5827,-122.1061 224.5827,-140.991 224.5827,-140.991"/>
<polygon fill="#000000" stroke="#000000" points="221.0828,-140.9909 224.5827,-150.991 228.0828,-140.991 221.0828,-140.9909"/>
</g>
<!-- SharedModule -->
<g id="node5" class="node">
<title>SharedModule</title>
<polygon fill="#8dd3c7" stroke="#000000" points="122.4231,-122 119.4231,-126 98.4231,-126 95.4231,-122 23.5769,-122 23.5769,-86 122.4231,-86 122.4231,-122"/>
<text text-anchor="middle" x="73" y="-99.8" font-family="Times,serif" font-size="14.00" fill="#000000">SharedModule</text>
</g>
<!-- SharedModule&#45;&gt;RegistrationPageModule -->
<g id="edge4" class="edge">
<title>SharedModule&#45;&gt;RegistrationPageModule</title>
<path fill="none" stroke="#000000" d="M73,-122.1061C73,-141.3391 73,-169 73,-169 73,-169 183.3134,-169 183.3134,-169"/>
<polygon fill="#000000" stroke="#000000" points="183.3135,-172.5001 193.3134,-169 183.3134,-165.5001 183.3135,-172.5001"/>
</g>
</g>
</svg>
