<?xml version="1.0" encoding="UTF-8" standalone="no"?>
<!DOCTYPE svg PUBLIC "-//W3C//DTD SVG 1.1//EN"
 "http://www.w3.org/Graphics/SVG/1.1/DTD/svg11.dtd">
<!-- Generated by graphviz version 2.40.1 (20161225.0304)
 -->
<!-- Title: dependencies Pages: 1 -->
<svg width="504pt" height="284pt"
 viewBox="0.00 0.00 504.00 284.00" xmlns="http://www.w3.org/2000/svg" xmlns:xlink="http://www.w3.org/1999/xlink">
<g id="graph0" class="graph" transform="scale(1 1) rotate(0) translate(4 280)">
<title>dependencies</title>
<polygon fill="#ffffff" stroke="transparent" points="-4,4 -4,-280 500,-280 500,4 -4,4"/>
<text text-anchor="start" x="227.0091" y="-42.4" font-family="sans-serif" font-weight="bold" font-size="14.00" fill="#000000">Legend</text>
<polygon fill="#ffffb3" stroke="transparent" points="14,-10 14,-30 34,-30 34,-10 14,-10"/>
<text text-anchor="start" x="37.629" y="-15.4" font-family="sans-serif" font-size="14.00" fill="#000000"> &#160;Declarations</text>
<polygon fill="#8dd3c7" stroke="transparent" points="127,-10 127,-30 147,-30 147,-10 127,-10"/>
<text text-anchor="start" x="150.7251" y="-15.4" font-family="sans-serif" font-size="14.00" fill="#000000"> &#160;Module</text>
<polygon fill="#80b1d3" stroke="transparent" points="213,-10 213,-30 233,-30 233,-10 213,-10"/>
<text text-anchor="start" x="236.7812" y="-15.4" font-family="sans-serif" font-size="14.00" fill="#000000"> &#160;Bootstrap</text>
<polygon fill="#fdb462" stroke="transparent" points="310,-10 310,-30 330,-30 330,-10 310,-10"/>
<text text-anchor="start" x="333.6732" y="-15.4" font-family="sans-serif" font-size="14.00" fill="#000000"> &#160;Providers</text>
<polygon fill="#fb8072" stroke="transparent" points="406,-10 406,-30 426,-30 426,-10 406,-10"/>
<text text-anchor="start" x="429.7258" y="-15.4" font-family="sans-serif" font-size="14.00" fill="#000000"> &#160;Exports</text>
<g id="clust1" class="cluster">
<title>cluster_NavigationModule</title>
<polygon fill="none" stroke="#000000" stroke-dasharray="1,5" points="39,-70 39,-268 457,-268 457,-70 39,-70"/>
</g>
<g id="clust2" class="cluster">
<title>cluster_NavigationModule_declarations</title>
<polygon fill="none" stroke="#000000" points="289,-78 289,-130 449,-130 449,-78 289,-78"/>
</g>
<g id="clust4" class="cluster">
<title>cluster_NavigationModule_imports</title>
<polygon fill="none" stroke="#000000" points="47,-78 47,-130 281,-130 281,-78 47,-78"/>
</g>
<g id="clust5" class="cluster">
<title>cluster_NavigationModule_exports</title>
<polygon fill="none" stroke="#000000" points="133,-208 133,-260 297,-260 297,-208 133,-208"/>
</g>
<!-- NavigationComponent -->
<g id="node1" class="node">
<title>NavigationComponent</title>
<polygon fill="#ffffb3" stroke="#000000" points="440.5407,-122 297.4593,-122 297.4593,-86 440.5407,-86 440.5407,-122"/>
<text text-anchor="middle" x="369" y="-99.8" font-family="Times,serif" font-size="14.00" fill="#000000">NavigationComponent</text>
</g>
<!-- NavigationModule -->
<g id="node2" class="node">
<title>NavigationModule</title>
<polygon fill="#8dd3c7" stroke="#000000" points="275.7576,-187 272.7576,-191 251.7576,-191 248.7576,-187 154.2424,-187 154.2424,-151 275.7576,-151 275.7576,-187"/>
<text text-anchor="middle" x="215" y="-164.8" font-family="Times,serif" font-size="14.00" fill="#000000">NavigationModule</text>
</g>
<!-- NavigationComponent&#45;&gt;NavigationModule -->
<g id="edge1" class="edge">
<title>NavigationComponent&#45;&gt;NavigationModule</title>
<path fill="none" stroke="#000000" d="M369,-122.1061C369,-141.3391 369,-169 369,-169 369,-169 285.8649,-169 285.8649,-169"/>
<polygon fill="#000000" stroke="#000000" points="285.8649,-165.5001 275.8649,-169 285.8648,-172.5001 285.8649,-165.5001"/>
</g>
<!-- NavigationComponent  -->
<g id="node5" class="node">
<title>NavigationComponent </title>
<polygon fill="#fb8072" stroke="#000000" points="288.54,-252 141.46,-252 141.46,-216 288.54,-216 288.54,-252"/>
<text text-anchor="middle" x="215" y="-229.8" font-family="Times,serif" font-size="14.00" fill="#000000">NavigationComponent </text>
</g>
<!-- NavigationModule&#45;&gt;NavigationComponent  -->
<g id="edge4" class="edge">
<title>NavigationModule&#45;&gt;NavigationComponent </title>
<path fill="none" stroke="#000000" stroke-dasharray="5,2" d="M215,-187.1061C215,-187.1061 215,-205.991 215,-205.991"/>
<polygon fill="#000000" stroke="#000000" points="211.5001,-205.9909 215,-215.991 218.5001,-205.991 211.5001,-205.9909"/>
</g>
<!-- HeadlinesModule -->
<g id="node3" class="node">
<title>HeadlinesModule</title>
<polygon fill="#8dd3c7" stroke="#000000" points="272.527,-122 269.527,-126 248.527,-126 245.527,-122 157.473,-122 157.473,-86 272.527,-86 272.527,-122"/>
<text text-anchor="middle" x="215" y="-99.8" font-family="Times,serif" font-size="14.00" fill="#000000">HeadlinesModule</text>
</g>
<!-- HeadlinesModule&#45;&gt;NavigationModule -->
<g id="edge2" class="edge">
<title>HeadlinesModule&#45;&gt;NavigationModule</title>
<path fill="none" stroke="#000000" d="M215,-122.1061C215,-122.1061 215,-140.991 215,-140.991"/>
<polygon fill="#000000" stroke="#000000" points="211.5001,-140.9909 215,-150.991 218.5001,-140.991 211.5001,-140.9909"/>
</g>
<!-- IconModule -->
<g id="node4" class="node">
<title>IconModule</title>
<polygon fill="#8dd3c7" stroke="#000000" points="139.4261,-122 136.4261,-126 115.4261,-126 112.4261,-122 54.5739,-122 54.5739,-86 139.4261,-86 139.4261,-122"/>
<text text-anchor="middle" x="97" y="-99.8" font-family="Times,serif" font-size="14.00" fill="#000000">IconModule</text>
</g>
<!-- IconModule&#45;&gt;NavigationModule -->
<g id="edge3" class="edge">
<title>IconModule&#45;&gt;NavigationModule</title>
<path fill="none" stroke="#000000" d="M97,-122.1061C97,-141.3391 97,-169 97,-169 97,-169 143.9262,-169 143.9262,-169"/>
<polygon fill="#000000" stroke="#000000" points="143.9262,-172.5001 153.9262,-169 143.9261,-165.5001 143.9262,-172.5001"/>
</g>
</g>
</svg>
