<?xml version="1.0" encoding="UTF-8" standalone="no"?>
<!DOCTYPE svg PUBLIC "-//W3C//DTD SVG 1.1//EN"
 "http://www.w3.org/Graphics/SVG/1.1/DTD/svg11.dtd">
<!-- Generated by graphviz version 2.40.1 (20161225.0304)
 -->
<!-- Title: dependencies Pages: 1 -->
<svg width="504pt" height="284pt"
 viewBox="0.00 0.00 504.00 284.00" xmlns="http://www.w3.org/2000/svg" xmlns:xlink="http://www.w3.org/1999/xlink">
<g id="graph0" class="graph" transform="scale(1 1) rotate(0) translate(4 280)">
<title>dependencies</title>
<polygon fill="#ffffff" stroke="transparent" points="-4,4 -4,-280 500,-280 500,4 -4,4"/>
<text text-anchor="start" x="227.0091" y="-42.4" font-family="sans-serif" font-weight="bold" font-size="14.00" fill="#000000">Legend</text>
<polygon fill="#ffffb3" stroke="transparent" points="14,-10 14,-30 34,-30 34,-10 14,-10"/>
<text text-anchor="start" x="37.629" y="-15.4" font-family="sans-serif" font-size="14.00" fill="#000000"> &#160;Declarations</text>
<polygon fill="#8dd3c7" stroke="transparent" points="127,-10 127,-30 147,-30 147,-10 127,-10"/>
<text text-anchor="start" x="150.7251" y="-15.4" font-family="sans-serif" font-size="14.00" fill="#000000"> &#160;Module</text>
<polygon fill="#80b1d3" stroke="transparent" points="213,-10 213,-30 233,-30 233,-10 213,-10"/>
<text text-anchor="start" x="236.7812" y="-15.4" font-family="sans-serif" font-size="14.00" fill="#000000"> &#160;Bootstrap</text>
<polygon fill="#fdb462" stroke="transparent" points="310,-10 310,-30 330,-30 330,-10 310,-10"/>
<text text-anchor="start" x="333.6732" y="-15.4" font-family="sans-serif" font-size="14.00" fill="#000000"> &#160;Providers</text>
<polygon fill="#fb8072" stroke="transparent" points="406,-10 406,-30 426,-30 426,-10 406,-10"/>
<text text-anchor="start" x="429.7258" y="-15.4" font-family="sans-serif" font-size="14.00" fill="#000000"> &#160;Exports</text>
<g id="clust1" class="cluster">
<title>cluster_TabsModule</title>
<polygon fill="none" stroke="#000000" stroke-dasharray="1,5" points="56,-70 56,-268 440,-268 440,-70 56,-70"/>
</g>
<g id="clust2" class="cluster">
<title>cluster_TabsModule_declarations</title>
<polygon fill="none" stroke="#000000" points="186,-78 186,-130 432,-130 432,-78 186,-78"/>
</g>
<g id="clust5" class="cluster">
<title>cluster_TabsModule_imports</title>
<polygon fill="none" stroke="#000000" points="64,-78 64,-130 178,-130 178,-78 64,-78"/>
</g>
<g id="clust6" class="cluster">
<title>cluster_TabsModule_exports</title>
<polygon fill="none" stroke="#000000" points="122,-208 122,-260 374,-260 374,-208 122,-208"/>
</g>
<!-- TabComponent -->
<g id="node1" class="node">
<title>TabComponent</title>
<polygon fill="#ffffb3" stroke="#000000" points="423.5996,-122 320.4004,-122 320.4004,-86 423.5996,-86 423.5996,-122"/>
<text text-anchor="middle" x="372" y="-99.8" font-family="Times,serif" font-size="14.00" fill="#000000">TabComponent</text>
</g>
<!-- TabsModule -->
<g id="node3" class="node">
<title>TabsModule</title>
<polygon fill="#8dd3c7" stroke="#000000" points="291.2619,-187 288.2619,-191 267.2619,-191 264.2619,-187 204.7381,-187 204.7381,-151 291.2619,-151 291.2619,-187"/>
<text text-anchor="middle" x="248" y="-164.8" font-family="Times,serif" font-size="14.00" fill="#000000">TabsModule</text>
</g>
<!-- TabComponent&#45;&gt;TabsModule -->
<g id="edge1" class="edge">
<title>TabComponent&#45;&gt;TabsModule</title>
<path fill="none" stroke="#000000" d="M343.375,-122.1061C343.375,-141.3391 343.375,-169 343.375,-169 343.375,-169 301.501,-169 301.501,-169"/>
<polygon fill="#000000" stroke="#000000" points="301.501,-165.5001 291.501,-169 301.501,-172.5001 301.501,-165.5001"/>
</g>
<!-- TabsComponent -->
<g id="node2" class="node">
<title>TabsComponent</title>
<polygon fill="#ffffb3" stroke="#000000" points="302.0452,-122 193.9548,-122 193.9548,-86 302.0452,-86 302.0452,-122"/>
<text text-anchor="middle" x="248" y="-99.8" font-family="Times,serif" font-size="14.00" fill="#000000">TabsComponent</text>
</g>
<!-- TabsComponent&#45;&gt;TabsModule -->
<g id="edge2" class="edge">
<title>TabsComponent&#45;&gt;TabsModule</title>
<path fill="none" stroke="#000000" d="M248,-122.1061C248,-122.1061 248,-140.991 248,-140.991"/>
<polygon fill="#000000" stroke="#000000" points="244.5001,-140.9909 248,-150.991 251.5001,-140.991 244.5001,-140.9909"/>
</g>
<!-- TabComponent  -->
<g id="node5" class="node">
<title>TabComponent </title>
<polygon fill="#fb8072" stroke="#000000" points="366.1003,-252 259.8997,-252 259.8997,-216 366.1003,-216 366.1003,-252"/>
<text text-anchor="middle" x="313" y="-229.8" font-family="Times,serif" font-size="14.00" fill="#000000">TabComponent </text>
</g>
<!-- TabsModule&#45;&gt;TabComponent  -->
<g id="edge4" class="edge">
<title>TabsModule&#45;&gt;TabComponent </title>
<path fill="none" stroke="#000000" stroke-dasharray="5,2" d="M275.5405,-187.1061C275.5405,-187.1061 275.5405,-205.991 275.5405,-205.991"/>
<polygon fill="#000000" stroke="#000000" points="272.0406,-205.9909 275.5405,-215.991 279.0406,-205.991 272.0406,-205.9909"/>
</g>
<!-- TabsComponent  -->
<g id="node6" class="node">
<title>TabsComponent </title>
<polygon fill="#fb8072" stroke="#000000" points="242.0442,-252 129.9558,-252 129.9558,-216 242.0442,-216 242.0442,-252"/>
<text text-anchor="middle" x="186" y="-229.8" font-family="Times,serif" font-size="14.00" fill="#000000">TabsComponent </text>
</g>
<!-- TabsModule&#45;&gt;TabsComponent  -->
<g id="edge5" class="edge">
<title>TabsModule&#45;&gt;TabsComponent </title>
<path fill="none" stroke="#000000" stroke-dasharray="5,2" d="M223.3207,-187.1061C223.3207,-187.1061 223.3207,-205.991 223.3207,-205.991"/>
<polygon fill="#000000" stroke="#000000" points="219.8207,-205.9909 223.3207,-215.991 226.8207,-205.991 219.8207,-205.9909"/>
</g>
<!-- SharedModule -->
<g id="node4" class="node">
<title>SharedModule</title>
<polygon fill="#8dd3c7" stroke="#000000" points="170.4231,-122 167.4231,-126 146.4231,-126 143.4231,-122 71.5769,-122 71.5769,-86 170.4231,-86 170.4231,-122"/>
<text text-anchor="middle" x="121" y="-99.8" font-family="Times,serif" font-size="14.00" fill="#000000">SharedModule</text>
</g>
<!-- SharedModule&#45;&gt;TabsModule -->
<g id="edge3" class="edge">
<title>SharedModule&#45;&gt;TabsModule</title>
<path fill="none" stroke="#000000" d="M150.0945,-122.1061C150.0945,-141.3391 150.0945,-169 150.0945,-169 150.0945,-169 194.4871,-169 194.4871,-169"/>
<polygon fill="#000000" stroke="#000000" points="194.4871,-172.5001 204.4871,-169 194.487,-165.5001 194.4871,-172.5001"/>
</g>
</g>
</svg>
