<?xml version="1.0" encoding="UTF-8" standalone="no"?>
<!DOCTYPE svg PUBLIC "-//W3C//DTD SVG 1.1//EN"
 "http://www.w3.org/Graphics/SVG/1.1/DTD/svg11.dtd">
<!-- Generated by graphviz version 2.40.1 (20161225.0304)
 -->
<!-- Title: dependencies Pages: 1 -->
<svg width="1450pt" height="284pt"
 viewBox="0.00 0.00 1450.00 284.00" xmlns="http://www.w3.org/2000/svg" xmlns:xlink="http://www.w3.org/1999/xlink">
<g id="graph0" class="graph" transform="scale(1 1) rotate(0) translate(4 280)">
<title>dependencies</title>
<polygon fill="#ffffff" stroke="transparent" points="-4,4 -4,-280 1446,-280 1446,4 -4,4"/>
<text text-anchor="start" x="700.0091" y="-42.4" font-family="sans-serif" font-weight="bold" font-size="14.00" fill="#000000">Legend</text>
<polygon fill="#ffffb3" stroke="transparent" points="487,-10 487,-30 507,-30 507,-10 487,-10"/>
<text text-anchor="start" x="510.629" y="-15.4" font-family="sans-serif" font-size="14.00" fill="#000000"> &#160;Declarations</text>
<polygon fill="#8dd3c7" stroke="transparent" points="600,-10 600,-30 620,-30 620,-10 600,-10"/>
<text text-anchor="start" x="623.7251" y="-15.4" font-family="sans-serif" font-size="14.00" fill="#000000"> &#160;Module</text>
<polygon fill="#80b1d3" stroke="transparent" points="686,-10 686,-30 706,-30 706,-10 686,-10"/>
<text text-anchor="start" x="709.7812" y="-15.4" font-family="sans-serif" font-size="14.00" fill="#000000"> &#160;Bootstrap</text>
<polygon fill="#fdb462" stroke="transparent" points="783,-10 783,-30 803,-30 803,-10 783,-10"/>
<text text-anchor="start" x="806.6732" y="-15.4" font-family="sans-serif" font-size="14.00" fill="#000000"> &#160;Providers</text>
<polygon fill="#fb8072" stroke="transparent" points="879,-10 879,-30 899,-30 899,-10 879,-10"/>
<text text-anchor="start" x="902.7258" y="-15.4" font-family="sans-serif" font-size="14.00" fill="#000000"> &#160;Exports</text>
<g id="clust1" class="cluster">
<title>cluster_AppModule</title>
<polygon fill="none" stroke="#000000" stroke-dasharray="1,5" points="8,-70 8,-268 1434,-268 1434,-70 8,-70"/>
</g>
<g id="clust2" class="cluster">
<title>cluster_AppModule_declarations</title>
<polygon fill="none" stroke="#000000" points="1304,-78 1304,-130 1426,-130 1426,-78 1304,-78"/>
</g>
<g id="clust4" class="cluster">
<title>cluster_AppModule_imports</title>
<polygon fill="none" stroke="#000000" points="16,-78 16,-130 1296,-130 1296,-78 16,-78"/>
</g>
<g id="clust6" class="cluster">
<title>cluster_AppModule_bootstrap</title>
<polygon fill="none" stroke="#000000" points="690,-208 690,-260 814,-260 814,-208 690,-208"/>
</g>
<!-- AppComponent -->
<g id="node1" class="node">
<title>AppComponent</title>
<polygon fill="#ffffb3" stroke="#000000" points="1417.9399,-122 1312.0601,-122 1312.0601,-86 1417.9399,-86 1417.9399,-122"/>
<text text-anchor="middle" x="1365" y="-99.8" font-family="Times,serif" font-size="14.00" fill="#000000">AppComponent</text>
</g>
<!-- AppModule -->
<g id="node2" class="node">
<title>AppModule</title>
<polygon fill="#8dd3c7" stroke="#000000" points="793.6571,-187 790.6571,-191 769.6571,-191 766.6571,-187 710.3429,-187 710.3429,-151 793.6571,-151 793.6571,-187"/>
<text text-anchor="middle" x="752" y="-164.8" font-family="Times,serif" font-size="14.00" fill="#000000">AppModule</text>
</g>
<!-- AppComponent&#45;&gt;AppModule -->
<g id="edge1" class="edge">
<title>AppComponent&#45;&gt;AppModule</title>
<path fill="none" stroke="#000000" d="M1365,-122.2479C1365,-145.0179 1365,-181 1365,-181 1365,-181 804.134,-181 804.134,-181"/>
<polygon fill="#000000" stroke="#000000" points="804.134,-177.5001 794.134,-181 804.1339,-184.5001 804.134,-177.5001"/>
</g>
<!-- AppComponent  -->
<g id="node13" class="node">
<title>AppComponent </title>
<polygon fill="#80b1d3" stroke="#000000" points="806.439,-252 697.561,-252 697.561,-216 806.439,-216 806.439,-252"/>
<text text-anchor="middle" x="752" y="-229.8" font-family="Times,serif" font-size="14.00" fill="#000000">AppComponent </text>
</g>
<!-- AppModule&#45;&gt;AppComponent  -->
<g id="edge12" class="edge">
<title>AppModule&#45;&gt;AppComponent </title>
<path fill="none" stroke="#000000" stroke-dasharray="1,5" d="M752,-187.1061C752,-187.1061 752,-205.991 752,-205.991"/>
<polygon fill="#000000" stroke="#000000" points="748.5001,-205.9909 752,-215.991 755.5001,-205.991 748.5001,-205.9909"/>
</g>
<!-- AppRoutingModule -->
<g id="node3" class="node">
<title>AppRoutingModule</title>
<polygon fill="#8dd3c7" stroke="#000000" points="1288.2744,-122 1285.2744,-126 1264.2744,-126 1261.2744,-122 1159.7256,-122 1159.7256,-86 1288.2744,-86 1288.2744,-122"/>
<text text-anchor="middle" x="1224" y="-99.8" font-family="Times,serif" font-size="14.00" fill="#000000">AppRoutingModule</text>
</g>
<!-- AppRoutingModule&#45;&gt;AppModule -->
<g id="edge2" class="edge">
<title>AppRoutingModule&#45;&gt;AppModule</title>
<path fill="none" stroke="#000000" d="M1224,-122.2843C1224,-143.3211 1224,-175 1224,-175 1224,-175 803.8869,-175 803.8869,-175"/>
<polygon fill="#000000" stroke="#000000" points="803.8869,-171.5001 793.8869,-175 803.8868,-178.5001 803.8869,-171.5001"/>
</g>
<!-- AuthModule -->
<g id="node4" class="node">
<title>AuthModule</title>
<polygon fill="#8dd3c7" stroke="#000000" points="1141.5482,-122 1138.5482,-126 1117.5482,-126 1114.5482,-122 1054.4518,-122 1054.4518,-86 1141.5482,-86 1141.5482,-122"/>
<text text-anchor="middle" x="1098" y="-99.8" font-family="Times,serif" font-size="14.00" fill="#000000">AuthModule</text>
</g>
<!-- AuthModule&#45;&gt;AppModule -->
<g id="edge3" class="edge">
<title>AuthModule&#45;&gt;AppModule</title>
<path fill="none" stroke="#000000" d="M1098,-122.1061C1098,-141.3391 1098,-169 1098,-169 1098,-169 803.7357,-169 803.7357,-169"/>
<polygon fill="#000000" stroke="#000000" points="803.7357,-165.5001 793.7357,-169 803.7356,-172.5001 803.7357,-165.5001"/>
</g>
<!-- BackendModule -->
<g id="node5" class="node">
<title>BackendModule</title>
<polygon fill="#8dd3c7" stroke="#000000" points="1036.0312,-122 1033.0312,-126 1012.0312,-126 1009.0312,-122 927.9688,-122 927.9688,-86 1036.0312,-86 1036.0312,-122"/>
<text text-anchor="middle" x="982" y="-99.8" font-family="Times,serif" font-size="14.00" fill="#000000">BackendModule</text>
</g>
<!-- BackendModule&#45;&gt;AppModule -->
<g id="edge4" class="edge">
<title>BackendModule&#45;&gt;AppModule</title>
<path fill="none" stroke="#000000" d="M982,-122.0225C982,-139.3734 982,-163 982,-163 982,-163 803.9181,-163 803.9181,-163"/>
<polygon fill="#000000" stroke="#000000" points="803.9181,-159.5001 793.9181,-163 803.9181,-166.5001 803.9181,-159.5001"/>
</g>
<!-- CoreModule -->
<g id="node6" class="node">
<title>CoreModule</title>
<polygon fill="#8dd3c7" stroke="#000000" points="909.2619,-122 906.2619,-126 885.2619,-126 882.2619,-122 822.7381,-122 822.7381,-86 909.2619,-86 909.2619,-122"/>
<text text-anchor="middle" x="866" y="-99.8" font-family="Times,serif" font-size="14.00" fill="#000000">CoreModule</text>
</g>
<!-- CoreModule&#45;&gt;AppModule -->
<g id="edge5" class="edge">
<title>CoreModule&#45;&gt;AppModule</title>
<path fill="none" stroke="#000000" d="M866,-122.2396C866,-137.5706 866,-157 866,-157 866,-157 803.8021,-157 803.8021,-157"/>
<polygon fill="#000000" stroke="#000000" points="803.8021,-153.5001 793.8021,-157 803.802,-160.5001 803.8021,-153.5001"/>
</g>
<!-- CountryModule -->
<g id="node7" class="node">
<title>CountryModule</title>
<polygon fill="#8dd3c7" stroke="#000000" points="804.9385,-122 801.9385,-126 780.9385,-126 777.9385,-122 699.0615,-122 699.0615,-86 804.9385,-86 804.9385,-122"/>
<text text-anchor="middle" x="752" y="-99.8" font-family="Times,serif" font-size="14.00" fill="#000000">CountryModule</text>
</g>
<!-- CountryModule&#45;&gt;AppModule -->
<g id="edge6" class="edge">
<title>CountryModule&#45;&gt;AppModule</title>
<path fill="none" stroke="#000000" d="M752,-122.1061C752,-122.1061 752,-140.991 752,-140.991"/>
<polygon fill="#000000" stroke="#000000" points="748.5001,-140.9909 752,-150.991 755.5001,-140.991 748.5001,-140.9909"/>
</g>
<!-- HomeModule -->
<g id="node8" class="node">
<title>HomeModule</title>
<polygon fill="#8dd3c7" stroke="#000000" points="680.7619,-122 677.7619,-126 656.7619,-126 653.7619,-122 587.2381,-122 587.2381,-86 680.7619,-86 680.7619,-122"/>
<text text-anchor="middle" x="634" y="-99.8" font-family="Times,serif" font-size="14.00" fill="#000000">HomeModule</text>
</g>
<!-- HomeModule&#45;&gt;AppModule -->
<g id="edge7" class="edge">
<title>HomeModule&#45;&gt;AppModule</title>
<path fill="none" stroke="#000000" d="M634,-122.2396C634,-137.5706 634,-157 634,-157 634,-157 700.0654,-157 700.0654,-157"/>
<polygon fill="#000000" stroke="#000000" points="700.0654,-160.5001 710.0654,-157 700.0653,-153.5001 700.0654,-160.5001"/>
</g>
<!-- ImpressumModule -->
<g id="node9" class="node">
<title>ImpressumModule</title>
<polygon fill="#8dd3c7" stroke="#000000" points="568.7562,-122 565.7562,-126 544.7562,-126 541.7562,-122 447.2438,-122 447.2438,-86 568.7562,-86 568.7562,-122"/>
<text text-anchor="middle" x="508" y="-99.8" font-family="Times,serif" font-size="14.00" fill="#000000">ImpressumModule</text>
</g>
<!-- ImpressumModule&#45;&gt;AppModule -->
<g id="edge8" class="edge">
<title>ImpressumModule&#45;&gt;AppModule</title>
<path fill="none" stroke="#000000" d="M508,-122.0225C508,-139.3734 508,-163 508,-163 508,-163 700.3321,-163 700.3321,-163"/>
<polygon fill="#000000" stroke="#000000" points="700.3322,-166.5001 710.3321,-163 700.3321,-159.5001 700.3322,-166.5001"/>
</g>
<!-- NotificationModule -->
<g id="node10" class="node">
<title>NotificationModule</title>
<polygon fill="#8dd3c7" stroke="#000000" points="429.6994,-122 426.6994,-126 405.6994,-126 402.6994,-122 302.3006,-122 302.3006,-86 429.6994,-86 429.6994,-122"/>
<text text-anchor="middle" x="366" y="-99.8" font-family="Times,serif" font-size="14.00" fill="#000000">NotificationModule</text>
</g>
<!-- NotificationModule&#45;&gt;AppModule -->
<g id="edge9" class="edge">
<title>NotificationModule&#45;&gt;AppModule</title>
<path fill="none" stroke="#000000" d="M366,-122.1061C366,-141.3391 366,-169 366,-169 366,-169 700.3245,-169 700.3245,-169"/>
<polygon fill="#000000" stroke="#000000" points="700.3245,-172.5001 710.3245,-169 700.3245,-165.5001 700.3245,-172.5001"/>
</g>
<!-- StyleguideModule -->
<g id="node11" class="node">
<title>StyleguideModule</title>
<polygon fill="#8dd3c7" stroke="#000000" points="284.9342,-122 281.9342,-126 260.9342,-126 257.9342,-122 165.0658,-122 165.0658,-86 284.9342,-86 284.9342,-122"/>
<text text-anchor="middle" x="225" y="-99.8" font-family="Times,serif" font-size="14.00" fill="#000000">StyleguideModule</text>
</g>
<!-- StyleguideModule&#45;&gt;AppModule -->
<g id="edge10" class="edge">
<title>StyleguideModule&#45;&gt;AppModule</title>
<path fill="none" stroke="#000000" d="M225,-122.2843C225,-143.3211 225,-175 225,-175 225,-175 700.2067,-175 700.2067,-175"/>
<polygon fill="#000000" stroke="#000000" points="700.2067,-178.5001 710.2067,-175 700.2067,-171.5001 700.2067,-178.5001"/>
</g>
<!-- TravelogueModule -->
<g id="node12" class="node">
<title>TravelogueModule</title>
<polygon fill="#8dd3c7" stroke="#000000" points="147.7978,-122 144.7978,-126 123.7978,-126 120.7978,-122 24.2022,-122 24.2022,-86 147.7978,-86 147.7978,-122"/>
<text text-anchor="middle" x="86" y="-99.8" font-family="Times,serif" font-size="14.00" fill="#000000">TravelogueModule</text>
</g>
<!-- TravelogueModule&#45;&gt;AppModule -->
<g id="edge11" class="edge">
<title>TravelogueModule&#45;&gt;AppModule</title>
<path fill="none" stroke="#000000" d="M86,-122.2479C86,-145.0179 86,-181 86,-181 86,-181 700.3387,-181 700.3387,-181"/>
<polygon fill="#000000" stroke="#000000" points="700.3388,-184.5001 710.3387,-181 700.3387,-177.5001 700.3388,-184.5001"/>
</g>
</g>
</svg>
