<?xml version="1.0" encoding="UTF-8" standalone="no"?>
<!DOCTYPE svg PUBLIC "-//W3C//DTD SVG 1.1//EN"
 "http://www.w3.org/Graphics/SVG/1.1/DTD/svg11.dtd">
<!-- Generated by graphviz version 2.40.1 (20161225.0304)
 -->
<!-- Title: dependencies Pages: 1 -->
<svg width="1186pt" height="284pt"
 viewBox="0.00 0.00 1186.00 284.00" xmlns="http://www.w3.org/2000/svg" xmlns:xlink="http://www.w3.org/1999/xlink">
<g id="graph0" class="graph" transform="scale(1 1) rotate(0) translate(4 280)">
<title>dependencies</title>
<polygon fill="#ffffff" stroke="transparent" points="-4,4 -4,-280 1182,-280 1182,4 -4,4"/>
<text text-anchor="start" x="568.0091" y="-42.4" font-family="sans-serif" font-weight="bold" font-size="14.00" fill="#000000">Legend</text>
<polygon fill="#ffffb3" stroke="transparent" points="355,-10 355,-30 375,-30 375,-10 355,-10"/>
<text text-anchor="start" x="378.629" y="-15.4" font-family="sans-serif" font-size="14.00" fill="#000000"> &#160;Declarations</text>
<polygon fill="#8dd3c7" stroke="transparent" points="468,-10 468,-30 488,-30 488,-10 468,-10"/>
<text text-anchor="start" x="491.7251" y="-15.4" font-family="sans-serif" font-size="14.00" fill="#000000"> &#160;Module</text>
<polygon fill="#80b1d3" stroke="transparent" points="554,-10 554,-30 574,-30 574,-10 554,-10"/>
<text text-anchor="start" x="577.7812" y="-15.4" font-family="sans-serif" font-size="14.00" fill="#000000"> &#160;Bootstrap</text>
<polygon fill="#fdb462" stroke="transparent" points="651,-10 651,-30 671,-30 671,-10 651,-10"/>
<text text-anchor="start" x="674.6732" y="-15.4" font-family="sans-serif" font-size="14.00" fill="#000000"> &#160;Providers</text>
<polygon fill="#fb8072" stroke="transparent" points="747,-10 747,-30 767,-30 767,-10 747,-10"/>
<text text-anchor="start" x="770.7258" y="-15.4" font-family="sans-serif" font-size="14.00" fill="#000000"> &#160;Exports</text>
<g id="clust1" class="cluster">
<title>cluster_AppModule</title>
<polygon fill="none" stroke="#000000" stroke-dasharray="1,5" points="8,-70 8,-268 1170,-268 1170,-70 8,-70"/>
</g>
<g id="clust2" class="cluster">
<title>cluster_AppModule_declarations</title>
<polygon fill="none" stroke="#000000" points="1040,-78 1040,-130 1162,-130 1162,-78 1040,-78"/>
</g>
<g id="clust4" class="cluster">
<title>cluster_AppModule_imports</title>
<polygon fill="none" stroke="#000000" points="16,-78 16,-130 1032,-130 1032,-78 16,-78"/>
</g>
<g id="clust6" class="cluster">
<title>cluster_AppModule_bootstrap</title>
<polygon fill="none" stroke="#000000" points="540,-208 540,-260 664,-260 664,-208 540,-208"/>
</g>
<!-- AppComponent -->
<g id="node1" class="node">
<title>AppComponent</title>
<polygon fill="#ffffb3" stroke="#000000" points="1153.9399,-122 1048.0601,-122 1048.0601,-86 1153.9399,-86 1153.9399,-122"/>
<text text-anchor="middle" x="1101" y="-99.8" font-family="Times,serif" font-size="14.00" fill="#000000">AppComponent</text>
</g>
<!-- AppModule -->
<g id="node2" class="node">
<title>AppModule</title>
<polygon fill="#8dd3c7" stroke="#000000" points="643.6571,-187 640.6571,-191 619.6571,-191 616.6571,-187 560.3429,-187 560.3429,-151 643.6571,-151 643.6571,-187"/>
<text text-anchor="middle" x="602" y="-164.8" font-family="Times,serif" font-size="14.00" fill="#000000">AppModule</text>
</g>
<!-- AppComponent&#45;&gt;AppModule -->
<g id="edge1" class="edge">
<title>AppComponent&#45;&gt;AppModule</title>
<path fill="none" stroke="#000000" d="M1101,-122.0109C1101,-144.4852 1101,-180 1101,-180 1101,-180 653.6862,-180 653.6862,-180"/>
<polygon fill="#000000" stroke="#000000" points="653.6862,-176.5001 643.6862,-180 653.6861,-183.5001 653.6862,-176.5001"/>
</g>
<!-- AppComponent  -->
<g id="node11" class="node">
<title>AppComponent </title>
<polygon fill="#80b1d3" stroke="#000000" points="656.439,-252 547.561,-252 547.561,-216 656.439,-216 656.439,-252"/>
<text text-anchor="middle" x="602" y="-229.8" font-family="Times,serif" font-size="14.00" fill="#000000">AppComponent </text>
</g>
<!-- AppModule&#45;&gt;AppComponent  -->
<g id="edge10" class="edge">
<title>AppModule&#45;&gt;AppComponent </title>
<path fill="none" stroke="#000000" stroke-dasharray="1,5" d="M602,-187.1061C602,-187.1061 602,-205.991 602,-205.991"/>
<polygon fill="#000000" stroke="#000000" points="598.5001,-205.9909 602,-215.991 605.5001,-205.991 598.5001,-205.9909"/>
</g>
<!-- AppRoutingModule -->
<g id="node3" class="node">
<title>AppRoutingModule</title>
<polygon fill="#8dd3c7" stroke="#000000" points="1024.2744,-122 1021.2744,-126 1000.2744,-126 997.2744,-122 895.7256,-122 895.7256,-86 1024.2744,-86 1024.2744,-122"/>
<text text-anchor="middle" x="960" y="-99.8" font-family="Times,serif" font-size="14.00" fill="#000000">AppRoutingModule</text>
</g>
<!-- AppRoutingModule&#45;&gt;AppModule -->
<g id="edge2" class="edge">
<title>AppRoutingModule&#45;&gt;AppModule</title>
<path fill="none" stroke="#000000" d="M960,-122.1289C960,-142.5724 960,-173 960,-173 960,-173 653.7678,-173 653.7678,-173"/>
<polygon fill="#000000" stroke="#000000" points="653.7678,-169.5001 643.7678,-173 653.7678,-176.5001 653.7678,-169.5001"/>
</g>
<!-- AuthModule -->
<g id="node4" class="node">
<title>AuthModule</title>
<polygon fill="#8dd3c7" stroke="#000000" points="877.5482,-122 874.5482,-126 853.5482,-126 850.5482,-122 790.4518,-122 790.4518,-86 877.5482,-86 877.5482,-122"/>
<text text-anchor="middle" x="834" y="-99.8" font-family="Times,serif" font-size="14.00" fill="#000000">AuthModule</text>
</g>
<!-- AuthModule&#45;&gt;AppModule -->
<g id="edge3" class="edge">
<title>AuthModule&#45;&gt;AppModule</title>
<path fill="none" stroke="#000000" d="M834,-122.2667C834,-140.5552 834,-166 834,-166 834,-166 653.7449,-166 653.7449,-166"/>
<polygon fill="#000000" stroke="#000000" points="653.7449,-162.5001 643.7449,-166 653.7449,-169.5001 653.7449,-162.5001"/>
</g>
<!-- BackendModule -->
<g id="node5" class="node">
<title>BackendModule</title>
<polygon fill="#8dd3c7" stroke="#000000" points="772.0312,-122 769.0312,-126 748.0312,-126 745.0312,-122 663.9688,-122 663.9688,-86 772.0312,-86 772.0312,-122"/>
<text text-anchor="middle" x="718" y="-99.8" font-family="Times,serif" font-size="14.00" fill="#000000">BackendModule</text>
</g>
<!-- BackendModule&#45;&gt;AppModule -->
<g id="edge4" class="edge">
<title>BackendModule&#45;&gt;AppModule</title>
<path fill="none" stroke="#000000" d="M718,-122.0091C718,-138.0494 718,-159 718,-159 718,-159 653.8787,-159 653.8787,-159"/>
<polygon fill="#000000" stroke="#000000" points="653.8787,-155.5001 643.8787,-159 653.8786,-162.5001 653.8787,-155.5001"/>
</g>
<!-- CoreModule -->
<g id="node6" class="node">
<title>CoreModule</title>
<polygon fill="#8dd3c7" stroke="#000000" points="645.2619,-122 642.2619,-126 621.2619,-126 618.2619,-122 558.7381,-122 558.7381,-86 645.2619,-86 645.2619,-122"/>
<text text-anchor="middle" x="602" y="-99.8" font-family="Times,serif" font-size="14.00" fill="#000000">CoreModule</text>
</g>
<!-- CoreModule&#45;&gt;AppModule -->
<g id="edge5" class="edge">
<title>CoreModule&#45;&gt;AppModule</title>
<path fill="none" stroke="#000000" d="M602,-122.1061C602,-122.1061 602,-140.991 602,-140.991"/>
<polygon fill="#000000" stroke="#000000" points="598.5001,-140.9909 602,-150.991 605.5001,-140.991 598.5001,-140.9909"/>
</g>
<!-- HomeModule -->
<g id="node7" class="node">
<title>HomeModule</title>
<polygon fill="#8dd3c7" stroke="#000000" points="540.7619,-122 537.7619,-126 516.7619,-126 513.7619,-122 447.2381,-122 447.2381,-86 540.7619,-86 540.7619,-122"/>
<text text-anchor="middle" x="494" y="-99.8" font-family="Times,serif" font-size="14.00" fill="#000000">HomeModule</text>
</g>
<!-- HomeModule&#45;&gt;AppModule -->
<g id="edge6" class="edge">
<title>HomeModule&#45;&gt;AppModule</title>
<path fill="none" stroke="#000000" d="M494,-122.0091C494,-138.0494 494,-159 494,-159 494,-159 550.2444,-159 550.2444,-159"/>
<polygon fill="#000000" stroke="#000000" points="550.2444,-162.5001 560.2444,-159 550.2443,-155.5001 550.2444,-162.5001"/>
</g>
<!-- NotificationModule -->
<g id="node8" class="node">
<title>NotificationModule</title>
<polygon fill="#8dd3c7" stroke="#000000" points="429.6994,-122 426.6994,-126 405.6994,-126 402.6994,-122 302.3006,-122 302.3006,-86 429.6994,-86 429.6994,-122"/>
<text text-anchor="middle" x="366" y="-99.8" font-family="Times,serif" font-size="14.00" fill="#000000">NotificationModule</text>
</g>
<!-- NotificationModule&#45;&gt;AppModule -->
<g id="edge7" class="edge">
<title>NotificationModule&#45;&gt;AppModule</title>
<path fill="none" stroke="#000000" d="M366,-122.2667C366,-140.5552 366,-166 366,-166 366,-166 550.0799,-166 550.0799,-166"/>
<polygon fill="#000000" stroke="#000000" points="550.0799,-169.5001 560.0799,-166 550.0798,-162.5001 550.0799,-169.5001"/>
</g>
<!-- StyleguideModule -->
<g id="node9" class="node">
<title>StyleguideModule</title>
<polygon fill="#8dd3c7" stroke="#000000" points="284.9342,-122 281.9342,-126 260.9342,-126 257.9342,-122 165.0658,-122 165.0658,-86 284.9342,-86 284.9342,-122"/>
<text text-anchor="middle" x="225" y="-99.8" font-family="Times,serif" font-size="14.00" fill="#000000">StyleguideModule</text>
</g>
<!-- StyleguideModule&#45;&gt;AppModule -->
<g id="edge8" class="edge">
<title>StyleguideModule&#45;&gt;AppModule</title>
<path fill="none" stroke="#000000" d="M225,-122.1289C225,-142.5724 225,-173 225,-173 225,-173 550.214,-173 550.214,-173"/>
<polygon fill="#000000" stroke="#000000" points="550.214,-176.5001 560.214,-173 550.2139,-169.5001 550.214,-176.5001"/>
</g>
<!-- TravelogueModule -->
<g id="node10" class="node">
<title>TravelogueModule</title>
<polygon fill="#8dd3c7" stroke="#000000" points="147.7978,-122 144.7978,-126 123.7978,-126 120.7978,-122 24.2022,-122 24.2022,-86 147.7978,-86 147.7978,-122"/>
<text text-anchor="middle" x="86" y="-99.8" font-family="Times,serif" font-size="14.00" fill="#000000">TravelogueModule</text>
</g>
<!-- TravelogueModule&#45;&gt;AppModule -->
<g id="edge9" class="edge">
<title>TravelogueModule&#45;&gt;AppModule</title>
<path fill="none" stroke="#000000" d="M86,-122.0109C86,-144.4852 86,-180 86,-180 86,-180 550.2106,-180 550.2106,-180"/>
<polygon fill="#000000" stroke="#000000" points="550.2107,-183.5001 560.2106,-180 550.2106,-176.5001 550.2107,-183.5001"/>
</g>
</g>
</svg>
