<?xml version="1.0" encoding="UTF-8" standalone="no"?>
<!DOCTYPE svg PUBLIC "-//W3C//DTD SVG 1.1//EN"
 "http://www.w3.org/Graphics/SVG/1.1/DTD/svg11.dtd">
<!-- Generated by graphviz version 2.40.1 (20161225.0304)
 -->
<!-- Title: dependencies Pages: 1 -->
<svg width="1000pt" height="211pt"
 viewBox="0.00 0.00 1000.00 211.00" xmlns="http://www.w3.org/2000/svg" xmlns:xlink="http://www.w3.org/1999/xlink">
<g id="graph0" class="graph" transform="scale(1 1) rotate(0) translate(4 207)">
<title>dependencies</title>
<polygon fill="#ffffff" stroke="transparent" points="-4,4 -4,-207 996,-207 996,4 -4,4"/>
<text text-anchor="start" x="475.0091" y="-42.4" font-family="sans-serif" font-weight="bold" font-size="14.00" fill="#000000">Legend</text>
<polygon fill="#ffffb3" stroke="transparent" points="262,-10 262,-30 282,-30 282,-10 262,-10"/>
<text text-anchor="start" x="285.629" y="-15.4" font-family="sans-serif" font-size="14.00" fill="#000000"> &#160;Declarations</text>
<polygon fill="#8dd3c7" stroke="transparent" points="375,-10 375,-30 395,-30 395,-10 375,-10"/>
<text text-anchor="start" x="398.7251" y="-15.4" font-family="sans-serif" font-size="14.00" fill="#000000"> &#160;Module</text>
<polygon fill="#80b1d3" stroke="transparent" points="461,-10 461,-30 481,-30 481,-10 461,-10"/>
<text text-anchor="start" x="484.7812" y="-15.4" font-family="sans-serif" font-size="14.00" fill="#000000"> &#160;Bootstrap</text>
<polygon fill="#fdb462" stroke="transparent" points="558,-10 558,-30 578,-30 578,-10 558,-10"/>
<text text-anchor="start" x="581.6732" y="-15.4" font-family="sans-serif" font-size="14.00" fill="#000000"> &#160;Providers</text>
<polygon fill="#fb8072" stroke="transparent" points="654,-10 654,-30 674,-30 674,-10 654,-10"/>
<text text-anchor="start" x="677.7258" y="-15.4" font-family="sans-serif" font-size="14.00" fill="#000000"> &#160;Exports</text>
<g id="clust1" class="cluster">
<title>cluster_HomeModule</title>
<polygon fill="none" stroke="#000000" stroke-dasharray="1,5" points="8,-70 8,-195 984,-195 984,-70 8,-70"/>
</g>
<g id="clust2" class="cluster">
<title>cluster_HomeModule_declarations</title>
<polygon fill="none" stroke="#000000" points="844,-78 844,-130 976,-130 976,-78 844,-78"/>
</g>
<g id="clust4" class="cluster">
<title>cluster_HomeModule_imports</title>
<polygon fill="none" stroke="#000000" points="16,-78 16,-130 836,-130 836,-78 16,-78"/>
</g>
<!-- HomeComponent -->
<g id="node1" class="node">
<title>HomeComponent</title>
<polygon fill="#ffffb3" stroke="#000000" points="967.5451,-122 852.4549,-122 852.4549,-86 967.5451,-86 967.5451,-122"/>
<text text-anchor="middle" x="910" y="-99.8" font-family="Times,serif" font-size="14.00" fill="#000000">HomeComponent</text>
</g>
<!-- HomeModule -->
<g id="node2" class="node">
<title>HomeModule</title>
<polygon fill="#8dd3c7" stroke="#000000" points="557.7619,-187 554.7619,-191 533.7619,-191 530.7619,-187 464.2381,-187 464.2381,-151 557.7619,-151 557.7619,-187"/>
<text text-anchor="middle" x="511" y="-164.8" font-family="Times,serif" font-size="14.00" fill="#000000">HomeModule</text>
</g>
<!-- HomeComponent&#45;&gt;HomeModule -->
<g id="edge1" class="edge">
<title>HomeComponent&#45;&gt;HomeModule</title>
<path fill="none" stroke="#000000" d="M910,-122.2921C910,-144.2057 910,-178 910,-178 910,-178 567.9437,-178 567.9437,-178"/>
<polygon fill="#000000" stroke="#000000" points="567.9437,-174.5001 557.9437,-178 567.9436,-181.5001 567.9437,-174.5001"/>
</g>
<!-- ContainerModule -->
<g id="node3" class="node">
<title>ContainerModule</title>
<polygon fill="#8dd3c7" stroke="#000000" points="828.2577,-122 825.2577,-126 804.2577,-126 801.2577,-122 713.7423,-122 713.7423,-86 828.2577,-86 828.2577,-122"/>
<text text-anchor="middle" x="771" y="-99.8" font-family="Times,serif" font-size="14.00" fill="#000000">ContainerModule</text>
</g>
<!-- ContainerModule&#45;&gt;HomeModule -->
<g id="edge2" class="edge">
<title>ContainerModule&#45;&gt;HomeModule</title>
<path fill="none" stroke="#000000" d="M771,-122.1061C771,-141.3391 771,-169 771,-169 771,-169 567.7831,-169 567.7831,-169"/>
<polygon fill="#000000" stroke="#000000" points="567.7831,-165.5001 557.7831,-169 567.783,-172.5001 567.7831,-165.5001"/>
</g>
<!-- FooterModule -->
<g id="node4" class="node">
<title>FooterModule</title>
<polygon fill="#8dd3c7" stroke="#000000" points="696.0983,-122 693.0983,-126 672.0983,-126 669.0983,-122 599.9017,-122 599.9017,-86 696.0983,-86 696.0983,-122"/>
<text text-anchor="middle" x="648" y="-99.8" font-family="Times,serif" font-size="14.00" fill="#000000">FooterModule</text>
</g>
<!-- FooterModule&#45;&gt;HomeModule -->
<g id="edge3" class="edge">
<title>FooterModule&#45;&gt;HomeModule</title>
<path fill="none" stroke="#000000" d="M648,-122.027C648,-138.3976 648,-160 648,-160 648,-160 567.7645,-160 567.7645,-160"/>
<polygon fill="#000000" stroke="#000000" points="567.7645,-156.5001 557.7645,-160 567.7644,-163.5001 567.7645,-156.5001"/>
</g>
<!-- FormElementsModule -->
<g id="node5" class="node">
<title>FormElementsModule</title>
<polygon fill="#8dd3c7" stroke="#000000" points="581.9818,-122 578.9818,-126 557.9818,-126 554.9818,-122 440.0182,-122 440.0182,-86 581.9818,-86 581.9818,-122"/>
<text text-anchor="middle" x="511" y="-99.8" font-family="Times,serif" font-size="14.00" fill="#000000">FormElementsModule</text>
</g>
<!-- FormElementsModule&#45;&gt;HomeModule -->
<g id="edge4" class="edge">
<title>FormElementsModule&#45;&gt;HomeModule</title>
<path fill="none" stroke="#000000" d="M511,-122.1061C511,-122.1061 511,-140.991 511,-140.991"/>
<polygon fill="#000000" stroke="#000000" points="507.5001,-140.9909 511,-150.991 514.5001,-140.991 507.5001,-140.9909"/>
</g>
<!-- NavigationModule -->
<g id="node6" class="node">
<title>NavigationModule</title>
<polygon fill="#8dd3c7" stroke="#000000" points="421.7576,-122 418.7576,-126 397.7576,-126 394.7576,-122 300.2424,-122 300.2424,-86 421.7576,-86 421.7576,-122"/>
<text text-anchor="middle" x="361" y="-99.8" font-family="Times,serif" font-size="14.00" fill="#000000">NavigationModule</text>
</g>
<!-- NavigationModule&#45;&gt;HomeModule -->
<g id="edge5" class="edge">
<title>NavigationModule&#45;&gt;HomeModule</title>
<path fill="none" stroke="#000000" d="M361,-122.027C361,-138.3976 361,-160 361,-160 361,-160 453.9506,-160 453.9506,-160"/>
<polygon fill="#000000" stroke="#000000" points="453.9507,-163.5001 463.9506,-160 453.9506,-156.5001 453.9507,-163.5001"/>
</g>
<!-- SharedModule -->
<g id="node7" class="node">
<title>SharedModule</title>
<polygon fill="#8dd3c7" stroke="#000000" points="282.4231,-122 279.4231,-126 258.4231,-126 255.4231,-122 183.5769,-122 183.5769,-86 282.4231,-86 282.4231,-122"/>
<text text-anchor="middle" x="233" y="-99.8" font-family="Times,serif" font-size="14.00" fill="#000000">SharedModule</text>
</g>
<!-- SharedModule&#45;&gt;HomeModule -->
<g id="edge6" class="edge">
<title>SharedModule&#45;&gt;HomeModule</title>
<path fill="none" stroke="#000000" d="M233,-122.1061C233,-141.3391 233,-169 233,-169 233,-169 454.1555,-169 454.1555,-169"/>
<polygon fill="#000000" stroke="#000000" points="454.1555,-172.5001 464.1555,-169 454.1554,-165.5001 454.1555,-172.5001"/>
</g>
<!-- TravelPreviewModule -->
<g id="node8" class="node">
<title>TravelPreviewModule</title>
<polygon fill="#8dd3c7" stroke="#000000" points="165.9524,-122 162.9524,-126 141.9524,-126 138.9524,-122 24.0476,-122 24.0476,-86 165.9524,-86 165.9524,-122"/>
<text text-anchor="middle" x="95" y="-99.8" font-family="Times,serif" font-size="14.00" fill="#000000">TravelPreviewModule</text>
</g>
<!-- TravelPreviewModule&#45;&gt;HomeModule -->
<g id="edge7" class="edge">
<title>TravelPreviewModule&#45;&gt;HomeModule</title>
<path fill="none" stroke="#000000" d="M95,-122.2921C95,-144.2057 95,-178 95,-178 95,-178 454.0882,-178 454.0882,-178"/>
<polygon fill="#000000" stroke="#000000" points="454.0882,-181.5001 464.0882,-178 454.0881,-174.5001 454.0882,-181.5001"/>
</g>
</g>
</svg>
