<?xml version="1.0" encoding="UTF-8" standalone="no"?>
<!DOCTYPE svg PUBLIC "-//W3C//DTD SVG 1.1//EN"
 "http://www.w3.org/Graphics/SVG/1.1/DTD/svg11.dtd">
<!-- Generated by graphviz version 2.40.1 (20161225.0304)
 -->
<!-- Title: dependencies Pages: 1 -->
<svg width="940pt" height="211pt"
 viewBox="0.00 0.00 940.00 211.00" xmlns="http://www.w3.org/2000/svg" xmlns:xlink="http://www.w3.org/1999/xlink">
<g id="graph0" class="graph" transform="scale(1 1) rotate(0) translate(4 207)">
<title>dependencies</title>
<polygon fill="#ffffff" stroke="transparent" points="-4,4 -4,-207 936,-207 936,4 -4,4"/>
<text text-anchor="start" x="445.0091" y="-42.4" font-family="sans-serif" font-weight="bold" font-size="14.00" fill="#000000">Legend</text>
<polygon fill="#ffffb3" stroke="transparent" points="232,-10 232,-30 252,-30 252,-10 232,-10"/>
<text text-anchor="start" x="255.629" y="-15.4" font-family="sans-serif" font-size="14.00" fill="#000000"> &#160;Declarations</text>
<polygon fill="#8dd3c7" stroke="transparent" points="345,-10 345,-30 365,-30 365,-10 345,-10"/>
<text text-anchor="start" x="368.7251" y="-15.4" font-family="sans-serif" font-size="14.00" fill="#000000"> &#160;Module</text>
<polygon fill="#80b1d3" stroke="transparent" points="431,-10 431,-30 451,-30 451,-10 431,-10"/>
<text text-anchor="start" x="454.7812" y="-15.4" font-family="sans-serif" font-size="14.00" fill="#000000"> &#160;Bootstrap</text>
<polygon fill="#fdb462" stroke="transparent" points="528,-10 528,-30 548,-30 548,-10 528,-10"/>
<text text-anchor="start" x="551.6732" y="-15.4" font-family="sans-serif" font-size="14.00" fill="#000000"> &#160;Providers</text>
<polygon fill="#fb8072" stroke="transparent" points="624,-10 624,-30 644,-30 644,-10 624,-10"/>
<text text-anchor="start" x="647.7258" y="-15.4" font-family="sans-serif" font-size="14.00" fill="#000000"> &#160;Exports</text>
<g id="clust1" class="cluster">
<title>cluster_HomeModule</title>
<polygon fill="none" stroke="#000000" stroke-dasharray="1,5" points="8,-70 8,-195 924,-195 924,-70 8,-70"/>
</g>
<g id="clust2" class="cluster">
<title>cluster_HomeModule_declarations</title>
<polygon fill="none" stroke="#000000" points="784,-78 784,-130 916,-130 916,-78 784,-78"/>
</g>
<g id="clust4" class="cluster">
<title>cluster_HomeModule_imports</title>
<polygon fill="none" stroke="#000000" points="16,-78 16,-130 776,-130 776,-78 16,-78"/>
</g>
<!-- HomeComponent -->
<g id="node1" class="node">
<title>HomeComponent</title>
<polygon fill="#ffffb3" stroke="#000000" points="907.5451,-122 792.4549,-122 792.4549,-86 907.5451,-86 907.5451,-122"/>
<text text-anchor="middle" x="850" y="-99.8" font-family="Times,serif" font-size="14.00" fill="#000000">HomeComponent</text>
</g>
<!-- HomeModule -->
<g id="node2" class="node">
<title>HomeModule</title>
<polygon fill="#8dd3c7" stroke="#000000" points="523.7619,-187 520.7619,-191 499.7619,-191 496.7619,-187 430.2381,-187 430.2381,-151 523.7619,-151 523.7619,-187"/>
<text text-anchor="middle" x="477" y="-164.8" font-family="Times,serif" font-size="14.00" fill="#000000">HomeModule</text>
</g>
<!-- HomeComponent&#45;&gt;HomeModule -->
<g id="edge1" class="edge">
<title>HomeComponent&#45;&gt;HomeModule</title>
<path fill="none" stroke="#000000" d="M850,-122.2843C850,-143.3211 850,-175 850,-175 850,-175 533.863,-175 533.863,-175"/>
<polygon fill="#000000" stroke="#000000" points="533.8631,-171.5001 523.863,-175 533.863,-178.5001 533.8631,-171.5001"/>
</g>
<!-- ContainerModule -->
<g id="node3" class="node">
<title>ContainerModule</title>
<polygon fill="#8dd3c7" stroke="#000000" points="768.2577,-122 765.2577,-126 744.2577,-126 741.2577,-122 653.7423,-122 653.7423,-86 768.2577,-86 768.2577,-122"/>
<text text-anchor="middle" x="711" y="-99.8" font-family="Times,serif" font-size="14.00" fill="#000000">ContainerModule</text>
</g>
<!-- ContainerModule&#45;&gt;HomeModule -->
<g id="edge2" class="edge">
<title>ContainerModule&#45;&gt;HomeModule</title>
<path fill="none" stroke="#000000" d="M711,-122.0225C711,-139.3734 711,-163 711,-163 711,-163 533.791,-163 533.791,-163"/>
<polygon fill="#000000" stroke="#000000" points="533.791,-159.5001 523.791,-163 533.791,-166.5001 533.791,-159.5001"/>
</g>
<!-- CountryPreviewModule -->
<g id="node4" class="node">
<title>CountryPreviewModule</title>
<polygon fill="#8dd3c7" stroke="#000000" points="635.8075,-122 632.8075,-126 611.8075,-126 608.8075,-122 484.1925,-122 484.1925,-86 635.8075,-86 635.8075,-122"/>
<text text-anchor="middle" x="560" y="-99.8" font-family="Times,serif" font-size="14.00" fill="#000000">CountryPreviewModule</text>
</g>
<!-- CountryPreviewModule&#45;&gt;HomeModule -->
<g id="edge3" class="edge">
<title>CountryPreviewModule&#45;&gt;HomeModule</title>
<path fill="none" stroke="#000000" d="M504.1136,-122.1061C504.1136,-122.1061 504.1136,-140.991 504.1136,-140.991"/>
<polygon fill="#000000" stroke="#000000" points="500.6137,-140.9909 504.1136,-150.991 507.6137,-140.991 500.6137,-140.9909"/>
</g>
<!-- FormElementsModule -->
<g id="node5" class="node">
<title>FormElementsModule</title>
<polygon fill="#8dd3c7" stroke="#000000" points="465.9818,-122 462.9818,-126 441.9818,-126 438.9818,-122 324.0182,-122 324.0182,-86 465.9818,-86 465.9818,-122"/>
<text text-anchor="middle" x="395" y="-99.8" font-family="Times,serif" font-size="14.00" fill="#000000">FormElementsModule</text>
</g>
<!-- FormElementsModule&#45;&gt;HomeModule -->
<g id="edge4" class="edge">
<title>FormElementsModule&#45;&gt;HomeModule</title>
<path fill="none" stroke="#000000" d="M448.0551,-122.1061C448.0551,-122.1061 448.0551,-140.991 448.0551,-140.991"/>
<polygon fill="#000000" stroke="#000000" points="444.5551,-140.9909 448.0551,-150.991 451.5551,-140.991 444.5551,-140.9909"/>
</g>
<!-- NavigationModule -->
<g id="node6" class="node">
<title>NavigationModule</title>
<polygon fill="#8dd3c7" stroke="#000000" points="305.7576,-122 302.7576,-126 281.7576,-126 278.7576,-122 184.2424,-122 184.2424,-86 305.7576,-86 305.7576,-122"/>
<text text-anchor="middle" x="245" y="-99.8" font-family="Times,serif" font-size="14.00" fill="#000000">NavigationModule</text>
</g>
<!-- NavigationModule&#45;&gt;HomeModule -->
<g id="edge5" class="edge">
<title>NavigationModule&#45;&gt;HomeModule</title>
<path fill="none" stroke="#000000" d="M245,-122.0225C245,-139.3734 245,-163 245,-163 245,-163 420.0513,-163 420.0513,-163"/>
<polygon fill="#000000" stroke="#000000" points="420.0514,-166.5001 430.0513,-163 420.0513,-159.5001 420.0514,-166.5001"/>
</g>
<!-- TravelPreviewModule -->
<g id="node7" class="node">
<title>TravelPreviewModule</title>
<polygon fill="#8dd3c7" stroke="#000000" points="165.9524,-122 162.9524,-126 141.9524,-126 138.9524,-122 24.0476,-122 24.0476,-86 165.9524,-86 165.9524,-122"/>
<text text-anchor="middle" x="95" y="-99.8" font-family="Times,serif" font-size="14.00" fill="#000000">TravelPreviewModule</text>
</g>
<!-- TravelPreviewModule&#45;&gt;HomeModule -->
<g id="edge6" class="edge">
<title>TravelPreviewModule&#45;&gt;HomeModule</title>
<path fill="none" stroke="#000000" d="M95,-122.2843C95,-143.3211 95,-175 95,-175 95,-175 420.1593,-175 420.1593,-175"/>
<polygon fill="#000000" stroke="#000000" points="420.1593,-178.5001 430.1593,-175 420.1593,-171.5001 420.1593,-178.5001"/>
</g>
</g>
</svg>
