<?xml version="1.0" encoding="UTF-8" standalone="no"?>
<!DOCTYPE svg PUBLIC "-//W3C//DTD SVG 1.1//EN"
 "http://www.w3.org/Graphics/SVG/1.1/DTD/svg11.dtd">
<!-- Generated by graphviz version 2.40.1 (20161225.0304)
 -->
<!-- Title: dependencies Pages: 1 -->
<svg width="504pt" height="284pt"
 viewBox="0.00 0.00 504.00 284.00" xmlns="http://www.w3.org/2000/svg" xmlns:xlink="http://www.w3.org/1999/xlink">
<g id="graph0" class="graph" transform="scale(1 1) rotate(0) translate(4 280)">
<title>dependencies</title>
<polygon fill="#ffffff" stroke="transparent" points="-4,4 -4,-280 500,-280 500,4 -4,4"/>
<text text-anchor="start" x="227.0091" y="-42.4" font-family="sans-serif" font-weight="bold" font-size="14.00" fill="#000000">Legend</text>
<polygon fill="#ffffb3" stroke="transparent" points="14,-10 14,-30 34,-30 34,-10 14,-10"/>
<text text-anchor="start" x="37.629" y="-15.4" font-family="sans-serif" font-size="14.00" fill="#000000"> &#160;Declarations</text>
<polygon fill="#8dd3c7" stroke="transparent" points="127,-10 127,-30 147,-30 147,-10 127,-10"/>
<text text-anchor="start" x="150.7251" y="-15.4" font-family="sans-serif" font-size="14.00" fill="#000000"> &#160;Module</text>
<polygon fill="#80b1d3" stroke="transparent" points="213,-10 213,-30 233,-30 233,-10 213,-10"/>
<text text-anchor="start" x="236.7812" y="-15.4" font-family="sans-serif" font-size="14.00" fill="#000000"> &#160;Bootstrap</text>
<polygon fill="#fdb462" stroke="transparent" points="310,-10 310,-30 330,-30 330,-10 310,-10"/>
<text text-anchor="start" x="333.6732" y="-15.4" font-family="sans-serif" font-size="14.00" fill="#000000"> &#160;Providers</text>
<polygon fill="#fb8072" stroke="transparent" points="406,-10 406,-30 426,-30 426,-10 406,-10"/>
<text text-anchor="start" x="429.7258" y="-15.4" font-family="sans-serif" font-size="14.00" fill="#000000"> &#160;Exports</text>
<g id="clust1" class="cluster">
<title>cluster_HomebuttonModule</title>
<polygon fill="none" stroke="#000000" stroke-dasharray="1,5" points="44,-70 44,-268 452,-268 452,-70 44,-70"/>
</g>
<g id="clust2" class="cluster">
<title>cluster_HomebuttonModule_declarations</title>
<polygon fill="none" stroke="#000000" points="276,-78 276,-130 444,-130 444,-78 276,-78"/>
</g>
<g id="clust4" class="cluster">
<title>cluster_HomebuttonModule_imports</title>
<polygon fill="none" stroke="#000000" points="52,-78 52,-130 268,-130 268,-78 52,-78"/>
</g>
<g id="clust5" class="cluster">
<title>cluster_HomebuttonModule_exports</title>
<polygon fill="none" stroke="#000000" points="133,-208 133,-260 303,-260 303,-208 133,-208"/>
</g>
<!-- HomebuttonComponent -->
<g id="node1" class="node">
<title>HomebuttonComponent</title>
<polygon fill="#ffffb3" stroke="#000000" points="435.8258,-122 284.1742,-122 284.1742,-86 435.8258,-86 435.8258,-122"/>
<text text-anchor="middle" x="360" y="-99.8" font-family="Times,serif" font-size="14.00" fill="#000000">HomebuttonComponent</text>
</g>
<!-- HomebuttonModule -->
<g id="node2" class="node">
<title>HomebuttonModule</title>
<polygon fill="#8dd3c7" stroke="#000000" points="282.5436,-187 279.5436,-191 258.5436,-191 255.5436,-187 153.4564,-187 153.4564,-151 282.5436,-151 282.5436,-187"/>
<text text-anchor="middle" x="218" y="-164.8" font-family="Times,serif" font-size="14.00" fill="#000000">HomebuttonModule</text>
</g>
<!-- HomebuttonComponent&#45;&gt;HomebuttonModule -->
<g id="edge1" class="edge">
<title>HomebuttonComponent&#45;&gt;HomebuttonModule</title>
<path fill="none" stroke="#000000" d="M289.875,-122.1061C289.875,-141.3391 289.875,-169 289.875,-169 289.875,-169 289.1596,-169 289.1596,-169"/>
<polygon fill="#000000" stroke="#000000" points="292.7206,-165.5002 282.7206,-169 292.7205,-172.5002 292.7206,-165.5002"/>
</g>
<!-- HomebuttonComponent  -->
<g id="node5" class="node">
<title>HomebuttonComponent </title>
<polygon fill="#fb8072" stroke="#000000" points="295.3255,-252 140.6745,-252 140.6745,-216 295.3255,-216 295.3255,-252"/>
<text text-anchor="middle" x="218" y="-229.8" font-family="Times,serif" font-size="14.00" fill="#000000">HomebuttonComponent </text>
</g>
<!-- HomebuttonModule&#45;&gt;HomebuttonComponent  -->
<g id="edge4" class="edge">
<title>HomebuttonModule&#45;&gt;HomebuttonComponent </title>
<path fill="none" stroke="#000000" stroke-dasharray="5,2" d="M218,-187.1061C218,-187.1061 218,-205.991 218,-205.991"/>
<polygon fill="#000000" stroke="#000000" points="214.5001,-205.9909 218,-215.991 221.5001,-205.991 214.5001,-205.9909"/>
</g>
<!-- IconModule -->
<g id="node3" class="node">
<title>IconModule</title>
<polygon fill="#8dd3c7" stroke="#000000" points="260.4261,-122 257.4261,-126 236.4261,-126 233.4261,-122 175.5739,-122 175.5739,-86 260.4261,-86 260.4261,-122"/>
<text text-anchor="middle" x="218" y="-99.8" font-family="Times,serif" font-size="14.00" fill="#000000">IconModule</text>
</g>
<!-- IconModule&#45;&gt;HomebuttonModule -->
<g id="edge2" class="edge">
<title>IconModule&#45;&gt;HomebuttonModule</title>
<path fill="none" stroke="#000000" d="M218,-122.1061C218,-122.1061 218,-140.991 218,-140.991"/>
<polygon fill="#000000" stroke="#000000" points="214.5001,-140.9909 218,-150.991 221.5001,-140.991 214.5001,-140.9909"/>
</g>
<!-- SharedModule -->
<g id="node4" class="node">
<title>SharedModule</title>
<polygon fill="#8dd3c7" stroke="#000000" points="158.4231,-122 155.4231,-126 134.4231,-126 131.4231,-122 59.5769,-122 59.5769,-86 158.4231,-86 158.4231,-122"/>
<text text-anchor="middle" x="109" y="-99.8" font-family="Times,serif" font-size="14.00" fill="#000000">SharedModule</text>
</g>
<!-- SharedModule&#45;&gt;HomebuttonModule -->
<g id="edge3" class="edge">
<title>SharedModule&#45;&gt;HomebuttonModule</title>
<path fill="none" stroke="#000000" d="M146.908,-122.1061C146.908,-141.3391 146.908,-169 146.908,-169 146.908,-169 147.5141,-169 147.5141,-169"/>
<polygon fill="#000000" stroke="#000000" points="142.9693,-172.5002 152.9692,-169 142.9692,-165.5002 142.9693,-172.5002"/>
</g>
</g>
</svg>
