<?xml version="1.0" encoding="UTF-8" standalone="no"?>
<!DOCTYPE svg PUBLIC "-//W3C//DTD SVG 1.1//EN"
 "http://www.w3.org/Graphics/SVG/1.1/DTD/svg11.dtd">
<!-- Generated by graphviz version 2.40.1 (20161225.0304)
 -->
<!-- Title: dependencies Pages: 1 -->
<svg width="504pt" height="284pt"
 viewBox="0.00 0.00 504.00 284.00" xmlns="http://www.w3.org/2000/svg" xmlns:xlink="http://www.w3.org/1999/xlink">
<g id="graph0" class="graph" transform="scale(1 1) rotate(0) translate(4 280)">
<title>dependencies</title>
<polygon fill="#ffffff" stroke="transparent" points="-4,4 -4,-280 500,-280 500,4 -4,4"/>
<text text-anchor="start" x="227.0091" y="-42.4" font-family="sans-serif" font-weight="bold" font-size="14.00" fill="#000000">Legend</text>
<polygon fill="#ffffb3" stroke="transparent" points="14,-10 14,-30 34,-30 34,-10 14,-10"/>
<text text-anchor="start" x="37.629" y="-15.4" font-family="sans-serif" font-size="14.00" fill="#000000"> &#160;Declarations</text>
<polygon fill="#8dd3c7" stroke="transparent" points="127,-10 127,-30 147,-30 147,-10 127,-10"/>
<text text-anchor="start" x="150.7251" y="-15.4" font-family="sans-serif" font-size="14.00" fill="#000000"> &#160;Module</text>
<polygon fill="#80b1d3" stroke="transparent" points="213,-10 213,-30 233,-30 233,-10 213,-10"/>
<text text-anchor="start" x="236.7812" y="-15.4" font-family="sans-serif" font-size="14.00" fill="#000000"> &#160;Bootstrap</text>
<polygon fill="#fdb462" stroke="transparent" points="310,-10 310,-30 330,-30 330,-10 310,-10"/>
<text text-anchor="start" x="333.6732" y="-15.4" font-family="sans-serif" font-size="14.00" fill="#000000"> &#160;Providers</text>
<polygon fill="#fb8072" stroke="transparent" points="406,-10 406,-30 426,-30 426,-10 406,-10"/>
<text text-anchor="start" x="429.7258" y="-15.4" font-family="sans-serif" font-size="14.00" fill="#000000"> &#160;Exports</text>
<g id="clust1" class="cluster">
<title>cluster_HomebuttonModule</title>
<polygon fill="none" stroke="#000000" stroke-dasharray="1,5" points="28.5,-70 28.5,-268 467.5,-268 467.5,-70 28.5,-70"/>
</g>
<g id="clust2" class="cluster">
<title>cluster_HomebuttonModule_declarations</title>
<polygon fill="none" stroke="#000000" points="291.5,-78 291.5,-130 459.5,-130 459.5,-78 291.5,-78"/>
</g>
<g id="clust4" class="cluster">
<title>cluster_HomebuttonModule_imports</title>
<polygon fill="none" stroke="#000000" points="36.5,-78 36.5,-130 283.5,-130 283.5,-78 36.5,-78"/>
</g>
<g id="clust5" class="cluster">
<title>cluster_HomebuttonModule_exports</title>
<polygon fill="none" stroke="#000000" points="126.5,-208 126.5,-260 296.5,-260 296.5,-208 126.5,-208"/>
</g>
<!-- HomebuttonComponent -->
<g id="node1" class="node">
<title>HomebuttonComponent</title>
<polygon fill="#ffffb3" stroke="#000000" points="451.3258,-122 299.6742,-122 299.6742,-86 451.3258,-86 451.3258,-122"/>
<text text-anchor="middle" x="375.5" y="-99.8" font-family="Times,serif" font-size="14.00" fill="#000000">HomebuttonComponent</text>
</g>
<!-- HomebuttonModule -->
<g id="node2" class="node">
<title>HomebuttonModule</title>
<polygon fill="#8dd3c7" stroke="#000000" points="276.0436,-187 273.0436,-191 252.0436,-191 249.0436,-187 146.9564,-187 146.9564,-151 276.0436,-151 276.0436,-187"/>
<text text-anchor="middle" x="211.5" y="-164.8" font-family="Times,serif" font-size="14.00" fill="#000000">HomebuttonModule</text>
</g>
<!-- HomebuttonComponent&#45;&gt;HomebuttonModule -->
<g id="edge1" class="edge">
<title>HomebuttonComponent&#45;&gt;HomebuttonModule</title>
<path fill="none" stroke="#000000" d="M375.5,-122.1061C375.5,-141.3391 375.5,-169 375.5,-169 375.5,-169 286.3171,-169 286.3171,-169"/>
<polygon fill="#000000" stroke="#000000" points="286.3172,-165.5001 276.3171,-169 286.3171,-172.5001 286.3172,-165.5001"/>
</g>
<!-- HomebuttonComponent  -->
<g id="node5" class="node">
<title>HomebuttonComponent </title>
<polygon fill="#fb8072" stroke="#000000" points="288.8255,-252 134.1745,-252 134.1745,-216 288.8255,-216 288.8255,-252"/>
<text text-anchor="middle" x="211.5" y="-229.8" font-family="Times,serif" font-size="14.00" fill="#000000">HomebuttonComponent </text>
</g>
<!-- HomebuttonModule&#45;&gt;HomebuttonComponent  -->
<g id="edge4" class="edge">
<title>HomebuttonModule&#45;&gt;HomebuttonComponent </title>
<path fill="none" stroke="#000000" stroke-dasharray="5,2" d="M211.5,-187.1061C211.5,-187.1061 211.5,-205.991 211.5,-205.991"/>
<polygon fill="#000000" stroke="#000000" points="208.0001,-205.9909 211.5,-215.991 215.0001,-205.991 208.0001,-205.9909"/>
</g>
<!-- AppRoutingModule -->
<g id="node3" class="node">
<title>AppRoutingModule</title>
<polygon fill="#8dd3c7" stroke="#000000" points="275.7744,-122 272.7744,-126 251.7744,-126 248.7744,-122 147.2256,-122 147.2256,-86 275.7744,-86 275.7744,-122"/>
<text text-anchor="middle" x="211.5" y="-99.8" font-family="Times,serif" font-size="14.00" fill="#000000">AppRoutingModule</text>
</g>
<!-- AppRoutingModule&#45;&gt;HomebuttonModule -->
<g id="edge2" class="edge">
<title>AppRoutingModule&#45;&gt;HomebuttonModule</title>
<path fill="none" stroke="#000000" d="M211.5,-122.1061C211.5,-122.1061 211.5,-140.991 211.5,-140.991"/>
<polygon fill="#000000" stroke="#000000" points="208.0001,-140.9909 211.5,-150.991 215.0001,-140.991 208.0001,-140.9909"/>
</g>
<!-- IconModule -->
<g id="node4" class="node">
<title>IconModule</title>
<polygon fill="#8dd3c7" stroke="#000000" points="128.9261,-122 125.9261,-126 104.9261,-126 101.9261,-122 44.0739,-122 44.0739,-86 128.9261,-86 128.9261,-122"/>
<text text-anchor="middle" x="86.5" y="-99.8" font-family="Times,serif" font-size="14.00" fill="#000000">IconModule</text>
</g>
<!-- IconModule&#45;&gt;HomebuttonModule -->
<g id="edge3" class="edge">
<title>IconModule&#45;&gt;HomebuttonModule</title>
<path fill="none" stroke="#000000" d="M86.5,-122.1061C86.5,-141.3391 86.5,-169 86.5,-169 86.5,-169 136.8031,-169 136.8031,-169"/>
<polygon fill="#000000" stroke="#000000" points="136.8032,-172.5001 146.8031,-169 136.8031,-165.5001 136.8032,-172.5001"/>
</g>
</g>
</svg>
