<?xml version="1.0" encoding="UTF-8" standalone="no"?>
<!DOCTYPE svg PUBLIC "-//W3C//DTD SVG 1.1//EN"
 "http://www.w3.org/Graphics/SVG/1.1/DTD/svg11.dtd">
<!-- Generated by graphviz version 2.40.1 (20161225.0304)
 -->
<!-- Title: dependencies Pages: 1 -->
<svg width="1248pt" height="211pt"
 viewBox="0.00 0.00 1248.00 211.00" xmlns="http://www.w3.org/2000/svg" xmlns:xlink="http://www.w3.org/1999/xlink">
<g id="graph0" class="graph" transform="scale(1 1) rotate(0) translate(4 207)">
<title>dependencies</title>
<polygon fill="#ffffff" stroke="transparent" points="-4,4 -4,-207 1244,-207 1244,4 -4,4"/>
<text text-anchor="start" x="599.0091" y="-42.4" font-family="sans-serif" font-weight="bold" font-size="14.00" fill="#000000">Legend</text>
<polygon fill="#ffffb3" stroke="transparent" points="386,-10 386,-30 406,-30 406,-10 386,-10"/>
<text text-anchor="start" x="409.629" y="-15.4" font-family="sans-serif" font-size="14.00" fill="#000000"> &#160;Declarations</text>
<polygon fill="#8dd3c7" stroke="transparent" points="499,-10 499,-30 519,-30 519,-10 499,-10"/>
<text text-anchor="start" x="522.7251" y="-15.4" font-family="sans-serif" font-size="14.00" fill="#000000"> &#160;Module</text>
<polygon fill="#80b1d3" stroke="transparent" points="585,-10 585,-30 605,-30 605,-10 585,-10"/>
<text text-anchor="start" x="608.7812" y="-15.4" font-family="sans-serif" font-size="14.00" fill="#000000"> &#160;Bootstrap</text>
<polygon fill="#fdb462" stroke="transparent" points="682,-10 682,-30 702,-30 702,-10 682,-10"/>
<text text-anchor="start" x="705.6732" y="-15.4" font-family="sans-serif" font-size="14.00" fill="#000000"> &#160;Providers</text>
<polygon fill="#fb8072" stroke="transparent" points="778,-10 778,-30 798,-30 798,-10 778,-10"/>
<text text-anchor="start" x="801.7258" y="-15.4" font-family="sans-serif" font-size="14.00" fill="#000000"> &#160;Exports</text>
<g id="clust1" class="cluster">
<title>cluster_StyleguideModule</title>
<polygon fill="none" stroke="#000000" stroke-dasharray="1,5" points="8,-70 8,-195 1232,-195 1232,-70 8,-70"/>
</g>
<g id="clust2" class="cluster">
<title>cluster_StyleguideModule_declarations</title>
<polygon fill="none" stroke="#000000" points="1066,-78 1066,-130 1224,-130 1224,-78 1066,-78"/>
</g>
<g id="clust4" class="cluster">
<title>cluster_StyleguideModule_imports</title>
<polygon fill="none" stroke="#000000" points="16,-78 16,-130 1058,-130 1058,-78 16,-78"/>
</g>
<!-- StyleguideComponent -->
<g id="node1" class="node">
<title>StyleguideComponent</title>
<polygon fill="#ffffb3" stroke="#000000" points="1215.7162,-122 1074.2838,-122 1074.2838,-86 1215.7162,-86 1215.7162,-122"/>
<text text-anchor="middle" x="1145" y="-99.8" font-family="Times,serif" font-size="14.00" fill="#000000">StyleguideComponent</text>
</g>
<!-- StyleguideModule -->
<g id="node2" class="node">
<title>StyleguideModule</title>
<polygon fill="#8dd3c7" stroke="#000000" points="641.9342,-187 638.9342,-191 617.9342,-191 614.9342,-187 522.0658,-187 522.0658,-151 641.9342,-151 641.9342,-187"/>
<text text-anchor="middle" x="582" y="-164.8" font-family="Times,serif" font-size="14.00" fill="#000000">StyleguideModule</text>
</g>
<!-- StyleguideComponent&#45;&gt;StyleguideModule -->
<g id="edge1" class="edge">
<title>StyleguideComponent&#45;&gt;StyleguideModule</title>
<path fill="none" stroke="#000000" d="M1145,-122.2921C1145,-144.2057 1145,-178 1145,-178 1145,-178 651.7179,-178 651.7179,-178"/>
<polygon fill="#000000" stroke="#000000" points="651.7179,-174.5001 641.7179,-178 651.7178,-181.5001 651.7179,-174.5001"/>
</g>
<!-- ContainerModule -->
<g id="node3" class="node">
<title>ContainerModule</title>
<polygon fill="#8dd3c7" stroke="#000000" points="1050.2577,-122 1047.2577,-126 1026.2577,-126 1023.2577,-122 935.7423,-122 935.7423,-86 1050.2577,-86 1050.2577,-122"/>
<text text-anchor="middle" x="993" y="-99.8" font-family="Times,serif" font-size="14.00" fill="#000000">ContainerModule</text>
</g>
<!-- ContainerModule&#45;&gt;StyleguideModule -->
<g id="edge2" class="edge">
<title>ContainerModule&#45;&gt;StyleguideModule</title>
<path fill="none" stroke="#000000" d="M993,-122.1061C993,-141.3391 993,-169 993,-169 993,-169 651.7629,-169 651.7629,-169"/>
<polygon fill="#000000" stroke="#000000" points="651.763,-165.5001 641.7629,-169 651.7629,-172.5001 651.763,-165.5001"/>
</g>
<!-- FormElementsModule -->
<g id="node4" class="node">
<title>FormElementsModule</title>
<polygon fill="#8dd3c7" stroke="#000000" points="917.9818,-122 914.9818,-126 893.9818,-126 890.9818,-122 776.0182,-122 776.0182,-86 917.9818,-86 917.9818,-122"/>
<text text-anchor="middle" x="847" y="-99.8" font-family="Times,serif" font-size="14.00" fill="#000000">FormElementsModule</text>
</g>
<!-- FormElementsModule&#45;&gt;StyleguideModule -->
<g id="edge3" class="edge">
<title>FormElementsModule&#45;&gt;StyleguideModule</title>
<path fill="none" stroke="#000000" d="M847,-122.027C847,-138.3976 847,-160 847,-160 847,-160 651.8016,-160 651.8016,-160"/>
<polygon fill="#000000" stroke="#000000" points="651.8016,-156.5001 641.8016,-160 651.8016,-163.5001 651.8016,-156.5001"/>
</g>
<!-- HeadlinesModule -->
<g id="node5" class="node">
<title>HeadlinesModule</title>
<polygon fill="#8dd3c7" stroke="#000000" points="757.527,-122 754.527,-126 733.527,-126 730.527,-122 642.473,-122 642.473,-86 757.527,-86 757.527,-122"/>
<text text-anchor="middle" x="700" y="-99.8" font-family="Times,serif" font-size="14.00" fill="#000000">HeadlinesModule</text>
</g>
<!-- HeadlinesModule&#45;&gt;StyleguideModule -->
<g id="edge4" class="edge">
<title>HeadlinesModule&#45;&gt;StyleguideModule</title>
<path fill="none" stroke="#000000" d="M642.2856,-104C636.647,-104 632.9646,-104 632.9646,-104 632.9646,-104 632.9646,-140.8939 632.9646,-140.8939"/>
<polygon fill="#000000" stroke="#000000" points="629.4647,-140.8938 632.9646,-150.8939 636.4647,-140.8939 629.4647,-140.8938"/>
</g>
<!-- IconModule -->
<g id="node6" class="node">
<title>IconModule</title>
<polygon fill="#8dd3c7" stroke="#000000" points="624.4261,-122 621.4261,-126 600.4261,-126 597.4261,-122 539.5739,-122 539.5739,-86 624.4261,-86 624.4261,-122"/>
<text text-anchor="middle" x="582" y="-99.8" font-family="Times,serif" font-size="14.00" fill="#000000">IconModule</text>
</g>
<!-- IconModule&#45;&gt;StyleguideModule -->
<g id="edge5" class="edge">
<title>IconModule&#45;&gt;StyleguideModule</title>
<path fill="none" stroke="#000000" d="M582,-122.1061C582,-122.1061 582,-140.991 582,-140.991"/>
<polygon fill="#000000" stroke="#000000" points="578.5001,-140.9909 582,-150.991 585.5001,-140.991 578.5001,-140.9909"/>
</g>
<!-- ListModule -->
<g id="node7" class="node">
<title>ListModule</title>
<polygon fill="#8dd3c7" stroke="#000000" points="521.8289,-122 518.8289,-126 497.8289,-126 494.8289,-122 440.1711,-122 440.1711,-86 521.8289,-86 521.8289,-122"/>
<text text-anchor="middle" x="481" y="-99.8" font-family="Times,serif" font-size="14.00" fill="#000000">ListModule</text>
</g>
<!-- ListModule&#45;&gt;StyleguideModule -->
<g id="edge6" class="edge">
<title>ListModule&#45;&gt;StyleguideModule</title>
<path fill="none" stroke="#000000" d="M521.8581,-104C527.2943,-104 531.0354,-104 531.0354,-104 531.0354,-104 531.0354,-140.8939 531.0354,-140.8939"/>
<polygon fill="#000000" stroke="#000000" points="527.5355,-140.8938 531.0354,-150.8939 534.5355,-140.8939 527.5355,-140.8938"/>
</g>
<!-- NavigationModule -->
<g id="node8" class="node">
<title>NavigationModule</title>
<polygon fill="#8dd3c7" stroke="#000000" points="421.7576,-122 418.7576,-126 397.7576,-126 394.7576,-122 300.2424,-122 300.2424,-86 421.7576,-86 421.7576,-122"/>
<text text-anchor="middle" x="361" y="-99.8" font-family="Times,serif" font-size="14.00" fill="#000000">NavigationModule</text>
</g>
<!-- NavigationModule&#45;&gt;StyleguideModule -->
<g id="edge7" class="edge">
<title>NavigationModule&#45;&gt;StyleguideModule</title>
<path fill="none" stroke="#000000" d="M361,-122.027C361,-138.3976 361,-160 361,-160 361,-160 512.1942,-160 512.1942,-160"/>
<polygon fill="#000000" stroke="#000000" points="512.1943,-163.5001 522.1942,-160 512.1942,-156.5001 512.1943,-163.5001"/>
</g>
<!-- SharedModule -->
<g id="node9" class="node">
<title>SharedModule</title>
<polygon fill="#8dd3c7" stroke="#000000" points="282.4231,-122 279.4231,-126 258.4231,-126 255.4231,-122 183.5769,-122 183.5769,-86 282.4231,-86 282.4231,-122"/>
<text text-anchor="middle" x="233" y="-99.8" font-family="Times,serif" font-size="14.00" fill="#000000">SharedModule</text>
</g>
<!-- SharedModule&#45;&gt;StyleguideModule -->
<g id="edge8" class="edge">
<title>SharedModule&#45;&gt;StyleguideModule</title>
<path fill="none" stroke="#000000" d="M233,-122.1061C233,-141.3391 233,-169 233,-169 233,-169 512.0048,-169 512.0048,-169"/>
<polygon fill="#000000" stroke="#000000" points="512.0048,-172.5001 522.0048,-169 512.0047,-165.5001 512.0048,-172.5001"/>
</g>
<!-- TravelPreviewModule -->
<g id="node10" class="node">
<title>TravelPreviewModule</title>
<polygon fill="#8dd3c7" stroke="#000000" points="165.9524,-122 162.9524,-126 141.9524,-126 138.9524,-122 24.0476,-122 24.0476,-86 165.9524,-86 165.9524,-122"/>
<text text-anchor="middle" x="95" y="-99.8" font-family="Times,serif" font-size="14.00" fill="#000000">TravelPreviewModule</text>
</g>
<!-- TravelPreviewModule&#45;&gt;StyleguideModule -->
<g id="edge9" class="edge">
<title>TravelPreviewModule&#45;&gt;StyleguideModule</title>
<path fill="none" stroke="#000000" d="M95,-122.2921C95,-144.2057 95,-178 95,-178 95,-178 511.7958,-178 511.7958,-178"/>
<polygon fill="#000000" stroke="#000000" points="511.7958,-181.5001 521.7958,-178 511.7958,-174.5001 511.7958,-181.5001"/>
</g>
</g>
</svg>
