<?xml version="1.0" encoding="UTF-8" standalone="no"?>
<!DOCTYPE svg PUBLIC "-//W3C//DTD SVG 1.1//EN"
 "http://www.w3.org/Graphics/SVG/1.1/DTD/svg11.dtd">
<!-- Generated by graphviz version 2.40.1 (20161225.0304)
 -->
<!-- Title: dependencies Pages: 1 -->
<svg width="1440pt" height="211pt"
 viewBox="0.00 0.00 1440.00 211.00" xmlns="http://www.w3.org/2000/svg" xmlns:xlink="http://www.w3.org/1999/xlink">
<g id="graph0" class="graph" transform="scale(1 1) rotate(0) translate(4 207)">
<title>dependencies</title>
<polygon fill="#ffffff" stroke="transparent" points="-4,4 -4,-207 1436,-207 1436,4 -4,4"/>
<text text-anchor="start" x="695.0091" y="-42.4" font-family="sans-serif" font-weight="bold" font-size="14.00" fill="#000000">Legend</text>
<polygon fill="#ffffb3" stroke="transparent" points="482,-10 482,-30 502,-30 502,-10 482,-10"/>
<text text-anchor="start" x="505.629" y="-15.4" font-family="sans-serif" font-size="14.00" fill="#000000"> &#160;Declarations</text>
<polygon fill="#8dd3c7" stroke="transparent" points="595,-10 595,-30 615,-30 615,-10 595,-10"/>
<text text-anchor="start" x="618.7251" y="-15.4" font-family="sans-serif" font-size="14.00" fill="#000000"> &#160;Module</text>
<polygon fill="#80b1d3" stroke="transparent" points="681,-10 681,-30 701,-30 701,-10 681,-10"/>
<text text-anchor="start" x="704.7812" y="-15.4" font-family="sans-serif" font-size="14.00" fill="#000000"> &#160;Bootstrap</text>
<polygon fill="#fdb462" stroke="transparent" points="778,-10 778,-30 798,-30 798,-10 778,-10"/>
<text text-anchor="start" x="801.6732" y="-15.4" font-family="sans-serif" font-size="14.00" fill="#000000"> &#160;Providers</text>
<polygon fill="#fb8072" stroke="transparent" points="874,-10 874,-30 894,-30 894,-10 874,-10"/>
<text text-anchor="start" x="897.7258" y="-15.4" font-family="sans-serif" font-size="14.00" fill="#000000"> &#160;Exports</text>
<g id="clust1" class="cluster">
<title>cluster_StyleguideModule</title>
<polygon fill="none" stroke="#000000" stroke-dasharray="1,5" points="8,-70 8,-195 1424,-195 1424,-70 8,-70"/>
</g>
<g id="clust2" class="cluster">
<title>cluster_StyleguideModule_declarations</title>
<polygon fill="none" stroke="#000000" points="1258,-78 1258,-130 1416,-130 1416,-78 1258,-78"/>
</g>
<g id="clust4" class="cluster">
<title>cluster_StyleguideModule_imports</title>
<polygon fill="none" stroke="#000000" points="16,-78 16,-130 1250,-130 1250,-78 16,-78"/>
</g>
<!-- StyleguideComponent -->
<g id="node1" class="node">
<title>StyleguideComponent</title>
<polygon fill="#ffffb3" stroke="#000000" points="1407.7162,-122 1266.2838,-122 1266.2838,-86 1407.7162,-86 1407.7162,-122"/>
<text text-anchor="middle" x="1337" y="-99.8" font-family="Times,serif" font-size="14.00" fill="#000000">StyleguideComponent</text>
</g>
<!-- StyleguideModule -->
<g id="node2" class="node">
<title>StyleguideModule</title>
<polygon fill="#8dd3c7" stroke="#000000" points="722.9342,-187 719.9342,-191 698.9342,-191 695.9342,-187 603.0658,-187 603.0658,-151 722.9342,-151 722.9342,-187"/>
<text text-anchor="middle" x="663" y="-164.8" font-family="Times,serif" font-size="14.00" fill="#000000">StyleguideModule</text>
</g>
<!-- StyleguideComponent&#45;&gt;StyleguideModule -->
<g id="edge1" class="edge">
<title>StyleguideComponent&#45;&gt;StyleguideModule</title>
<path fill="none" stroke="#000000" d="M1337,-122.0109C1337,-144.4852 1337,-180 1337,-180 1337,-180 732.813,-180 732.813,-180"/>
<polygon fill="#000000" stroke="#000000" points="732.813,-176.5001 722.813,-180 732.813,-183.5001 732.813,-176.5001"/>
</g>
<!-- ContainerModule -->
<g id="node3" class="node">
<title>ContainerModule</title>
<polygon fill="#8dd3c7" stroke="#000000" points="1242.2577,-122 1239.2577,-126 1218.2577,-126 1215.2577,-122 1127.7423,-122 1127.7423,-86 1242.2577,-86 1242.2577,-122"/>
<text text-anchor="middle" x="1185" y="-99.8" font-family="Times,serif" font-size="14.00" fill="#000000">ContainerModule</text>
</g>
<!-- ContainerModule&#45;&gt;StyleguideModule -->
<g id="edge2" class="edge">
<title>ContainerModule&#45;&gt;StyleguideModule</title>
<path fill="none" stroke="#000000" d="M1185,-122.1289C1185,-142.5724 1185,-173 1185,-173 1185,-173 732.88,-173 732.88,-173"/>
<polygon fill="#000000" stroke="#000000" points="732.8801,-169.5001 722.88,-173 732.88,-176.5001 732.8801,-169.5001"/>
</g>
<!-- CountryPreviewModule -->
<g id="node4" class="node">
<title>CountryPreviewModule</title>
<polygon fill="#8dd3c7" stroke="#000000" points="1109.8075,-122 1106.8075,-126 1085.8075,-126 1082.8075,-122 958.1925,-122 958.1925,-86 1109.8075,-86 1109.8075,-122"/>
<text text-anchor="middle" x="1034" y="-99.8" font-family="Times,serif" font-size="14.00" fill="#000000">CountryPreviewModule</text>
</g>
<!-- CountryPreviewModule&#45;&gt;StyleguideModule -->
<g id="edge3" class="edge">
<title>CountryPreviewModule&#45;&gt;StyleguideModule</title>
<path fill="none" stroke="#000000" d="M1034,-122.2667C1034,-140.5552 1034,-166 1034,-166 1034,-166 733.0199,-166 733.0199,-166"/>
<polygon fill="#000000" stroke="#000000" points="733.0199,-162.5001 723.0199,-166 733.0199,-169.5001 733.0199,-162.5001"/>
</g>
<!-- FormElementsModule -->
<g id="node5" class="node">
<title>FormElementsModule</title>
<polygon fill="#8dd3c7" stroke="#000000" points="939.9818,-122 936.9818,-126 915.9818,-126 912.9818,-122 798.0182,-122 798.0182,-86 939.9818,-86 939.9818,-122"/>
<text text-anchor="middle" x="869" y="-99.8" font-family="Times,serif" font-size="14.00" fill="#000000">FormElementsModule</text>
</g>
<!-- FormElementsModule&#45;&gt;StyleguideModule -->
<g id="edge4" class="edge">
<title>FormElementsModule&#45;&gt;StyleguideModule</title>
<path fill="none" stroke="#000000" d="M869,-122.0091C869,-138.0494 869,-159 869,-159 869,-159 732.8604,-159 732.8604,-159"/>
<polygon fill="#000000" stroke="#000000" points="732.8605,-155.5001 722.8604,-159 732.8604,-162.5001 732.8605,-155.5001"/>
</g>
<!-- HeadlinesModule -->
<g id="node6" class="node">
<title>HeadlinesModule</title>
<polygon fill="#8dd3c7" stroke="#000000" points="779.527,-122 776.527,-126 755.527,-126 752.527,-122 664.473,-122 664.473,-86 779.527,-86 779.527,-122"/>
<text text-anchor="middle" x="722" y="-99.8" font-family="Times,serif" font-size="14.00" fill="#000000">HeadlinesModule</text>
</g>
<!-- HeadlinesModule&#45;&gt;StyleguideModule -->
<g id="edge5" class="edge">
<title>HeadlinesModule&#45;&gt;StyleguideModule</title>
<path fill="none" stroke="#000000" d="M693.4769,-122.1061C693.4769,-122.1061 693.4769,-140.991 693.4769,-140.991"/>
<polygon fill="#000000" stroke="#000000" points="689.9769,-140.9909 693.4769,-150.991 696.9769,-140.991 689.9769,-140.9909"/>
</g>
<!-- IconModule -->
<g id="node7" class="node">
<title>IconModule</title>
<polygon fill="#8dd3c7" stroke="#000000" points="646.4261,-122 643.4261,-126 622.4261,-126 619.4261,-122 561.5739,-122 561.5739,-86 646.4261,-86 646.4261,-122"/>
<text text-anchor="middle" x="604" y="-99.8" font-family="Times,serif" font-size="14.00" fill="#000000">IconModule</text>
</g>
<!-- IconModule&#45;&gt;StyleguideModule -->
<g id="edge6" class="edge">
<title>IconModule&#45;&gt;StyleguideModule</title>
<path fill="none" stroke="#000000" d="M624.7479,-122.1061C624.7479,-122.1061 624.7479,-140.991 624.7479,-140.991"/>
<polygon fill="#000000" stroke="#000000" points="621.248,-140.9909 624.7479,-150.991 628.248,-140.991 621.248,-140.9909"/>
</g>
<!-- ListModule -->
<g id="node8" class="node">
<title>ListModule</title>
<polygon fill="#8dd3c7" stroke="#000000" points="543.8289,-122 540.8289,-126 519.8289,-126 516.8289,-122 462.1711,-122 462.1711,-86 543.8289,-86 543.8289,-122"/>
<text text-anchor="middle" x="503" y="-99.8" font-family="Times,serif" font-size="14.00" fill="#000000">ListModule</text>
</g>
<!-- ListModule&#45;&gt;StyleguideModule -->
<g id="edge7" class="edge">
<title>ListModule&#45;&gt;StyleguideModule</title>
<path fill="none" stroke="#000000" d="M503,-122.0091C503,-138.0494 503,-159 503,-159 503,-159 592.9667,-159 592.9667,-159"/>
<polygon fill="#000000" stroke="#000000" points="592.9667,-162.5001 602.9667,-159 592.9667,-155.5001 592.9667,-162.5001"/>
</g>
<!-- NavigationModule -->
<g id="node9" class="node">
<title>NavigationModule</title>
<polygon fill="#8dd3c7" stroke="#000000" points="443.7576,-122 440.7576,-126 419.7576,-126 416.7576,-122 322.2424,-122 322.2424,-86 443.7576,-86 443.7576,-122"/>
<text text-anchor="middle" x="383" y="-99.8" font-family="Times,serif" font-size="14.00" fill="#000000">NavigationModule</text>
</g>
<!-- NavigationModule&#45;&gt;StyleguideModule -->
<g id="edge8" class="edge">
<title>NavigationModule&#45;&gt;StyleguideModule</title>
<path fill="none" stroke="#000000" d="M383,-122.2667C383,-140.5552 383,-166 383,-166 383,-166 593.2764,-166 593.2764,-166"/>
<polygon fill="#000000" stroke="#000000" points="593.2764,-169.5001 603.2764,-166 593.2764,-162.5001 593.2764,-169.5001"/>
</g>
<!-- NewsletterModule -->
<g id="node10" class="node">
<title>NewsletterModule</title>
<polygon fill="#8dd3c7" stroke="#000000" points="304.1839,-122 301.1839,-126 280.1839,-126 277.1839,-122 183.8161,-122 183.8161,-86 304.1839,-86 304.1839,-122"/>
<text text-anchor="middle" x="244" y="-99.8" font-family="Times,serif" font-size="14.00" fill="#000000">NewsletterModule</text>
</g>
<!-- NewsletterModule&#45;&gt;StyleguideModule -->
<g id="edge9" class="edge">
<title>NewsletterModule&#45;&gt;StyleguideModule</title>
<path fill="none" stroke="#000000" d="M244,-122.1289C244,-142.5724 244,-173 244,-173 244,-173 592.9675,-173 592.9675,-173"/>
<polygon fill="#000000" stroke="#000000" points="592.9676,-176.5001 602.9675,-173 592.9675,-169.5001 592.9676,-176.5001"/>
</g>
<!-- TravelPreviewModule -->
<g id="node11" class="node">
<title>TravelPreviewModule</title>
<polygon fill="#8dd3c7" stroke="#000000" points="165.9524,-122 162.9524,-126 141.9524,-126 138.9524,-122 24.0476,-122 24.0476,-86 165.9524,-86 165.9524,-122"/>
<text text-anchor="middle" x="95" y="-99.8" font-family="Times,serif" font-size="14.00" fill="#000000">TravelPreviewModule</text>
</g>
<!-- TravelPreviewModule&#45;&gt;StyleguideModule -->
<g id="edge10" class="edge">
<title>TravelPreviewModule&#45;&gt;StyleguideModule</title>
<path fill="none" stroke="#000000" d="M95,-122.0109C95,-144.4852 95,-180 95,-180 95,-180 593.0199,-180 593.0199,-180"/>
<polygon fill="#000000" stroke="#000000" points="593.02,-183.5001 603.0199,-180 593.0199,-176.5001 593.02,-183.5001"/>
</g>
</g>
</svg>
