<?xml version="1.0" encoding="UTF-8" standalone="no"?>
<!DOCTYPE svg PUBLIC "-//W3C//DTD SVG 1.1//EN"
 "http://www.w3.org/Graphics/SVG/1.1/DTD/svg11.dtd">
<!-- Generated by graphviz version 2.40.1 (20161225.0304)
 -->
<!-- Title: dependencies Pages: 1 -->
<svg width="590pt" height="211pt"
 viewBox="0.00 0.00 590.00 211.00" xmlns="http://www.w3.org/2000/svg" xmlns:xlink="http://www.w3.org/1999/xlink">
<g id="graph0" class="graph" transform="scale(1 1) rotate(0) translate(4 207)">
<title>dependencies</title>
<polygon fill="#ffffff" stroke="transparent" points="-4,4 -4,-207 586,-207 586,4 -4,4"/>
<text text-anchor="start" x="270.0091" y="-42.4" font-family="sans-serif" font-weight="bold" font-size="14.00" fill="#000000">Legend</text>
<polygon fill="#ffffb3" stroke="transparent" points="57,-10 57,-30 77,-30 77,-10 57,-10"/>
<text text-anchor="start" x="80.629" y="-15.4" font-family="sans-serif" font-size="14.00" fill="#000000"> &#160;Declarations</text>
<polygon fill="#8dd3c7" stroke="transparent" points="170,-10 170,-30 190,-30 190,-10 170,-10"/>
<text text-anchor="start" x="193.7251" y="-15.4" font-family="sans-serif" font-size="14.00" fill="#000000"> &#160;Module</text>
<polygon fill="#80b1d3" stroke="transparent" points="256,-10 256,-30 276,-30 276,-10 256,-10"/>
<text text-anchor="start" x="279.7812" y="-15.4" font-family="sans-serif" font-size="14.00" fill="#000000"> &#160;Bootstrap</text>
<polygon fill="#fdb462" stroke="transparent" points="353,-10 353,-30 373,-30 373,-10 353,-10"/>
<text text-anchor="start" x="376.6732" y="-15.4" font-family="sans-serif" font-size="14.00" fill="#000000"> &#160;Providers</text>
<polygon fill="#fb8072" stroke="transparent" points="449,-10 449,-30 469,-30 469,-10 449,-10"/>
<text text-anchor="start" x="472.7258" y="-15.4" font-family="sans-serif" font-size="14.00" fill="#000000"> &#160;Exports</text>
<g id="clust1" class="cluster">
<title>cluster_SignInModule</title>
<polygon fill="none" stroke="#000000" stroke-dasharray="1,5" points="8,-70 8,-195 574,-195 574,-70 8,-70"/>
</g>
<g id="clust2" class="cluster">
<title>cluster_SignInModule_declarations</title>
<polygon fill="none" stroke="#000000" points="432,-78 432,-130 566,-130 566,-78 432,-78"/>
</g>
<g id="clust4" class="cluster">
<title>cluster_SignInModule_imports</title>
<polygon fill="none" stroke="#000000" points="16,-78 16,-130 424,-130 424,-78 16,-78"/>
</g>
<!-- SignInComponent -->
<g id="node1" class="node">
<title>SignInComponent</title>
<polygon fill="#ffffb3" stroke="#000000" points="558.1667,-122 439.8333,-122 439.8333,-86 558.1667,-86 558.1667,-122"/>
<text text-anchor="middle" x="499" y="-99.8" font-family="Times,serif" font-size="14.00" fill="#000000">SignInComponent</text>
</g>
<!-- SignInModule -->
<g id="node2" class="node">
<title>SignInModule</title>
<polygon fill="#8dd3c7" stroke="#000000" points="319.3837,-187 316.3837,-191 295.3837,-191 292.3837,-187 222.6163,-187 222.6163,-151 319.3837,-151 319.3837,-187"/>
<text text-anchor="middle" x="271" y="-164.8" font-family="Times,serif" font-size="14.00" fill="#000000">SignInModule</text>
</g>
<!-- SignInComponent&#45;&gt;SignInModule -->
<g id="edge1" class="edge">
<title>SignInComponent&#45;&gt;SignInModule</title>
<path fill="none" stroke="#000000" d="M499,-122.1061C499,-141.3391 499,-169 499,-169 499,-169 329.6321,-169 329.6321,-169"/>
<polygon fill="#000000" stroke="#000000" points="329.6321,-165.5001 319.6321,-169 329.632,-172.5001 329.6321,-165.5001"/>
</g>
<!-- FormElementsModule -->
<g id="node3" class="node">
<title>FormElementsModule</title>
<polygon fill="#8dd3c7" stroke="#000000" points="415.9818,-122 412.9818,-126 391.9818,-126 388.9818,-122 274.0182,-122 274.0182,-86 415.9818,-86 415.9818,-122"/>
<text text-anchor="middle" x="345" y="-99.8" font-family="Times,serif" font-size="14.00" fill="#000000">FormElementsModule</text>
</g>
<!-- FormElementsModule&#45;&gt;SignInModule -->
<g id="edge2" class="edge">
<title>FormElementsModule&#45;&gt;SignInModule</title>
<path fill="none" stroke="#000000" d="M296.7255,-122.1061C296.7255,-122.1061 296.7255,-140.991 296.7255,-140.991"/>
<polygon fill="#000000" stroke="#000000" points="293.2255,-140.9909 296.7255,-150.991 300.2255,-140.991 293.2255,-140.9909"/>
</g>
<!-- HeadlinesModule -->
<g id="node4" class="node">
<title>HeadlinesModule</title>
<polygon fill="#8dd3c7" stroke="#000000" points="255.527,-122 252.527,-126 231.527,-126 228.527,-122 140.473,-122 140.473,-86 255.527,-86 255.527,-122"/>
<text text-anchor="middle" x="198" y="-99.8" font-family="Times,serif" font-size="14.00" fill="#000000">HeadlinesModule</text>
</g>
<!-- HeadlinesModule&#45;&gt;SignInModule -->
<g id="edge3" class="edge">
<title>HeadlinesModule&#45;&gt;SignInModule</title>
<path fill="none" stroke="#000000" d="M239.1606,-122.1061C239.1606,-122.1061 239.1606,-140.991 239.1606,-140.991"/>
<polygon fill="#000000" stroke="#000000" points="235.6607,-140.9909 239.1606,-150.991 242.6607,-140.991 235.6607,-140.9909"/>
</g>
<!-- SharedModule -->
<g id="node5" class="node">
<title>SharedModule</title>
<polygon fill="#8dd3c7" stroke="#000000" points="122.4231,-122 119.4231,-126 98.4231,-126 95.4231,-122 23.5769,-122 23.5769,-86 122.4231,-86 122.4231,-122"/>
<text text-anchor="middle" x="73" y="-99.8" font-family="Times,serif" font-size="14.00" fill="#000000">SharedModule</text>
</g>
<!-- SharedModule&#45;&gt;SignInModule -->
<g id="edge4" class="edge">
<title>SharedModule&#45;&gt;SignInModule</title>
<path fill="none" stroke="#000000" d="M73,-122.1061C73,-141.3391 73,-169 73,-169 73,-169 212.5638,-169 212.5638,-169"/>
<polygon fill="#000000" stroke="#000000" points="212.5638,-172.5001 222.5638,-169 212.5637,-165.5001 212.5638,-172.5001"/>
</g>
</g>
</svg>
