<?xml version="1.0" encoding="UTF-8" standalone="no"?>
<!DOCTYPE svg PUBLIC "-//W3C//DTD SVG 1.1//EN"
 "http://www.w3.org/Graphics/SVG/1.1/DTD/svg11.dtd">
<!-- Generated by graphviz version 2.40.1 (20161225.0304)
 -->
<!-- Title: dependencies Pages: 1 -->
<svg width="504pt" height="284pt"
 viewBox="0.00 0.00 504.00 284.00" xmlns="http://www.w3.org/2000/svg" xmlns:xlink="http://www.w3.org/1999/xlink">
<g id="graph0" class="graph" transform="scale(1 1) rotate(0) translate(4 280)">
<title>dependencies</title>
<polygon fill="#ffffff" stroke="transparent" points="-4,4 -4,-280 500,-280 500,4 -4,4"/>
<text text-anchor="start" x="227.0091" y="-42.4" font-family="sans-serif" font-weight="bold" font-size="14.00" fill="#000000">Legend</text>
<polygon fill="#ffffb3" stroke="transparent" points="14,-10 14,-30 34,-30 34,-10 14,-10"/>
<text text-anchor="start" x="37.629" y="-15.4" font-family="sans-serif" font-size="14.00" fill="#000000"> &#160;Declarations</text>
<polygon fill="#8dd3c7" stroke="transparent" points="127,-10 127,-30 147,-30 147,-10 127,-10"/>
<text text-anchor="start" x="150.7251" y="-15.4" font-family="sans-serif" font-size="14.00" fill="#000000"> &#160;Module</text>
<polygon fill="#80b1d3" stroke="transparent" points="213,-10 213,-30 233,-30 233,-10 213,-10"/>
<text text-anchor="start" x="236.7812" y="-15.4" font-family="sans-serif" font-size="14.00" fill="#000000"> &#160;Bootstrap</text>
<polygon fill="#fdb462" stroke="transparent" points="310,-10 310,-30 330,-30 330,-10 310,-10"/>
<text text-anchor="start" x="333.6732" y="-15.4" font-family="sans-serif" font-size="14.00" fill="#000000"> &#160;Providers</text>
<polygon fill="#fb8072" stroke="transparent" points="406,-10 406,-30 426,-30 426,-10 406,-10"/>
<text text-anchor="start" x="429.7258" y="-15.4" font-family="sans-serif" font-size="14.00" fill="#000000"> &#160;Exports</text>
<g id="clust1" class="cluster">
<title>cluster_NewsletterModule</title>
<polygon fill="none" stroke="#000000" stroke-dasharray="1,5" points="78,-70 78,-268 418,-268 418,-70 78,-70"/>
</g>
<g id="clust2" class="cluster">
<title>cluster_NewsletterModule_declarations</title>
<polygon fill="none" stroke="#000000" points="252,-78 252,-130 410,-130 410,-78 252,-78"/>
</g>
<g id="clust4" class="cluster">
<title>cluster_NewsletterModule_imports</title>
<polygon fill="none" stroke="#000000" points="86,-78 86,-130 244,-130 244,-78 86,-78"/>
</g>
<g id="clust5" class="cluster">
<title>cluster_NewsletterModule_exports</title>
<polygon fill="none" stroke="#000000" points="167,-208 167,-260 329,-260 329,-208 167,-208"/>
</g>
<!-- NewsletterComponent -->
<g id="node1" class="node">
<title>NewsletterComponent</title>
<polygon fill="#ffffb3" stroke="#000000" points="401.9664,-122 260.0336,-122 260.0336,-86 401.9664,-86 401.9664,-122"/>
<text text-anchor="middle" x="331" y="-99.8" font-family="Times,serif" font-size="14.00" fill="#000000">NewsletterComponent</text>
</g>
<!-- NewsletterModule -->
<g id="node2" class="node">
<title>NewsletterModule</title>
<polygon fill="#8dd3c7" stroke="#000000" points="308.1839,-187 305.1839,-191 284.1839,-191 281.1839,-187 187.8161,-187 187.8161,-151 308.1839,-151 308.1839,-187"/>
<text text-anchor="middle" x="248" y="-164.8" font-family="Times,serif" font-size="14.00" fill="#000000">NewsletterModule</text>
</g>
<!-- NewsletterComponent&#45;&gt;NewsletterModule -->
<g id="edge1" class="edge">
<title>NewsletterComponent&#45;&gt;NewsletterModule</title>
<path fill="none" stroke="#000000" d="M284.0544,-122.1061C284.0544,-122.1061 284.0544,-140.991 284.0544,-140.991"/>
<polygon fill="#000000" stroke="#000000" points="280.5544,-140.9909 284.0544,-150.991 287.5544,-140.991 280.5544,-140.9909"/>
</g>
<!-- NewsletterComponent  -->
<g id="node4" class="node">
<title>NewsletterComponent </title>
<polygon fill="#fb8072" stroke="#000000" points="320.9672,-252 175.0328,-252 175.0328,-216 320.9672,-216 320.9672,-252"/>
<text text-anchor="middle" x="248" y="-229.8" font-family="Times,serif" font-size="14.00" fill="#000000">NewsletterComponent </text>
</g>
<!-- NewsletterModule&#45;&gt;NewsletterComponent  -->
<g id="edge3" class="edge">
<title>NewsletterModule&#45;&gt;NewsletterComponent </title>
<path fill="none" stroke="#000000" stroke-dasharray="5,2" d="M248,-187.1061C248,-187.1061 248,-205.991 248,-205.991"/>
<polygon fill="#000000" stroke="#000000" points="244.5001,-205.9909 248,-215.991 251.5001,-205.991 244.5001,-205.9909"/>
</g>
<!-- FormElementsModule -->
<g id="node3" class="node">
<title>FormElementsModule</title>
<polygon fill="#8dd3c7" stroke="#000000" points="235.9818,-122 232.9818,-126 211.9818,-126 208.9818,-122 94.0182,-122 94.0182,-86 235.9818,-86 235.9818,-122"/>
<text text-anchor="middle" x="165" y="-99.8" font-family="Times,serif" font-size="14.00" fill="#000000">FormElementsModule</text>
</g>
<!-- FormElementsModule&#45;&gt;NewsletterModule -->
<g id="edge2" class="edge">
<title>FormElementsModule&#45;&gt;NewsletterModule</title>
<path fill="none" stroke="#000000" d="M211.9495,-122.1061C211.9495,-122.1061 211.9495,-140.991 211.9495,-140.991"/>
<polygon fill="#000000" stroke="#000000" points="208.4496,-140.9909 211.9495,-150.991 215.4496,-140.991 208.4496,-140.9909"/>
</g>
</g>
</svg>
