<?xml version="1.0" encoding="UTF-8" standalone="no"?>
<!DOCTYPE svg PUBLIC "-//W3C//DTD SVG 1.1//EN"
 "http://www.w3.org/Graphics/SVG/1.1/DTD/svg11.dtd">
<!-- Generated by graphviz version 2.40.1 (20161225.0304)
 -->
<!-- Title: dependencies Pages: 1 -->
<svg width="723pt" height="284pt"
 viewBox="0.00 0.00 723.00 284.00" xmlns="http://www.w3.org/2000/svg" xmlns:xlink="http://www.w3.org/1999/xlink">
<g id="graph0" class="graph" transform="scale(1 1) rotate(0) translate(4 280)">
<title>dependencies</title>
<polygon fill="#ffffff" stroke="transparent" points="-4,4 -4,-280 719,-280 719,4 -4,4"/>
<text text-anchor="start" x="336.5091" y="-42.4" font-family="sans-serif" font-weight="bold" font-size="14.00" fill="#000000">Legend</text>
<polygon fill="#ffffb3" stroke="transparent" points="123.5,-10 123.5,-30 143.5,-30 143.5,-10 123.5,-10"/>
<text text-anchor="start" x="147.129" y="-15.4" font-family="sans-serif" font-size="14.00" fill="#000000"> &#160;Declarations</text>
<polygon fill="#8dd3c7" stroke="transparent" points="236.5,-10 236.5,-30 256.5,-30 256.5,-10 236.5,-10"/>
<text text-anchor="start" x="260.2251" y="-15.4" font-family="sans-serif" font-size="14.00" fill="#000000"> &#160;Module</text>
<polygon fill="#80b1d3" stroke="transparent" points="322.5,-10 322.5,-30 342.5,-30 342.5,-10 322.5,-10"/>
<text text-anchor="start" x="346.2812" y="-15.4" font-family="sans-serif" font-size="14.00" fill="#000000"> &#160;Bootstrap</text>
<polygon fill="#fdb462" stroke="transparent" points="419.5,-10 419.5,-30 439.5,-30 439.5,-10 419.5,-10"/>
<text text-anchor="start" x="443.1732" y="-15.4" font-family="sans-serif" font-size="14.00" fill="#000000"> &#160;Providers</text>
<polygon fill="#fb8072" stroke="transparent" points="515.5,-10 515.5,-30 535.5,-30 535.5,-10 515.5,-10"/>
<text text-anchor="start" x="539.2258" y="-15.4" font-family="sans-serif" font-size="14.00" fill="#000000"> &#160;Exports</text>
<g id="clust1" class="cluster">
<title>cluster_BackendNavigationModule</title>
<polygon fill="none" stroke="#000000" stroke-dasharray="1,5" points="8,-70 8,-268 707,-268 707,-70 8,-70"/>
</g>
<g id="clust2" class="cluster">
<title>cluster_BackendNavigationModule_declarations</title>
<polygon fill="none" stroke="#000000" points="491,-78 491,-130 699,-130 699,-78 491,-78"/>
</g>
<g id="clust4" class="cluster">
<title>cluster_BackendNavigationModule_imports</title>
<polygon fill="none" stroke="#000000" points="16,-78 16,-130 483,-130 483,-78 16,-78"/>
</g>
<g id="clust5" class="cluster">
<title>cluster_BackendNavigationModule_exports</title>
<polygon fill="none" stroke="#000000" points="180,-208 180,-260 392,-260 392,-208 180,-208"/>
</g>
<!-- BackendNavigationComponent -->
<g id="node1" class="node">
<title>BackendNavigationComponent</title>
<polygon fill="#ffffb3" stroke="#000000" points="691.021,-122 498.979,-122 498.979,-86 691.021,-86 691.021,-122"/>
<text text-anchor="middle" x="595" y="-99.8" font-family="Times,serif" font-size="14.00" fill="#000000">BackendNavigationComponent</text>
</g>
<!-- BackendNavigationModule -->
<g id="node2" class="node">
<title>BackendNavigationModule</title>
<polygon fill="#8dd3c7" stroke="#000000" points="371.238,-187 368.238,-191 347.238,-191 344.238,-187 200.762,-187 200.762,-151 371.238,-151 371.238,-187"/>
<text text-anchor="middle" x="286" y="-164.8" font-family="Times,serif" font-size="14.00" fill="#000000">BackendNavigationModule</text>
</g>
<!-- BackendNavigationComponent&#45;&gt;BackendNavigationModule -->
<g id="edge1" class="edge">
<title>BackendNavigationComponent&#45;&gt;BackendNavigationModule</title>
<path fill="none" stroke="#000000" d="M595,-122.1061C595,-141.3391 595,-169 595,-169 595,-169 381.2536,-169 381.2536,-169"/>
<polygon fill="#000000" stroke="#000000" points="381.2536,-165.5001 371.2536,-169 381.2535,-172.5001 381.2536,-165.5001"/>
</g>
<!-- BackendNavigationComponent  -->
<g id="node7" class="node">
<title>BackendNavigationComponent </title>
<polygon fill="#fb8072" stroke="#000000" points="384.0204,-252 187.9796,-252 187.9796,-216 384.0204,-216 384.0204,-252"/>
<text text-anchor="middle" x="286" y="-229.8" font-family="Times,serif" font-size="14.00" fill="#000000">BackendNavigationComponent </text>
</g>
<!-- BackendNavigationModule&#45;&gt;BackendNavigationComponent  -->
<g id="edge6" class="edge">
<title>BackendNavigationModule&#45;&gt;BackendNavigationComponent </title>
<path fill="none" stroke="#000000" stroke-dasharray="5,2" d="M286,-187.1061C286,-187.1061 286,-205.991 286,-205.991"/>
<polygon fill="#000000" stroke="#000000" points="282.5001,-205.9909 286,-215.991 289.5001,-205.991 282.5001,-205.9909"/>
</g>
<!-- AppRoutingModule -->
<g id="node3" class="node">
<title>AppRoutingModule</title>
<polygon fill="#8dd3c7" stroke="#000000" points="475.2744,-122 472.2744,-126 451.2744,-126 448.2744,-122 346.7256,-122 346.7256,-86 475.2744,-86 475.2744,-122"/>
<text text-anchor="middle" x="411" y="-99.8" font-family="Times,serif" font-size="14.00" fill="#000000">AppRoutingModule</text>
</g>
<!-- AppRoutingModule&#45;&gt;BackendNavigationModule -->
<g id="edge2" class="edge">
<title>AppRoutingModule&#45;&gt;BackendNavigationModule</title>
<path fill="none" stroke="#000000" d="M358.9909,-122.1061C358.9909,-122.1061 358.9909,-140.991 358.9909,-140.991"/>
<polygon fill="#000000" stroke="#000000" points="355.491,-140.9909 358.9909,-150.991 362.491,-140.991 355.491,-140.9909"/>
</g>
<!-- IconModule -->
<g id="node4" class="node">
<title>IconModule</title>
<polygon fill="#8dd3c7" stroke="#000000" points="328.4261,-122 325.4261,-126 304.4261,-126 301.4261,-122 243.5739,-122 243.5739,-86 328.4261,-86 328.4261,-122"/>
<text text-anchor="middle" x="286" y="-99.8" font-family="Times,serif" font-size="14.00" fill="#000000">IconModule</text>
</g>
<!-- IconModule&#45;&gt;BackendNavigationModule -->
<g id="edge3" class="edge">
<title>IconModule&#45;&gt;BackendNavigationModule</title>
<path fill="none" stroke="#000000" d="M286,-122.1061C286,-122.1061 286,-140.991 286,-140.991"/>
<polygon fill="#000000" stroke="#000000" points="282.5001,-140.9909 286,-150.991 289.5001,-140.991 282.5001,-140.9909"/>
</g>
<!-- LinkModule -->
<g id="node5" class="node">
<title>LinkModule</title>
<polygon fill="#8dd3c7" stroke="#000000" points="225.993,-122 222.993,-126 201.993,-126 198.993,-122 140.007,-122 140.007,-86 225.993,-86 225.993,-122"/>
<text text-anchor="middle" x="183" y="-99.8" font-family="Times,serif" font-size="14.00" fill="#000000">LinkModule</text>
</g>
<!-- LinkModule&#45;&gt;BackendNavigationModule -->
<g id="edge4" class="edge">
<title>LinkModule&#45;&gt;BackendNavigationModule</title>
<path fill="none" stroke="#000000" d="M213.3138,-122.1061C213.3138,-122.1061 213.3138,-140.991 213.3138,-140.991"/>
<polygon fill="#000000" stroke="#000000" points="209.8139,-140.9909 213.3138,-150.991 216.8139,-140.991 209.8139,-140.9909"/>
</g>
<!-- SharedModule -->
<g id="node6" class="node">
<title>SharedModule</title>
<polygon fill="#8dd3c7" stroke="#000000" points="122.4231,-122 119.4231,-126 98.4231,-126 95.4231,-122 23.5769,-122 23.5769,-86 122.4231,-86 122.4231,-122"/>
<text text-anchor="middle" x="73" y="-99.8" font-family="Times,serif" font-size="14.00" fill="#000000">SharedModule</text>
</g>
<!-- SharedModule&#45;&gt;BackendNavigationModule -->
<g id="edge5" class="edge">
<title>SharedModule&#45;&gt;BackendNavigationModule</title>
<path fill="none" stroke="#000000" d="M73,-122.1061C73,-141.3391 73,-169 73,-169 73,-169 190.592,-169 190.592,-169"/>
<polygon fill="#000000" stroke="#000000" points="190.5921,-172.5001 200.592,-169 190.592,-165.5001 190.5921,-172.5001"/>
</g>
</g>
</svg>
