<?xml version="1.0" encoding="UTF-8" standalone="no"?>
<!DOCTYPE svg PUBLIC "-//W3C//DTD SVG 1.1//EN"
 "http://www.w3.org/Graphics/SVG/1.1/DTD/svg11.dtd">
<!-- Generated by graphviz version 2.40.1 (20161225.0304)
 -->
<!-- Title: dependencies Pages: 1 -->
<svg width="576pt" height="284pt"
 viewBox="0.00 0.00 576.00 284.00" xmlns="http://www.w3.org/2000/svg" xmlns:xlink="http://www.w3.org/1999/xlink">
<g id="graph0" class="graph" transform="scale(1 1) rotate(0) translate(4 280)">
<title>dependencies</title>
<polygon fill="#ffffff" stroke="transparent" points="-4,4 -4,-280 572,-280 572,4 -4,4"/>
<text text-anchor="start" x="263.0091" y="-42.4" font-family="sans-serif" font-weight="bold" font-size="14.00" fill="#000000">Legend</text>
<polygon fill="#ffffb3" stroke="transparent" points="50,-10 50,-30 70,-30 70,-10 50,-10"/>
<text text-anchor="start" x="73.629" y="-15.4" font-family="sans-serif" font-size="14.00" fill="#000000"> &#160;Declarations</text>
<polygon fill="#8dd3c7" stroke="transparent" points="163,-10 163,-30 183,-30 183,-10 163,-10"/>
<text text-anchor="start" x="186.7251" y="-15.4" font-family="sans-serif" font-size="14.00" fill="#000000"> &#160;Module</text>
<polygon fill="#80b1d3" stroke="transparent" points="249,-10 249,-30 269,-30 269,-10 249,-10"/>
<text text-anchor="start" x="272.7812" y="-15.4" font-family="sans-serif" font-size="14.00" fill="#000000"> &#160;Bootstrap</text>
<polygon fill="#fdb462" stroke="transparent" points="346,-10 346,-30 366,-30 366,-10 346,-10"/>
<text text-anchor="start" x="369.6732" y="-15.4" font-family="sans-serif" font-size="14.00" fill="#000000"> &#160;Providers</text>
<polygon fill="#fb8072" stroke="transparent" points="442,-10 442,-30 462,-30 462,-10 442,-10"/>
<text text-anchor="start" x="465.7258" y="-15.4" font-family="sans-serif" font-size="14.00" fill="#000000"> &#160;Exports</text>
<g id="clust1" class="cluster">
<title>cluster_BackendNavigationModule</title>
<polygon fill="none" stroke="#000000" stroke-dasharray="1,5" points="8,-70 8,-268 560,-268 560,-70 8,-70"/>
</g>
<g id="clust2" class="cluster">
<title>cluster_BackendNavigationModule_declarations</title>
<polygon fill="none" stroke="#000000" points="344,-78 344,-130 552,-130 552,-78 344,-78"/>
</g>
<g id="clust4" class="cluster">
<title>cluster_BackendNavigationModule_imports</title>
<polygon fill="none" stroke="#000000" points="16,-78 16,-130 336,-130 336,-78 16,-78"/>
</g>
<g id="clust5" class="cluster">
<title>cluster_BackendNavigationModule_exports</title>
<polygon fill="none" stroke="#000000" points="128,-208 128,-260 340,-260 340,-208 128,-208"/>
</g>
<!-- BackendNavigationComponent -->
<g id="node1" class="node">
<title>BackendNavigationComponent</title>
<polygon fill="#ffffb3" stroke="#000000" points="544.021,-122 351.979,-122 351.979,-86 544.021,-86 544.021,-122"/>
<text text-anchor="middle" x="448" y="-99.8" font-family="Times,serif" font-size="14.00" fill="#000000">BackendNavigationComponent</text>
</g>
<!-- BackendNavigationModule -->
<g id="node2" class="node">
<title>BackendNavigationModule</title>
<polygon fill="#8dd3c7" stroke="#000000" points="319.238,-187 316.238,-191 295.238,-191 292.238,-187 148.762,-187 148.762,-151 319.238,-151 319.238,-187"/>
<text text-anchor="middle" x="234" y="-164.8" font-family="Times,serif" font-size="14.00" fill="#000000">BackendNavigationModule</text>
</g>
<!-- BackendNavigationComponent&#45;&gt;BackendNavigationModule -->
<g id="edge1" class="edge">
<title>BackendNavigationComponent&#45;&gt;BackendNavigationModule</title>
<path fill="none" stroke="#000000" d="M448,-122.1061C448,-141.3391 448,-169 448,-169 448,-169 329.5011,-169 329.5011,-169"/>
<polygon fill="#000000" stroke="#000000" points="329.5011,-165.5001 319.5011,-169 329.501,-172.5001 329.5011,-165.5001"/>
</g>
<!-- BackendNavigationComponent  -->
<g id="node6" class="node">
<title>BackendNavigationComponent </title>
<polygon fill="#fb8072" stroke="#000000" points="332.0204,-252 135.9796,-252 135.9796,-216 332.0204,-216 332.0204,-252"/>
<text text-anchor="middle" x="234" y="-229.8" font-family="Times,serif" font-size="14.00" fill="#000000">BackendNavigationComponent </text>
</g>
<!-- BackendNavigationModule&#45;&gt;BackendNavigationComponent  -->
<g id="edge5" class="edge">
<title>BackendNavigationModule&#45;&gt;BackendNavigationComponent </title>
<path fill="none" stroke="#000000" stroke-dasharray="5,2" d="M234,-187.1061C234,-187.1061 234,-205.991 234,-205.991"/>
<polygon fill="#000000" stroke="#000000" points="230.5001,-205.9909 234,-215.991 237.5001,-205.991 230.5001,-205.9909"/>
</g>
<!-- IconModule -->
<g id="node3" class="node">
<title>IconModule</title>
<polygon fill="#8dd3c7" stroke="#000000" points="328.4261,-122 325.4261,-126 304.4261,-126 301.4261,-122 243.5739,-122 243.5739,-86 328.4261,-86 328.4261,-122"/>
<text text-anchor="middle" x="286" y="-99.8" font-family="Times,serif" font-size="14.00" fill="#000000">IconModule</text>
</g>
<!-- IconModule&#45;&gt;BackendNavigationModule -->
<g id="edge2" class="edge">
<title>IconModule&#45;&gt;BackendNavigationModule</title>
<path fill="none" stroke="#000000" d="M281.5782,-122.1061C281.5782,-122.1061 281.5782,-140.991 281.5782,-140.991"/>
<polygon fill="#000000" stroke="#000000" points="278.0783,-140.9909 281.5782,-150.991 285.0783,-140.991 278.0783,-140.9909"/>
</g>
<!-- LinkModule -->
<g id="node4" class="node">
<title>LinkModule</title>
<polygon fill="#8dd3c7" stroke="#000000" points="225.993,-122 222.993,-126 201.993,-126 198.993,-122 140.007,-122 140.007,-86 225.993,-86 225.993,-122"/>
<text text-anchor="middle" x="183" y="-99.8" font-family="Times,serif" font-size="14.00" fill="#000000">LinkModule</text>
</g>
<!-- LinkModule&#45;&gt;BackendNavigationModule -->
<g id="edge3" class="edge">
<title>LinkModule&#45;&gt;BackendNavigationModule</title>
<path fill="none" stroke="#000000" d="M187.3138,-122.1061C187.3138,-122.1061 187.3138,-140.991 187.3138,-140.991"/>
<polygon fill="#000000" stroke="#000000" points="183.8139,-140.9909 187.3138,-150.991 190.8139,-140.991 183.8139,-140.9909"/>
</g>
<!-- SharedModule -->
<g id="node5" class="node">
<title>SharedModule</title>
<polygon fill="#8dd3c7" stroke="#000000" points="122.4231,-122 119.4231,-126 98.4231,-126 95.4231,-122 23.5769,-122 23.5769,-86 122.4231,-86 122.4231,-122"/>
<text text-anchor="middle" x="73" y="-99.8" font-family="Times,serif" font-size="14.00" fill="#000000">SharedModule</text>
</g>
<!-- SharedModule&#45;&gt;BackendNavigationModule -->
<g id="edge4" class="edge">
<title>SharedModule&#45;&gt;BackendNavigationModule</title>
<path fill="none" stroke="#000000" d="M73,-122.1061C73,-141.3391 73,-169 73,-169 73,-169 138.3147,-169 138.3147,-169"/>
<polygon fill="#000000" stroke="#000000" points="138.3148,-172.5001 148.3147,-169 138.3147,-165.5001 138.3148,-172.5001"/>
</g>
</g>
</svg>
