<?xml version="1.0" encoding="UTF-8" standalone="no"?>
<!DOCTYPE svg PUBLIC "-//W3C//DTD SVG 1.1//EN"
 "http://www.w3.org/Graphics/SVG/1.1/DTD/svg11.dtd">
<!-- Generated by graphviz version 2.40.1 (20161225.0304)
 -->
<!-- Title: dependencies Pages: 1 -->
<svg width="704pt" height="211pt"
 viewBox="0.00 0.00 704.00 211.00" xmlns="http://www.w3.org/2000/svg" xmlns:xlink="http://www.w3.org/1999/xlink">
<g id="graph0" class="graph" transform="scale(1 1) rotate(0) translate(4 207)">
<title>dependencies</title>
<polygon fill="#ffffff" stroke="transparent" points="-4,4 -4,-207 700,-207 700,4 -4,4"/>
<text text-anchor="start" x="327.0091" y="-42.4" font-family="sans-serif" font-weight="bold" font-size="14.00" fill="#000000">Legend</text>
<polygon fill="#ffffb3" stroke="transparent" points="114,-10 114,-30 134,-30 134,-10 114,-10"/>
<text text-anchor="start" x="137.629" y="-15.4" font-family="sans-serif" font-size="14.00" fill="#000000"> &#160;Declarations</text>
<polygon fill="#8dd3c7" stroke="transparent" points="227,-10 227,-30 247,-30 247,-10 227,-10"/>
<text text-anchor="start" x="250.7251" y="-15.4" font-family="sans-serif" font-size="14.00" fill="#000000"> &#160;Module</text>
<polygon fill="#80b1d3" stroke="transparent" points="313,-10 313,-30 333,-30 333,-10 313,-10"/>
<text text-anchor="start" x="336.7812" y="-15.4" font-family="sans-serif" font-size="14.00" fill="#000000"> &#160;Bootstrap</text>
<polygon fill="#fdb462" stroke="transparent" points="410,-10 410,-30 430,-30 430,-10 410,-10"/>
<text text-anchor="start" x="433.6732" y="-15.4" font-family="sans-serif" font-size="14.00" fill="#000000"> &#160;Providers</text>
<polygon fill="#fb8072" stroke="transparent" points="506,-10 506,-30 526,-30 526,-10 506,-10"/>
<text text-anchor="start" x="529.7258" y="-15.4" font-family="sans-serif" font-size="14.00" fill="#000000"> &#160;Exports</text>
<g id="clust1" class="cluster">
<title>cluster_SignOutPageModule</title>
<polygon fill="none" stroke="#000000" stroke-dasharray="1,5" points="8,-70 8,-195 688,-195 688,-70 8,-70"/>
</g>
<g id="clust2" class="cluster">
<title>cluster_SignOutPageModule_declarations</title>
<polygon fill="none" stroke="#000000" points="536,-78 536,-130 680,-130 680,-78 536,-78"/>
</g>
<g id="clust4" class="cluster">
<title>cluster_SignOutPageModule_imports</title>
<polygon fill="none" stroke="#000000" points="16,-78 16,-130 528,-130 528,-78 16,-78"/>
</g>
<!-- SignOutComponent -->
<g id="node1" class="node">
<title>SignOutComponent</title>
<polygon fill="#ffffb3" stroke="#000000" points="672.0028,-122 543.9972,-122 543.9972,-86 672.0028,-86 672.0028,-122"/>
<text text-anchor="middle" x="608" y="-99.8" font-family="Times,serif" font-size="14.00" fill="#000000">SignOutComponent</text>
</g>
<!-- SignOutPageModule -->
<g id="node2" class="node">
<title>SignOutPageModule</title>
<polygon fill="#8dd3c7" stroke="#000000" points="368.9327,-187 365.9327,-191 344.9327,-191 341.9327,-187 235.0673,-187 235.0673,-151 368.9327,-151 368.9327,-187"/>
<text text-anchor="middle" x="302" y="-164.8" font-family="Times,serif" font-size="14.00" fill="#000000">SignOutPageModule</text>
</g>
<!-- SignOutComponent&#45;&gt;SignOutPageModule -->
<g id="edge1" class="edge">
<title>SignOutComponent&#45;&gt;SignOutPageModule</title>
<path fill="none" stroke="#000000" d="M608,-122.1061C608,-141.3391 608,-169 608,-169 608,-169 378.7749,-169 378.7749,-169"/>
<polygon fill="#000000" stroke="#000000" points="378.7749,-165.5001 368.7749,-169 378.7748,-172.5001 378.7749,-165.5001"/>
</g>
<!-- FormElementsModule -->
<g id="node3" class="node">
<title>FormElementsModule</title>
<polygon fill="#8dd3c7" stroke="#000000" points="519.9818,-122 516.9818,-126 495.9818,-126 492.9818,-122 378.0182,-122 378.0182,-86 519.9818,-86 519.9818,-122"/>
<text text-anchor="middle" x="449" y="-99.8" font-family="Times,serif" font-size="14.00" fill="#000000">FormElementsModule</text>
</g>
<!-- FormElementsModule&#45;&gt;SignOutPageModule -->
<g id="edge2" class="edge">
<title>FormElementsModule&#45;&gt;SignOutPageModule</title>
<path fill="none" stroke="#000000" d="M377.8577,-104C369.7039,-104 364.2395,-104 364.2395,-104 364.2395,-104 364.2395,-140.8939 364.2395,-140.8939"/>
<polygon fill="#000000" stroke="#000000" points="360.7396,-140.8938 364.2395,-150.8939 367.7396,-140.8939 360.7396,-140.8938"/>
</g>
<!-- HeadlinesModule -->
<g id="node4" class="node">
<title>HeadlinesModule</title>
<polygon fill="#8dd3c7" stroke="#000000" points="359.527,-122 356.527,-126 335.527,-126 332.527,-122 244.473,-122 244.473,-86 359.527,-86 359.527,-122"/>
<text text-anchor="middle" x="302" y="-99.8" font-family="Times,serif" font-size="14.00" fill="#000000">HeadlinesModule</text>
</g>
<!-- HeadlinesModule&#45;&gt;SignOutPageModule -->
<g id="edge3" class="edge">
<title>HeadlinesModule&#45;&gt;SignOutPageModule</title>
<path fill="none" stroke="#000000" d="M302,-122.1061C302,-122.1061 302,-140.991 302,-140.991"/>
<polygon fill="#000000" stroke="#000000" points="298.5001,-140.9909 302,-150.991 305.5001,-140.991 298.5001,-140.9909"/>
</g>
<!-- LinkModule -->
<g id="node5" class="node">
<title>LinkModule</title>
<polygon fill="#8dd3c7" stroke="#000000" points="225.993,-122 222.993,-126 201.993,-126 198.993,-122 140.007,-122 140.007,-86 225.993,-86 225.993,-122"/>
<text text-anchor="middle" x="183" y="-99.8" font-family="Times,serif" font-size="14.00" fill="#000000">LinkModule</text>
</g>
<!-- LinkModule&#45;&gt;SignOutPageModule -->
<g id="edge4" class="edge">
<title>LinkModule&#45;&gt;SignOutPageModule</title>
<path fill="none" stroke="#000000" d="M226.0204,-104C233.9369,-104 239.7605,-104 239.7605,-104 239.7605,-104 239.7605,-140.8939 239.7605,-140.8939"/>
<polygon fill="#000000" stroke="#000000" points="236.2606,-140.8938 239.7605,-150.8939 243.2606,-140.8939 236.2606,-140.8938"/>
</g>
<!-- SharedModule -->
<g id="node6" class="node">
<title>SharedModule</title>
<polygon fill="#8dd3c7" stroke="#000000" points="122.4231,-122 119.4231,-126 98.4231,-126 95.4231,-122 23.5769,-122 23.5769,-86 122.4231,-86 122.4231,-122"/>
<text text-anchor="middle" x="73" y="-99.8" font-family="Times,serif" font-size="14.00" fill="#000000">SharedModule</text>
</g>
<!-- SharedModule&#45;&gt;SignOutPageModule -->
<g id="edge5" class="edge">
<title>SharedModule&#45;&gt;SignOutPageModule</title>
<path fill="none" stroke="#000000" d="M73,-122.1061C73,-141.3391 73,-169 73,-169 73,-169 225.1481,-169 225.1481,-169"/>
<polygon fill="#000000" stroke="#000000" points="225.1482,-172.5001 235.1481,-169 225.1481,-165.5001 225.1482,-172.5001"/>
</g>
</g>
</svg>
