<?xml version="1.0" encoding="UTF-8" standalone="no"?>
<!DOCTYPE svg PUBLIC "-//W3C//DTD SVG 1.1//EN"
 "http://www.w3.org/Graphics/SVG/1.1/DTD/svg11.dtd">
<!-- Generated by graphviz version 2.40.1 (20161225.0304)
 -->
<!-- Title: dependencies Pages: 1 -->
<svg width="2361pt" height="284pt"
 viewBox="0.00 0.00 2361.00 284.00" xmlns="http://www.w3.org/2000/svg" xmlns:xlink="http://www.w3.org/1999/xlink">
<g id="graph0" class="graph" transform="scale(1 1) rotate(0) translate(4 280)">
<title>dependencies</title>
<polygon fill="#ffffff" stroke="transparent" points="-4,4 -4,-280 2357,-280 2357,4 -4,4"/>
<text text-anchor="start" x="1155.5091" y="-42.4" font-family="sans-serif" font-weight="bold" font-size="14.00" fill="#000000">Legend</text>
<polygon fill="#ffffb3" stroke="transparent" points="942.5,-10 942.5,-30 962.5,-30 962.5,-10 942.5,-10"/>
<text text-anchor="start" x="966.129" y="-15.4" font-family="sans-serif" font-size="14.00" fill="#000000"> &#160;Declarations</text>
<polygon fill="#8dd3c7" stroke="transparent" points="1055.5,-10 1055.5,-30 1075.5,-30 1075.5,-10 1055.5,-10"/>
<text text-anchor="start" x="1079.2251" y="-15.4" font-family="sans-serif" font-size="14.00" fill="#000000"> &#160;Module</text>
<polygon fill="#80b1d3" stroke="transparent" points="1141.5,-10 1141.5,-30 1161.5,-30 1161.5,-10 1141.5,-10"/>
<text text-anchor="start" x="1165.2812" y="-15.4" font-family="sans-serif" font-size="14.00" fill="#000000"> &#160;Bootstrap</text>
<polygon fill="#fdb462" stroke="transparent" points="1238.5,-10 1238.5,-30 1258.5,-30 1258.5,-10 1238.5,-10"/>
<text text-anchor="start" x="1262.1732" y="-15.4" font-family="sans-serif" font-size="14.00" fill="#000000"> &#160;Providers</text>
<polygon fill="#fb8072" stroke="transparent" points="1334.5,-10 1334.5,-30 1354.5,-30 1354.5,-10 1334.5,-10"/>
<text text-anchor="start" x="1358.2258" y="-15.4" font-family="sans-serif" font-size="14.00" fill="#000000"> &#160;Exports</text>
<g id="clust1" class="cluster">
<title>cluster_FormElementsModule</title>
<polygon fill="none" stroke="#000000" stroke-dasharray="1,5" points="8,-70 8,-268 2345,-268 2345,-70 8,-70"/>
</g>
<g id="clust2" class="cluster">
<title>cluster_FormElementsModule_declarations</title>
<polygon fill="none" stroke="#000000" points="240,-78 240,-130 2337,-130 2337,-78 240,-78"/>
</g>
<g id="clust17" class="cluster">
<title>cluster_FormElementsModule_imports</title>
<polygon fill="none" stroke="#000000" points="16,-78 16,-130 232,-130 232,-78 16,-78"/>
</g>
<g id="clust18" class="cluster">
<title>cluster_FormElementsModule_exports</title>
<polygon fill="none" stroke="#000000" points="73,-208 73,-260 2217,-260 2217,-208 73,-208"/>
</g>
<!-- FButtonComponent -->
<g id="node1" class="node">
<title>FButtonComponent</title>
<polygon fill="#ffffb3" stroke="#000000" points="2328.733,-122 2201.267,-122 2201.267,-86 2328.733,-86 2328.733,-122"/>
<text text-anchor="middle" x="2265" y="-99.8" font-family="Times,serif" font-size="14.00" fill="#000000">FButtonComponent</text>
</g>
<!-- FormElementsModule -->
<g id="node15" class="node">
<title>FormElementsModule</title>
<polygon fill="#8dd3c7" stroke="#000000" points="1204.9818,-187 1201.9818,-191 1180.9818,-191 1177.9818,-187 1063.0182,-187 1063.0182,-151 1204.9818,-151 1204.9818,-187"/>
<text text-anchor="middle" x="1134" y="-164.8" font-family="Times,serif" font-size="14.00" fill="#000000">FormElementsModule</text>
</g>
<!-- FButtonComponent&#45;&gt;FormElementsModule -->
<g id="edge1" class="edge">
<title>FButtonComponent&#45;&gt;FormElementsModule</title>
<path fill="none" stroke="#000000" d="M2205.375,-122.1061C2205.375,-141.3391 2205.375,-169 2205.375,-169 2205.375,-169 1215.1256,-169 1215.1256,-169"/>
<polygon fill="#000000" stroke="#000000" points="1215.1257,-165.5001 1205.1256,-169 1215.1256,-172.5001 1215.1257,-165.5001"/>
</g>
<!-- FCheckboxComponent -->
<g id="node2" class="node">
<title>FCheckboxComponent</title>
<polygon fill="#ffffb3" stroke="#000000" points="2182.8808,-122 2037.1192,-122 2037.1192,-86 2182.8808,-86 2182.8808,-122"/>
<text text-anchor="middle" x="2110" y="-99.8" font-family="Times,serif" font-size="14.00" fill="#000000">FCheckboxComponent</text>
</g>
<!-- FCheckboxComponent&#45;&gt;FormElementsModule -->
<g id="edge2" class="edge">
<title>FCheckboxComponent&#45;&gt;FormElementsModule</title>
<path fill="none" stroke="#000000" d="M2048.875,-122.2222C2048.875,-140.8285 2048.875,-167 2048.875,-167 2048.875,-167 1215.0274,-167 1215.0274,-167"/>
<polygon fill="#000000" stroke="#000000" points="1215.0275,-163.5001 1205.0274,-167 1215.0274,-170.5001 1215.0275,-163.5001"/>
</g>
<!-- FColumnComponent -->
<g id="node3" class="node">
<title>FColumnComponent</title>
<polygon fill="#ffffb3" stroke="#000000" points="2019.233,-122 1884.767,-122 1884.767,-86 2019.233,-86 2019.233,-122"/>
<text text-anchor="middle" x="1952" y="-99.8" font-family="Times,serif" font-size="14.00" fill="#000000">FColumnComponent</text>
</g>
<!-- FColumnComponent&#45;&gt;FormElementsModule -->
<g id="edge3" class="edge">
<title>FColumnComponent&#45;&gt;FormElementsModule</title>
<path fill="none" stroke="#000000" d="M1888.875,-122.002C1888.875,-139.6754 1888.875,-164 1888.875,-164 1888.875,-164 1215.0168,-164 1215.0168,-164"/>
<polygon fill="#000000" stroke="#000000" points="1215.0168,-160.5001 1205.0168,-164 1215.0168,-167.5001 1215.0168,-160.5001"/>
</g>
<!-- FDateComponent -->
<g id="node4" class="node">
<title>FDateComponent</title>
<polygon fill="#ffffb3" stroke="#000000" points="1866.5423,-122 1751.4577,-122 1751.4577,-86 1866.5423,-86 1866.5423,-122"/>
<text text-anchor="middle" x="1809" y="-99.8" font-family="Times,serif" font-size="14.00" fill="#000000">FDateComponent</text>
</g>
<!-- FDateComponent&#45;&gt;FormElementsModule -->
<g id="edge4" class="edge">
<title>FDateComponent&#45;&gt;FormElementsModule</title>
<path fill="none" stroke="#000000" d="M1829.5583,-122.0336C1829.5583,-139.0597 1829.5583,-162 1829.5583,-162 1829.5583,-162 1215.1682,-162 1215.1682,-162"/>
<polygon fill="#000000" stroke="#000000" points="1215.1682,-158.5001 1205.1682,-162 1215.1682,-165.5001 1215.1682,-158.5001"/>
</g>
<!-- FEmailComponent -->
<g id="node5" class="node">
<title>FEmailComponent</title>
<polygon fill="#ffffb3" stroke="#000000" points="1733.0548,-122 1610.9452,-122 1610.9452,-86 1733.0548,-86 1733.0548,-122"/>
<text text-anchor="middle" x="1672" y="-99.8" font-family="Times,serif" font-size="14.00" fill="#000000">FEmailComponent</text>
</g>
<!-- FEmailComponent&#45;&gt;FormElementsModule -->
<g id="edge5" class="edge">
<title>FEmailComponent&#45;&gt;FormElementsModule</title>
<path fill="none" stroke="#000000" d="M1614.6012,-122.0091C1614.6012,-138.0494 1614.6012,-159 1614.6012,-159 1614.6012,-159 1215.1729,-159 1215.1729,-159"/>
<polygon fill="#000000" stroke="#000000" points="1215.173,-155.5001 1205.1729,-159 1215.1729,-162.5001 1215.173,-155.5001"/>
</g>
<!-- FErrorComponent -->
<g id="node6" class="node">
<title>FErrorComponent</title>
<polygon fill="#ffffb3" stroke="#000000" points="1592.1499,-122 1473.8501,-122 1473.8501,-86 1592.1499,-86 1592.1499,-122"/>
<text text-anchor="middle" x="1533" y="-99.8" font-family="Times,serif" font-size="14.00" fill="#000000">FErrorComponent</text>
</g>
<!-- FErrorComponent&#45;&gt;FormElementsModule -->
<g id="edge6" class="edge">
<title>FErrorComponent&#45;&gt;FormElementsModule</title>
<path fill="none" stroke="#000000" d="M1552.8741,-122.2396C1552.8741,-137.5706 1552.8741,-157 1552.8741,-157 1552.8741,-157 1215.0563,-157 1215.0563,-157"/>
<polygon fill="#000000" stroke="#000000" points="1215.0563,-153.5001 1205.0563,-157 1215.0563,-160.5001 1215.0563,-153.5001"/>
</g>
<!-- FExplanationComponent -->
<g id="node7" class="node">
<title>FExplanationComponent</title>
<polygon fill="#ffffb3" stroke="#000000" points="1455.2688,-122 1298.7312,-122 1298.7312,-86 1455.2688,-86 1455.2688,-122"/>
<text text-anchor="middle" x="1377" y="-99.8" font-family="Times,serif" font-size="14.00" fill="#000000">FExplanationComponent</text>
</g>
<!-- FExplanationComponent&#45;&gt;FormElementsModule -->
<g id="edge7" class="edge">
<title>FExplanationComponent&#45;&gt;FormElementsModule</title>
<path fill="none" stroke="#000000" d="M1307.375,-122.0511C1307.375,-136.373 1307.375,-154 1307.375,-154 1307.375,-154 1215.0185,-154 1215.0185,-154"/>
<polygon fill="#000000" stroke="#000000" points="1215.0185,-150.5001 1205.0185,-154 1215.0185,-157.5001 1215.0185,-150.5001"/>
</g>
<!-- FInputComponent -->
<g id="node8" class="node">
<title>FInputComponent</title>
<polygon fill="#ffffb3" stroke="#000000" points="1280.1667,-122 1161.8333,-122 1161.8333,-86 1280.1667,-86 1280.1667,-122"/>
<text text-anchor="middle" x="1221" y="-99.8" font-family="Times,serif" font-size="14.00" fill="#000000">FInputComponent</text>
</g>
<!-- FInputComponent&#45;&gt;FormElementsModule -->
<g id="edge8" class="edge">
<title>FInputComponent&#45;&gt;FormElementsModule</title>
<path fill="none" stroke="#000000" d="M1183.3289,-122.1061C1183.3289,-122.1061 1183.3289,-140.991 1183.3289,-140.991"/>
<polygon fill="#000000" stroke="#000000" points="1179.829,-140.9909 1183.3289,-150.991 1186.829,-140.991 1179.829,-140.9909"/>
</g>
<!-- FPasswordComponent -->
<g id="node9" class="node">
<title>FPasswordComponent</title>
<polygon fill="#ffffb3" stroke="#000000" points="1143.2688,-122 1000.7312,-122 1000.7312,-86 1143.2688,-86 1143.2688,-122"/>
<text text-anchor="middle" x="1072" y="-99.8" font-family="Times,serif" font-size="14.00" fill="#000000">FPasswordComponent</text>
</g>
<!-- FPasswordComponent&#45;&gt;FormElementsModule -->
<g id="edge9" class="edge">
<title>FPasswordComponent&#45;&gt;FormElementsModule</title>
<path fill="none" stroke="#000000" d="M1103.1967,-122.1061C1103.1967,-122.1061 1103.1967,-140.991 1103.1967,-140.991"/>
<polygon fill="#000000" stroke="#000000" points="1099.6968,-140.9909 1103.1967,-150.991 1106.6968,-140.991 1099.6968,-140.9909"/>
</g>
<!-- FPhoneComponent -->
<g id="node10" class="node">
<title>FPhoneComponent</title>
<polygon fill="#ffffb3" stroke="#000000" points="983.1123,-122 858.8877,-122 858.8877,-86 983.1123,-86 983.1123,-122"/>
<text text-anchor="middle" x="921" y="-99.8" font-family="Times,serif" font-size="14.00" fill="#000000">FPhoneComponent</text>
</g>
<!-- FPhoneComponent&#45;&gt;FormElementsModule -->
<g id="edge10" class="edge">
<title>FPhoneComponent&#45;&gt;FormElementsModule</title>
<path fill="none" stroke="#000000" d="M921,-122.0511C921,-136.373 921,-154 921,-154 921,-154 1052.778,-154 1052.778,-154"/>
<polygon fill="#000000" stroke="#000000" points="1052.778,-157.5001 1062.778,-154 1052.7779,-150.5001 1052.778,-157.5001"/>
</g>
<!-- FRadiobuttonComponent -->
<g id="node11" class="node">
<title>FRadiobuttonComponent</title>
<polygon fill="#ffffb3" stroke="#000000" points="841.3384,-122 682.6616,-122 682.6616,-86 841.3384,-86 841.3384,-122"/>
<text text-anchor="middle" x="762" y="-99.8" font-family="Times,serif" font-size="14.00" fill="#000000">FRadiobuttonComponent</text>
</g>
<!-- FRadiobuttonComponent&#45;&gt;FormElementsModule -->
<g id="edge11" class="edge">
<title>FRadiobuttonComponent&#45;&gt;FormElementsModule</title>
<path fill="none" stroke="#000000" d="M837.4876,-122.2396C837.4876,-137.5706 837.4876,-157 837.4876,-157 837.4876,-157 1052.9779,-157 1052.9779,-157"/>
<polygon fill="#000000" stroke="#000000" points="1052.9779,-160.5001 1062.9779,-157 1052.9778,-153.5001 1052.9779,-160.5001"/>
</g>
<!-- FRowComponent -->
<g id="node12" class="node">
<title>FRowComponent</title>
<polygon fill="#ffffb3" stroke="#000000" points="664.559,-122 549.441,-122 549.441,-86 664.559,-86 664.559,-122"/>
<text text-anchor="middle" x="607" y="-99.8" font-family="Times,serif" font-size="14.00" fill="#000000">FRowComponent</text>
</g>
<!-- FRowComponent&#45;&gt;FormElementsModule -->
<g id="edge12" class="edge">
<title>FRowComponent&#45;&gt;FormElementsModule</title>
<path fill="none" stroke="#000000" d="M607,-122.0091C607,-138.0494 607,-159 607,-159 607,-159 1052.9264,-159 1052.9264,-159"/>
<polygon fill="#000000" stroke="#000000" points="1052.9265,-162.5001 1062.9264,-159 1052.9264,-155.5001 1052.9265,-162.5001"/>
</g>
<!-- FSelectComponent -->
<g id="node13" class="node">
<title>FSelectComponent</title>
<polygon fill="#ffffb3" stroke="#000000" points="531.823,-122 408.177,-122 408.177,-86 531.823,-86 531.823,-122"/>
<text text-anchor="middle" x="470" y="-99.8" font-family="Times,serif" font-size="14.00" fill="#000000">FSelectComponent</text>
</g>
<!-- FSelectComponent&#45;&gt;FormElementsModule -->
<g id="edge13" class="edge">
<title>FSelectComponent&#45;&gt;FormElementsModule</title>
<path fill="none" stroke="#000000" d="M517.305,-122.0336C517.305,-139.0597 517.305,-162 517.305,-162 517.305,-162 1052.9563,-162 1052.9563,-162"/>
<polygon fill="#000000" stroke="#000000" points="1052.9563,-165.5001 1062.9563,-162 1052.9562,-158.5001 1052.9563,-165.5001"/>
</g>
<!-- FTextAreaComponent -->
<g id="node14" class="node">
<title>FTextAreaComponent</title>
<polygon fill="#ffffb3" stroke="#000000" points="389.9692,-122 248.0308,-122 248.0308,-86 389.9692,-86 389.9692,-122"/>
<text text-anchor="middle" x="319" y="-99.8" font-family="Times,serif" font-size="14.00" fill="#000000">FTextAreaComponent</text>
</g>
<!-- FTextAreaComponent&#45;&gt;FormElementsModule -->
<g id="edge14" class="edge">
<title>FTextAreaComponent&#45;&gt;FormElementsModule</title>
<path fill="none" stroke="#000000" d="M380.4411,-122.002C380.4411,-139.6754 380.4411,-164 380.4411,-164 380.4411,-164 1052.7677,-164 1052.7677,-164"/>
<polygon fill="#000000" stroke="#000000" points="1052.7677,-167.5001 1062.7677,-164 1052.7676,-160.5001 1052.7677,-167.5001"/>
</g>
<!-- FButtonComponent  -->
<g id="node18" class="node">
<title>FButtonComponent </title>
<polygon fill="#fb8072" stroke="#000000" points="2209.2331,-252 2078.7669,-252 2078.7669,-216 2209.2331,-216 2209.2331,-252"/>
<text text-anchor="middle" x="2144" y="-229.8" font-family="Times,serif" font-size="14.00" fill="#000000">FButtonComponent </text>
</g>
<!-- FormElementsModule&#45;&gt;FButtonComponent  -->
<g id="edge17" class="edge">
<title>FormElementsModule&#45;&gt;FButtonComponent </title>
<path fill="none" stroke="#000000" stroke-dasharray="5,2" d="M1205.2864,-172C1433.4268,-172 2130.787,-172 2130.787,-172 2130.787,-172 2130.787,-205.7333 2130.787,-205.7333"/>
<polygon fill="#000000" stroke="#000000" points="2127.2871,-205.7333 2130.787,-215.7333 2134.2871,-205.7333 2127.2871,-205.7333"/>
</g>
<!-- FCheckboxComponent  -->
<g id="node19" class="node">
<title>FCheckboxComponent </title>
<polygon fill="#fb8072" stroke="#000000" points="2060.8813,-252 1911.1187,-252 1911.1187,-216 2060.8813,-216 2060.8813,-252"/>
<text text-anchor="middle" x="1986" y="-229.8" font-family="Times,serif" font-size="14.00" fill="#000000">FCheckboxComponent </text>
</g>
<!-- FormElementsModule&#45;&gt;FCheckboxComponent  -->
<g id="edge18" class="edge">
<title>FormElementsModule&#45;&gt;FCheckboxComponent </title>
<path fill="none" stroke="#000000" stroke-dasharray="5,2" d="M1205.2281,-175C1406.545,-175 1965.213,-175 1965.213,-175 1965.213,-175 1965.213,-205.9775 1965.213,-205.9775"/>
<polygon fill="#000000" stroke="#000000" points="1961.7131,-205.9774 1965.213,-215.9775 1968.7131,-205.9775 1961.7131,-205.9774"/>
</g>
<!-- FColumnComponent  -->
<g id="node20" class="node">
<title>FColumnComponent </title>
<polygon fill="#fb8072" stroke="#000000" points="1892.7331,-252 1755.2669,-252 1755.2669,-216 1892.7331,-216 1892.7331,-252"/>
<text text-anchor="middle" x="1824" y="-229.8" font-family="Times,serif" font-size="14.00" fill="#000000">FColumnComponent </text>
</g>
<!-- FormElementsModule&#45;&gt;FColumnComponent  -->
<g id="edge19" class="edge">
<title>FormElementsModule&#45;&gt;FColumnComponent </title>
<path fill="none" stroke="#000000" stroke-dasharray="5,2" d="M1205.0801,-177C1375.3139,-177 1792.346,-177 1792.346,-177 1792.346,-177 1792.346,-205.9648 1792.346,-205.9648"/>
<polygon fill="#000000" stroke="#000000" points="1788.8461,-205.9648 1792.346,-215.9648 1795.8461,-205.9649 1788.8461,-205.9648"/>
</g>
<!-- FDateComponent  -->
<g id="node21" class="node">
<title>FDateComponent </title>
<polygon fill="#fb8072" stroke="#000000" points="1737.5414,-252 1618.4586,-252 1618.4586,-216 1737.5414,-216 1737.5414,-252"/>
<text text-anchor="middle" x="1678" y="-229.8" font-family="Times,serif" font-size="14.00" fill="#000000">FDateComponent </text>
</g>
<!-- FormElementsModule&#45;&gt;FDateComponent  -->
<g id="edge20" class="edge">
<title>FormElementsModule&#45;&gt;FDateComponent </title>
<path fill="none" stroke="#000000" stroke-dasharray="5,2" d="M1205.1195,-180C1352.1328,-180 1675.8782,-180 1675.8782,-180 1675.8782,-180 1675.8782,-205.7181 1675.8782,-205.7181"/>
<polygon fill="#000000" stroke="#000000" points="1672.3782,-205.718 1675.8782,-215.7181 1679.3782,-205.7181 1672.3782,-205.718"/>
</g>
<!-- FEmailComponent  -->
<g id="node22" class="node">
<title>FEmailComponent </title>
<polygon fill="#fb8072" stroke="#000000" points="1600.054,-252 1473.946,-252 1473.946,-216 1600.054,-216 1600.054,-252"/>
<text text-anchor="middle" x="1537" y="-229.8" font-family="Times,serif" font-size="14.00" fill="#000000">FEmailComponent </text>
</g>
<!-- FormElementsModule&#45;&gt;FEmailComponent  -->
<g id="edge21" class="edge">
<title>FormElementsModule&#45;&gt;FEmailComponent </title>
<path fill="none" stroke="#000000" stroke-dasharray="5,2" d="M1205.3667,-182C1315.2764,-182 1513.4236,-182 1513.4236,-182 1513.4236,-182 1513.4236,-205.8129 1513.4236,-205.8129"/>
<polygon fill="#000000" stroke="#000000" points="1509.9237,-205.8129 1513.4236,-215.8129 1516.9237,-205.813 1509.9237,-205.8129"/>
</g>
<!-- FErrorComponent  -->
<g id="node23" class="node">
<title>FErrorComponent </title>
<polygon fill="#fb8072" stroke="#000000" points="1456.1495,-252 1333.8505,-252 1333.8505,-216 1456.1495,-216 1456.1495,-252"/>
<text text-anchor="middle" x="1395" y="-229.8" font-family="Times,serif" font-size="14.00" fill="#000000">FErrorComponent </text>
</g>
<!-- FormElementsModule&#45;&gt;FErrorComponent  -->
<g id="edge22" class="edge">
<title>FormElementsModule&#45;&gt;FErrorComponent </title>
<path fill="none" stroke="#000000" stroke-dasharray="5,2" d="M1205.2251,-185C1282.4001,-185 1394.6548,-185 1394.6548,-185 1394.6548,-185 1394.6548,-205.7542 1394.6548,-205.7542"/>
<polygon fill="#000000" stroke="#000000" points="1391.1549,-205.7542 1394.6548,-215.7542 1398.1549,-205.7542 1391.1549,-205.7542"/>
</g>
<!-- FExplanationComponent  -->
<g id="node24" class="node">
<title>FExplanationComponent </title>
<polygon fill="#fb8072" stroke="#000000" points="1316.2688,-252 1155.7312,-252 1155.7312,-216 1316.2688,-216 1316.2688,-252"/>
<text text-anchor="middle" x="1236" y="-229.8" font-family="Times,serif" font-size="14.00" fill="#000000">FExplanationComponent </text>
</g>
<!-- FormElementsModule&#45;&gt;FExplanationComponent  -->
<g id="edge23" class="edge">
<title>FormElementsModule&#45;&gt;FExplanationComponent </title>
<path fill="none" stroke="#000000" stroke-dasharray="5,2" d="M1180.4283,-187.1061C1180.4283,-187.1061 1180.4283,-205.991 1180.4283,-205.991"/>
<polygon fill="#000000" stroke="#000000" points="1176.9284,-205.9909 1180.4283,-215.991 1183.9284,-205.991 1176.9284,-205.9909"/>
</g>
<!-- FInputComponent  -->
<g id="node25" class="node">
<title>FInputComponent </title>
<polygon fill="#fb8072" stroke="#000000" points="1138.1663,-252 1015.8337,-252 1015.8337,-216 1138.1663,-216 1138.1663,-252"/>
<text text-anchor="middle" x="1077" y="-229.8" font-family="Times,serif" font-size="14.00" fill="#000000">FInputComponent </text>
</g>
<!-- FormElementsModule&#45;&gt;FInputComponent  -->
<g id="edge24" class="edge">
<title>FormElementsModule&#45;&gt;FInputComponent </title>
<path fill="none" stroke="#000000" stroke-dasharray="5,2" d="M1100.5461,-187.1061C1100.5461,-187.1061 1100.5461,-205.991 1100.5461,-205.991"/>
<polygon fill="#000000" stroke="#000000" points="1097.0462,-205.9909 1100.5461,-215.991 1104.0462,-205.991 1097.0462,-205.9909"/>
</g>
<!-- FPasswordComponent  -->
<g id="node26" class="node">
<title>FPasswordComponent </title>
<polygon fill="#fb8072" stroke="#000000" points="998.2688,-252 851.7312,-252 851.7312,-216 998.2688,-216 998.2688,-252"/>
<text text-anchor="middle" x="925" y="-229.8" font-family="Times,serif" font-size="14.00" fill="#000000">FPasswordComponent </text>
</g>
<!-- FormElementsModule&#45;&gt;FPasswordComponent  -->
<g id="edge25" class="edge">
<title>FormElementsModule&#45;&gt;FPasswordComponent </title>
<path fill="none" stroke="#000000" stroke-dasharray="5,2" d="M1062.7177,-185C1026.727,-185 990.5952,-185 990.5952,-185 990.5952,-185 990.5952,-205.7542 990.5952,-205.7542"/>
<polygon fill="#000000" stroke="#000000" points="987.0953,-205.7542 990.5952,-215.7542 994.0953,-205.7542 987.0953,-205.7542"/>
</g>
<!-- FPhoneComponent  -->
<g id="node27" class="node">
<title>FPhoneComponent </title>
<polygon fill="#fb8072" stroke="#000000" points="833.6128,-252 706.3872,-252 706.3872,-216 833.6128,-216 833.6128,-252"/>
<text text-anchor="middle" x="770" y="-229.8" font-family="Times,serif" font-size="14.00" fill="#000000">FPhoneComponent </text>
</g>
<!-- FormElementsModule&#45;&gt;FPhoneComponent  -->
<g id="edge26" class="edge">
<title>FormElementsModule&#45;&gt;FPhoneComponent </title>
<path fill="none" stroke="#000000" stroke-dasharray="5,2" d="M1062.953,-182C957.0224,-182 770,-182 770,-182 770,-182 770,-205.8129 770,-205.8129"/>
<polygon fill="#000000" stroke="#000000" points="766.5001,-205.8129 770,-215.8129 773.5001,-205.813 766.5001,-205.8129"/>
</g>
<!-- FRadiobuttonComponent  -->
<g id="node28" class="node">
<title>FRadiobuttonComponent </title>
<polygon fill="#fb8072" stroke="#000000" points="687.8381,-252 526.1619,-252 526.1619,-216 687.8381,-216 687.8381,-252"/>
<text text-anchor="middle" x="607" y="-229.8" font-family="Times,serif" font-size="14.00" fill="#000000">FRadiobuttonComponent </text>
</g>
<!-- FormElementsModule&#45;&gt;FRadiobuttonComponent  -->
<g id="edge27" class="edge">
<title>FormElementsModule&#45;&gt;FRadiobuttonComponent </title>
<path fill="none" stroke="#000000" stroke-dasharray="5,2" d="M1062.8514,-180C933.6769,-180 673.805,-180 673.805,-180 673.805,-180 673.805,-205.7181 673.805,-205.7181"/>
<polygon fill="#000000" stroke="#000000" points="670.3051,-205.718 673.805,-215.7181 677.3051,-205.7181 670.3051,-205.718"/>
</g>
<!-- FRowComponent  -->
<g id="node29" class="node">
<title>FRowComponent </title>
<polygon fill="#fb8072" stroke="#000000" points="508.5582,-252 389.4418,-252 389.4418,-216 508.5582,-216 508.5582,-252"/>
<text text-anchor="middle" x="449" y="-229.8" font-family="Times,serif" font-size="14.00" fill="#000000">FRowComponent </text>
</g>
<!-- FormElementsModule&#45;&gt;FRowComponent  -->
<g id="edge28" class="edge">
<title>FormElementsModule&#45;&gt;FRowComponent </title>
<path fill="none" stroke="#000000" stroke-dasharray="5,2" d="M1062.9794,-177C889.5304,-177 458.4339,-177 458.4339,-177 458.4339,-177 458.4339,-205.9648 458.4339,-205.9648"/>
<polygon fill="#000000" stroke="#000000" points="454.934,-205.9648 458.4339,-215.9648 461.934,-205.9649 454.934,-205.9648"/>
</g>
<!-- FSelectComponent  -->
<g id="node30" class="node">
<title>FSelectComponent </title>
<polygon fill="#fb8072" stroke="#000000" points="371.3227,-252 244.6773,-252 244.6773,-216 371.3227,-216 371.3227,-252"/>
<text text-anchor="middle" x="308" y="-229.8" font-family="Times,serif" font-size="14.00" fill="#000000">FSelectComponent </text>
</g>
<!-- FormElementsModule&#45;&gt;FSelectComponent  -->
<g id="edge29" class="edge">
<title>FormElementsModule&#45;&gt;FSelectComponent </title>
<path fill="none" stroke="#000000" stroke-dasharray="5,2" d="M1063.0084,-175C863.0664,-175 309.7134,-175 309.7134,-175 309.7134,-175 309.7134,-205.9775 309.7134,-205.9775"/>
<polygon fill="#000000" stroke="#000000" points="306.2134,-205.9774 309.7134,-215.9775 313.2134,-205.9775 306.2134,-205.9774"/>
</g>
<!-- FTextAreaComponent  -->
<g id="node31" class="node">
<title>FTextAreaComponent </title>
<polygon fill="#fb8072" stroke="#000000" points="226.97,-252 81.03,-252 81.03,-216 226.97,-216 226.97,-252"/>
<text text-anchor="middle" x="154" y="-229.8" font-family="Times,serif" font-size="14.00" fill="#000000">FTextAreaComponent </text>
</g>
<!-- FormElementsModule&#45;&gt;FTextAreaComponent  -->
<g id="edge30" class="edge">
<title>FormElementsModule&#45;&gt;FTextAreaComponent </title>
<path fill="none" stroke="#000000" stroke-dasharray="5,2" d="M1062.9625,-172C839.8604,-172 167.9292,-172 167.9292,-172 167.9292,-172 167.9292,-205.7333 167.9292,-205.7333"/>
<polygon fill="#000000" stroke="#000000" points="164.4293,-205.7333 167.9292,-215.7333 171.4293,-205.7333 164.4293,-205.7333"/>
</g>
<!-- IconModule -->
<g id="node16" class="node">
<title>IconModule</title>
<polygon fill="#8dd3c7" stroke="#000000" points="224.4261,-122 221.4261,-126 200.4261,-126 197.4261,-122 139.5739,-122 139.5739,-86 224.4261,-86 224.4261,-122"/>
<text text-anchor="middle" x="182" y="-99.8" font-family="Times,serif" font-size="14.00" fill="#000000">IconModule</text>
</g>
<!-- IconModule&#45;&gt;FormElementsModule -->
<g id="edge15" class="edge">
<title>IconModule&#45;&gt;FormElementsModule</title>
<path fill="none" stroke="#000000" d="M196.0708,-122.2222C196.0708,-140.8285 196.0708,-167 196.0708,-167 196.0708,-167 1052.733,-167 1052.733,-167"/>
<polygon fill="#000000" stroke="#000000" points="1052.7331,-170.5001 1062.733,-167 1052.733,-163.5001 1052.7331,-170.5001"/>
</g>
<!-- SharedModule -->
<g id="node17" class="node">
<title>SharedModule</title>
<polygon fill="#8dd3c7" stroke="#000000" points="122.4231,-122 119.4231,-126 98.4231,-126 95.4231,-122 23.5769,-122 23.5769,-86 122.4231,-86 122.4231,-122"/>
<text text-anchor="middle" x="73" y="-99.8" font-family="Times,serif" font-size="14.00" fill="#000000">SharedModule</text>
</g>
<!-- SharedModule&#45;&gt;FormElementsModule -->
<g id="edge16" class="edge">
<title>SharedModule&#45;&gt;FormElementsModule</title>
<path fill="none" stroke="#000000" d="M101.7382,-122.1061C101.7382,-141.3391 101.7382,-169 101.7383,-169 101.7383,-169 1052.6412,-169 1052.6412,-169"/>
<polygon fill="#000000" stroke="#000000" points="1052.6412,-172.5001 1062.6412,-169 1052.6412,-165.5001 1052.6412,-172.5001"/>
</g>
</g>
</svg>
